<svg width="202" height="431" viewBox="0 0 202 431" fill="none" xmlns="http://www.w3.org/2000/svg">
<rect width="202" height="431" fill="white"/>
<rect y="364" width="202" height="67" fill="#D9D9D9"/>
<rect x="10" y="15" width="157" height="17" fill="#D9D9D9"/>
<rect x="10" y="38" width="42" height="8" fill="#656565"/>
<rect x="149" y="38" width="43" height="8" fill="#D9D9D9"/>
<rect x="79" y="38" width="43" height="8" fill="#D9D9D9"/>
<path d="M20.8864 23.6364C20.8523 23.3485 20.714 23.125 20.4716 22.9659C20.2292 22.8068 19.9318 22.7273 19.5795 22.7273C19.322 22.7273 19.0966 22.7689 18.9034 22.8523C18.7121 22.9356 18.5625 23.0502 18.4545 23.196C18.3485 23.3419 18.2955 23.5076 18.2955 23.6932C18.2955 23.8485 18.3324 23.982 18.4062 24.0938C18.482 24.2036 18.5786 24.2955 18.696 24.3693C18.8134 24.4413 18.9366 24.5009 19.0653 24.5483C19.1941 24.5937 19.3125 24.6307 19.4205 24.6591L20.0114 24.8182C20.1629 24.858 20.3314 24.9129 20.517 24.983C20.7045 25.053 20.8835 25.1487 21.054 25.2699C21.2263 25.3892 21.3684 25.5426 21.4801 25.7301C21.5919 25.9176 21.6477 26.1477 21.6477 26.4205C21.6477 26.7348 21.5653 27.0189 21.4006 27.2727C21.2377 27.5265 20.9991 27.7282 20.6847 27.8778C20.3722 28.0275 19.9924 28.1023 19.5455 28.1023C19.1288 28.1023 18.768 28.035 18.4631 27.9006C18.16 27.7661 17.9214 27.5786 17.7472 27.3381C17.5748 27.0975 17.4773 26.8182 17.4545 26.5H18.1818C18.2008 26.7197 18.2746 26.9015 18.4034 27.0455C18.5341 27.1875 18.6989 27.2936 18.8977 27.3636C19.0985 27.4318 19.3144 27.4659 19.5455 27.4659C19.8144 27.4659 20.0559 27.4223 20.2699 27.3352C20.4839 27.2462 20.6534 27.1231 20.7784 26.9659C20.9034 26.8068 20.9659 26.6212 20.9659 26.4091C20.9659 26.2159 20.9119 26.0587 20.804 25.9375C20.696 25.8163 20.554 25.7178 20.3778 25.642C20.2017 25.5663 20.0114 25.5 19.8068 25.4432L19.0909 25.2386C18.6364 25.108 18.2765 24.9214 18.0114 24.679C17.7462 24.4366 17.6136 24.1193 17.6136 23.7273C17.6136 23.4015 17.7017 23.1174 17.8778 22.875C18.0559 22.6307 18.2945 22.4413 18.5938 22.3068C18.8949 22.1705 19.2311 22.1023 19.6023 22.1023C19.9773 22.1023 20.3106 22.1695 20.6023 22.304C20.8939 22.4366 21.125 22.6184 21.2955 22.8494C21.4678 23.0805 21.5587 23.3428 21.5682 23.6364H20.8864ZM24.5447 28.0909C24.1243 28.0909 23.7616 27.9981 23.4567 27.8125C23.1536 27.625 22.9197 27.3636 22.755 27.0284C22.5921 26.6913 22.5107 26.2992 22.5107 25.8523C22.5107 25.4053 22.5921 25.0114 22.755 24.6705C22.9197 24.3277 23.1489 24.0606 23.4425 23.8693C23.7379 23.6761 24.0826 23.5795 24.4766 23.5795C24.7038 23.5795 24.9283 23.6174 25.1499 23.6932C25.3714 23.7689 25.5732 23.892 25.755 24.0625C25.9368 24.2311 26.0817 24.4545 26.1896 24.733C26.2976 25.0114 26.3516 25.3542 26.3516 25.7614V26.0455H22.9879V25.4659H25.6697C25.6697 25.2197 25.6205 25 25.522 24.8068C25.4254 24.6136 25.2872 24.4612 25.1072 24.3494C24.9292 24.2377 24.719 24.1818 24.4766 24.1818C24.2095 24.1818 23.9785 24.2481 23.7834 24.3807C23.5902 24.5114 23.4415 24.6818 23.3374 24.892C23.2332 25.1023 23.1811 25.3277 23.1811 25.5682V25.9545C23.1811 26.2841 23.2379 26.5634 23.3516 26.7926C23.4671 27.0199 23.6271 27.1932 23.8317 27.3125C24.0362 27.4299 24.2739 27.4886 24.5447 27.4886C24.7209 27.4886 24.88 27.464 25.022 27.4148C25.166 27.3636 25.29 27.2879 25.3942 27.1875C25.4983 27.0852 25.5788 26.9583 25.6357 26.8068L26.2834 26.9886C26.2152 27.2083 26.1006 27.4015 25.9396 27.5682C25.7786 27.733 25.5798 27.8617 25.343 27.9545C25.1063 28.0455 24.8402 28.0909 24.5447 28.0909ZM28.6555 28.1023C28.379 28.1023 28.1281 28.0502 27.9027 27.946C27.6773 27.84 27.4983 27.6875 27.3658 27.4886C27.2332 27.2879 27.1669 27.0455 27.1669 26.7614C27.1669 26.5114 27.2161 26.3087 27.3146 26.1534C27.4131 25.9962 27.5447 25.8731 27.7095 25.7841C27.8743 25.6951 28.0561 25.6288 28.255 25.5852C28.4557 25.5398 28.6574 25.5038 28.8601 25.4773C29.1252 25.4432 29.3402 25.4176 29.505 25.4006C29.6716 25.3816 29.7929 25.3504 29.8686 25.3068C29.9463 25.2633 29.9851 25.1875 29.9851 25.0795V25.0568C29.9851 24.7765 29.9084 24.5587 29.755 24.4034C29.6035 24.2481 29.3733 24.1705 29.0646 24.1705C28.7446 24.1705 28.4936 24.2405 28.3118 24.3807C28.13 24.5208 28.0021 24.6705 27.9283 24.8295L27.2919 24.6023C27.4055 24.3371 27.5571 24.1307 27.7464 23.983C27.9377 23.8333 28.1461 23.7292 28.3714 23.6705C28.5987 23.6098 28.8222 23.5795 29.0419 23.5795C29.1821 23.5795 29.343 23.5966 29.5249 23.6307C29.7086 23.6629 29.8857 23.7301 30.0561 23.8324C30.2285 23.9347 30.3714 24.089 30.4851 24.2955C30.5987 24.5019 30.6555 24.7784 30.6555 25.125V28H29.9851V27.4091H29.951C29.9055 27.5038 29.8298 27.6051 29.7237 27.7131C29.6177 27.821 29.4766 27.9129 29.3004 27.9886C29.1243 28.0644 28.9093 28.1023 28.6555 28.1023ZM28.7578 27.5C29.023 27.5 29.2464 27.4479 29.4283 27.3438C29.612 27.2396 29.7502 27.1051 29.843 26.9403C29.9377 26.7756 29.9851 26.6023 29.9851 26.4205V25.8068C29.9567 25.8409 29.8942 25.8722 29.7976 25.9006C29.7029 25.9271 29.593 25.9508 29.468 25.9716C29.3449 25.9905 29.2247 26.0076 29.1072 26.0227C28.9917 26.036 28.898 26.0473 28.826 26.0568C28.6518 26.0795 28.4889 26.1165 28.3374 26.1676C28.1877 26.2169 28.0665 26.2917 27.9737 26.392C27.8828 26.4905 27.8374 26.625 27.8374 26.7955C27.8374 27.0284 27.9235 27.2045 28.0959 27.3239C28.2701 27.4413 28.4908 27.5 28.7578 27.5ZM31.8793 28V23.6364H32.527V24.2955H32.5724C32.652 24.0795 32.7959 23.9044 33.0043 23.7699C33.2126 23.6354 33.4474 23.5682 33.7088 23.5682C33.758 23.5682 33.8196 23.5691 33.8935 23.571C33.9673 23.5729 34.0232 23.5758 34.0611 23.5795V24.2614C34.0384 24.2557 33.9863 24.2472 33.9048 24.2358C33.8253 24.2225 33.741 24.2159 33.652 24.2159C33.4399 24.2159 33.2505 24.2604 33.0838 24.3494C32.919 24.4366 32.7884 24.5578 32.6918 24.7131C32.5971 24.8665 32.5497 25.0417 32.5497 25.2386V28H31.8793ZM36.4957 28.0909C36.0866 28.0909 35.7344 27.9943 35.4389 27.8011C35.1435 27.608 34.9162 27.3419 34.7571 27.0028C34.598 26.6638 34.5185 26.2765 34.5185 25.8409C34.5185 25.3977 34.5999 25.0066 34.7628 24.6676C34.9276 24.3267 35.1567 24.0606 35.4503 23.8693C35.7457 23.6761 36.0904 23.5795 36.4844 23.5795C36.7912 23.5795 37.0677 23.6364 37.3139 23.75C37.5601 23.8636 37.7618 24.0227 37.919 24.2273C38.0762 24.4318 38.1738 24.6705 38.2116 24.9432H37.5412C37.4901 24.7443 37.3764 24.5682 37.2003 24.4148C37.026 24.2595 36.7912 24.1818 36.4957 24.1818C36.2344 24.1818 36.0052 24.25 35.8082 24.3864C35.6132 24.5208 35.4607 24.7112 35.3509 24.9574C35.2429 25.2017 35.1889 25.4886 35.1889 25.8182C35.1889 26.1553 35.242 26.4489 35.348 26.6989C35.456 26.9489 35.6075 27.143 35.8026 27.2812C35.9995 27.4195 36.2306 27.4886 36.4957 27.4886C36.67 27.4886 36.8281 27.4583 36.9702 27.3977C37.1122 27.3371 37.2325 27.25 37.331 27.1364C37.4295 27.0227 37.4995 26.8864 37.5412 26.7273H38.2116C38.1738 26.9848 38.08 27.2169 37.9304 27.4233C37.7827 27.6278 37.5866 27.7907 37.3423 27.9119C37.0999 28.0312 36.8177 28.0909 36.4957 28.0909ZM39.8622 25.375V28H39.1918V22.1818H39.8622V24.3182H39.919C40.0213 24.0928 40.1747 23.9138 40.3793 23.7812C40.5857 23.6468 40.8603 23.5795 41.2031 23.5795C41.5005 23.5795 41.7609 23.6392 41.9844 23.7585C42.2079 23.8759 42.3812 24.0568 42.5043 24.3011C42.6293 24.5436 42.6918 24.8523 42.6918 25.2273V28H42.0213V25.2727C42.0213 24.9261 41.9313 24.6581 41.7514 24.4688C41.5734 24.2775 41.3262 24.1818 41.0099 24.1818C40.7902 24.1818 40.5933 24.2282 40.419 24.321C40.2467 24.4138 40.1103 24.5492 40.0099 24.7273C39.9115 24.9053 39.8622 25.1212 39.8622 25.375ZM46.2592 28V22.1818H48.2933C48.6986 22.1818 49.0329 22.2519 49.2962 22.392C49.5594 22.5303 49.7554 22.7169 49.8842 22.9517C50.013 23.1847 50.0774 23.4432 50.0774 23.7273C50.0774 23.9773 50.0329 24.1837 49.9439 24.3466C49.8568 24.5095 49.7412 24.6383 49.5973 24.733C49.4553 24.8277 49.3009 24.8977 49.1342 24.9432V25C49.3123 25.0114 49.4912 25.0739 49.6712 25.1875C49.8511 25.3011 50.0017 25.464 50.1229 25.6761C50.2441 25.8883 50.3047 26.1477 50.3047 26.4545C50.3047 26.7462 50.2384 27.0085 50.1058 27.2415C49.9732 27.4744 49.764 27.6591 49.478 27.7955C49.192 27.9318 48.8198 28 48.3615 28H46.2592ZM46.9638 27.375H48.3615C48.8217 27.375 49.1484 27.286 49.3416 27.108C49.5367 26.928 49.6342 26.7102 49.6342 26.4545C49.6342 26.2576 49.584 26.0758 49.4837 25.9091C49.3833 25.7405 49.2403 25.6061 49.0547 25.5057C48.8691 25.4034 48.6494 25.3523 48.3956 25.3523H46.9638V27.375ZM46.9638 24.7386H48.2706C48.4827 24.7386 48.674 24.697 48.8445 24.6136C49.0168 24.5303 49.1532 24.4129 49.2536 24.2614C49.3558 24.1098 49.407 23.9318 49.407 23.7273C49.407 23.4716 49.3179 23.2547 49.1399 23.0767C48.9619 22.8968 48.6797 22.8068 48.2933 22.8068H46.9638V24.7386ZM52.6555 28.1023C52.379 28.1023 52.1281 28.0502 51.9027 27.946C51.6773 27.84 51.4983 27.6875 51.3658 27.4886C51.2332 27.2879 51.1669 27.0455 51.1669 26.7614C51.1669 26.5114 51.2161 26.3087 51.3146 26.1534C51.4131 25.9962 51.5447 25.8731 51.7095 25.7841C51.8743 25.6951 52.0561 25.6288 52.255 25.5852C52.4557 25.5398 52.6574 25.5038 52.8601 25.4773C53.1252 25.4432 53.3402 25.4176 53.505 25.4006C53.6716 25.3816 53.7929 25.3504 53.8686 25.3068C53.9463 25.2633 53.9851 25.1875 53.9851 25.0795V25.0568C53.9851 24.7765 53.9084 24.5587 53.755 24.4034C53.6035 24.2481 53.3733 24.1705 53.0646 24.1705C52.7446 24.1705 52.4936 24.2405 52.3118 24.3807C52.13 24.5208 52.0021 24.6705 51.9283 24.8295L51.2919 24.6023C51.4055 24.3371 51.5571 24.1307 51.7464 23.983C51.9377 23.8333 52.1461 23.7292 52.3714 23.6705C52.5987 23.6098 52.8222 23.5795 53.0419 23.5795C53.1821 23.5795 53.343 23.5966 53.5249 23.6307C53.7086 23.6629 53.8857 23.7301 54.0561 23.8324C54.2285 23.9347 54.3714 24.089 54.4851 24.2955C54.5987 24.5019 54.6555 24.7784 54.6555 25.125V28H53.9851V27.4091H53.951C53.9055 27.5038 53.8298 27.6051 53.7237 27.7131C53.6177 27.821 53.4766 27.9129 53.3004 27.9886C53.1243 28.0644 52.9093 28.1023 52.6555 28.1023ZM52.7578 27.5C53.023 27.5 53.2464 27.4479 53.4283 27.3438C53.612 27.2396 53.7502 27.1051 53.843 26.9403C53.9377 26.7756 53.9851 26.6023 53.9851 26.4205V25.8068C53.9567 25.8409 53.8942 25.8722 53.7976 25.9006C53.7029 25.9271 53.593 25.9508 53.468 25.9716C53.3449 25.9905 53.2247 26.0076 53.1072 26.0227C52.9917 26.036 52.898 26.0473 52.826 26.0568C52.6518 26.0795 52.4889 26.1165 52.3374 26.1676C52.1877 26.2169 52.0665 26.2917 51.9737 26.392C51.8828 26.4905 51.8374 26.625 51.8374 26.7955C51.8374 27.0284 51.9235 27.2045 52.0959 27.3239C52.2701 27.4413 52.4908 27.5 52.7578 27.5ZM55.8793 28V23.6364H56.527V24.2955H56.5724C56.652 24.0795 56.7959 23.9044 57.0043 23.7699C57.2126 23.6354 57.4474 23.5682 57.7088 23.5682C57.758 23.5682 57.8196 23.5691 57.8935 23.571C57.9673 23.5729 58.0232 23.5758 58.0611 23.5795V24.2614C58.0384 24.2557 57.9863 24.2472 57.9048 24.2358C57.8253 24.2225 57.741 24.2159 57.652 24.2159C57.4399 24.2159 57.2505 24.2604 57.0838 24.3494C56.919 24.4366 56.7884 24.5578 56.6918 24.7131C56.5971 24.8665 56.5497 25.0417 56.5497 25.2386V28H55.8793Z" fill="black"/>
<rect x="175" y="15" width="17" height="17" fill="#D9D9D9"/>
<path d="M24.7045 61V55.1818H26.6705C27.1269 55.1818 27.5 55.2642 27.7898 55.429C28.0814 55.5919 28.2973 55.8125 28.4375 56.0909C28.5777 56.3693 28.6477 56.6799 28.6477 57.0227C28.6477 57.3655 28.5777 57.6771 28.4375 57.9574C28.2992 58.2377 28.0852 58.4612 27.7955 58.6278C27.5057 58.7926 27.1345 58.875 26.6818 58.875H25.2727V58.25H26.6591C26.9716 58.25 27.2225 58.196 27.4119 58.0881C27.6013 57.9801 27.7386 57.8343 27.8239 57.6506C27.911 57.465 27.9545 57.2557 27.9545 57.0227C27.9545 56.7898 27.911 56.5814 27.8239 56.3977C27.7386 56.214 27.6004 56.0701 27.4091 55.9659C27.2178 55.8598 26.964 55.8068 26.6477 55.8068H25.4091V61H24.7045ZM32.4418 59.2159V56.6364H33.1122V61H32.4418V60.2614H32.3963C32.294 60.483 32.1349 60.6714 31.919 60.8267C31.7031 60.9801 31.4304 61.0568 31.1009 61.0568C30.8281 61.0568 30.5857 60.9972 30.3736 60.8778C30.1615 60.7566 29.9948 60.5748 29.8736 60.3324C29.7524 60.0881 29.6918 59.7803 29.6918 59.4091V56.6364H30.3622V59.3636C30.3622 59.6818 30.4512 59.9356 30.6293 60.125C30.8092 60.3144 31.0384 60.4091 31.3168 60.4091C31.4834 60.4091 31.6529 60.3665 31.8253 60.2812C31.9995 60.196 32.1454 60.0653 32.2628 59.8892C32.3821 59.7131 32.4418 59.4886 32.4418 59.2159ZM24.7045 71V65.1818H25.375V67.3295H25.4318C25.4811 67.2538 25.5492 67.1572 25.6364 67.0398C25.7254 66.9205 25.8523 66.8144 26.017 66.7216C26.1837 66.6269 26.4091 66.5795 26.6932 66.5795C27.0606 66.5795 27.3845 66.6714 27.6648 66.8551C27.9451 67.0388 28.1638 67.2992 28.321 67.6364C28.4782 67.9735 28.5568 68.3712 28.5568 68.8295C28.5568 69.2917 28.4782 69.6922 28.321 70.0312C28.1638 70.3684 27.946 70.6297 27.6676 70.8153C27.3892 70.9991 27.0682 71.0909 26.7045 71.0909C26.4242 71.0909 26.1998 71.0445 26.0312 70.9517C25.8627 70.857 25.733 70.75 25.642 70.6307C25.5511 70.5095 25.4811 70.4091 25.4318 70.3295H25.3523V71H24.7045ZM25.3636 68.8182C25.3636 69.1477 25.4119 69.4384 25.5085 69.6903C25.6051 69.9403 25.7462 70.1364 25.9318 70.2784C26.1174 70.4186 26.3447 70.4886 26.6136 70.4886C26.8939 70.4886 27.1278 70.4148 27.3153 70.267C27.5047 70.1174 27.6468 69.9167 27.7415 69.6648C27.8381 69.411 27.8864 69.1288 27.8864 68.8182C27.8864 68.5114 27.839 68.2348 27.7443 67.9886C27.6515 67.7405 27.5104 67.5445 27.321 67.4006C27.1335 67.2547 26.8977 67.1818 26.6136 67.1818C26.3409 67.1818 26.1117 67.2509 25.9261 67.3892C25.7405 67.5256 25.6004 67.7169 25.5057 67.9631C25.411 68.2074 25.3636 68.4924 25.3636 68.8182ZM30.2528 65.1818V71H29.5824V65.1818H30.2528ZM31.4808 71V66.6364H32.1513V71H31.4808ZM31.8217 65.9091C31.6911 65.9091 31.5784 65.8646 31.4837 65.7756C31.3909 65.6866 31.3445 65.5795 31.3445 65.4545C31.3445 65.3295 31.3909 65.2225 31.4837 65.1335C31.5784 65.0445 31.6911 65 31.8217 65C31.9524 65 32.0642 65.0445 32.157 65.1335C32.2517 65.2225 32.299 65.3295 32.299 65.4545C32.299 65.5795 32.2517 65.6866 32.157 65.7756C32.0642 65.8646 31.9524 65.9091 31.8217 65.9091ZM35.152 71.0909C34.7429 71.0909 34.3906 70.9943 34.0952 70.8011C33.7997 70.608 33.5724 70.3419 33.4134 70.0028C33.2543 69.6638 33.1747 69.2765 33.1747 68.8409C33.1747 68.3977 33.2562 68.0066 33.419 67.6676C33.5838 67.3267 33.813 67.0606 34.1065 66.8693C34.402 66.6761 34.7467 66.5795 35.1406 66.5795C35.4474 66.5795 35.724 66.6364 35.9702 66.75C36.2164 66.8636 36.4181 67.0227 36.5753 67.2273C36.7325 67.4318 36.83 67.6705 36.8679 67.9432H36.1974C36.1463 67.7443 36.0327 67.5682 35.8565 67.4148C35.6823 67.2595 35.4474 67.1818 35.152 67.1818C34.8906 67.1818 34.6615 67.25 34.4645 67.3864C34.2694 67.5208 34.117 67.7112 34.0071 67.9574C33.8991 68.2017 33.8452 68.4886 33.8452 68.8182C33.8452 69.1553 33.8982 69.4489 34.0043 69.6989C34.1122 69.9489 34.2637 70.143 34.4588 70.2812C34.6558 70.4195 34.8868 70.4886 35.152 70.4886C35.3262 70.4886 35.4844 70.4583 35.6264 70.3977C35.7685 70.3371 35.8887 70.25 35.9872 70.1364C36.0857 70.0227 36.1558 69.8864 36.1974 69.7273H36.8679C36.83 69.9848 36.7363 70.2169 36.5866 70.4233C36.4389 70.6278 36.2429 70.7907 35.9986 70.9119C35.7562 71.0312 35.474 71.0909 35.152 71.0909Z" fill="white"/>
<rect x="3.75806" y="381.118" width="35.2326" height="32.8173" fill="white"/>
<rect x="43.6882" y="381.118" width="35.2326" height="32.8173" fill="white"/>
<rect x="83.6184" y="381.118" width="35.2326" height="32.8173" fill="white"/>
<rect x="123.549" y="381.118" width="35.2326" height="32.8173" fill="#656565"/>
<rect x="163.479" y="381.118" width="35.2326" height="32.8173" fill="white"/>
<path d="M9.70455 401V395.182H10.4091V397.773H13.5114V395.182H14.2159V401H13.5114V398.398H10.4091V401H9.70455ZM17.3082 401.091C16.9143 401.091 16.5687 400.997 16.2713 400.81C15.9759 400.622 15.7448 400.36 15.5781 400.023C15.4134 399.686 15.331 399.292 15.331 398.841C15.331 398.386 15.4134 397.99 15.5781 397.651C15.7448 397.312 15.9759 397.048 16.2713 396.861C16.5687 396.673 16.9143 396.58 17.3082 396.58C17.7022 396.58 18.0469 396.673 18.3423 396.861C18.6397 397.048 18.8707 397.312 19.0355 397.651C19.2022 397.99 19.2855 398.386 19.2855 398.841C19.2855 399.292 19.2022 399.686 19.0355 400.023C18.8707 400.36 18.6397 400.622 18.3423 400.81C18.0469 400.997 17.7022 401.091 17.3082 401.091ZM17.3082 400.489C17.6075 400.489 17.8537 400.412 18.0469 400.259C18.2401 400.105 18.383 399.903 18.4759 399.653C18.5687 399.403 18.6151 399.133 18.6151 398.841C18.6151 398.549 18.5687 398.277 18.4759 398.026C18.383 397.774 18.2401 397.57 18.0469 397.415C17.8537 397.259 17.6075 397.182 17.3082 397.182C17.009 397.182 16.7628 397.259 16.5696 397.415C16.3764 397.57 16.2334 397.774 16.1406 398.026C16.0478 398.277 16.0014 398.549 16.0014 398.841C16.0014 399.133 16.0478 399.403 16.1406 399.653C16.2334 399.903 16.3764 400.105 16.5696 400.259C16.7628 400.412 17.009 400.489 17.3082 400.489ZM20.3089 401V396.636H20.9567V397.318H21.0135C21.1044 397.085 21.2512 396.904 21.4538 396.776C21.6565 396.645 21.8999 396.58 22.1839 396.58C22.4718 396.58 22.7114 396.645 22.9027 396.776C23.0959 396.904 23.2464 397.085 23.3544 397.318H23.3999C23.5116 397.093 23.6792 396.914 23.9027 396.781C24.1262 396.647 24.3942 396.58 24.7067 396.58C25.0968 396.58 25.416 396.702 25.6641 396.946C25.9122 397.188 26.0362 397.566 26.0362 398.08V401H25.3658V398.08C25.3658 397.758 25.2777 397.527 25.1016 397.389C24.9254 397.251 24.718 397.182 24.4794 397.182C24.1726 397.182 23.9349 397.275 23.7663 397.46C23.5978 397.644 23.5135 397.877 23.5135 398.159V401H22.8317V398.011C22.8317 397.763 22.7512 397.563 22.5902 397.412C22.4292 397.259 22.2218 397.182 21.968 397.182C21.7938 397.182 21.6309 397.228 21.4794 397.321C21.3298 397.414 21.2086 397.543 21.1158 397.707C21.0249 397.87 20.9794 398.059 20.9794 398.273V401H20.3089ZM29.0916 401.091C28.6712 401.091 28.3085 400.998 28.0036 400.812C27.7005 400.625 27.4666 400.364 27.3018 400.028C27.139 399.691 27.0575 399.299 27.0575 398.852C27.0575 398.405 27.139 398.011 27.3018 397.67C27.4666 397.328 27.6958 397.061 27.9893 396.869C28.2848 396.676 28.6295 396.58 29.0234 396.58C29.2507 396.58 29.4751 396.617 29.6967 396.693C29.9183 396.769 30.12 396.892 30.3018 397.062C30.4837 397.231 30.6286 397.455 30.7365 397.733C30.8445 398.011 30.8984 398.354 30.8984 398.761V399.045H27.5348V398.466H30.2166C30.2166 398.22 30.1674 398 30.0689 397.807C29.9723 397.614 29.834 397.461 29.6541 397.349C29.4761 397.238 29.2659 397.182 29.0234 397.182C28.7564 397.182 28.5253 397.248 28.3303 397.381C28.1371 397.511 27.9884 397.682 27.8842 397.892C27.7801 398.102 27.728 398.328 27.728 398.568V398.955C27.728 399.284 27.7848 399.563 27.8984 399.793C28.014 400.02 28.174 400.193 28.3786 400.312C28.5831 400.43 28.8208 400.489 29.0916 400.489C29.2678 400.489 29.4268 400.464 29.5689 400.415C29.7128 400.364 29.8369 400.288 29.9411 400.188C30.0452 400.085 30.1257 399.958 30.1825 399.807L30.8303 399.989C30.7621 400.208 30.6475 400.402 30.4865 400.568C30.3255 400.733 30.1267 400.862 29.8899 400.955C29.6532 401.045 29.3871 401.091 29.0916 401.091Z" fill="black"/>
<path d="M50.6818 397C50.6193 396.809 50.5369 396.637 50.4347 396.486C50.3343 396.332 50.214 396.202 50.0739 396.094C49.9356 395.986 49.7784 395.903 49.6023 395.847C49.4261 395.79 49.233 395.761 49.0227 395.761C48.678 395.761 48.3646 395.85 48.0824 396.028C47.8002 396.206 47.5758 396.469 47.4091 396.815C47.2424 397.162 47.1591 397.587 47.1591 398.091C47.1591 398.595 47.2434 399.02 47.4119 399.366C47.5805 399.713 47.8087 399.975 48.0966 400.153C48.3845 400.331 48.7083 400.42 49.0682 400.42C49.4015 400.42 49.6951 400.349 49.9489 400.207C50.2045 400.063 50.4034 399.861 50.5455 399.599C50.6894 399.336 50.7614 399.027 50.7614 398.67L50.9773 398.716H49.2273V398.091H51.4432V398.716C51.4432 399.195 51.3409 399.612 51.1364 399.966C50.9337 400.32 50.6534 400.595 50.2955 400.79C49.9394 400.983 49.5303 401.08 49.0682 401.08C48.553 401.08 48.1004 400.958 47.7102 400.716C47.322 400.473 47.0189 400.129 46.8011 399.682C46.5852 399.235 46.4773 398.705 46.4773 398.091C46.4773 397.631 46.5388 397.217 46.6619 396.849C46.7869 396.48 46.9631 396.166 47.1903 395.906C47.4176 395.647 47.6866 395.448 47.9972 395.31C48.3078 395.171 48.6496 395.102 49.0227 395.102C49.3295 395.102 49.6155 395.149 49.8807 395.241C50.1477 395.332 50.3854 395.462 50.5938 395.631C50.804 395.797 50.9792 395.997 51.1193 396.23C51.2595 396.461 51.3561 396.718 51.4091 397H50.6818ZM52.5589 401V396.636H53.2067V397.295H53.2521C53.3317 397.08 53.4756 396.904 53.6839 396.77C53.8923 396.635 54.1271 396.568 54.3885 396.568C54.4377 396.568 54.4993 396.569 54.5732 396.571C54.647 396.573 54.7029 396.576 54.7408 396.58V397.261C54.718 397.256 54.666 397.247 54.5845 397.236C54.505 397.223 54.4207 397.216 54.3317 397.216C54.1196 397.216 53.9302 397.26 53.7635 397.349C53.5987 397.437 53.468 397.558 53.3714 397.713C53.2768 397.866 53.2294 398.042 53.2294 398.239V401H52.5589ZM57.1754 401.091C56.7815 401.091 56.4358 400.997 56.1385 400.81C55.843 400.622 55.612 400.36 55.4453 400.023C55.2805 399.686 55.1982 399.292 55.1982 398.841C55.1982 398.386 55.2805 397.99 55.4453 397.651C55.612 397.312 55.843 397.048 56.1385 396.861C56.4358 396.673 56.7815 396.58 57.1754 396.58C57.5694 396.58 57.9141 396.673 58.2095 396.861C58.5069 397.048 58.7379 397.312 58.9027 397.651C59.0694 397.99 59.1527 398.386 59.1527 398.841C59.1527 399.292 59.0694 399.686 58.9027 400.023C58.7379 400.36 58.5069 400.622 58.2095 400.81C57.9141 400.997 57.5694 401.091 57.1754 401.091ZM57.1754 400.489C57.4747 400.489 57.7209 400.412 57.9141 400.259C58.1072 400.105 58.2502 399.903 58.343 399.653C58.4358 399.403 58.4822 399.133 58.4822 398.841C58.4822 398.549 58.4358 398.277 58.343 398.026C58.2502 397.774 58.1072 397.57 57.9141 397.415C57.7209 397.259 57.4747 397.182 57.1754 397.182C56.8762 397.182 56.63 397.259 56.4368 397.415C56.2436 397.57 56.1006 397.774 56.0078 398.026C55.915 398.277 55.8686 398.549 55.8686 398.841C55.8686 399.133 55.915 399.403 56.0078 399.653C56.1006 399.903 56.2436 400.105 56.4368 400.259C56.63 400.412 56.8762 400.489 57.1754 400.489ZM62.9261 399.216V396.636H63.5966V401H62.9261V400.261H62.8807C62.7784 400.483 62.6193 400.671 62.4034 400.827C62.1875 400.98 61.9148 401.057 61.5852 401.057C61.3125 401.057 61.0701 400.997 60.858 400.878C60.6458 400.757 60.4792 400.575 60.358 400.332C60.2367 400.088 60.1761 399.78 60.1761 399.409V396.636H60.8466V399.364C60.8466 399.682 60.9356 399.936 61.1136 400.125C61.2936 400.314 61.5227 400.409 61.8011 400.409C61.9678 400.409 62.1373 400.366 62.3097 400.281C62.4839 400.196 62.6297 400.065 62.7472 399.889C62.8665 399.713 62.9261 399.489 62.9261 399.216ZM64.8246 402.636V396.636H65.4723V397.33H65.5518C65.6011 397.254 65.6693 397.157 65.7564 397.04C65.8454 396.92 65.9723 396.814 66.1371 396.722C66.3037 396.627 66.5291 396.58 66.8132 396.58C67.1806 396.58 67.5045 396.671 67.7848 396.855C68.0651 397.039 68.2839 397.299 68.4411 397.636C68.5982 397.973 68.6768 398.371 68.6768 398.83C68.6768 399.292 68.5982 399.692 68.4411 400.031C68.2839 400.368 68.0661 400.63 67.7876 400.815C67.5092 400.999 67.1882 401.091 66.8246 401.091C66.5443 401.091 66.3198 401.045 66.1513 400.952C65.9827 400.857 65.853 400.75 65.7621 400.631C65.6712 400.509 65.6011 400.409 65.5518 400.33H65.495V402.636H64.8246ZM65.4837 398.818C65.4837 399.148 65.532 399.438 65.6286 399.69C65.7251 399.94 65.8662 400.136 66.0518 400.278C66.2375 400.419 66.4647 400.489 66.7337 400.489C67.014 400.489 67.2479 400.415 67.4354 400.267C67.6248 400.117 67.7668 399.917 67.8615 399.665C67.9581 399.411 68.0064 399.129 68.0064 398.818C68.0064 398.511 67.959 398.235 67.8643 397.989C67.7715 397.741 67.6304 397.545 67.4411 397.401C67.2536 397.255 67.0178 397.182 66.7337 397.182C66.4609 397.182 66.2318 397.251 66.0462 397.389C65.8606 397.526 65.7204 397.717 65.6257 397.963C65.531 398.207 65.4837 398.492 65.4837 398.818ZM72.7905 397.614L72.1882 397.784C72.1503 397.684 72.0945 397.586 72.0206 397.491C71.9486 397.395 71.8501 397.315 71.7251 397.253C71.6001 397.19 71.4401 397.159 71.245 397.159C70.978 397.159 70.7554 397.221 70.5774 397.344C70.4013 397.465 70.3132 397.619 70.3132 397.807C70.3132 397.973 70.3738 398.105 70.495 398.202C70.6162 398.298 70.8056 398.379 71.0632 398.443L71.7109 398.602C72.1011 398.697 72.3918 398.842 72.5831 399.037C72.7744 399.23 72.87 399.479 72.87 399.784C72.87 400.034 72.7981 400.258 72.6541 400.455C72.5121 400.652 72.3132 400.807 72.0575 400.92C71.8018 401.034 71.5045 401.091 71.1655 401.091C70.7204 401.091 70.352 400.994 70.0604 400.801C69.7687 400.608 69.584 400.326 69.5064 399.955L70.1428 399.795C70.2034 400.03 70.3179 400.206 70.4865 400.324C70.657 400.441 70.8795 400.5 71.1541 400.5C71.4666 400.5 71.7147 400.434 71.8984 400.301C72.084 400.167 72.1768 400.006 72.1768 399.818C72.1768 399.667 72.1238 399.54 72.0178 399.438C71.9117 399.333 71.7488 399.256 71.5291 399.205L70.8018 399.034C70.4022 398.939 70.1087 398.793 69.9212 398.594C69.7356 398.393 69.6428 398.142 69.6428 397.841C69.6428 397.595 69.7119 397.377 69.8501 397.188C69.9903 396.998 70.1806 396.849 70.4212 396.741C70.6636 396.634 70.9382 396.58 71.245 396.58C71.6768 396.58 72.0159 396.674 72.2621 396.864C72.5102 397.053 72.6863 397.303 72.7905 397.614Z" fill="black"/>
<path d="M127.705 401V395.182H128.409V397.773H131.511V395.182H132.216V401H131.511V398.398H128.409V401H127.705ZM133.536 401V396.636H134.206V401H133.536ZM133.876 395.909C133.746 395.909 133.633 395.865 133.538 395.776C133.446 395.687 133.399 395.58 133.399 395.455C133.399 395.33 133.446 395.223 133.538 395.134C133.633 395.045 133.746 395 133.876 395C134.007 395 134.119 395.045 134.212 395.134C134.306 395.223 134.354 395.33 134.354 395.455C134.354 395.58 134.306 395.687 134.212 395.776C134.119 395.865 134.007 395.909 133.876 395.909ZM138.525 397.614L137.923 397.784C137.885 397.684 137.829 397.586 137.755 397.491C137.683 397.395 137.585 397.315 137.46 397.253C137.335 397.19 137.174 397.159 136.979 397.159C136.712 397.159 136.49 397.221 136.312 397.344C136.136 397.465 136.048 397.619 136.048 397.807C136.048 397.973 136.108 398.105 136.229 398.202C136.351 398.298 136.54 398.379 136.798 398.443L137.445 398.602C137.835 398.697 138.126 398.842 138.317 399.037C138.509 399.23 138.604 399.479 138.604 399.784C138.604 400.034 138.532 400.258 138.388 400.455C138.246 400.652 138.048 400.807 137.792 400.92C137.536 401.034 137.239 401.091 136.9 401.091C136.455 401.091 136.086 400.994 135.795 400.801C135.503 400.608 135.318 400.326 135.241 399.955L135.877 399.795C135.938 400.03 136.052 400.206 136.221 400.324C136.391 400.441 136.614 400.5 136.888 400.5C137.201 400.5 137.449 400.434 137.633 400.301C137.818 400.167 137.911 400.006 137.911 399.818C137.911 399.667 137.858 399.54 137.752 399.438C137.646 399.333 137.483 399.256 137.263 399.205L136.536 399.034C136.137 398.939 135.843 398.793 135.656 398.594C135.47 398.393 135.377 398.142 135.377 397.841C135.377 397.595 135.446 397.377 135.585 397.188C135.725 396.998 135.915 396.849 136.156 396.741C136.398 396.634 136.673 396.58 136.979 396.58C137.411 396.58 137.75 396.674 137.996 396.864C138.245 397.053 138.421 397.303 138.525 397.614ZM141.511 396.636V397.205H139.25V396.636H141.511ZM139.909 395.591H140.58V399.75C140.58 399.939 140.607 400.081 140.662 400.176C140.719 400.269 140.791 400.331 140.878 400.364C140.967 400.394 141.061 400.409 141.159 400.409C141.233 400.409 141.294 400.405 141.341 400.398C141.388 400.388 141.426 400.381 141.455 400.375L141.591 400.977C141.545 400.994 141.482 401.011 141.401 401.028C141.319 401.047 141.216 401.057 141.091 401.057C140.902 401.057 140.716 401.016 140.534 400.935C140.354 400.853 140.205 400.729 140.085 400.562C139.968 400.396 139.909 400.186 139.909 399.932V395.591ZM144.246 401.091C143.852 401.091 143.506 400.997 143.209 400.81C142.913 400.622 142.682 400.36 142.516 400.023C142.351 399.686 142.268 399.292 142.268 398.841C142.268 398.386 142.351 397.99 142.516 397.651C142.682 397.312 142.913 397.048 143.209 396.861C143.506 396.673 143.852 396.58 144.246 396.58C144.64 396.58 144.984 396.673 145.28 396.861C145.577 397.048 145.808 397.312 145.973 397.651C146.14 397.99 146.223 398.386 146.223 398.841C146.223 399.292 146.14 399.686 145.973 400.023C145.808 400.36 145.577 400.622 145.28 400.81C144.984 400.997 144.64 401.091 144.246 401.091ZM144.246 400.489C144.545 400.489 144.791 400.412 144.984 400.259C145.178 400.105 145.321 399.903 145.413 399.653C145.506 399.403 145.553 399.133 145.553 398.841C145.553 398.549 145.506 398.277 145.413 398.026C145.321 397.774 145.178 397.57 144.984 397.415C144.791 397.259 144.545 397.182 144.246 397.182C143.946 397.182 143.7 397.259 143.507 397.415C143.314 397.57 143.171 397.774 143.078 398.026C142.985 398.277 142.939 398.549 142.939 398.841C142.939 399.133 142.985 399.403 143.078 399.653C143.171 399.903 143.314 400.105 143.507 400.259C143.7 400.412 143.946 400.489 144.246 400.489ZM147.246 401V396.636H147.894V397.295H147.94C148.019 397.08 148.163 396.904 148.371 396.77C148.58 396.635 148.815 396.568 149.076 396.568C149.125 396.568 149.187 396.569 149.261 396.571C149.335 396.573 149.39 396.576 149.428 396.58V397.261C149.406 397.256 149.353 397.247 149.272 397.236C149.192 397.223 149.108 397.216 149.019 397.216C148.807 397.216 148.618 397.26 148.451 397.349C148.286 397.437 148.156 397.558 148.059 397.713C147.964 397.866 147.917 398.042 147.917 398.239V401H147.246ZM150.788 402.636C150.674 402.636 150.573 402.627 150.484 402.608C150.395 402.591 150.333 402.574 150.299 402.557L150.469 401.966C150.632 402.008 150.776 402.023 150.901 402.011C151.026 402 151.137 401.944 151.234 401.844C151.332 401.745 151.422 401.585 151.504 401.364L151.629 401.023L150.015 396.636H150.742L151.947 400.114H151.992L153.197 396.636H153.924L152.072 401.636C151.988 401.862 151.885 402.048 151.762 402.196C151.639 402.346 151.496 402.456 151.333 402.528C151.172 402.6 150.99 402.636 150.788 402.636Z" fill="white"/>
<path d="M175.705 395.182H176.545L178.523 400.011H178.591L180.568 395.182H181.409V401H180.75V396.58H180.693L178.875 401H178.239L176.42 396.58H176.364V401H175.705V395.182ZM184.56 401.091C184.14 401.091 183.777 400.998 183.472 400.812C183.169 400.625 182.935 400.364 182.771 400.028C182.608 399.691 182.526 399.299 182.526 398.852C182.526 398.405 182.608 398.011 182.771 397.67C182.935 397.328 183.165 397.061 183.458 396.869C183.754 396.676 184.098 396.58 184.492 396.58C184.719 396.58 184.944 396.617 185.165 396.693C185.387 396.769 185.589 396.892 185.771 397.062C185.952 397.231 186.097 397.455 186.205 397.733C186.313 398.011 186.367 398.354 186.367 398.761V399.045H183.004V398.466H185.685C185.685 398.22 185.636 398 185.538 397.807C185.441 397.614 185.303 397.461 185.123 397.349C184.945 397.238 184.735 397.182 184.492 397.182C184.225 397.182 183.994 397.248 183.799 397.381C183.606 397.511 183.457 397.682 183.353 397.892C183.249 398.102 183.197 398.328 183.197 398.568V398.955C183.197 399.284 183.254 399.563 183.367 399.793C183.483 400.02 183.643 400.193 183.847 400.312C184.052 400.43 184.29 400.489 184.56 400.489C184.737 400.489 184.896 400.464 185.038 400.415C185.182 400.364 185.306 400.288 185.41 400.188C185.514 400.085 185.594 399.958 185.651 399.807L186.299 399.989C186.231 400.208 186.116 400.402 185.955 400.568C185.794 400.733 185.595 400.862 185.359 400.955C185.122 401.045 184.856 401.091 184.56 401.091Z" fill="black"/>
<path d="M90.4655 393H89.7609C89.7192 392.797 89.6463 392.619 89.5422 392.466C89.4399 392.312 89.3149 392.184 89.1672 392.08C89.0213 391.973 88.8594 391.894 88.6814 391.841C88.5033 391.788 88.3177 391.761 88.1246 391.761C87.7723 391.761 87.4532 391.85 87.1672 392.028C86.8831 392.206 86.6567 392.469 86.4882 392.815C86.3215 393.162 86.2382 393.587 86.2382 394.091C86.2382 394.595 86.3215 395.02 86.4882 395.366C86.6567 395.713 86.8831 395.975 87.1672 396.153C87.4532 396.331 87.7723 396.42 88.1246 396.42C88.3177 396.42 88.5033 396.394 88.6814 396.341C88.8594 396.288 89.0213 396.209 89.1672 396.105C89.3149 395.999 89.4399 395.869 89.5422 395.716C89.6463 395.561 89.7192 395.383 89.7609 395.182H90.4655C90.4124 395.479 90.3158 395.745 90.1757 395.98C90.0355 396.215 89.8613 396.415 89.653 396.58C89.4446 396.742 89.2107 396.866 88.9513 396.952C88.6937 397.037 88.4181 397.08 88.1246 397.08C87.6283 397.08 87.1871 396.958 86.8007 396.716C86.4143 396.473 86.1103 396.129 85.8888 395.682C85.6672 395.235 85.5564 394.705 85.5564 394.091C85.5564 393.477 85.6672 392.947 85.8888 392.5C86.1103 392.053 86.4143 391.708 86.8007 391.466C87.1871 391.223 87.6283 391.102 88.1246 391.102C88.4181 391.102 88.6937 391.145 88.9513 391.23C89.2107 391.315 89.4446 391.44 89.653 391.605C89.8613 391.768 90.0355 391.967 90.1757 392.202C90.3158 392.435 90.4124 392.701 90.4655 393ZM91.513 397V392.636H92.1608V393.295H92.2062C92.2858 393.08 92.4297 392.904 92.638 392.77C92.8464 392.635 93.0812 392.568 93.3426 392.568C93.3918 392.568 93.4534 392.569 93.5273 392.571C93.6011 392.573 93.657 392.576 93.6949 392.58V393.261C93.6721 393.256 93.6201 393.247 93.5386 393.236C93.4591 393.223 93.3748 393.216 93.2858 393.216C93.0737 393.216 92.8843 393.26 92.7176 393.349C92.5528 393.437 92.4221 393.558 92.3255 393.713C92.2308 393.866 92.1835 394.042 92.1835 394.239V397H91.513ZM96.1863 397.091C95.7659 397.091 95.4032 396.998 95.0983 396.812C94.7952 396.625 94.5613 396.364 94.3966 396.028C94.2337 395.691 94.1523 395.299 94.1523 394.852C94.1523 394.405 94.2337 394.011 94.3966 393.67C94.5613 393.328 94.7905 393.061 95.0841 392.869C95.3795 392.676 95.7242 392.58 96.1182 392.58C96.3454 392.58 96.5699 392.617 96.7915 392.693C97.013 392.769 97.2148 392.892 97.3966 393.062C97.5784 393.231 97.7233 393.455 97.8312 393.733C97.9392 394.011 97.9932 394.354 97.9932 394.761V395.045H94.6295V394.466H97.3113C97.3113 394.22 97.2621 394 97.1636 393.807C97.067 393.614 96.9288 393.461 96.7488 393.349C96.5708 393.238 96.3606 393.182 96.1182 393.182C95.8511 393.182 95.6201 393.248 95.425 393.381C95.2318 393.511 95.0831 393.682 94.979 393.892C94.8748 394.102 94.8227 394.328 94.8227 394.568V394.955C94.8227 395.284 94.8795 395.563 94.9932 395.793C95.1087 396.02 95.2687 396.193 95.4733 396.312C95.6778 396.43 95.9155 396.489 96.1863 396.489C96.3625 396.489 96.5216 396.464 96.6636 396.415C96.8076 396.364 96.9316 396.288 97.0358 396.188C97.1399 396.085 97.2204 395.958 97.2773 395.807L97.925 395.989C97.8568 396.208 97.7422 396.402 97.5812 396.568C97.4202 396.733 97.2214 396.862 96.9846 396.955C96.7479 397.045 96.4818 397.091 96.1863 397.091ZM100.297 397.102C100.021 397.102 99.7697 397.05 99.5443 396.946C99.3189 396.84 99.1399 396.688 99.0074 396.489C98.8748 396.288 98.8085 396.045 98.8085 395.761C98.8085 395.511 98.8577 395.309 98.9562 395.153C99.0547 394.996 99.1863 394.873 99.3511 394.784C99.5159 394.695 99.6977 394.629 99.8966 394.585C100.097 394.54 100.299 394.504 100.502 394.477C100.767 394.443 100.982 394.418 101.147 394.401C101.313 394.382 101.434 394.35 101.51 394.307C101.588 394.263 101.627 394.187 101.627 394.08V394.057C101.627 393.777 101.55 393.559 101.397 393.403C101.245 393.248 101.015 393.17 100.706 393.17C100.386 393.17 100.135 393.241 99.9534 393.381C99.7716 393.521 99.6437 393.67 99.5699 393.83L98.9335 393.602C99.0471 393.337 99.1987 393.131 99.388 392.983C99.5793 392.833 99.7877 392.729 100.013 392.67C100.24 392.61 100.464 392.58 100.684 392.58C100.824 392.58 100.985 392.597 101.166 392.631C101.35 392.663 101.527 392.73 101.698 392.832C101.87 392.935 102.013 393.089 102.127 393.295C102.24 393.502 102.297 393.778 102.297 394.125V397H101.627V396.409H101.593C101.547 396.504 101.471 396.605 101.365 396.713C101.259 396.821 101.118 396.913 100.942 396.989C100.766 397.064 100.551 397.102 100.297 397.102ZM100.399 396.5C100.665 396.5 100.888 396.448 101.07 396.344C101.254 396.24 101.392 396.105 101.485 395.94C101.579 395.776 101.627 395.602 101.627 395.42V394.807C101.598 394.841 101.536 394.872 101.439 394.901C101.344 394.927 101.235 394.951 101.11 394.972C100.987 394.991 100.866 395.008 100.749 395.023C100.633 395.036 100.54 395.047 100.468 395.057C100.293 395.08 100.13 395.116 99.979 395.168C99.8293 395.217 99.7081 395.292 99.6153 395.392C99.5244 395.491 99.479 395.625 99.479 395.795C99.479 396.028 99.5651 396.205 99.7375 396.324C99.9117 396.441 100.132 396.5 100.399 396.5ZM105.419 392.636V393.205H103.157V392.636H105.419ZM103.816 391.591H104.487V395.75C104.487 395.939 104.514 396.081 104.569 396.176C104.626 396.269 104.698 396.331 104.785 396.364C104.874 396.394 104.968 396.409 105.066 396.409C105.14 396.409 105.201 396.405 105.248 396.398C105.295 396.388 105.333 396.381 105.362 396.375L105.498 396.977C105.453 396.994 105.389 397.011 105.308 397.028C105.226 397.047 105.123 397.057 104.998 397.057C104.809 397.057 104.623 397.016 104.441 396.935C104.261 396.853 104.112 396.729 103.992 396.562C103.875 396.396 103.816 396.186 103.816 395.932V391.591ZM106.427 397V392.636H107.098V397H106.427ZM106.768 391.909C106.637 391.909 106.525 391.865 106.43 391.776C106.337 391.687 106.291 391.58 106.291 391.455C106.291 391.33 106.337 391.223 106.43 391.134C106.525 391.045 106.637 391 106.768 391C106.899 391 107.01 391.045 107.103 391.134C107.198 391.223 107.245 391.33 107.245 391.455C107.245 391.58 107.198 391.687 107.103 391.776C107.01 391.865 106.899 391.909 106.768 391.909ZM110.098 397.091C109.704 397.091 109.359 396.997 109.061 396.81C108.766 396.622 108.535 396.36 108.368 396.023C108.203 395.686 108.121 395.292 108.121 394.841C108.121 394.386 108.203 393.99 108.368 393.651C108.535 393.312 108.766 393.048 109.061 392.861C109.359 392.673 109.704 392.58 110.098 392.58C110.492 392.58 110.837 392.673 111.132 392.861C111.43 393.048 111.661 393.312 111.826 393.651C111.992 393.99 112.076 394.386 112.076 394.841C112.076 395.292 111.992 395.686 111.826 396.023C111.661 396.36 111.43 396.622 111.132 396.81C110.837 396.997 110.492 397.091 110.098 397.091ZM110.098 396.489C110.398 396.489 110.644 396.412 110.837 396.259C111.03 396.105 111.173 395.903 111.266 395.653C111.359 395.403 111.405 395.133 111.405 394.841C111.405 394.549 111.359 394.277 111.266 394.026C111.173 393.774 111.03 393.57 110.837 393.415C110.644 393.259 110.398 393.182 110.098 393.182C109.799 393.182 109.553 393.259 109.36 393.415C109.166 393.57 109.023 393.774 108.931 394.026C108.838 394.277 108.791 394.549 108.791 394.841C108.791 395.133 108.838 395.403 108.931 395.653C109.023 395.903 109.166 396.105 109.36 396.259C109.553 396.412 109.799 396.489 110.098 396.489ZM113.769 394.375V397H113.099V392.636H113.747V393.318H113.804C113.906 393.097 114.061 392.919 114.269 392.784C114.478 392.648 114.747 392.58 115.076 392.58C115.372 392.58 115.63 392.64 115.852 392.761C116.073 392.881 116.246 393.062 116.369 393.307C116.492 393.549 116.554 393.856 116.554 394.227V397H115.883V394.273C115.883 393.93 115.794 393.663 115.616 393.472C115.438 393.278 115.194 393.182 114.883 393.182C114.669 393.182 114.478 393.228 114.309 393.321C114.143 393.414 114.011 393.549 113.914 393.727C113.818 393.905 113.769 394.121 113.769 394.375ZM94.5116 401.182V407H93.8071V401.182H94.5116ZM97.6061 407.091C97.197 407.091 96.8447 406.994 96.5493 406.801C96.2538 406.608 96.0265 406.342 95.8675 406.003C95.7084 405.664 95.6288 405.277 95.6288 404.841C95.6288 404.398 95.7103 404.007 95.8731 403.668C96.0379 403.327 96.2671 403.061 96.5606 402.869C96.8561 402.676 97.2008 402.58 97.5947 402.58C97.9015 402.58 98.1781 402.636 98.4243 402.75C98.6705 402.864 98.8722 403.023 99.0294 403.227C99.1866 403.432 99.2841 403.67 99.322 403.943H98.6515C98.6004 403.744 98.4868 403.568 98.3106 403.415C98.1364 403.259 97.9015 403.182 97.6061 403.182C97.3447 403.182 97.1156 403.25 96.9186 403.386C96.7235 403.521 96.571 403.711 96.4612 403.957C96.3532 404.202 96.2993 404.489 96.2993 404.818C96.2993 405.155 96.3523 405.449 96.4584 405.699C96.5663 405.949 96.7178 406.143 96.9129 406.281C97.1099 406.42 97.3409 406.489 97.6061 406.489C97.7803 406.489 97.9385 406.458 98.0805 406.398C98.2226 406.337 98.3428 406.25 98.4413 406.136C98.5398 406.023 98.6099 405.886 98.6515 405.727H99.322C99.2841 405.985 99.1904 406.217 99.0407 406.423C98.893 406.628 98.697 406.791 98.4527 406.912C98.2103 407.031 97.9281 407.091 97.6061 407.091ZM102.075 407.091C101.681 407.091 101.335 406.997 101.038 406.81C100.742 406.622 100.511 406.36 100.345 406.023C100.18 405.686 100.098 405.292 100.098 404.841C100.098 404.386 100.18 403.99 100.345 403.651C100.511 403.312 100.742 403.048 101.038 402.861C101.335 402.673 101.681 402.58 102.075 402.58C102.469 402.58 102.813 402.673 103.109 402.861C103.406 403.048 103.637 403.312 103.802 403.651C103.969 403.99 104.052 404.386 104.052 404.841C104.052 405.292 103.969 405.686 103.802 406.023C103.637 406.36 103.406 406.622 103.109 406.81C102.813 406.997 102.469 407.091 102.075 407.091ZM102.075 406.489C102.374 406.489 102.62 406.412 102.813 406.259C103.007 406.105 103.15 405.903 103.242 405.653C103.335 405.403 103.382 405.133 103.382 404.841C103.382 404.549 103.335 404.277 103.242 404.026C103.15 403.774 103.007 403.57 102.813 403.415C102.62 403.259 102.374 403.182 102.075 403.182C101.776 403.182 101.529 403.259 101.336 403.415C101.143 403.57 101 403.774 100.907 404.026C100.814 404.277 100.768 404.549 100.768 404.841C100.768 405.133 100.814 405.403 100.907 405.653C101 405.903 101.143 406.105 101.336 406.259C101.529 406.412 101.776 406.489 102.075 406.489ZM105.746 404.375V407H105.076V402.636H105.723V403.318H105.78C105.882 403.097 106.038 402.919 106.246 402.784C106.454 402.648 106.723 402.58 107.053 402.58C107.348 402.58 107.607 402.64 107.828 402.761C108.05 402.881 108.222 403.062 108.345 403.307C108.469 403.549 108.53 403.856 108.53 404.227V407H107.86V404.273C107.86 403.93 107.771 403.663 107.593 403.472C107.415 403.278 107.17 403.182 106.86 403.182C106.646 403.182 106.454 403.228 106.286 403.321C106.119 403.414 105.987 403.549 105.891 403.727C105.794 403.905 105.746 404.121 105.746 404.375Z" fill="black"/>
<path d="M21.4403 44V40.3636H21.8807V43.6094H23.571V44H21.4403ZM24.196 44V41.2727H24.6151V44H24.196ZM24.4091 40.8182C24.3274 40.8182 24.257 40.7904 24.1978 40.7347C24.1398 40.6791 24.1108 40.6122 24.1108 40.5341C24.1108 40.456 24.1398 40.3891 24.1978 40.3335C24.257 40.2778 24.3274 40.25 24.4091 40.25C24.4908 40.25 24.5606 40.2778 24.6186 40.3335C24.6778 40.3891 24.7074 40.456 24.7074 40.5341C24.7074 40.6122 24.6778 40.6791 24.6186 40.7347C24.5606 40.7904 24.4908 40.8182 24.4091 40.8182ZM25.7732 43.0057L25.7661 42.4872H25.8513L27.0445 41.2727H27.5629L26.2916 42.5582H26.2561L25.7732 43.0057ZM25.3825 44V40.3636H25.8016V44H25.3825ZM27.1155 44L26.0502 42.6506L26.3485 42.3594L27.6482 44H27.1155ZM29.1334 44.0568C28.8706 44.0568 28.644 43.9988 28.4534 43.8828C28.264 43.7656 28.1178 43.6023 28.0148 43.3928C27.913 43.1821 27.8621 42.937 27.8621 42.6577C27.8621 42.3783 27.913 42.1321 28.0148 41.919C28.1178 41.7048 28.261 41.5379 28.4445 41.4183C28.6292 41.2976 28.8446 41.2372 29.0908 41.2372C29.2329 41.2372 29.3731 41.2609 29.5116 41.3082C29.6501 41.3556 29.7762 41.4325 29.8898 41.5391C30.0035 41.6444 30.094 41.7841 30.1615 41.9581C30.229 42.1321 30.2627 42.3464 30.2627 42.6009V42.7784H28.1604V42.4162H29.8366C29.8366 42.2623 29.8058 42.125 29.7442 42.0043C29.6839 41.8835 29.5974 41.7882 29.485 41.7184C29.3737 41.6486 29.2423 41.6136 29.0908 41.6136C28.9239 41.6136 28.7795 41.6551 28.6576 41.7379C28.5368 41.8196 28.4439 41.9261 28.3788 42.0575C28.3137 42.1889 28.2812 42.3298 28.2812 42.4801V42.7216C28.2812 42.9276 28.3167 43.1022 28.3877 43.2454C28.4599 43.3874 28.5599 43.4957 28.6878 43.5703C28.8156 43.6437 28.9642 43.6804 29.1334 43.6804C29.2435 43.6804 29.343 43.665 29.4317 43.6342C29.5217 43.6023 29.5992 43.5549 29.6643 43.4922C29.7294 43.4283 29.7797 43.349 29.8153 43.2543L30.2201 43.3679C30.1775 43.5052 30.1059 43.6259 30.0052 43.7301C29.9046 43.8331 29.7803 43.9136 29.6324 43.9716C29.4844 44.0284 29.3181 44.0568 29.1334 44.0568ZM31.93 44.0568C31.7027 44.0568 31.502 43.9994 31.328 43.8846C31.154 43.7686 31.0179 43.6052 30.9197 43.3945C30.8214 43.1826 30.7723 42.9323 30.7723 42.6435C30.7723 42.357 30.8214 42.1084 30.9197 41.8977C31.0179 41.687 31.1546 41.5243 31.3298 41.4094C31.505 41.2946 31.7074 41.2372 31.9371 41.2372C32.1146 41.2372 32.2549 41.2668 32.3579 41.326C32.462 41.384 32.5413 41.4503 32.5958 41.5249C32.6514 41.5982 32.6946 41.6586 32.7254 41.706H32.7609V40.3636H33.18V44H32.7751V43.581H32.7254C32.6946 43.6307 32.6508 43.6934 32.594 43.7692C32.5372 43.8437 32.4561 43.9106 32.3508 43.9698C32.2454 44.0278 32.1051 44.0568 31.93 44.0568ZM31.9868 43.6804C32.1549 43.6804 32.2969 43.6366 32.4129 43.549C32.5289 43.4602 32.6171 43.3377 32.6775 43.1815C32.7378 43.024 32.768 42.8423 32.768 42.6364C32.768 42.4328 32.7384 42.2546 32.6792 42.1019C32.6201 41.948 32.5325 41.8285 32.4165 41.7433C32.3005 41.6568 32.1572 41.6136 31.9868 41.6136C31.8092 41.6136 31.6613 41.6592 31.5429 41.7504C31.4257 41.8403 31.3375 41.9628 31.2783 42.1179C31.2203 42.2718 31.1913 42.4446 31.1913 42.6364C31.1913 42.8305 31.2209 43.0069 31.2801 43.1655C31.3405 43.3229 31.4292 43.4484 31.5464 43.5419C31.6648 43.6342 31.8116 43.6804 31.9868 43.6804Z" fill="white"/>
<path d="M10 68L52.2791 107.381M10 68V107.381M10 68H52.2791M52.2791 107.381V68M52.2791 107.381H10M52.2791 68L10 107.381" stroke="black"/>
<path d="M56.9767 68L99.2558 107.381M56.9767 68V107.381M56.9767 68H99.2558M99.2558 107.381V68M99.2558 107.381H56.9767M99.2558 68L56.9767 107.381" stroke="black"/>
<path d="M103.953 68L146.233 107.381M103.953 68V107.381M103.953 68H146.233M146.233 107.381V68M146.233 107.381H103.953M146.233 68L103.953 107.381" stroke="black"/>
<path d="M150.93 68L193.209 107.381M150.93 68V107.381M150.93 68H193.209M193.209 107.381V68M193.209 107.381H150.93M193.209 68L150.93 107.381" stroke="black"/>
<path d="M10 117L52.2791 156.381M10 117V156.381M10 117H52.2791M52.2791 156.381V117M52.2791 156.381H10M52.2791 117L10 156.381" stroke="black"/>
<path d="M56.9767 117L99.2558 156.381M56.9767 117V156.381M56.9767 117H99.2558M99.2558 156.381V117M99.2558 156.381H56.9767M99.2558 117L56.9767 156.381" stroke="black"/>
<path d="M103.953 117L146.233 156.381M103.953 117V156.381M103.953 117H146.233M146.233 156.381V117M146.233 156.381H103.953M146.233 117L103.953 156.381" stroke="black"/>
<path d="M150.93 117L193.209 156.381M150.93 117V156.381M150.93 117H193.209M193.209 156.381V117M193.209 156.381H150.93M193.209 117L150.93 156.381" stroke="black"/>
<path d="M10 166L52.2791 205.381M10 166V205.381M10 166H52.2791M52.2791 205.381V166M52.2791 205.381H10M52.2791 166L10 205.381" stroke="black"/>
<path d="M56.9767 166L99.2558 205.381M56.9767 166V205.381M56.9767 166H99.2558M99.2558 205.381V166M99.2558 205.381H56.9767M99.2558 166L56.9767 205.381" stroke="black"/>
<path d="M103.953 166L146.233 205.381M103.953 166V205.381M103.953 166H146.233M146.233 205.381V166M146.233 205.381H103.953M146.233 166L103.953 205.381" stroke="black"/>
<path d="M150.93 166L193.209 205.381M150.93 166V205.381M150.93 166H193.209M193.209 205.381V166M193.209 205.381H150.93M193.209 166L150.93 205.381" stroke="black"/>
<path d="M10 218L52.2791 257.381M10 218V257.381M10 218H52.2791M52.2791 257.381V218M52.2791 257.381H10M52.2791 218L10 257.381" stroke="black"/>
<path d="M56.9767 218L99.2558 257.381M56.9767 218V257.381M56.9767 218H99.2558M99.2558 257.381V218M99.2558 257.381H56.9767M99.2558 218L56.9767 257.381" stroke="black"/>
<path d="M103.953 218L146.233 257.381M103.953 218V257.381M103.953 218H146.233M146.233 257.381V218M146.233 257.381H103.953M146.233 218L103.953 257.381" stroke="black"/>
<path d="M150.93 218L193.209 257.381M150.93 218V257.381M150.93 218H193.209M193.209 257.381V218M193.209 257.381H150.93M193.209 218L150.93 257.381" stroke="black"/>
<path d="M10 269L52.2791 308.381M10 269V308.381M10 269H52.2791M52.2791 308.381V269M52.2791 308.381H10M52.2791 269L10 308.381" stroke="black"/>
<path d="M56.9767 269L99.2558 308.381M56.9767 269V308.381M56.9767 269H99.2558M99.2558 308.381V269M99.2558 308.381H56.9767M99.2558 269L56.9767 308.381" stroke="black"/>
<path d="M103.953 269L146.233 308.381M103.953 269V308.381M103.953 269H146.233M146.233 308.381V269M146.233 308.381H103.953M146.233 269L103.953 308.381" stroke="black"/>
<path d="M150.93 269L193.209 308.381M150.93 269V308.381M150.93 269H193.209M193.209 308.381V269M193.209 308.381H150.93M193.209 269L150.93 308.381" stroke="black"/>
<path d="M10 320L52.2791 359.381M10 320V359.381M10 320H52.2791M52.2791 359.381V320M52.2791 359.381H10M52.2791 320L10 359.381" stroke="black"/>
<path d="M56.9767 320L99.2558 359.381M56.9767 320V359.381M56.9767 320H99.2558M99.2558 359.381V320M99.2558 359.381H56.9767M99.2558 320L56.9767 359.381" stroke="black"/>
<path d="M103.953 320L146.233 359.381M103.953 320V359.381M103.953 320H146.233M146.233 359.381V320M146.233 359.381H103.953M146.233 320L103.953 359.381" stroke="black"/>
<path d="M150.93 320L193.209 359.381M150.93 320V359.381M150.93 320H193.209M193.209 359.381V320M193.209 359.381H150.93M193.209 320L150.93 359.381" stroke="black"/>
</svg>
