<svg width="202" height="431" viewBox="0 0 202 431" fill="none" xmlns="http://www.w3.org/2000/svg">
<rect width="202" height="431" fill="white"/>
<rect x="8.97778" y="315.941" width="183.147" height="109.4" fill="#E3E3E3"/>
<path d="M17.3812 375.429L66.7068 421.373M17.3812 375.429V421.373M17.3812 375.429H66.7068M66.7068 421.373V375.429M66.7068 421.373H17.3812M66.7068 375.429L17.3812 421.373" stroke="black"/>
<path d="M17.3812 324.672L30.5347 336.924M17.3812 324.672V336.924M17.3812 324.672H30.5347M30.5347 336.924V324.672M30.5347 336.924H17.3812M30.5347 324.672L17.3812 336.924" stroke="black"/>
<path d="M77.5117 375.429L126.837 421.373M77.5117 375.429V421.373M77.5117 375.429H126.837M126.837 421.373V375.429M126.837 421.373H77.5117M126.837 375.429L77.5117 421.373" stroke="black"/>
<path d="M137.172 375.429L186.498 421.373M137.172 375.429V421.373M137.172 375.429H186.498M186.498 421.373V375.429M186.498 421.373H137.172M186.498 375.429L137.172 421.373" stroke="black"/>
<path d="M35.9433 334H35.2047L37.341 328.182H38.0683L40.2047 334H39.466L37.7274 329.102H37.6819L35.9433 334ZM36.216 331.727H39.1933V332.352H36.216V331.727ZM43.77 332.216V329.636H44.4405V334H43.77V333.261H43.7246C43.6223 333.483 43.4632 333.671 43.2473 333.827C43.0314 333.98 42.7586 334.057 42.4291 334.057C42.1564 334.057 41.9139 333.997 41.7018 333.878C41.4897 333.757 41.323 333.575 41.2018 333.332C41.0806 333.088 41.02 332.78 41.02 332.409V329.636H41.6905V332.364C41.6905 332.682 41.7795 332.936 41.9575 333.125C42.1374 333.314 42.3666 333.409 42.645 333.409C42.8117 333.409 42.9812 333.366 43.1535 333.281C43.3278 333.196 43.4736 333.065 43.591 332.889C43.7103 332.713 43.77 332.489 43.77 332.216ZM47.5662 329.636V330.205H45.3048V329.636H47.5662ZM45.9639 328.591H46.6344V332.75C46.6344 332.939 46.6618 333.081 46.7167 333.176C46.7736 333.269 46.8455 333.331 46.9327 333.364C47.0217 333.394 47.1154 333.409 47.2139 333.409C47.2878 333.409 47.3484 333.405 47.3957 333.398C47.4431 333.388 47.4809 333.381 47.5094 333.375L47.6457 333.977C47.6003 333.994 47.5368 334.011 47.4554 334.028C47.3739 334.047 47.2707 334.057 47.1457 334.057C46.9563 334.057 46.7707 334.016 46.5889 333.935C46.409 333.853 46.2594 333.729 46.14 333.562C46.0226 333.396 45.9639 333.186 45.9639 332.932V328.591ZM49.3389 331.375V334H48.6684V328.182H49.3389V330.318H49.3957C49.498 330.093 49.6514 329.914 49.8559 329.781C50.0624 329.647 50.337 329.58 50.6798 329.58C50.9772 329.58 51.2376 329.639 51.4611 329.759C51.6845 329.876 51.8578 330.057 51.9809 330.301C52.1059 330.544 52.1684 330.852 52.1684 331.227V334H51.498V331.273C51.498 330.926 51.408 330.658 51.2281 330.469C51.0501 330.277 50.8029 330.182 50.4866 330.182C50.2669 330.182 50.07 330.228 49.8957 330.321C49.7234 330.414 49.587 330.549 49.4866 330.727C49.3881 330.905 49.3389 331.121 49.3389 331.375ZM55.1677 334.091C54.7738 334.091 54.4282 333.997 54.1308 333.81C53.8353 333.622 53.6043 333.36 53.4376 333.023C53.2728 332.686 53.1905 332.292 53.1905 331.841C53.1905 331.386 53.2728 330.99 53.4376 330.651C53.6043 330.312 53.8353 330.048 54.1308 329.861C54.4282 329.673 54.7738 329.58 55.1677 329.58C55.5617 329.58 55.9064 329.673 56.2018 329.861C56.4992 330.048 56.7302 330.312 56.895 330.651C57.0617 330.99 57.145 331.386 57.145 331.841C57.145 332.292 57.0617 332.686 56.895 333.023C56.7302 333.36 56.4992 333.622 56.2018 333.81C55.9064 333.997 55.5617 334.091 55.1677 334.091ZM55.1677 333.489C55.467 333.489 55.7132 333.412 55.9064 333.259C56.0996 333.105 56.2425 332.903 56.3353 332.653C56.4282 332.403 56.4746 332.133 56.4746 331.841C56.4746 331.549 56.4282 331.277 56.3353 331.026C56.2425 330.774 56.0996 330.57 55.9064 330.415C55.7132 330.259 55.467 330.182 55.1677 330.182C54.8685 330.182 54.6223 330.259 54.4291 330.415C54.2359 330.57 54.0929 330.774 54.0001 331.026C53.9073 331.277 53.8609 331.549 53.8609 331.841C53.8609 332.133 53.9073 332.403 54.0001 332.653C54.0929 332.903 54.2359 333.105 54.4291 333.259C54.6223 333.412 54.8685 333.489 55.1677 333.489ZM58.1684 334V329.636H58.8162V330.295H58.8616C58.9412 330.08 59.0851 329.904 59.2934 329.77C59.5018 329.635 59.7366 329.568 59.998 329.568C60.0472 329.568 60.1088 329.569 60.1827 329.571C60.2565 329.573 60.3124 329.576 60.3503 329.58V330.261C60.3275 330.256 60.2755 330.247 60.194 330.236C60.1145 330.223 60.0302 330.216 59.9412 330.216C59.7291 330.216 59.5397 330.26 59.373 330.349C59.2082 330.437 59.0775 330.558 58.9809 330.713C58.8862 330.866 58.8389 331.042 58.8389 331.239V334H58.1684Z" fill="black"/>
<path d="M18.0858 348.862V343.044H20.0517C20.5081 343.044 20.8812 343.126 21.171 343.291C21.4627 343.454 21.6786 343.674 21.8187 343.953C21.9589 344.231 22.029 344.542 22.029 344.885C22.029 345.227 21.9589 345.539 21.8187 345.819C21.6805 346.1 21.4665 346.323 21.1767 346.49C20.8869 346.654 20.5157 346.737 20.063 346.737H18.654V346.112H20.0403C20.3528 346.112 20.6038 346.058 20.7932 345.95C20.9826 345.842 21.1199 345.696 21.2051 345.512C21.2922 345.327 21.3358 345.117 21.3358 344.885C21.3358 344.652 21.2922 344.443 21.2051 344.26C21.1199 344.076 20.9816 343.932 20.7903 343.828C20.599 343.722 20.3452 343.669 20.029 343.669H18.7903V348.862H18.0858ZM24.7988 348.953C24.4049 348.953 24.0593 348.859 23.7619 348.671C23.4665 348.484 23.2354 348.222 23.0687 347.885C22.904 347.547 22.8216 347.153 22.8216 346.703C22.8216 346.248 22.904 345.851 23.0687 345.512C23.2354 345.173 23.4665 344.91 23.7619 344.723C24.0593 344.535 24.4049 344.441 24.7988 344.441C25.1928 344.441 25.5375 344.535 25.8329 344.723C26.1303 344.91 26.3613 345.173 26.5261 345.512C26.6928 345.851 26.7761 346.248 26.7761 346.703C26.7761 347.153 26.6928 347.547 26.5261 347.885C26.3613 348.222 26.1303 348.484 25.8329 348.671C25.5375 348.859 25.1928 348.953 24.7988 348.953ZM24.7988 348.35C25.0981 348.35 25.3443 348.274 25.5375 348.12C25.7307 347.967 25.8736 347.765 25.9665 347.515C26.0593 347.265 26.1057 346.994 26.1057 346.703C26.1057 346.411 26.0593 346.139 25.9665 345.887C25.8736 345.635 25.7307 345.432 25.5375 345.277C25.3443 345.121 25.0981 345.044 24.7988 345.044C24.4996 345.044 24.2534 345.121 24.0602 345.277C23.867 345.432 23.724 345.635 23.6312 345.887C23.5384 346.139 23.492 346.411 23.492 346.703C23.492 346.994 23.5384 347.265 23.6312 347.515C23.724 347.765 23.867 347.967 24.0602 348.12C24.2534 348.274 24.4996 348.35 24.7988 348.35ZM30.8905 345.475L30.2882 345.646C30.2503 345.546 30.1944 345.448 30.1206 345.353C30.0486 345.257 29.9501 345.177 29.8251 345.115C29.7001 345.052 29.5401 345.021 29.345 345.021C29.078 345.021 28.8554 345.082 28.6774 345.206C28.5013 345.327 28.4132 345.481 28.4132 345.669C28.4132 345.835 28.4738 345.967 28.595 346.064C28.7162 346.16 28.9056 346.241 29.1632 346.305L29.8109 346.464C30.2011 346.559 30.4918 346.704 30.6831 346.899C30.8744 347.092 30.97 347.341 30.97 347.646C30.97 347.896 30.898 348.119 30.7541 348.316C30.612 348.513 30.4132 348.669 30.1575 348.782C29.9018 348.896 29.6045 348.953 29.2655 348.953C28.8204 348.953 28.452 348.856 28.1603 348.663C27.8687 348.47 27.684 348.188 27.6064 347.816L28.2427 347.657C28.3033 347.892 28.4179 348.068 28.5865 348.186C28.7569 348.303 28.9795 348.362 29.2541 348.362C29.5666 348.362 29.8147 348.296 29.9984 348.163C30.184 348.028 30.2768 347.867 30.2768 347.68C30.2768 347.528 30.2238 347.402 30.1177 347.299C30.0117 347.195 29.8488 347.117 29.6291 347.066L28.9018 346.896C28.5022 346.801 28.2086 346.654 28.0211 346.456C27.8355 346.255 27.7427 346.004 27.7427 345.703C27.7427 345.457 27.8119 345.239 27.9501 345.049C28.0903 344.86 28.2806 344.711 28.5211 344.603C28.7636 344.495 29.0382 344.441 29.345 344.441C29.7768 344.441 30.1158 344.536 30.362 344.725C30.6102 344.915 30.7863 345.165 30.8905 345.475ZM33.877 344.498V345.066H31.6156V344.498H33.877ZM32.2747 343.453H32.9451V347.612C32.9451 347.801 32.9726 347.943 33.0275 348.038C33.0844 348.131 33.1563 348.193 33.2434 348.225C33.3325 348.256 33.4262 348.271 33.5247 348.271C33.5986 348.271 33.6592 348.267 33.7065 348.26C33.7539 348.25 33.7917 348.242 33.8201 348.237L33.9565 348.839C33.9111 348.856 33.8476 348.873 33.7662 348.89C33.6847 348.909 33.5815 348.919 33.4565 348.919C33.2671 348.919 33.0815 348.878 32.8997 348.796C32.7198 348.715 32.5701 348.591 32.4508 348.424C32.3334 348.258 32.2747 348.047 32.2747 347.794V343.453ZM38.9082 348.953C38.4991 348.953 38.1469 348.856 37.8514 348.663C37.5559 348.47 37.3287 348.204 37.1696 347.865C37.0105 347.526 36.9309 347.138 36.9309 346.703C36.9309 346.26 37.0124 345.868 37.1753 345.529C37.34 345.189 37.5692 344.922 37.8628 344.731C38.1582 344.538 38.5029 344.441 38.8969 344.441C39.2037 344.441 39.4802 344.498 39.7264 344.612C39.9726 344.725 40.1743 344.885 40.3315 345.089C40.4887 345.294 40.5862 345.532 40.6241 345.805H39.9537C39.9025 345.606 39.7889 345.43 39.6128 345.277C39.4385 345.121 39.2037 345.044 38.9082 345.044C38.6469 345.044 38.4177 345.112 38.2207 345.248C38.0256 345.383 37.8732 345.573 37.7633 345.819C37.6554 346.064 37.6014 346.35 37.6014 346.68C37.6014 347.017 37.6544 347.311 37.7605 347.561C37.8684 347.811 38.02 348.005 38.215 348.143C38.412 348.281 38.6431 348.35 38.9082 348.35C39.0825 348.35 39.2406 348.32 39.3826 348.26C39.5247 348.199 39.645 348.112 39.7434 347.998C39.8419 347.885 39.912 347.748 39.9537 347.589H40.6241C40.5862 347.847 40.4925 348.079 40.3429 348.285C40.1951 348.49 39.9991 348.653 39.7548 348.774C39.5124 348.893 39.2302 348.953 38.9082 348.953ZM43.377 348.953C42.983 348.953 42.6374 348.859 42.34 348.671C42.0446 348.484 41.8135 348.222 41.6469 347.885C41.4821 347.547 41.3997 347.153 41.3997 346.703C41.3997 346.248 41.4821 345.851 41.6469 345.512C41.8135 345.173 42.0446 344.91 42.34 344.723C42.6374 344.535 42.983 344.441 43.377 344.441C43.7709 344.441 44.1156 344.535 44.4111 344.723C44.7084 344.91 44.9395 345.173 45.1042 345.512C45.2709 345.851 45.3542 346.248 45.3542 346.703C45.3542 347.153 45.2709 347.547 45.1042 347.885C44.9395 348.222 44.7084 348.484 44.4111 348.671C44.1156 348.859 43.7709 348.953 43.377 348.953ZM43.377 348.35C43.6762 348.35 43.9224 348.274 44.1156 348.12C44.3088 347.967 44.4518 347.765 44.5446 347.515C44.6374 347.265 44.6838 346.994 44.6838 346.703C44.6838 346.411 44.6374 346.139 44.5446 345.887C44.4518 345.635 44.3088 345.432 44.1156 345.277C43.9224 345.121 43.6762 345.044 43.377 345.044C43.0777 345.044 42.8315 345.121 42.6383 345.277C42.4451 345.432 42.3022 345.635 42.2094 345.887C42.1165 346.139 42.0701 346.411 42.0701 346.703C42.0701 346.994 42.1165 347.265 42.2094 347.515C42.3022 347.765 42.4451 347.967 42.6383 348.12C42.8315 348.274 43.0777 348.35 43.377 348.35ZM47.0481 346.237V348.862H46.3777V344.498H47.0254V345.18H47.0822C47.1845 344.958 47.3398 344.78 47.5481 344.646C47.7565 344.51 48.0254 344.441 48.3549 344.441C48.6504 344.441 48.9089 344.502 49.1305 344.623C49.3521 344.742 49.5245 344.924 49.6476 345.169C49.7707 345.411 49.8322 345.718 49.8322 346.089V348.862H49.1618V346.135C49.1618 345.792 49.0728 345.525 48.8947 345.333C48.7167 345.14 48.4724 345.044 48.1618 345.044C47.9478 345.044 47.7565 345.09 47.5879 345.183C47.4212 345.276 47.2896 345.411 47.193 345.589C47.0964 345.767 47.0481 345.983 47.0481 346.237ZM52.9551 344.498V345.066H50.6937V344.498H52.9551ZM51.3528 343.453H52.0233V347.612C52.0233 347.801 52.0507 347.943 52.1057 348.038C52.1625 348.131 52.2344 348.193 52.3216 348.225C52.4106 348.256 52.5043 348.271 52.6028 348.271C52.6767 348.271 52.7373 348.267 52.7846 348.26C52.832 348.25 52.8699 348.242 52.8983 348.237L53.0346 348.839C52.9892 348.856 52.9257 348.873 52.8443 348.89C52.7629 348.909 52.6596 348.919 52.5346 348.919C52.3452 348.919 52.1596 348.878 51.9778 348.796C51.7979 348.715 51.6483 348.591 51.529 348.424C51.4115 348.258 51.3528 348.047 51.3528 347.794V343.453ZM55.7463 348.953C55.3258 348.953 54.9631 348.86 54.6582 348.674C54.3552 348.487 54.1213 348.225 53.9565 347.89C53.7936 347.553 53.7122 347.161 53.7122 346.714C53.7122 346.267 53.7936 345.873 53.9565 345.532C54.1213 345.189 54.3504 344.922 54.644 344.731C54.9395 344.538 55.2842 344.441 55.6781 344.441C55.9054 344.441 56.1298 344.479 56.3514 344.555C56.573 344.631 56.7747 344.754 56.9565 344.924C57.1383 345.093 57.2832 345.316 57.3912 345.595C57.4991 345.873 57.5531 346.216 57.5531 346.623V346.907H54.1895V346.328H56.8713C56.8713 346.082 56.822 345.862 56.7236 345.669C56.627 345.475 56.4887 345.323 56.3088 345.211C56.1308 345.1 55.9205 345.044 55.6781 345.044C55.4111 345.044 55.18 345.11 54.9849 345.242C54.7917 345.373 54.6431 345.544 54.5389 345.754C54.4347 345.964 54.3826 346.189 54.3826 346.43V346.816C54.3826 347.146 54.4395 347.425 54.5531 347.654C54.6686 347.882 54.8287 348.055 55.0332 348.174C55.2378 348.292 55.4754 348.35 55.7463 348.35C55.9224 348.35 56.0815 348.326 56.2236 348.277C56.3675 348.225 56.4915 348.15 56.5957 348.049C56.6999 347.947 56.7804 347.82 56.8372 347.669L57.4849 347.85C57.4167 348.07 57.3022 348.263 57.1412 348.43C56.9802 348.595 56.7813 348.724 56.5446 348.816C56.3078 348.907 56.0417 348.953 55.7463 348.953ZM59.2434 346.237V348.862H58.573V344.498H59.2207V345.18H59.2775C59.3798 344.958 59.5351 344.78 59.7434 344.646C59.9518 344.51 60.2207 344.441 60.5503 344.441C60.8457 344.441 61.1042 344.502 61.3258 344.623C61.5474 344.742 61.7198 344.924 61.8429 345.169C61.966 345.411 62.0275 345.718 62.0275 346.089V348.862H61.3571V346.135C61.3571 345.792 61.2681 345.525 61.09 345.333C60.912 345.14 60.6677 345.044 60.3571 345.044C60.1431 345.044 59.9518 345.09 59.7832 345.183C59.6165 345.276 59.4849 345.411 59.3883 345.589C59.2917 345.767 59.2434 345.983 59.2434 346.237ZM65.1504 344.498V345.066H62.889V344.498H65.1504ZM63.5481 343.453H64.2186V347.612C64.2186 347.801 64.246 347.943 64.301 348.038C64.3578 348.131 64.4298 348.193 64.5169 348.225C64.6059 348.256 64.6996 348.271 64.7981 348.271C64.872 348.271 64.9326 348.267 64.9799 348.26C65.0273 348.25 65.0652 348.242 65.0936 348.237L65.2299 348.839C65.1845 348.856 65.121 348.873 65.0396 348.89C64.9582 348.909 64.8549 348.919 64.7299 348.919C64.5406 348.919 64.3549 348.878 64.1731 348.796C63.9932 348.715 63.8436 348.591 63.7243 348.424C63.6068 348.258 63.5481 348.047 63.5481 347.794V343.453Z" fill="black"/>
<rect y="364.982" width="202" height="66.0175" fill="#D9D9D9"/>
<rect x="8.97778" y="15.0898" width="158.009" height="16.0328" fill="#D9D9D9"/>
<rect x="8.97778" y="37.7241" width="43.0933" height="7.54486" fill="#656565"/>
<rect x="56.5601" y="37.7241" width="42.1956" height="7.54486" fill="#D9D9D9"/>
<rect x="8.97778" y="50.9277" width="43.0933" height="8.48796" fill="#656565"/>
<rect x="56.5601" y="50.9277" width="42.1956" height="8.48796" fill="#D9D9D9"/>
<rect x="102.347" y="37.7241" width="43.0933" height="7.54486" fill="#D9D9D9"/>
<rect x="149.031" y="37.7241" width="43.0933" height="7.54486" fill="#D9D9D9"/>
<path d="M19.8864 21.6364C19.8523 21.3485 19.714 21.125 19.4716 20.9659C19.2292 20.8068 18.9318 20.7273 18.5795 20.7273C18.322 20.7273 18.0966 20.7689 17.9034 20.8523C17.7121 20.9356 17.5625 21.0502 17.4545 21.196C17.3485 21.3419 17.2955 21.5076 17.2955 21.6932C17.2955 21.8485 17.3324 21.982 17.4062 22.0938C17.482 22.2036 17.5786 22.2955 17.696 22.3693C17.8134 22.4413 17.9366 22.5009 18.0653 22.5483C18.1941 22.5937 18.3125 22.6307 18.4205 22.6591L19.0114 22.8182C19.1629 22.858 19.3314 22.9129 19.517 22.983C19.7045 23.053 19.8835 23.1487 20.054 23.2699C20.2263 23.3892 20.3684 23.5426 20.4801 23.7301C20.5919 23.9176 20.6477 24.1477 20.6477 24.4205C20.6477 24.7348 20.5653 25.0189 20.4006 25.2727C20.2377 25.5265 19.9991 25.7282 19.6847 25.8778C19.3722 26.0275 18.9924 26.1023 18.5455 26.1023C18.1288 26.1023 17.768 26.035 17.4631 25.9006C17.16 25.7661 16.9214 25.5786 16.7472 25.3381C16.5748 25.0975 16.4773 24.8182 16.4545 24.5H17.1818C17.2008 24.7197 17.2746 24.9015 17.4034 25.0455C17.5341 25.1875 17.6989 25.2936 17.8977 25.3636C18.0985 25.4318 18.3144 25.4659 18.5455 25.4659C18.8144 25.4659 19.0559 25.4223 19.2699 25.3352C19.4839 25.2462 19.6534 25.1231 19.7784 24.9659C19.9034 24.8068 19.9659 24.6212 19.9659 24.4091C19.9659 24.2159 19.9119 24.0587 19.804 23.9375C19.696 23.8163 19.554 23.7178 19.3778 23.642C19.2017 23.5663 19.0114 23.5 18.8068 23.4432L18.0909 23.2386C17.6364 23.108 17.2765 22.9214 17.0114 22.679C16.7462 22.4366 16.6136 22.1193 16.6136 21.7273C16.6136 21.4015 16.7017 21.1174 16.8778 20.875C17.0559 20.6307 17.2945 20.4413 17.5938 20.3068C17.8949 20.1705 18.2311 20.1023 18.6023 20.1023C18.9773 20.1023 19.3106 20.1695 19.6023 20.304C19.8939 20.4366 20.125 20.6184 20.2955 20.8494C20.4678 21.0805 20.5587 21.3428 20.5682 21.6364H19.8864ZM23.5447 26.0909C23.1243 26.0909 22.7616 25.9981 22.4567 25.8125C22.1536 25.625 21.9197 25.3636 21.755 25.0284C21.5921 24.6913 21.5107 24.2992 21.5107 23.8523C21.5107 23.4053 21.5921 23.0114 21.755 22.6705C21.9197 22.3277 22.1489 22.0606 22.4425 21.8693C22.7379 21.6761 23.0826 21.5795 23.4766 21.5795C23.7038 21.5795 23.9283 21.6174 24.1499 21.6932C24.3714 21.7689 24.5732 21.892 24.755 22.0625C24.9368 22.2311 25.0817 22.4545 25.1896 22.733C25.2976 23.0114 25.3516 23.3542 25.3516 23.7614V24.0455H21.9879V23.4659H24.6697C24.6697 23.2197 24.6205 23 24.522 22.8068C24.4254 22.6136 24.2872 22.4612 24.1072 22.3494C23.9292 22.2377 23.719 22.1818 23.4766 22.1818C23.2095 22.1818 22.9785 22.2481 22.7834 22.3807C22.5902 22.5114 22.4415 22.6818 22.3374 22.892C22.2332 23.1023 22.1811 23.3277 22.1811 23.5682V23.9545C22.1811 24.2841 22.2379 24.5634 22.3516 24.7926C22.4671 25.0199 22.6271 25.1932 22.8317 25.3125C23.0362 25.4299 23.2739 25.4886 23.5447 25.4886C23.7209 25.4886 23.88 25.464 24.022 25.4148C24.166 25.3636 24.29 25.2879 24.3942 25.1875C24.4983 25.0852 24.5788 24.9583 24.6357 24.8068L25.2834 24.9886C25.2152 25.2083 25.1006 25.4015 24.9396 25.5682C24.7786 25.733 24.5798 25.8617 24.343 25.9545C24.1063 26.0455 23.8402 26.0909 23.5447 26.0909ZM27.6555 26.1023C27.379 26.1023 27.1281 26.0502 26.9027 25.946C26.6773 25.84 26.4983 25.6875 26.3658 25.4886C26.2332 25.2879 26.1669 25.0455 26.1669 24.7614C26.1669 24.5114 26.2161 24.3087 26.3146 24.1534C26.4131 23.9962 26.5447 23.8731 26.7095 23.7841C26.8743 23.6951 27.0561 23.6288 27.255 23.5852C27.4557 23.5398 27.6574 23.5038 27.8601 23.4773C28.1252 23.4432 28.3402 23.4176 28.505 23.4006C28.6716 23.3816 28.7929 23.3504 28.8686 23.3068C28.9463 23.2633 28.9851 23.1875 28.9851 23.0795V23.0568C28.9851 22.7765 28.9084 22.5587 28.755 22.4034C28.6035 22.2481 28.3733 22.1705 28.0646 22.1705C27.7446 22.1705 27.4936 22.2405 27.3118 22.3807C27.13 22.5208 27.0021 22.6705 26.9283 22.8295L26.2919 22.6023C26.4055 22.3371 26.5571 22.1307 26.7464 21.983C26.9377 21.8333 27.1461 21.7292 27.3714 21.6705C27.5987 21.6098 27.8222 21.5795 28.0419 21.5795C28.1821 21.5795 28.343 21.5966 28.5249 21.6307C28.7086 21.6629 28.8857 21.7301 29.0561 21.8324C29.2285 21.9347 29.3714 22.089 29.4851 22.2955C29.5987 22.5019 29.6555 22.7784 29.6555 23.125V26H28.9851V25.4091H28.951C28.9055 25.5038 28.8298 25.6051 28.7237 25.7131C28.6177 25.821 28.4766 25.9129 28.3004 25.9886C28.1243 26.0644 27.9093 26.1023 27.6555 26.1023ZM27.7578 25.5C28.023 25.5 28.2464 25.4479 28.4283 25.3438C28.612 25.2396 28.7502 25.1051 28.843 24.9403C28.9377 24.7756 28.9851 24.6023 28.9851 24.4205V23.8068C28.9567 23.8409 28.8942 23.8722 28.7976 23.9006C28.7029 23.9271 28.593 23.9508 28.468 23.9716C28.3449 23.9905 28.2247 24.0076 28.1072 24.0227C27.9917 24.036 27.898 24.0473 27.826 24.0568C27.6518 24.0795 27.4889 24.1165 27.3374 24.1676C27.1877 24.2169 27.0665 24.2917 26.9737 24.392C26.8828 24.4905 26.8374 24.625 26.8374 24.7955C26.8374 25.0284 26.9235 25.2045 27.0959 25.3239C27.2701 25.4413 27.4908 25.5 27.7578 25.5ZM30.8793 26V21.6364H31.527V22.2955H31.5724C31.652 22.0795 31.7959 21.9044 32.0043 21.7699C32.2126 21.6354 32.4474 21.5682 32.7088 21.5682C32.758 21.5682 32.8196 21.5691 32.8935 21.571C32.9673 21.5729 33.0232 21.5758 33.0611 21.5795V22.2614C33.0384 22.2557 32.9863 22.2472 32.9048 22.2358C32.8253 22.2225 32.741 22.2159 32.652 22.2159C32.4399 22.2159 32.2505 22.2604 32.0838 22.3494C31.919 22.4366 31.7884 22.5578 31.6918 22.7131C31.5971 22.8665 31.5497 23.0417 31.5497 23.2386V26H30.8793ZM35.4957 26.0909C35.0866 26.0909 34.7344 25.9943 34.4389 25.8011C34.1435 25.608 33.9162 25.3419 33.7571 25.0028C33.598 24.6638 33.5185 24.2765 33.5185 23.8409C33.5185 23.3977 33.5999 23.0066 33.7628 22.6676C33.9276 22.3267 34.1567 22.0606 34.4503 21.8693C34.7457 21.6761 35.0904 21.5795 35.4844 21.5795C35.7912 21.5795 36.0677 21.6364 36.3139 21.75C36.5601 21.8636 36.7618 22.0227 36.919 22.2273C37.0762 22.4318 37.1738 22.6705 37.2116 22.9432H36.5412C36.4901 22.7443 36.3764 22.5682 36.2003 22.4148C36.026 22.2595 35.7912 22.1818 35.4957 22.1818C35.2344 22.1818 35.0052 22.25 34.8082 22.3864C34.6132 22.5208 34.4607 22.7112 34.3509 22.9574C34.2429 23.2017 34.1889 23.4886 34.1889 23.8182C34.1889 24.1553 34.242 24.4489 34.348 24.6989C34.456 24.9489 34.6075 25.143 34.8026 25.2812C34.9995 25.4195 35.2306 25.4886 35.4957 25.4886C35.67 25.4886 35.8281 25.4583 35.9702 25.3977C36.1122 25.3371 36.2325 25.25 36.331 25.1364C36.4295 25.0227 36.4995 24.8864 36.5412 24.7273H37.2116C37.1738 24.9848 37.08 25.2169 36.9304 25.4233C36.7827 25.6278 36.5866 25.7907 36.3423 25.9119C36.0999 26.0312 35.8177 26.0909 35.4957 26.0909ZM38.8622 23.375V26H38.1918V20.1818H38.8622V22.3182H38.919C39.0213 22.0928 39.1747 21.9138 39.3793 21.7812C39.5857 21.6468 39.8603 21.5795 40.2031 21.5795C40.5005 21.5795 40.7609 21.6392 40.9844 21.7585C41.2079 21.8759 41.3812 22.0568 41.5043 22.3011C41.6293 22.5436 41.6918 22.8523 41.6918 23.2273V26H41.0213V23.2727C41.0213 22.9261 40.9313 22.6581 40.7514 22.4688C40.5734 22.2775 40.3262 22.1818 40.0099 22.1818C39.7902 22.1818 39.5933 22.2282 39.419 22.321C39.2467 22.4138 39.1103 22.5492 39.0099 22.7273C38.9115 22.9053 38.8622 23.1212 38.8622 23.375ZM45.2592 26V20.1818H47.2933C47.6986 20.1818 48.0329 20.2519 48.2962 20.392C48.5594 20.5303 48.7554 20.7169 48.8842 20.9517C49.013 21.1847 49.0774 21.4432 49.0774 21.7273C49.0774 21.9773 49.0329 22.1837 48.9439 22.3466C48.8568 22.5095 48.7412 22.6383 48.5973 22.733C48.4553 22.8277 48.3009 22.8977 48.1342 22.9432V23C48.3123 23.0114 48.4912 23.0739 48.6712 23.1875C48.8511 23.3011 49.0017 23.464 49.1229 23.6761C49.2441 23.8883 49.3047 24.1477 49.3047 24.4545C49.3047 24.7462 49.2384 25.0085 49.1058 25.2415C48.9732 25.4744 48.764 25.6591 48.478 25.7955C48.192 25.9318 47.8198 26 47.3615 26H45.2592ZM45.9638 25.375H47.3615C47.8217 25.375 48.1484 25.286 48.3416 25.108C48.5367 24.928 48.6342 24.7102 48.6342 24.4545C48.6342 24.2576 48.584 24.0758 48.4837 23.9091C48.3833 23.7405 48.2403 23.6061 48.0547 23.5057C47.8691 23.4034 47.6494 23.3523 47.3956 23.3523H45.9638V25.375ZM45.9638 22.7386H47.2706C47.4827 22.7386 47.674 22.697 47.8445 22.6136C48.0168 22.5303 48.1532 22.4129 48.2536 22.2614C48.3558 22.1098 48.407 21.9318 48.407 21.7273C48.407 21.4716 48.3179 21.2547 48.1399 21.0767C47.9619 20.8968 47.6797 20.8068 47.2933 20.8068H45.9638V22.7386ZM51.6555 26.1023C51.379 26.1023 51.1281 26.0502 50.9027 25.946C50.6773 25.84 50.4983 25.6875 50.3658 25.4886C50.2332 25.2879 50.1669 25.0455 50.1669 24.7614C50.1669 24.5114 50.2161 24.3087 50.3146 24.1534C50.4131 23.9962 50.5447 23.8731 50.7095 23.7841C50.8743 23.6951 51.0561 23.6288 51.255 23.5852C51.4557 23.5398 51.6574 23.5038 51.8601 23.4773C52.1252 23.4432 52.3402 23.4176 52.505 23.4006C52.6716 23.3816 52.7929 23.3504 52.8686 23.3068C52.9463 23.2633 52.9851 23.1875 52.9851 23.0795V23.0568C52.9851 22.7765 52.9084 22.5587 52.755 22.4034C52.6035 22.2481 52.3733 22.1705 52.0646 22.1705C51.7446 22.1705 51.4936 22.2405 51.3118 22.3807C51.13 22.5208 51.0021 22.6705 50.9283 22.8295L50.2919 22.6023C50.4055 22.3371 50.5571 22.1307 50.7464 21.983C50.9377 21.8333 51.1461 21.7292 51.3714 21.6705C51.5987 21.6098 51.8222 21.5795 52.0419 21.5795C52.1821 21.5795 52.343 21.5966 52.5249 21.6307C52.7086 21.6629 52.8857 21.7301 53.0561 21.8324C53.2285 21.9347 53.3714 22.089 53.4851 22.2955C53.5987 22.5019 53.6555 22.7784 53.6555 23.125V26H52.9851V25.4091H52.951C52.9055 25.5038 52.8298 25.6051 52.7237 25.7131C52.6177 25.821 52.4766 25.9129 52.3004 25.9886C52.1243 26.0644 51.9093 26.1023 51.6555 26.1023ZM51.7578 25.5C52.023 25.5 52.2464 25.4479 52.4283 25.3438C52.612 25.2396 52.7502 25.1051 52.843 24.9403C52.9377 24.7756 52.9851 24.6023 52.9851 24.4205V23.8068C52.9567 23.8409 52.8942 23.8722 52.7976 23.9006C52.7029 23.9271 52.593 23.9508 52.468 23.9716C52.3449 23.9905 52.2247 24.0076 52.1072 24.0227C51.9917 24.036 51.898 24.0473 51.826 24.0568C51.6518 24.0795 51.4889 24.1165 51.3374 24.1676C51.1877 24.2169 51.0665 24.2917 50.9737 24.392C50.8828 24.4905 50.8374 24.625 50.8374 24.7955C50.8374 25.0284 50.9235 25.2045 51.0959 25.3239C51.2701 25.4413 51.4908 25.5 51.7578 25.5ZM54.8793 26V21.6364H55.527V22.2955H55.5724C55.652 22.0795 55.7959 21.9044 56.0043 21.7699C56.2126 21.6354 56.4474 21.5682 56.7088 21.5682C56.758 21.5682 56.8196 21.5691 56.8935 21.571C56.9673 21.5729 57.0232 21.5758 57.0611 21.5795V22.2614C57.0384 22.2557 56.9863 22.2472 56.9048 22.2358C56.8253 22.2225 56.741 22.2159 56.652 22.2159C56.4399 22.2159 56.2505 22.2604 56.0838 22.3494C55.919 22.4366 55.7884 22.5578 55.6918 22.7131C55.5971 22.8665 55.5497 23.0417 55.5497 23.2386V26H54.8793Z" fill="black"/>
<rect x="174.169" y="15.0898" width="17.9556" height="16.0328" fill="#D9D9D9"/>
<rect x="3.75806" y="381.118" width="35.2326" height="32.8173" fill="white"/>
<rect x="43.6885" y="381.118" width="35.2326" height="32.8173" fill="#656565"/>
<rect x="83.6188" y="381.118" width="35.2326" height="32.8173" fill="white"/>
<rect x="123.549" y="381.118" width="35.2326" height="32.8173" fill="white"/>
<rect x="163.479" y="381.118" width="35.2326" height="32.8173" fill="white"/>
<path d="M20.2415 40.7543V40.3636H22.9688V40.7543H21.8253V44H21.3849V40.7543H20.2415ZM24.0106 42.3594V44H23.5915V40.3636H24.0106V41.6989H24.0461C24.11 41.558 24.2059 41.4461 24.3337 41.3633C24.4627 41.2792 24.6344 41.2372 24.8486 41.2372C25.0345 41.2372 25.1972 41.2745 25.3369 41.3491C25.4766 41.4225 25.5849 41.5355 25.6618 41.6882C25.74 41.8397 25.779 42.0327 25.779 42.267V44H25.36V42.2955C25.36 42.0788 25.3038 41.9113 25.1913 41.793C25.08 41.6734 24.9256 41.6136 24.7279 41.6136C24.5906 41.6136 24.4675 41.6426 24.3586 41.7006C24.2509 41.7586 24.1656 41.8433 24.1029 41.9545C24.0413 42.0658 24.0106 42.2008 24.0106 42.3594ZM26.5456 44V41.2727H26.9505V41.6847H26.9789C27.0286 41.5497 27.1185 41.4402 27.2488 41.3562C27.379 41.2721 27.5257 41.2301 27.6891 41.2301C27.7199 41.2301 27.7583 41.2307 27.8045 41.2319C27.8507 41.2331 27.8856 41.2348 27.9093 41.2372V41.6634C27.8951 41.6598 27.8625 41.6545 27.8116 41.6474C27.7619 41.6391 27.7092 41.6349 27.6536 41.6349C27.521 41.6349 27.4026 41.6628 27.2985 41.7184C27.1955 41.7728 27.1138 41.8486 27.0534 41.9457C26.9943 42.0415 26.9647 42.151 26.9647 42.2741V44H26.5456ZM29.4664 44.0568C29.2037 44.0568 28.977 43.9988 28.7864 43.8828C28.597 43.7656 28.4508 43.6023 28.3478 43.3928C28.246 43.1821 28.1951 42.937 28.1951 42.6577C28.1951 42.3783 28.246 42.1321 28.3478 41.919C28.4508 41.7048 28.594 41.5379 28.7775 41.4183C28.9622 41.2976 29.1776 41.2372 29.4238 41.2372C29.5659 41.2372 29.7061 41.2609 29.8446 41.3082C29.9831 41.3556 30.1092 41.4325 30.2228 41.5391C30.3365 41.6444 30.427 41.7841 30.4945 41.9581C30.562 42.1321 30.5957 42.3464 30.5957 42.6009V42.7784H28.4934V42.4162H30.1696C30.1696 42.2623 30.1388 42.125 30.0772 42.0043C30.0169 41.8835 29.9305 41.7882 29.818 41.7184C29.7067 41.6486 29.5753 41.6136 29.4238 41.6136C29.2569 41.6136 29.1125 41.6551 28.9906 41.7379C28.8699 41.8196 28.7769 41.9261 28.7118 42.0575C28.6467 42.1889 28.6142 42.3298 28.6142 42.4801V42.7216C28.6142 42.9276 28.6497 43.1022 28.7207 43.2454C28.7929 43.3874 28.8929 43.4957 29.0208 43.5703C29.1486 43.6437 29.2972 43.6804 29.4664 43.6804C29.5765 43.6804 29.676 43.665 29.7647 43.6342C29.8547 43.6023 29.9322 43.5549 29.9973 43.4922C30.0624 43.4283 30.1127 43.349 30.1483 43.2543L30.5531 43.3679C30.5105 43.5052 30.4389 43.6259 30.3382 43.7301C30.2376 43.8331 30.1133 43.9136 29.9654 43.9716C29.8174 44.0284 29.6511 44.0568 29.4664 44.0568ZM32.0357 44.0639C31.8629 44.0639 31.706 44.0314 31.5652 43.9663C31.4243 43.9 31.3124 43.8047 31.2296 43.6804C31.1467 43.5549 31.1053 43.4034 31.1053 43.2259C31.1053 43.0696 31.1361 42.9429 31.1976 42.8459C31.2592 42.7476 31.3414 42.6707 31.4444 42.6151C31.5474 42.5594 31.661 42.518 31.7853 42.4908C31.9108 42.4624 32.0369 42.4399 32.1635 42.4233C32.3292 42.402 32.4636 42.386 32.5666 42.3754C32.6708 42.3635 32.7465 42.344 32.7939 42.3168C32.8424 42.2895 32.8667 42.2422 32.8667 42.1747V42.1605C32.8667 41.9853 32.8187 41.8492 32.7228 41.7521C32.6281 41.6551 32.4843 41.6065 32.2914 41.6065C32.0913 41.6065 31.9345 41.6503 31.8208 41.7379C31.7072 41.8255 31.6273 41.919 31.5811 42.0185L31.1834 41.8764C31.2544 41.7107 31.3491 41.5817 31.4675 41.4893C31.5871 41.3958 31.7173 41.3307 31.8581 41.294C32.0002 41.2562 32.1399 41.2372 32.2772 41.2372C32.3648 41.2372 32.4654 41.2479 32.579 41.2692C32.6938 41.2893 32.8045 41.3313 32.911 41.3952C33.0188 41.4592 33.1081 41.5556 33.1792 41.6847C33.2502 41.8137 33.2857 41.9865 33.2857 42.2031V44H32.8667V43.6307H32.8453C32.8169 43.6899 32.7696 43.7532 32.7033 43.8207C32.637 43.8881 32.5488 43.9455 32.4387 43.9929C32.3287 44.0402 32.1943 44.0639 32.0357 44.0639ZM32.0996 43.6875C32.2653 43.6875 32.405 43.6549 32.5186 43.5898C32.6335 43.5247 32.7199 43.4407 32.7779 43.3377C32.8371 43.2347 32.8667 43.1264 32.8667 43.0128V42.6293C32.8489 42.6506 32.8098 42.6701 32.7495 42.6879C32.6903 42.7044 32.6216 42.7192 32.5435 42.7322C32.4666 42.7441 32.3914 42.7547 32.318 42.7642C32.2458 42.7725 32.1872 42.7796 32.1422 42.7855C32.0333 42.7997 31.9315 42.8228 31.8368 42.8548C31.7433 42.8855 31.6676 42.9323 31.6096 42.995C31.5527 43.0566 31.5243 43.1406 31.5243 43.2472C31.5243 43.3928 31.5782 43.5028 31.6859 43.5774C31.7948 43.6508 31.9327 43.6875 32.0996 43.6875ZM35.0803 44.0568C34.8531 44.0568 34.6524 43.9994 34.4784 43.8846C34.3044 43.7686 34.1683 43.6052 34.07 43.3945C33.9718 43.1826 33.9227 42.9323 33.9227 42.6435C33.9227 42.357 33.9718 42.1084 34.07 41.8977C34.1683 41.687 34.305 41.5243 34.4802 41.4094C34.6554 41.2946 34.8578 41.2372 35.0874 41.2372C35.265 41.2372 35.4053 41.2668 35.5083 41.326C35.6124 41.384 35.6917 41.4503 35.7462 41.5249C35.8018 41.5982 35.845 41.6586 35.8758 41.706H35.9113V40.3636H36.3303V44H35.9255V43.581H35.8758C35.845 43.6307 35.8012 43.6934 35.7444 43.7692C35.6876 43.8437 35.6065 43.9106 35.5012 43.9698C35.3958 44.0278 35.2555 44.0568 35.0803 44.0568ZM35.1372 43.6804C35.3052 43.6804 35.4473 43.6366 35.5633 43.549C35.6793 43.4602 35.7675 43.3377 35.8279 43.1815C35.8882 43.024 35.9184 42.8423 35.9184 42.6364C35.9184 42.4328 35.8888 42.2546 35.8296 42.1019C35.7704 41.948 35.6829 41.8285 35.5669 41.7433C35.4508 41.6568 35.3076 41.6136 35.1372 41.6136C34.9596 41.6136 34.8116 41.6592 34.6933 41.7504C34.5761 41.8403 34.4879 41.9628 34.4287 42.1179C34.3707 42.2718 34.3417 42.4446 34.3417 42.6364C34.3417 42.8305 34.3713 43.0069 34.4305 43.1655C34.4909 43.3229 34.5796 43.4484 34.6968 43.5419C34.8152 43.6342 34.962 43.6804 35.1372 43.6804ZM39.0878 41.8835L38.7114 41.9901C38.6877 41.9273 38.6528 41.8664 38.6066 41.8072C38.5616 41.7468 38.5001 41.6971 38.422 41.658C38.3438 41.619 38.2438 41.5994 38.1219 41.5994C37.955 41.5994 37.8159 41.6379 37.7046 41.7148C37.5945 41.7906 37.5395 41.8871 37.5395 42.0043C37.5395 42.1084 37.5774 42.1907 37.6531 42.2511C37.7289 42.3114 37.8473 42.3617 38.0083 42.402L38.4131 42.5014C38.6569 42.5606 38.8386 42.6512 38.9582 42.7731C39.0777 42.8938 39.1375 43.0495 39.1375 43.2401C39.1375 43.3963 39.0925 43.536 39.0026 43.6591C38.9138 43.7822 38.7895 43.8793 38.6297 43.9503C38.4699 44.0213 38.2841 44.0568 38.0722 44.0568C37.794 44.0568 37.5638 43.9964 37.3815 43.8757C37.1992 43.755 37.0838 43.5786 37.0352 43.3466L37.433 43.2472C37.4709 43.3939 37.5425 43.504 37.6478 43.5774C37.7544 43.6508 37.8934 43.6875 38.0651 43.6875C38.2604 43.6875 38.4155 43.6461 38.5303 43.5632C38.6463 43.4792 38.7043 43.3786 38.7043 43.2614C38.7043 43.1667 38.6711 43.0874 38.6048 43.0234C38.5386 42.9583 38.4368 42.9098 38.2994 42.8778L37.8449 42.7713C37.5951 42.7121 37.4117 42.6204 37.2945 42.4961C37.1785 42.3706 37.1205 42.2138 37.1205 42.0256C37.1205 41.8717 37.1637 41.7356 37.2501 41.6172C37.3377 41.4988 37.4566 41.4059 37.607 41.3384C37.7585 41.271 37.9301 41.2372 38.1219 41.2372C38.3918 41.2372 38.6037 41.2964 38.7575 41.4148C38.9126 41.5331 39.0227 41.6894 39.0878 41.8835Z" fill="white"/>
<path d="M22.4403 58V54.3636H23.669C23.9543 54.3636 24.1875 54.4151 24.3686 54.5181C24.5509 54.6199 24.6858 54.7578 24.7734 54.9318C24.861 55.1058 24.9048 55.3 24.9048 55.5142C24.9048 55.7285 24.861 55.9232 24.7734 56.0984C24.687 56.2736 24.5533 56.4132 24.3722 56.5174C24.1911 56.6204 23.959 56.6719 23.6761 56.6719H22.7955V56.2812H23.6619C23.8572 56.2812 24.0141 56.2475 24.1325 56.18C24.2508 56.1126 24.3366 56.0214 24.3899 55.9066C24.4444 55.7906 24.4716 55.6598 24.4716 55.5142C24.4716 55.3686 24.4444 55.2384 24.3899 55.1236C24.3366 55.0088 24.2502 54.9188 24.1307 54.8537C24.0111 54.7874 23.8525 54.7543 23.6548 54.7543H22.8807V58H22.4403ZM27.2761 56.8849V55.2727H27.6951V58H27.2761V57.5384H27.2477C27.1838 57.6768 27.0843 57.7946 26.9494 57.8917C26.8145 57.9876 26.644 58.0355 26.438 58.0355C26.2676 58.0355 26.1161 57.9982 25.9835 57.9237C25.8509 57.8479 25.7467 57.7343 25.671 57.5827C25.5952 57.43 25.5574 57.2377 25.5574 57.0057V55.2727H25.9764V56.9773C25.9764 57.1761 26.032 57.3348 26.1433 57.4531C26.2557 57.5715 26.399 57.6307 26.573 57.6307C26.6771 57.6307 26.7831 57.604 26.8908 57.5508C26.9997 57.4975 27.0908 57.4158 27.1642 57.3058C27.2388 57.1957 27.2761 57.0554 27.2761 56.8849ZM28.5194 58V54.3636H28.9385V55.706H28.974C29.0048 55.6586 29.0474 55.5982 29.1018 55.5249C29.1575 55.4503 29.2368 55.384 29.3398 55.326C29.4439 55.2668 29.5848 55.2372 29.7623 55.2372C29.992 55.2372 30.1944 55.2946 30.3696 55.4094C30.5448 55.5243 30.6815 55.687 30.7797 55.8977C30.878 56.1084 30.9271 56.357 30.9271 56.6435C30.9271 56.9323 30.878 57.1826 30.7797 57.3945C30.6815 57.6052 30.5454 57.7686 30.3714 57.8846C30.1974 57.9994 29.9967 58.0568 29.7694 58.0568C29.5943 58.0568 29.454 58.0278 29.3486 57.9698C29.2433 57.9106 29.1622 57.8437 29.1054 57.7692C29.0486 57.6934 29.0048 57.6307 28.974 57.581H28.9243V58H28.5194ZM28.9314 56.6364C28.9314 56.8423 28.9616 57.024 29.0219 57.1815C29.0823 57.3377 29.1705 57.4602 29.2865 57.549C29.4025 57.6366 29.5445 57.6804 29.7126 57.6804C29.8878 57.6804 30.034 57.6342 30.1512 57.5419C30.2696 57.4484 30.3583 57.3229 30.4175 57.1655C30.4779 57.0069 30.5081 56.8305 30.5081 56.6364C30.5081 56.4446 30.4785 56.2718 30.4193 56.1179C30.3613 55.9628 30.2731 55.8403 30.1547 55.7504C30.0376 55.6592 29.8902 55.6136 29.7126 55.6136C29.5422 55.6136 29.3989 55.6568 29.2829 55.7433C29.1669 55.8285 29.0793 55.948 29.0202 56.1019C28.961 56.2546 28.9314 56.4328 28.9314 56.6364ZM31.9871 54.3636V58H31.5681V54.3636H31.9871ZM32.7546 58V55.2727H33.1737V58H32.7546ZM32.9677 54.8182C32.886 54.8182 32.8156 54.7904 32.7564 54.7347C32.6984 54.6791 32.6694 54.6122 32.6694 54.5341C32.6694 54.456 32.6984 54.3891 32.7564 54.3335C32.8156 54.2778 32.886 54.25 32.9677 54.25C33.0494 54.25 33.1192 54.2778 33.1772 54.3335C33.2364 54.3891 33.266 54.456 33.266 54.5341C33.266 54.6122 33.2364 54.6791 33.1772 54.7347C33.1192 54.7904 33.0494 54.8182 32.9677 54.8182ZM35.0491 58.0568C34.7934 58.0568 34.5732 57.9964 34.3886 57.8757C34.2039 57.755 34.0619 57.5887 33.9624 57.3768C33.863 57.1649 33.8133 56.9228 33.8133 56.6506C33.8133 56.3736 33.8642 56.1291 33.966 55.9173C34.069 55.7042 34.2122 55.5379 34.3957 55.4183C34.5803 55.2976 34.7958 55.2372 35.042 55.2372C35.2338 55.2372 35.4066 55.2727 35.5605 55.3438C35.7143 55.4148 35.8404 55.5142 35.9387 55.642C36.0369 55.7699 36.0979 55.919 36.1215 56.0895H35.7025C35.6705 55.9652 35.5995 55.8551 35.4894 55.7592C35.3805 55.6622 35.2338 55.6136 35.0491 55.6136C34.8857 55.6136 34.7425 55.6562 34.6194 55.7415C34.4975 55.8255 34.4022 55.9445 34.3335 56.0984C34.2661 56.2511 34.2323 56.4304 34.2323 56.6364C34.2323 56.8471 34.2655 57.0305 34.3318 57.1868C34.3992 57.343 34.4939 57.4644 34.6159 57.5508C34.739 57.6372 34.8834 57.6804 35.0491 57.6804C35.158 57.6804 35.2568 57.6615 35.3456 57.6236C35.4344 57.5857 35.5096 57.5312 35.5711 57.4602C35.6327 57.3892 35.6765 57.304 35.7025 57.2045H36.1215C36.0979 57.3655 36.0393 57.5105 35.9458 57.6396C35.8534 57.7674 35.7309 57.8692 35.5782 57.945C35.4267 58.0195 35.2503 58.0568 35.0491 58.0568Z" fill="white"/>
<rect x="8.97778" y="71.6763" width="183.147" height="109.4" fill="#E3E3E3"/>
<rect x="8.97778" y="193.337" width="183.147" height="110.344" fill="#E3E3E3"/>
<path d="M16.16 122.604L65.5378 168.816M16.16 122.604V168.816M16.16 122.604H65.5378M65.5378 168.816V122.604M65.5378 168.816H16.16M65.5378 122.604L16.16 168.816" stroke="black"/>
<path d="M16.16 248.98L65.5378 294.25M16.16 248.98V294.25M16.16 248.98H65.5378M65.5378 294.25V248.98M65.5378 294.25H16.16M65.5378 248.98L16.16 294.25" stroke="black"/>
<path d="M17.0579 78.2778L30.5245 90.5382M17.0579 78.2778V90.5382M17.0579 78.2778H30.5245M30.5245 90.5382V78.2778M30.5245 90.5382H17.0579M30.5245 78.2778L17.0579 90.5382" stroke="black"/>
<path d="M17.0579 199.939L30.5245 212.199M17.0579 199.939V212.199M17.0579 199.939H30.5245M30.5245 212.199V199.939M30.5245 212.199H17.0579M30.5245 199.939L17.0579 212.199" stroke="black"/>
<path d="M76.3112 122.604L125.689 168.816M76.3112 122.604V168.816M76.3112 122.604H125.689M125.689 168.816V122.604M125.689 168.816H76.3112M125.689 122.604L76.3112 168.816" stroke="black"/>
<path d="M76.3112 248.98L125.689 294.25M76.3112 248.98V294.25M76.3112 248.98H125.689M125.689 294.25V248.98M125.689 294.25H76.3112M125.689 248.98L76.3112 294.25" stroke="black"/>
<path d="M136.462 122.604L185.84 168.816M136.462 122.604V168.816M136.462 122.604H185.84M185.84 168.816V122.604M185.84 168.816H136.462M185.84 122.604L136.462 168.816" stroke="black"/>
<path d="M135.564 248.98L184.942 294.25M135.564 248.98V294.25M135.564 248.98H184.942M184.942 294.25V248.98M184.942 294.25H135.564M184.942 248.98L135.564 294.25" stroke="black"/>
<path d="M35.9432 88H35.2045L37.3409 82.1818H38.0682L40.2045 88H39.4659L37.7273 83.1023H37.6818L35.9432 88ZM36.2159 85.7273H39.1932V86.3523H36.2159V85.7273ZM43.7699 86.2159V83.6364H44.4403V88H43.7699V87.2614H43.7244C43.6222 87.483 43.4631 87.6714 43.2472 87.8267C43.0313 87.9801 42.7585 88.0568 42.429 88.0568C42.1562 88.0568 41.9138 87.9972 41.7017 87.8778C41.4896 87.7566 41.3229 87.5748 41.2017 87.3324C41.0805 87.0881 41.0199 86.7803 41.0199 86.4091V83.6364H41.6903V86.3636C41.6903 86.6818 41.7794 86.9356 41.9574 87.125C42.1373 87.3144 42.3665 87.4091 42.6449 87.4091C42.8116 87.4091 42.9811 87.3665 43.1534 87.2812C43.3277 87.196 43.4735 87.0653 43.5909 86.8892C43.7102 86.7131 43.7699 86.4886 43.7699 86.2159ZM47.5661 83.6364V84.2045H45.3047V83.6364H47.5661ZM45.9638 82.5909H46.6342V86.75C46.6342 86.9394 46.6617 87.0814 46.7166 87.1761C46.7734 87.2689 46.8454 87.3314 46.9325 87.3636C47.0215 87.3939 47.1153 87.4091 47.2138 87.4091C47.2876 87.4091 47.3482 87.4053 47.3956 87.3977C47.4429 87.3883 47.4808 87.3807 47.5092 87.375L47.6456 87.9773C47.6001 87.9943 47.5367 88.0114 47.4553 88.0284C47.3738 88.0473 47.2706 88.0568 47.1456 88.0568C46.9562 88.0568 46.7706 88.0161 46.5888 87.9347C46.4089 87.8532 46.2592 87.7292 46.1399 87.5625C46.0225 87.3958 45.9638 87.1856 45.9638 86.9318V82.5909ZM49.3388 85.375V88H48.6683V82.1818H49.3388V84.3182H49.3956C49.4979 84.0928 49.6513 83.9138 49.8558 83.7812C50.0623 83.6468 50.3369 83.5795 50.6797 83.5795C50.977 83.5795 51.2375 83.6392 51.4609 83.7585C51.6844 83.8759 51.8577 84.0568 51.9808 84.3011C52.1058 84.5436 52.1683 84.8523 52.1683 85.2273V88H51.4979V85.2727C51.4979 84.9261 51.4079 84.6581 51.228 84.4688C51.05 84.2775 50.8028 84.1818 50.4865 84.1818C50.2668 84.1818 50.0698 84.2282 49.8956 84.321C49.7232 84.4138 49.5869 84.5492 49.4865 84.7273C49.388 84.9053 49.3388 85.1212 49.3388 85.375ZM55.1676 88.0909C54.7737 88.0909 54.428 87.9972 54.1307 87.8097C53.8352 87.6222 53.6042 87.3598 53.4375 87.0227C53.2727 86.6856 53.1903 86.2917 53.1903 85.8409C53.1903 85.3864 53.2727 84.9896 53.4375 84.6506C53.6042 84.3116 53.8352 84.0483 54.1307 83.8608C54.428 83.6733 54.7737 83.5795 55.1676 83.5795C55.5616 83.5795 55.9063 83.6733 56.2017 83.8608C56.4991 84.0483 56.7301 84.3116 56.8949 84.6506C57.0616 84.9896 57.1449 85.3864 57.1449 85.8409C57.1449 86.2917 57.0616 86.6856 56.8949 87.0227C56.7301 87.3598 56.4991 87.6222 56.2017 87.8097C55.9063 87.9972 55.5616 88.0909 55.1676 88.0909ZM55.1676 87.4886C55.4669 87.4886 55.7131 87.4119 55.9062 87.2585C56.0994 87.1051 56.2424 86.9034 56.3352 86.6534C56.428 86.4034 56.4744 86.1326 56.4744 85.8409C56.4744 85.5492 56.428 85.2775 56.3352 85.0256C56.2424 84.7737 56.0994 84.5701 55.9062 84.4148C55.7131 84.2595 55.4669 84.1818 55.1676 84.1818C54.8684 84.1818 54.6222 84.2595 54.429 84.4148C54.2358 84.5701 54.0928 84.7737 54 85.0256C53.9072 85.2775 53.8608 85.5492 53.8608 85.8409C53.8608 86.1326 53.9072 86.4034 54 86.6534C54.0928 86.9034 54.2358 87.1051 54.429 87.2585C54.6222 87.4119 54.8684 87.4886 55.1676 87.4886ZM58.1683 88V83.6364H58.8161V84.2955H58.8615C58.9411 84.0795 59.085 83.9044 59.2933 83.7699C59.5017 83.6354 59.7365 83.5682 59.9979 83.5682C60.0471 83.5682 60.1087 83.5691 60.1825 83.571C60.2564 83.5729 60.3123 83.5758 60.3501 83.5795V84.2614C60.3274 84.2557 60.2753 84.2472 60.1939 84.2358C60.1143 84.2225 60.0301 84.2159 59.9411 84.2159C59.7289 84.2159 59.5395 84.2604 59.3729 84.3494C59.2081 84.4366 59.0774 84.5578 58.9808 84.7131C58.8861 84.8665 58.8388 85.0417 58.8388 85.2386V88H58.1683Z" fill="black"/>
<path d="M35.9432 209H35.2045L37.3409 203.182H38.0682L40.2045 209H39.4659L37.7273 204.102H37.6818L35.9432 209ZM36.2159 206.727H39.1932V207.352H36.2159V206.727ZM43.7699 207.216V204.636H44.4403V209H43.7699V208.261H43.7244C43.6222 208.483 43.4631 208.671 43.2472 208.827C43.0313 208.98 42.7585 209.057 42.429 209.057C42.1562 209.057 41.9138 208.997 41.7017 208.878C41.4896 208.757 41.3229 208.575 41.2017 208.332C41.0805 208.088 41.0199 207.78 41.0199 207.409V204.636H41.6903V207.364C41.6903 207.682 41.7794 207.936 41.9574 208.125C42.1373 208.314 42.3665 208.409 42.6449 208.409C42.8116 208.409 42.9811 208.366 43.1534 208.281C43.3277 208.196 43.4735 208.065 43.5909 207.889C43.7102 207.713 43.7699 207.489 43.7699 207.216ZM47.5661 204.636V205.205H45.3047V204.636H47.5661ZM45.9638 203.591H46.6342V207.75C46.6342 207.939 46.6617 208.081 46.7166 208.176C46.7734 208.269 46.8454 208.331 46.9325 208.364C47.0215 208.394 47.1153 208.409 47.2138 208.409C47.2876 208.409 47.3482 208.405 47.3956 208.398C47.4429 208.388 47.4808 208.381 47.5092 208.375L47.6456 208.977C47.6001 208.994 47.5367 209.011 47.4553 209.028C47.3738 209.047 47.2706 209.057 47.1456 209.057C46.9562 209.057 46.7706 209.016 46.5888 208.935C46.4089 208.853 46.2592 208.729 46.1399 208.562C46.0225 208.396 45.9638 208.186 45.9638 207.932V203.591ZM49.3388 206.375V209H48.6683V203.182H49.3388V205.318H49.3956C49.4979 205.093 49.6513 204.914 49.8558 204.781C50.0623 204.647 50.3369 204.58 50.6797 204.58C50.977 204.58 51.2375 204.639 51.4609 204.759C51.6844 204.876 51.8577 205.057 51.9808 205.301C52.1058 205.544 52.1683 205.852 52.1683 206.227V209H51.4979V206.273C51.4979 205.926 51.4079 205.658 51.228 205.469C51.05 205.277 50.8028 205.182 50.4865 205.182C50.2668 205.182 50.0698 205.228 49.8956 205.321C49.7232 205.414 49.5869 205.549 49.4865 205.727C49.388 205.905 49.3388 206.121 49.3388 206.375ZM55.1676 209.091C54.7737 209.091 54.428 208.997 54.1307 208.81C53.8352 208.622 53.6042 208.36 53.4375 208.023C53.2727 207.686 53.1903 207.292 53.1903 206.841C53.1903 206.386 53.2727 205.99 53.4375 205.651C53.6042 205.312 53.8352 205.048 54.1307 204.861C54.428 204.673 54.7737 204.58 55.1676 204.58C55.5616 204.58 55.9063 204.673 56.2017 204.861C56.4991 205.048 56.7301 205.312 56.8949 205.651C57.0616 205.99 57.1449 206.386 57.1449 206.841C57.1449 207.292 57.0616 207.686 56.8949 208.023C56.7301 208.36 56.4991 208.622 56.2017 208.81C55.9063 208.997 55.5616 209.091 55.1676 209.091ZM55.1676 208.489C55.4669 208.489 55.7131 208.412 55.9062 208.259C56.0994 208.105 56.2424 207.903 56.3352 207.653C56.428 207.403 56.4744 207.133 56.4744 206.841C56.4744 206.549 56.428 206.277 56.3352 206.026C56.2424 205.774 56.0994 205.57 55.9062 205.415C55.7131 205.259 55.4669 205.182 55.1676 205.182C54.8684 205.182 54.6222 205.259 54.429 205.415C54.2358 205.57 54.0928 205.774 54 206.026C53.9072 206.277 53.8608 206.549 53.8608 206.841C53.8608 207.133 53.9072 207.403 54 207.653C54.0928 207.903 54.2358 208.105 54.429 208.259C54.6222 208.412 54.8684 208.489 55.1676 208.489ZM58.1683 209V204.636H58.8161V205.295H58.8615C58.9411 205.08 59.085 204.904 59.2933 204.77C59.5017 204.635 59.7365 204.568 59.9979 204.568C60.0471 204.568 60.1087 204.569 60.1825 204.571C60.2564 204.573 60.3123 204.576 60.3501 204.58V205.261C60.3274 205.256 60.2753 205.247 60.1939 205.236C60.1143 205.223 60.0301 205.216 59.9411 205.216C59.7289 205.216 59.5395 205.26 59.3729 205.349C59.2081 205.437 59.0774 205.558 58.9808 205.713C58.8861 205.866 58.8388 206.042 58.8388 206.239V209H58.1683Z" fill="black"/>
<path d="M16.8646 102.311V96.4924H18.8305C19.2869 96.4924 19.66 96.5748 19.9498 96.7395C20.2415 96.9024 20.4574 97.123 20.5975 97.4015C20.7377 97.6799 20.8078 97.9905 20.8078 98.3333C20.8078 98.6761 20.7377 98.9876 20.5975 99.2679C20.4593 99.5482 20.2453 99.7717 19.9555 99.9384C19.6657 100.103 19.2945 100.186 18.8419 100.186H17.4328V99.5605H18.8191C19.1316 99.5605 19.3826 99.5066 19.572 99.3986C19.7614 99.2907 19.8987 99.1448 19.9839 98.9611C20.071 98.7755 20.1146 98.5662 20.1146 98.3333C20.1146 98.1003 20.071 97.892 19.9839 97.7083C19.8987 97.5246 19.7604 97.3806 19.5691 97.2765C19.3778 97.1704 19.124 97.1174 18.8078 97.1174H17.5691V102.311H16.8646ZM23.5776 102.401C23.1837 102.401 22.8381 102.308 22.5407 102.12C22.2453 101.933 22.0142 101.67 21.8475 101.333C21.6828 100.996 21.6004 100.602 21.6004 100.151C21.6004 99.6969 21.6828 99.3001 21.8475 98.9611C22.0142 98.6221 22.2453 98.3588 22.5407 98.1713C22.8381 97.9838 23.1837 97.8901 23.5776 97.8901C23.9716 97.8901 24.3163 97.9838 24.6117 98.1713C24.9091 98.3588 25.1401 98.6221 25.3049 98.9611C25.4716 99.3001 25.5549 99.6969 25.5549 100.151C25.5549 100.602 25.4716 100.996 25.3049 101.333C25.1401 101.67 24.9091 101.933 24.6117 102.12C24.3163 102.308 23.9716 102.401 23.5776 102.401ZM23.5776 101.799C23.8769 101.799 24.1231 101.722 24.3163 101.569C24.5095 101.416 24.6525 101.214 24.7453 100.964C24.8381 100.714 24.8845 100.443 24.8845 100.151C24.8845 99.8598 24.8381 99.588 24.7453 99.3361C24.6525 99.0842 24.5095 98.8806 24.3163 98.7253C24.1231 98.57 23.8769 98.4924 23.5776 98.4924C23.2784 98.4924 23.0322 98.57 22.839 98.7253C22.6458 98.8806 22.5028 99.0842 22.41 99.3361C22.3172 99.588 22.2708 99.8598 22.2708 100.151C22.2708 100.443 22.3172 100.714 22.41 100.964C22.5028 101.214 22.6458 101.416 22.839 101.569C23.0322 101.722 23.2784 101.799 23.5776 101.799ZM29.6693 98.9242L29.067 99.0946C29.0291 98.9943 28.9732 98.8967 28.8994 98.802C28.8274 98.7054 28.7289 98.6259 28.6039 98.5634C28.4789 98.5009 28.3189 98.4696 28.1238 98.4696C27.8568 98.4696 27.6342 98.5312 27.4562 98.6543C27.2801 98.7755 27.192 98.9299 27.192 99.1174C27.192 99.284 27.2526 99.4157 27.3738 99.5123C27.495 99.6088 27.6844 99.6893 27.942 99.7537L28.5897 99.9128C28.9799 100.008 29.2706 100.152 29.4619 100.347C29.6532 100.541 29.7488 100.79 29.7488 101.095C29.7488 101.345 29.6768 101.568 29.5329 101.765C29.3909 101.962 29.192 102.117 28.9363 102.231C28.6806 102.345 28.3833 102.401 28.0443 102.401C27.5992 102.401 27.2308 102.305 26.9392 102.112C26.6475 101.919 26.4628 101.636 26.3852 101.265L27.0215 101.106C27.0821 101.341 27.1967 101.517 27.3653 101.634C27.5357 101.752 27.7583 101.811 28.0329 101.811C28.3454 101.811 28.5935 101.744 28.7772 101.612C28.9628 101.477 29.0556 101.316 29.0556 101.129C29.0556 100.977 29.0026 100.85 28.8965 100.748C28.7905 100.644 28.6276 100.566 28.4079 100.515L27.6806 100.345C27.281 100.25 26.9874 100.103 26.7999 99.9043C26.6143 99.7035 26.5215 99.4526 26.5215 99.1515C26.5215 98.9052 26.5907 98.6874 26.7289 98.498C26.8691 98.3087 27.0594 98.16 27.2999 98.052C27.5424 97.9441 27.817 97.8901 28.1238 97.8901C28.5556 97.8901 28.8946 97.9848 29.1409 98.1742C29.389 98.3636 29.5651 98.6136 29.6693 98.9242ZM32.6558 97.9469V98.5151H30.3944V97.9469H32.6558ZM31.0535 96.9015H31.724V101.061C31.724 101.25 31.7514 101.392 31.8063 101.487C31.8632 101.579 31.9351 101.642 32.0223 101.674C32.1113 101.704 32.205 101.72 32.3035 101.72C32.3774 101.72 32.438 101.716 32.4853 101.708C32.5327 101.699 32.5705 101.691 32.599 101.686L32.7353 102.288C32.6899 102.305 32.6264 102.322 32.545 102.339C32.4635 102.358 32.3603 102.367 32.2353 102.367C32.0459 102.367 31.8603 102.327 31.6785 102.245C31.4986 102.164 31.349 102.04 31.2296 101.873C31.1122 101.706 31.0535 101.496 31.0535 101.242V96.9015ZM37.687 102.401C37.2779 102.401 36.9257 102.305 36.6302 102.112C36.3348 101.919 36.1075 101.652 35.9484 101.313C35.7893 100.974 35.7098 100.587 35.7098 100.151C35.7098 99.7083 35.7912 99.3172 35.9541 98.9782C36.1188 98.6373 36.348 98.3712 36.6416 98.1799C36.937 97.9867 37.2817 97.8901 37.6757 97.8901C37.9825 97.8901 38.259 97.9469 38.5052 98.0605C38.7514 98.1742 38.9531 98.3333 39.1103 98.5378C39.2675 98.7424 39.3651 98.981 39.4029 99.2537H38.7325C38.6813 99.0549 38.5677 98.8787 38.3916 98.7253C38.2173 98.57 37.9825 98.4924 37.687 98.4924C37.4257 98.4924 37.1965 98.5605 36.9995 98.6969C36.8044 98.8314 36.652 99.0217 36.5421 99.2679C36.4342 99.5123 36.3802 99.7992 36.3802 100.129C36.3802 100.466 36.4332 100.759 36.5393 101.009C36.6473 101.259 36.7988 101.454 36.9938 101.592C37.1908 101.73 37.4219 101.799 37.687 101.799C37.8613 101.799 38.0194 101.769 38.1615 101.708C38.3035 101.648 38.4238 101.561 38.5223 101.447C38.6207 101.333 38.6908 101.197 38.7325 101.038H39.4029C39.3651 101.295 39.2713 101.527 39.1217 101.734C38.974 101.938 38.7779 102.101 38.5336 102.222C38.2912 102.342 38.009 102.401 37.687 102.401ZM42.1558 102.401C41.7618 102.401 41.4162 102.308 41.1188 102.12C40.8234 101.933 40.5923 101.67 40.4257 101.333C40.2609 100.996 40.1785 100.602 40.1785 100.151C40.1785 99.6969 40.2609 99.3001 40.4257 98.9611C40.5923 98.6221 40.8234 98.3588 41.1188 98.1713C41.4162 97.9838 41.7618 97.8901 42.1558 97.8901C42.5497 97.8901 42.8944 97.9838 43.1899 98.1713C43.4872 98.3588 43.7183 98.6221 43.883 98.9611C44.0497 99.3001 44.133 99.6969 44.133 100.151C44.133 100.602 44.0497 100.996 43.883 101.333C43.7183 101.67 43.4872 101.933 43.1899 102.12C42.8944 102.308 42.5497 102.401 42.1558 102.401ZM42.1558 101.799C42.455 101.799 42.7012 101.722 42.8944 101.569C43.0876 101.416 43.2306 101.214 43.3234 100.964C43.4162 100.714 43.4626 100.443 43.4626 100.151C43.4626 99.8598 43.4162 99.588 43.3234 99.3361C43.2306 99.0842 43.0876 98.8806 42.8944 98.7253C42.7012 98.57 42.455 98.4924 42.1558 98.4924C41.8565 98.4924 41.6103 98.57 41.4171 98.7253C41.224 98.8806 41.081 99.0842 40.9882 99.3361C40.8954 99.588 40.849 99.8598 40.849 100.151C40.849 100.443 40.8954 100.714 40.9882 100.964C41.081 101.214 41.224 101.416 41.4171 101.569C41.6103 101.722 41.8565 101.799 42.1558 101.799ZM45.8269 99.6855V102.311H45.1565V97.9469H45.8042V98.6287H45.861C45.9633 98.4071 46.1186 98.2291 46.3269 98.0946C46.5353 97.9583 46.8042 97.8901 47.1338 97.8901C47.4292 97.8901 47.6877 97.9507 47.9093 98.0719C48.1309 98.1912 48.3033 98.373 48.4264 98.6174C48.5495 98.8598 48.611 99.1666 48.611 99.5378V102.311H47.9406V99.5833C47.9406 99.2405 47.8516 98.9734 47.6735 98.7821C47.4955 98.589 47.2512 98.4924 46.9406 98.4924C46.7266 98.4924 46.5353 98.5388 46.3667 98.6316C46.2 98.7244 46.0684 98.8598 45.9718 99.0378C45.8752 99.2158 45.8269 99.4318 45.8269 99.6855ZM51.7339 97.9469V98.5151H49.4725V97.9469H51.7339ZM50.1316 96.9015H50.8021V101.061C50.8021 101.25 50.8295 101.392 50.8845 101.487C50.9413 101.579 51.0133 101.642 51.1004 101.674C51.1894 101.704 51.2831 101.72 51.3816 101.72C51.4555 101.72 51.5161 101.716 51.5634 101.708C51.6108 101.699 51.6487 101.691 51.6771 101.686L51.8134 102.288C51.768 102.305 51.7045 102.322 51.6231 102.339C51.5417 102.358 51.4384 102.367 51.3134 102.367C51.124 102.367 50.9384 102.327 50.7566 102.245C50.5767 102.164 50.4271 102.04 50.3078 101.873C50.1903 101.706 50.1316 101.496 50.1316 101.242V96.9015ZM54.5251 102.401C54.1046 102.401 53.7419 102.309 53.437 102.123C53.134 101.936 52.9001 101.674 52.7353 101.339C52.5724 101.002 52.491 100.61 52.491 100.163C52.491 99.7158 52.5724 99.3219 52.7353 98.981C52.9001 98.6382 53.1293 98.3712 53.4228 98.1799C53.7183 97.9867 54.063 97.8901 54.4569 97.8901C54.6842 97.8901 54.9086 97.928 55.1302 98.0037C55.3518 98.0795 55.5535 98.2026 55.7353 98.373C55.9171 98.5416 56.062 98.7651 56.17 99.0435C56.2779 99.3219 56.3319 99.6647 56.3319 100.072V100.356H52.9683V99.7765H55.6501C55.6501 99.5302 55.6008 99.3105 55.5024 99.1174C55.4058 98.9242 55.2675 98.7717 55.0876 98.66C54.9096 98.5482 54.6993 98.4924 54.4569 98.4924C54.1899 98.4924 53.9588 98.5587 53.7637 98.6912C53.5705 98.8219 53.4219 98.9924 53.3177 99.2026C53.2135 99.4128 53.1615 99.6382 53.1615 99.8787V100.265C53.1615 100.595 53.2183 100.874 53.3319 101.103C53.4474 101.33 53.6075 101.504 53.812 101.623C54.0166 101.74 54.2543 101.799 54.5251 101.799C54.7012 101.799 54.8603 101.775 55.0024 101.725C55.1463 101.674 55.2704 101.598 55.3745 101.498C55.4787 101.396 55.5592 101.269 55.616 101.117L56.2637 101.299C56.1955 101.519 56.081 101.712 55.92 101.879C55.759 102.044 55.5601 102.172 55.3234 102.265C55.0866 102.356 54.8205 102.401 54.5251 102.401ZM58.0223 99.6855V102.311H57.3518V97.9469H57.9995V98.6287H58.0563C58.1586 98.4071 58.3139 98.2291 58.5223 98.0946C58.7306 97.9583 58.9995 97.8901 59.3291 97.8901C59.6245 97.8901 59.883 97.9507 60.1046 98.0719C60.3262 98.1912 60.4986 98.373 60.6217 98.6174C60.7448 98.8598 60.8063 99.1666 60.8063 99.5378V102.311H60.1359V99.5833C60.1359 99.2405 60.0469 98.9734 59.8688 98.7821C59.6908 98.589 59.4465 98.4924 59.1359 98.4924C58.9219 98.4924 58.7306 98.5388 58.562 98.6316C58.3954 98.7244 58.2637 98.8598 58.1671 99.0378C58.0705 99.2158 58.0223 99.4318 58.0223 99.6855ZM63.9292 97.9469V98.5151H61.6678V97.9469H63.9292ZM62.3269 96.9015H62.9974V101.061C62.9974 101.25 63.0249 101.392 63.0798 101.487C63.1366 101.579 63.2086 101.642 63.2957 101.674C63.3847 101.704 63.4785 101.72 63.5769 101.72C63.6508 101.72 63.7114 101.716 63.7588 101.708C63.8061 101.699 63.844 101.691 63.8724 101.686L64.0088 102.288C63.9633 102.305 63.8999 102.322 63.8184 102.339C63.737 102.358 63.6338 102.367 63.5088 102.367C63.3194 102.367 63.1338 102.327 62.9519 102.245C62.772 102.164 62.6224 102.04 62.5031 101.873C62.3856 101.706 62.3269 101.496 62.3269 101.242V96.9015Z" fill="black"/>
<path d="M17.7624 225.858V220.04H19.7283C20.1848 220.04 20.5579 220.122 20.8476 220.287C21.1393 220.45 21.3552 220.67 21.4954 220.949C21.6355 221.227 21.7056 221.538 21.7056 221.881C21.7056 222.223 21.6355 222.535 21.4954 222.815C21.3571 223.096 21.1431 223.319 20.8533 223.486C20.5635 223.651 20.1923 223.733 19.7397 223.733H18.3306V223.108H19.717C20.0295 223.108 20.2804 223.054 20.4698 222.946C20.6592 222.838 20.7965 222.692 20.8817 222.508C20.9688 222.323 21.0124 222.114 21.0124 221.881C21.0124 221.648 20.9688 221.439 20.8817 221.256C20.7965 221.072 20.6582 220.928 20.467 220.824C20.2757 220.718 20.0219 220.665 19.7056 220.665H18.467V225.858H17.7624ZM24.4755 225.949C24.0815 225.949 23.7359 225.855 23.4385 225.668C23.1431 225.48 22.912 225.218 22.7454 224.881C22.5806 224.544 22.4982 224.15 22.4982 223.699C22.4982 223.244 22.5806 222.847 22.7454 222.508C22.912 222.169 23.1431 221.906 23.4385 221.719C23.7359 221.531 24.0815 221.437 24.4755 221.437C24.8694 221.437 25.2141 221.531 25.5096 221.719C25.8069 221.906 26.038 222.169 26.2027 222.508C26.3694 222.847 26.4527 223.244 26.4527 223.699C26.4527 224.15 26.3694 224.544 26.2027 224.881C26.038 225.218 25.8069 225.48 25.5096 225.668C25.2141 225.855 24.8694 225.949 24.4755 225.949ZM24.4755 225.347C24.7747 225.347 25.0209 225.27 25.2141 225.116C25.4073 224.963 25.5503 224.761 25.6431 224.511C25.7359 224.261 25.7823 223.99 25.7823 223.699C25.7823 223.407 25.7359 223.135 25.6431 222.883C25.5503 222.632 25.4073 222.428 25.2141 222.273C25.0209 222.117 24.7747 222.04 24.4755 222.04C24.1762 222.04 23.93 222.117 23.7368 222.273C23.5437 222.428 23.4007 222.632 23.3079 222.883C23.2151 223.135 23.1687 223.407 23.1687 223.699C23.1687 223.99 23.2151 224.261 23.3079 224.511C23.4007 224.761 23.5437 224.963 23.7368 225.116C23.93 225.27 24.1762 225.347 24.4755 225.347ZM30.5671 222.472L29.9648 222.642C29.9269 222.542 29.8711 222.444 29.7972 222.349C29.7252 222.253 29.6268 222.173 29.5018 222.111C29.3768 222.048 29.2167 222.017 29.0216 222.017C28.7546 222.017 28.5321 222.079 28.354 222.202C28.1779 222.323 28.0898 222.477 28.0898 222.665C28.0898 222.831 28.1504 222.963 28.2716 223.06C28.3929 223.156 28.5822 223.237 28.8398 223.301L29.4875 223.46C29.8777 223.555 30.1684 223.7 30.3597 223.895C30.551 224.088 30.6466 224.337 30.6466 224.642C30.6466 224.892 30.5747 225.115 30.4307 225.312C30.2887 225.509 30.0898 225.665 29.8341 225.778C29.5785 225.892 29.2811 225.949 28.9421 225.949C28.497 225.949 28.1286 225.852 27.837 225.659C27.5453 225.466 27.3607 225.184 27.283 224.812L27.9194 224.653C27.98 224.888 28.0946 225.064 28.2631 225.182C28.4336 225.299 28.6561 225.358 28.9307 225.358C29.2432 225.358 29.4913 225.292 29.675 225.159C29.8607 225.025 29.9535 224.864 29.9535 224.676C29.9535 224.525 29.9004 224.398 29.7944 224.295C29.6883 224.191 29.5254 224.114 29.3057 224.062L28.5785 223.892C28.1788 223.797 27.8853 223.651 27.6978 223.452C27.5122 223.251 27.4194 223 27.4194 222.699C27.4194 222.453 27.4885 222.235 27.6268 222.045C27.7669 221.856 27.9572 221.707 28.1978 221.599C28.4402 221.491 28.7148 221.437 29.0216 221.437C29.4535 221.437 29.7925 221.532 30.0387 221.722C30.2868 221.911 30.4629 222.161 30.5671 222.472ZM33.5536 221.494V222.062H31.2922V221.494H33.5536ZM31.9513 220.449H32.6218V224.608C32.6218 224.797 32.6492 224.939 32.7042 225.034C32.761 225.127 32.833 225.189 32.9201 225.222C33.0091 225.252 33.1028 225.267 33.2013 225.267C33.2752 225.267 33.3358 225.263 33.3831 225.256C33.4305 225.246 33.4684 225.239 33.4968 225.233L33.6331 225.835C33.5877 225.852 33.5242 225.869 33.4428 225.886C33.3614 225.905 33.2581 225.915 33.1331 225.915C32.9438 225.915 32.7581 225.874 32.5763 225.793C32.3964 225.711 32.2468 225.587 32.1275 225.42C32.01 225.254 31.9513 225.044 31.9513 224.79V220.449ZM38.5849 225.949C38.1758 225.949 37.8235 225.852 37.528 225.659C37.2326 225.466 37.0053 225.2 36.8462 224.861C36.6871 224.522 36.6076 224.134 36.6076 223.699C36.6076 223.256 36.689 222.865 36.8519 222.526C37.0167 222.185 37.2458 221.919 37.5394 221.727C37.8349 221.534 38.1795 221.437 38.5735 221.437C38.8803 221.437 39.1568 221.494 39.403 221.608C39.6492 221.722 39.8509 221.881 40.0081 222.085C40.1653 222.29 40.2629 222.528 40.3008 222.801H39.6303C39.5792 222.602 39.4655 222.426 39.2894 222.273C39.1152 222.117 38.8803 222.04 38.5849 222.04C38.3235 222.04 38.0943 222.108 37.8974 222.244C37.7023 222.379 37.5498 222.569 37.44 222.815C37.332 223.06 37.278 223.347 37.278 223.676C37.278 224.013 37.3311 224.307 37.4371 224.557C37.5451 224.807 37.6966 225.001 37.8917 225.139C38.0886 225.277 38.3197 225.347 38.5849 225.347C38.7591 225.347 38.9172 225.316 39.0593 225.256C39.2013 225.195 39.3216 225.108 39.4201 224.994C39.5186 224.881 39.5886 224.744 39.6303 224.585H40.3008C40.2629 224.843 40.1691 225.075 40.0195 225.281C39.8718 225.486 39.6758 225.649 39.4314 225.77C39.189 225.889 38.9068 225.949 38.5849 225.949ZM43.0536 225.949C42.6597 225.949 42.314 225.855 42.0167 225.668C41.7212 225.48 41.4902 225.218 41.3235 224.881C41.1587 224.544 41.0763 224.15 41.0763 223.699C41.0763 223.244 41.1587 222.847 41.3235 222.508C41.4902 222.169 41.7212 221.906 42.0167 221.719C42.314 221.531 42.6597 221.437 43.0536 221.437C43.4475 221.437 43.7922 221.531 44.0877 221.719C44.385 221.906 44.6161 222.169 44.7809 222.508C44.9475 222.847 45.0309 223.244 45.0309 223.699C45.0309 224.15 44.9475 224.544 44.7809 224.881C44.6161 225.218 44.385 225.48 44.0877 225.668C43.7922 225.855 43.4475 225.949 43.0536 225.949ZM43.0536 225.347C43.3528 225.347 43.5991 225.27 43.7922 225.116C43.9854 224.963 44.1284 224.761 44.2212 224.511C44.314 224.261 44.3604 223.99 44.3604 223.699C44.3604 223.407 44.314 223.135 44.2212 222.883C44.1284 222.632 43.9854 222.428 43.7922 222.273C43.5991 222.117 43.3528 222.04 43.0536 222.04C42.7544 222.04 42.5081 222.117 42.315 222.273C42.1218 222.428 41.9788 222.632 41.886 222.883C41.7932 223.135 41.7468 223.407 41.7468 223.699C41.7468 223.99 41.7932 224.261 41.886 224.511C41.9788 224.761 42.1218 224.963 42.315 225.116C42.5081 225.27 42.7544 225.347 43.0536 225.347ZM46.7248 223.233V225.858H46.0543V221.494H46.702V222.176H46.7589C46.8611 221.955 47.0164 221.776 47.2248 221.642C47.4331 221.506 47.702 221.437 48.0316 221.437C48.327 221.437 48.5856 221.498 48.8072 221.619C49.0287 221.739 49.2011 221.92 49.3242 222.165C49.4473 222.407 49.5089 222.714 49.5089 223.085V225.858H48.8384V223.131C48.8384 222.788 48.7494 222.521 48.5714 222.33C48.3933 222.136 48.149 222.04 47.8384 222.04C47.6244 222.04 47.4331 222.086 47.2645 222.179C47.0979 222.272 46.9662 222.407 46.8697 222.585C46.7731 222.763 46.7248 222.979 46.7248 223.233ZM52.6317 221.494V222.062H50.3704V221.494H52.6317ZM51.0295 220.449H51.6999V224.608C51.6999 224.797 51.7274 224.939 51.7823 225.034C51.8391 225.127 51.9111 225.189 51.9982 225.222C52.0872 225.252 52.181 225.267 52.2795 225.267C52.3533 225.267 52.4139 225.263 52.4613 225.256C52.5086 225.246 52.5465 225.239 52.5749 225.233L52.7113 225.835C52.6658 225.852 52.6024 225.869 52.5209 225.886C52.4395 225.905 52.3363 225.915 52.2113 225.915C52.0219 225.915 51.8363 225.874 51.6545 225.793C51.4745 225.711 51.3249 225.587 51.2056 225.42C51.0882 225.254 51.0295 225.044 51.0295 224.79V220.449ZM55.4229 225.949C55.0025 225.949 54.6398 225.856 54.3348 225.67C54.0318 225.483 53.7979 225.222 53.6331 224.886C53.4703 224.549 53.3888 224.157 53.3888 223.71C53.3888 223.263 53.4703 222.869 53.6331 222.528C53.7979 222.186 54.0271 221.919 54.3206 221.727C54.6161 221.534 54.9608 221.437 55.3547 221.437C55.582 221.437 55.8064 221.475 56.028 221.551C56.2496 221.627 56.4513 221.75 56.6331 221.92C56.815 222.089 56.9599 222.312 57.0678 222.591C57.1758 222.869 57.2297 223.212 57.2297 223.619V223.903H53.8661V223.324H56.5479C56.5479 223.078 56.4987 222.858 56.4002 222.665C56.3036 222.472 56.1653 222.319 55.9854 222.207C55.8074 222.096 55.5972 222.04 55.3547 222.04C55.0877 222.04 54.8566 222.106 54.6616 222.239C54.4684 222.369 54.3197 222.54 54.2155 222.75C54.1114 222.96 54.0593 223.186 54.0593 223.426V223.812C54.0593 224.142 54.1161 224.421 54.2297 224.651C54.3453 224.878 54.5053 225.051 54.7099 225.17C54.9144 225.288 55.1521 225.347 55.4229 225.347C55.5991 225.347 55.7581 225.322 55.9002 225.273C56.0441 225.222 56.1682 225.146 56.2724 225.045C56.3765 224.943 56.457 224.816 56.5138 224.665L57.1616 224.847C57.0934 225.066 56.9788 225.259 56.8178 225.426C56.6568 225.591 56.458 225.72 56.2212 225.812C55.9845 225.903 55.7184 225.949 55.4229 225.949ZM58.9201 223.233V225.858H58.2496V221.494H58.8973V222.176H58.9542C59.0564 221.955 59.2117 221.776 59.4201 221.642C59.6284 221.506 59.8974 221.437 60.2269 221.437C60.5224 221.437 60.7809 221.498 61.0025 221.619C61.2241 221.739 61.3964 221.92 61.5195 222.165C61.6426 222.407 61.7042 222.714 61.7042 223.085V225.858H61.0337V223.131C61.0337 222.788 60.9447 222.521 60.7667 222.33C60.5886 222.136 60.3443 222.04 60.0337 222.04C59.8197 222.04 59.6284 222.086 59.4599 222.179C59.2932 222.272 59.1616 222.407 59.065 222.585C58.9684 222.763 58.9201 222.979 58.9201 223.233ZM64.827 221.494V222.062H62.5657V221.494H64.827ZM63.2248 220.449H63.8952V224.608C63.8952 224.797 63.9227 224.939 63.9776 225.034C64.0344 225.127 64.1064 225.189 64.1935 225.222C64.2825 225.252 64.3763 225.267 64.4748 225.267C64.5486 225.267 64.6092 225.263 64.6566 225.256C64.7039 225.246 64.7418 225.239 64.7702 225.233L64.9066 225.835C64.8611 225.852 64.7977 225.869 64.7162 225.886C64.6348 225.905 64.5316 225.915 64.4066 225.915C64.2172 225.915 64.0316 225.874 63.8498 225.793C63.6698 225.711 63.5202 225.587 63.4009 225.42C63.2835 225.254 63.2248 225.044 63.2248 224.79V220.449Z" fill="black"/>
<path d="M11.1364 401.276V395.458H11.841V398.049H14.9432V395.458H15.6478V401.276H14.9432V398.674H11.841V401.276H11.1364ZM18.7401 401.367C18.3462 401.367 18.0005 401.273 17.7032 401.086C17.4077 400.898 17.1767 400.636 17.01 400.299C16.8452 399.961 16.7629 399.568 16.7629 399.117C16.7629 398.662 16.8452 398.265 17.01 397.926C17.1767 397.587 17.4077 397.324 17.7032 397.137C18.0005 396.949 18.3462 396.855 18.7401 396.855C19.1341 396.855 19.4788 396.949 19.7742 397.137C20.0716 397.324 20.3026 397.587 20.4674 397.926C20.6341 398.265 20.7174 398.662 20.7174 399.117C20.7174 399.568 20.6341 399.961 20.4674 400.299C20.3026 400.636 20.0716 400.898 19.7742 401.086C19.4788 401.273 19.1341 401.367 18.7401 401.367ZM18.7401 400.765C19.0394 400.765 19.2856 400.688 19.4788 400.534C19.6719 400.381 19.8149 400.179 19.9077 399.929C20.0005 399.679 20.0469 399.408 20.0469 399.117C20.0469 398.825 20.0005 398.553 19.9077 398.301C19.8149 398.05 19.6719 397.846 19.4788 397.691C19.2856 397.535 19.0394 397.458 18.7401 397.458C18.4409 397.458 18.1947 397.535 18.0015 397.691C17.8083 397.846 17.6653 398.05 17.5725 398.301C17.4797 398.553 17.4333 398.825 17.4333 399.117C17.4333 399.408 17.4797 399.679 17.5725 399.929C17.6653 400.179 17.8083 400.381 18.0015 400.534C18.1947 400.688 18.4409 400.765 18.7401 400.765ZM21.7408 401.276V396.912H22.3886V397.594H22.4454C22.5363 397.361 22.6831 397.18 22.8857 397.051C23.0884 396.921 23.3317 396.855 23.6158 396.855C23.9037 396.855 24.1433 396.921 24.3346 397.051C24.5278 397.18 24.6783 397.361 24.7863 397.594H24.8317C24.9435 397.369 25.1111 397.19 25.3346 397.057C25.5581 396.923 25.8261 396.855 26.1386 396.855C26.5287 396.855 26.8478 396.978 27.0959 397.222C27.3441 397.464 27.4681 397.842 27.4681 398.355V401.276H26.7977V398.355C26.7977 398.033 26.7096 397.803 26.5334 397.665C26.3573 397.527 26.1499 397.458 25.9113 397.458C25.6045 397.458 25.3668 397.55 25.1982 397.736C25.0297 397.92 24.9454 398.153 24.9454 398.435V401.276H24.2636V398.287C24.2636 398.039 24.1831 397.839 24.0221 397.688C23.8611 397.534 23.6537 397.458 23.3999 397.458C23.2257 397.458 23.0628 397.504 22.9113 397.597C22.7617 397.69 22.6405 397.818 22.5477 397.983C22.4567 398.146 22.4113 398.335 22.4113 398.549V401.276H21.7408ZM30.5235 401.367C30.103 401.367 29.7404 401.274 29.4354 401.088C29.1324 400.901 28.8985 400.64 28.7337 400.304C28.5709 399.967 28.4894 399.575 28.4894 399.128C28.4894 398.681 28.5709 398.287 28.7337 397.946C28.8985 397.604 29.1277 397.336 29.4212 397.145C29.7167 396.952 30.0614 396.855 30.4553 396.855C30.6826 396.855 30.907 396.893 31.1286 396.969C31.3502 397.045 31.5519 397.168 31.7337 397.338C31.9155 397.507 32.0604 397.73 32.1684 398.009C32.2763 398.287 32.3303 398.63 32.3303 399.037V399.321H28.9667V398.742H31.6485C31.6485 398.496 31.5993 398.276 31.5008 398.083C31.4042 397.89 31.2659 397.737 31.086 397.625C30.908 397.514 30.6977 397.458 30.4553 397.458C30.1883 397.458 29.9572 397.524 29.7621 397.657C29.569 397.787 29.4203 397.958 29.3161 398.168C29.212 398.378 29.1599 398.604 29.1599 398.844V399.23C29.1599 399.56 29.2167 399.839 29.3303 400.068C29.4459 400.296 29.6059 400.469 29.8104 400.588C30.015 400.706 30.2527 400.765 30.5235 400.765C30.6996 400.765 30.8587 400.74 31.0008 400.691C31.1447 400.64 31.2688 400.564 31.3729 400.463C31.4771 400.361 31.5576 400.234 31.6144 400.083L32.2621 400.265C32.194 400.484 32.0794 400.677 31.9184 400.844C31.7574 401.009 31.5585 401.138 31.3218 401.23C31.0851 401.321 30.819 401.367 30.5235 401.367Z" fill="black"/>
<path d="M53.9964 397.276C53.9339 397.085 53.8515 396.913 53.7492 396.762C53.6489 396.608 53.5286 396.478 53.3884 396.37C53.2502 396.262 53.093 396.179 52.9168 396.122C52.7407 396.066 52.5475 396.037 52.3373 396.037C51.9926 396.037 51.6792 396.126 51.397 396.304C51.1148 396.482 50.8903 396.745 50.7237 397.091C50.557 397.438 50.4737 397.863 50.4737 398.367C50.4737 398.871 50.5579 399.296 50.7265 399.642C50.8951 399.989 51.1233 400.251 51.4112 400.429C51.699 400.607 52.0229 400.696 52.3828 400.696C52.7161 400.696 53.0097 400.625 53.2634 400.483C53.5191 400.339 53.718 400.137 53.86 399.875C54.004 399.612 54.0759 399.302 54.0759 398.946L54.2918 398.992H52.5418V398.367H54.7578V398.992C54.7578 399.471 54.6555 399.888 54.4509 400.242C54.2483 400.596 53.968 400.871 53.61 401.066C53.254 401.259 52.8449 401.355 52.3828 401.355C51.8676 401.355 51.415 401.234 51.0248 400.992C50.6365 400.749 50.3335 400.405 50.1157 399.958C49.8998 399.511 49.7918 398.98 49.7918 398.367C49.7918 397.907 49.8534 397.493 49.9765 397.125C50.1015 396.756 50.2776 396.442 50.5049 396.182C50.7322 395.923 51.0011 395.724 51.3117 395.586C51.6223 395.447 51.9642 395.378 52.3373 395.378C52.6441 395.378 52.9301 395.425 53.1953 395.517C53.4623 395.608 53.7 395.738 53.9083 395.907C54.1186 396.073 54.2937 396.273 54.4339 396.506C54.574 396.737 54.6706 396.994 54.7237 397.276H53.9964ZM55.8735 401.276V396.912H56.5213V397.571H56.5667C56.6463 397.355 56.7902 397.18 56.9985 397.046C57.2069 396.911 57.4417 396.844 57.7031 396.844C57.7523 396.844 57.8139 396.845 57.8877 396.847C57.9616 396.849 58.0175 396.852 58.0553 396.855V397.537C58.0326 397.532 57.9805 397.523 57.8991 397.512C57.8195 397.498 57.7353 397.492 57.6463 397.492C57.4341 397.492 57.2447 397.536 57.0781 397.625C56.9133 397.712 56.7826 397.834 56.686 397.989C56.5913 398.142 56.544 398.318 56.544 398.515V401.276H55.8735ZM60.49 401.367C60.0961 401.367 59.7504 401.273 59.4531 401.086C59.1576 400.898 58.9266 400.636 58.7599 400.299C58.5951 399.961 58.5127 399.568 58.5127 399.117C58.5127 398.662 58.5951 398.265 58.7599 397.926C58.9266 397.587 59.1576 397.324 59.4531 397.137C59.7504 396.949 60.0961 396.855 60.49 396.855C60.8839 396.855 61.2286 396.949 61.5241 397.137C61.8214 397.324 62.0525 397.587 62.2173 397.926C62.3839 398.265 62.4673 398.662 62.4673 399.117C62.4673 399.568 62.3839 399.961 62.2173 400.299C62.0525 400.636 61.8214 400.898 61.5241 401.086C61.2286 401.273 60.8839 401.367 60.49 401.367ZM60.49 400.765C60.7892 400.765 61.0355 400.688 61.2286 400.534C61.4218 400.381 61.5648 400.179 61.6576 399.929C61.7504 399.679 61.7968 399.408 61.7968 399.117C61.7968 398.825 61.7504 398.553 61.6576 398.301C61.5648 398.05 61.4218 397.846 61.2286 397.691C61.0355 397.535 60.7892 397.458 60.49 397.458C60.1908 397.458 59.9445 397.535 59.7514 397.691C59.5582 397.846 59.4152 398.05 59.3224 398.301C59.2296 398.553 59.1832 398.825 59.1832 399.117C59.1832 399.408 59.2296 399.679 59.3224 399.929C59.4152 400.179 59.5582 400.381 59.7514 400.534C59.9445 400.688 60.1908 400.765 60.49 400.765ZM66.2407 399.492V396.912H66.9112V401.276H66.2407V400.537H66.1953C66.093 400.759 65.9339 400.947 65.718 401.103C65.5021 401.256 65.2293 401.333 64.8998 401.333C64.6271 401.333 64.3847 401.273 64.1725 401.154C63.9604 401.033 63.7937 400.851 63.6725 400.608C63.5513 400.364 63.4907 400.056 63.4907 399.685V396.912H64.1612V399.64C64.1612 399.958 64.2502 400.211 64.4282 400.401C64.6081 400.59 64.8373 400.685 65.1157 400.685C65.2824 400.685 65.4519 400.642 65.6242 400.557C65.7985 400.472 65.9443 400.341 66.0617 400.165C66.1811 399.989 66.2407 399.765 66.2407 399.492ZM68.1391 402.912V396.912H68.7869V397.605H68.8664C68.9157 397.53 68.9838 397.433 69.071 397.316C69.16 397.196 69.2869 397.09 69.4516 396.997C69.6183 396.903 69.8437 396.855 70.1278 396.855C70.4952 396.855 70.8191 396.947 71.0994 397.131C71.3797 397.315 71.5984 397.575 71.7556 397.912C71.9128 398.249 71.9914 398.647 71.9914 399.105C71.9914 399.568 71.9128 399.968 71.7556 400.307C71.5984 400.644 71.3806 400.906 71.1022 401.091C70.8238 401.275 70.5028 401.367 70.1391 401.367C69.8588 401.367 69.6344 401.32 69.4659 401.228C69.2973 401.133 69.1676 401.026 69.0766 400.907C68.9857 400.785 68.9157 400.685 68.8664 400.605H68.8096V402.912H68.1391ZM68.7982 399.094C68.7982 399.424 68.8465 399.714 68.9431 399.966C69.0397 400.216 69.1808 400.412 69.3664 400.554C69.552 400.694 69.7793 400.765 70.0482 400.765C70.3285 400.765 70.5624 400.691 70.7499 400.543C70.9393 400.393 71.0814 400.193 71.1761 399.941C71.2727 399.687 71.321 399.405 71.321 399.094C71.321 398.787 71.2736 398.511 71.1789 398.265C71.0861 398.016 70.945 397.82 70.7556 397.676C70.5681 397.531 70.3323 397.458 70.0482 397.458C69.7755 397.458 69.5463 397.527 69.3607 397.665C69.1751 397.801 69.035 397.993 68.9403 398.239C68.8456 398.483 68.7982 398.768 68.7982 399.094ZM76.1051 397.89L75.5028 398.06C75.4649 397.96 75.409 397.862 75.3352 397.767C75.2632 397.671 75.1647 397.591 75.0397 397.529C74.9147 397.466 74.7547 397.435 74.5596 397.435C74.2926 397.435 74.07 397.497 73.892 397.62C73.7159 397.741 73.6278 397.895 73.6278 398.083C73.6278 398.249 73.6884 398.381 73.8096 398.478C73.9308 398.574 74.1202 398.655 74.3778 398.719L75.0255 398.878C75.4157 398.973 75.7064 399.118 75.8977 399.313C76.089 399.506 76.1846 399.755 76.1846 400.06C76.1846 400.31 76.1126 400.533 75.9687 400.73C75.8266 400.927 75.6278 401.083 75.3721 401.196C75.1164 401.31 74.8191 401.367 74.4801 401.367C74.035 401.367 73.6666 401.27 73.3749 401.077C73.0833 400.884 72.8986 400.602 72.821 400.23L73.4573 400.071C73.5179 400.306 73.6325 400.482 73.8011 400.6C73.9715 400.717 74.1941 400.776 74.4687 400.776C74.7812 400.776 75.0293 400.71 75.213 400.577C75.3986 400.443 75.4914 400.282 75.4914 400.094C75.4914 399.943 75.4384 399.816 75.3323 399.713C75.2263 399.609 75.0634 399.532 74.8437 399.48L74.1164 399.31C73.7168 399.215 73.4232 399.068 73.2357 398.87C73.0501 398.669 72.9573 398.418 72.9573 398.117C72.9573 397.871 73.0265 397.653 73.1647 397.463C73.3049 397.274 73.4952 397.125 73.7357 397.017C73.9782 396.909 74.2528 396.855 74.5596 396.855C74.9914 396.855 75.3304 396.95 75.5766 397.14C75.8248 397.329 76.0009 397.579 76.1051 397.89Z" fill="white"/>
<path d="M129.705 401V395.182H130.409V397.773H133.511V395.182H134.216V401H133.511V398.398H130.409V401H129.705ZM135.536 401V396.636H136.206V401H135.536ZM135.876 395.909C135.746 395.909 135.633 395.865 135.538 395.776C135.446 395.687 135.399 395.58 135.399 395.455C135.399 395.33 135.446 395.223 135.538 395.134C135.633 395.045 135.746 395 135.876 395C136.007 395 136.119 395.045 136.212 395.134C136.306 395.223 136.354 395.33 136.354 395.455C136.354 395.58 136.306 395.687 136.212 395.776C136.119 395.865 136.007 395.909 135.876 395.909ZM140.525 397.614L139.923 397.784C139.885 397.684 139.829 397.586 139.755 397.491C139.683 397.395 139.585 397.315 139.46 397.253C139.335 397.19 139.174 397.159 138.979 397.159C138.712 397.159 138.49 397.221 138.312 397.344C138.136 397.465 138.048 397.619 138.048 397.807C138.048 397.973 138.108 398.105 138.229 398.202C138.351 398.298 138.54 398.379 138.798 398.443L139.445 398.602C139.835 398.697 140.126 398.842 140.317 399.037C140.509 399.23 140.604 399.479 140.604 399.784C140.604 400.034 140.532 400.258 140.388 400.455C140.246 400.652 140.048 400.807 139.792 400.92C139.536 401.034 139.239 401.091 138.9 401.091C138.455 401.091 138.086 400.994 137.795 400.801C137.503 400.608 137.318 400.326 137.241 399.955L137.877 399.795C137.938 400.03 138.052 400.206 138.221 400.324C138.391 400.441 138.614 400.5 138.888 400.5C139.201 400.5 139.449 400.434 139.633 400.301C139.818 400.167 139.911 400.006 139.911 399.818C139.911 399.667 139.858 399.54 139.752 399.438C139.646 399.333 139.483 399.256 139.263 399.205L138.536 399.034C138.137 398.939 137.843 398.793 137.656 398.594C137.47 398.393 137.377 398.142 137.377 397.841C137.377 397.595 137.446 397.377 137.585 397.188C137.725 396.998 137.915 396.849 138.156 396.741C138.398 396.634 138.673 396.58 138.979 396.58C139.411 396.58 139.75 396.674 139.996 396.864C140.245 397.053 140.421 397.303 140.525 397.614ZM143.511 396.636V397.205H141.25V396.636H143.511ZM141.909 395.591H142.58V399.75C142.58 399.939 142.607 400.081 142.662 400.176C142.719 400.269 142.791 400.331 142.878 400.364C142.967 400.394 143.061 400.409 143.159 400.409C143.233 400.409 143.294 400.405 143.341 400.398C143.388 400.388 143.426 400.381 143.455 400.375L143.591 400.977C143.545 400.994 143.482 401.011 143.401 401.028C143.319 401.047 143.216 401.057 143.091 401.057C142.902 401.057 142.716 401.016 142.534 400.935C142.354 400.853 142.205 400.729 142.085 400.562C141.968 400.396 141.909 400.186 141.909 399.932V395.591ZM146.246 401.091C145.852 401.091 145.506 400.997 145.209 400.81C144.913 400.622 144.682 400.36 144.516 400.023C144.351 399.686 144.268 399.292 144.268 398.841C144.268 398.386 144.351 397.99 144.516 397.651C144.682 397.312 144.913 397.048 145.209 396.861C145.506 396.673 145.852 396.58 146.246 396.58C146.64 396.58 146.984 396.673 147.28 396.861C147.577 397.048 147.808 397.312 147.973 397.651C148.14 397.99 148.223 398.386 148.223 398.841C148.223 399.292 148.14 399.686 147.973 400.023C147.808 400.36 147.577 400.622 147.28 400.81C146.984 400.997 146.64 401.091 146.246 401.091ZM146.246 400.489C146.545 400.489 146.791 400.412 146.984 400.259C147.178 400.105 147.321 399.903 147.413 399.653C147.506 399.403 147.553 399.133 147.553 398.841C147.553 398.549 147.506 398.277 147.413 398.026C147.321 397.774 147.178 397.57 146.984 397.415C146.791 397.259 146.545 397.182 146.246 397.182C145.946 397.182 145.7 397.259 145.507 397.415C145.314 397.57 145.171 397.774 145.078 398.026C144.985 398.277 144.939 398.549 144.939 398.841C144.939 399.133 144.985 399.403 145.078 399.653C145.171 399.903 145.314 400.105 145.507 400.259C145.7 400.412 145.946 400.489 146.246 400.489ZM149.246 401V396.636H149.894V397.295H149.94C150.019 397.08 150.163 396.904 150.371 396.77C150.58 396.635 150.815 396.568 151.076 396.568C151.125 396.568 151.187 396.569 151.261 396.571C151.335 396.573 151.39 396.576 151.428 396.58V397.261C151.406 397.256 151.353 397.247 151.272 397.236C151.192 397.223 151.108 397.216 151.019 397.216C150.807 397.216 150.618 397.26 150.451 397.349C150.286 397.437 150.156 397.558 150.059 397.713C149.964 397.866 149.917 398.042 149.917 398.239V401H149.246ZM152.788 402.636C152.674 402.636 152.573 402.627 152.484 402.608C152.395 402.591 152.333 402.574 152.299 402.557L152.469 401.966C152.632 402.008 152.776 402.023 152.901 402.011C153.026 402 153.137 401.944 153.234 401.844C153.332 401.745 153.422 401.585 153.504 401.364L153.629 401.023L152.015 396.636H152.742L153.947 400.114H153.992L155.197 396.636H155.924L154.072 401.636C153.988 401.862 153.885 402.048 153.762 402.196C153.639 402.346 153.496 402.456 153.333 402.528C153.172 402.6 152.99 402.636 152.788 402.636Z" fill="black"/>
<path d="M176.705 395.182H177.545L179.523 400.011H179.591L181.568 395.182H182.409V401H181.75V396.58H181.693L179.875 401H179.239L177.42 396.58H177.364V401H176.705V395.182ZM185.56 401.091C185.14 401.091 184.777 400.998 184.472 400.812C184.169 400.625 183.935 400.364 183.771 400.028C183.608 399.691 183.526 399.299 183.526 398.852C183.526 398.405 183.608 398.011 183.771 397.67C183.935 397.328 184.165 397.061 184.458 396.869C184.754 396.676 185.098 396.58 185.492 396.58C185.719 396.58 185.944 396.617 186.165 396.693C186.387 396.769 186.589 396.892 186.771 397.062C186.952 397.231 187.097 397.455 187.205 397.733C187.313 398.011 187.367 398.354 187.367 398.761V399.045H184.004V398.466H186.685C186.685 398.22 186.636 398 186.538 397.807C186.441 397.614 186.303 397.461 186.123 397.349C185.945 397.238 185.735 397.182 185.492 397.182C185.225 397.182 184.994 397.248 184.799 397.381C184.606 397.511 184.457 397.682 184.353 397.892C184.249 398.102 184.197 398.328 184.197 398.568V398.955C184.197 399.284 184.254 399.563 184.367 399.793C184.483 400.02 184.643 400.193 184.847 400.312C185.052 400.43 185.29 400.489 185.56 400.489C185.737 400.489 185.896 400.464 186.038 400.415C186.182 400.364 186.306 400.288 186.41 400.188C186.514 400.085 186.594 399.958 186.651 399.807L187.299 399.989C187.231 400.208 187.116 400.402 186.955 400.568C186.794 400.733 186.595 400.862 186.359 400.955C186.122 401.045 185.856 401.091 185.56 401.091Z" fill="black"/>
<path d="M90.8175 393.503H90.113C90.0713 393.301 89.9984 393.123 89.8942 392.969C89.7919 392.816 89.6669 392.687 89.5192 392.583C89.3734 392.477 89.2115 392.397 89.0334 392.344C88.8554 392.291 88.6698 392.265 88.4766 392.265C88.1243 392.265 87.8052 392.354 87.5192 392.532C87.2351 392.71 87.0088 392.972 86.8402 393.319C86.6736 393.665 86.5902 394.091 86.5902 394.594C86.5902 395.098 86.6736 395.523 86.8402 395.87C87.0088 396.216 87.2351 396.479 87.5192 396.657C87.8052 396.835 88.1243 396.924 88.4766 396.924C88.6698 396.924 88.8554 396.897 89.0334 396.844C89.2115 396.791 89.3734 396.713 89.5192 396.609C89.6669 396.502 89.7919 396.373 89.8942 396.219C89.9984 396.064 90.0713 395.886 90.113 395.685H90.8175C90.7645 395.983 90.6679 396.249 90.5277 396.484C90.3876 396.718 90.2133 396.918 90.005 397.083C89.7967 397.246 89.5628 397.37 89.3033 397.455C89.0457 397.54 88.7702 397.583 88.4766 397.583C87.9804 397.583 87.5391 397.462 87.1527 397.219C86.7664 396.977 86.4624 396.632 86.2408 396.185C86.0192 395.738 85.9084 395.208 85.9084 394.594C85.9084 393.981 86.0192 393.45 86.2408 393.003C86.4624 392.556 86.7664 392.212 87.1527 391.969C87.5391 391.727 87.9804 391.606 88.4766 391.606C88.7702 391.606 89.0457 391.648 89.3033 391.734C89.5628 391.819 89.7967 391.944 90.005 392.109C90.2133 392.271 90.3876 392.47 90.5277 392.705C90.6679 392.938 90.7645 393.204 90.8175 393.503ZM91.8651 397.503V393.14H92.5128V393.799H92.5583C92.6378 393.583 92.7818 393.408 92.9901 393.273C93.1984 393.139 93.4333 393.072 93.6946 393.072C93.7439 393.072 93.8054 393.073 93.8793 393.074C93.9532 393.076 94.009 393.079 94.0469 393.083V393.765C94.0242 393.759 93.9721 393.751 93.8907 393.739C93.8111 393.726 93.7268 393.719 93.6378 393.719C93.4257 393.719 93.2363 393.764 93.0696 393.853C92.9049 393.94 92.7742 394.061 92.6776 394.216C92.5829 394.37 92.5356 394.545 92.5356 394.742V397.503H91.8651ZM96.5384 397.594C96.1179 397.594 95.7552 397.502 95.4503 397.316C95.1473 397.128 94.9134 396.867 94.7486 396.532C94.5857 396.195 94.5043 395.803 94.5043 395.356C94.5043 394.909 94.5857 394.515 94.7486 394.174C94.9134 393.831 95.1426 393.564 95.4361 393.373C95.7316 393.18 96.0763 393.083 96.4702 393.083C96.6975 393.083 96.9219 393.121 97.1435 393.197C97.3651 393.272 97.5668 393.395 97.7486 393.566C97.9304 393.734 98.0753 393.958 98.1833 394.236C98.2912 394.515 98.3452 394.858 98.3452 395.265V395.549H94.9816V394.969H97.6634C97.6634 394.723 97.6142 394.503 97.5157 394.31C97.4191 394.117 97.2808 393.965 97.1009 393.853C96.9229 393.741 96.7126 393.685 96.4702 393.685C96.2032 393.685 95.9721 393.752 95.777 393.884C95.5838 394.015 95.4352 394.185 95.331 394.395C95.2268 394.606 95.1748 394.831 95.1748 395.072V395.458C95.1748 395.788 95.2316 396.067 95.3452 396.296C95.4607 396.523 95.6208 396.697 95.8253 396.816C96.0299 396.933 96.2676 396.992 96.5384 396.992C96.7145 396.992 96.8736 396.967 97.0157 396.918C97.1596 396.867 97.2837 396.791 97.3878 396.691C97.492 396.589 97.5725 396.462 97.6293 396.31L98.277 396.492C98.2088 396.712 98.0943 396.905 97.9333 397.072C97.7723 397.236 97.5734 397.365 97.3367 397.458C97.0999 397.549 96.8338 397.594 96.5384 397.594ZM100.649 397.606C100.373 397.606 100.122 397.554 99.8963 397.449C99.671 397.343 99.492 397.191 99.3594 396.992C99.2268 396.791 99.1606 396.549 99.1606 396.265C99.1606 396.015 99.2098 395.812 99.3083 395.657C99.4068 395.5 99.5384 395.377 99.7032 395.288C99.8679 395.198 100.05 395.132 100.249 395.089C100.449 395.043 100.651 395.007 100.854 394.981C101.119 394.947 101.334 394.921 101.499 394.904C101.665 394.885 101.786 394.854 101.862 394.81C101.94 394.767 101.979 394.691 101.979 394.583V394.56C101.979 394.28 101.902 394.062 101.749 393.907C101.597 393.752 101.367 393.674 101.058 393.674C100.738 393.674 100.487 393.744 100.305 393.884C100.124 394.024 99.9958 394.174 99.9219 394.333L99.2856 394.106C99.3992 393.841 99.5507 393.634 99.7401 393.486C99.9314 393.337 100.14 393.233 100.365 393.174C100.592 393.113 100.816 393.083 101.036 393.083C101.176 393.083 101.337 393.1 101.519 393.134C101.702 393.166 101.879 393.234 102.05 393.336C102.222 393.438 102.365 393.592 102.479 393.799C102.592 394.005 102.649 394.282 102.649 394.628V397.503H101.979V396.913H101.945C101.899 397.007 101.823 397.109 101.717 397.216C101.611 397.324 101.47 397.416 101.294 397.492C101.118 397.568 100.903 397.606 100.649 397.606ZM100.751 397.003C101.017 397.003 101.24 396.951 101.422 396.847C101.606 396.743 101.744 396.609 101.837 396.444C101.931 396.279 101.979 396.106 101.979 395.924V395.31C101.95 395.344 101.888 395.376 101.791 395.404C101.697 395.431 101.587 395.454 101.462 395.475C101.339 395.494 101.218 395.511 101.101 395.526C100.985 395.539 100.892 395.551 100.82 395.56C100.645 395.583 100.483 395.62 100.331 395.671C100.181 395.72 100.06 395.795 99.9674 395.895C99.8765 395.994 99.831 396.128 99.831 396.299C99.831 396.532 99.9172 396.708 100.09 396.827C100.264 396.945 100.484 397.003 100.751 397.003ZM105.771 393.14V393.708H103.509V393.14H105.771ZM104.168 392.094H104.839V396.253C104.839 396.443 104.866 396.585 104.921 396.68C104.978 396.772 105.05 396.835 105.137 396.867C105.226 396.897 105.32 396.913 105.418 396.913C105.492 396.913 105.553 396.909 105.6 396.901C105.648 396.892 105.685 396.884 105.714 396.878L105.85 397.481C105.805 397.498 105.741 397.515 105.66 397.532C105.578 397.551 105.475 397.56 105.35 397.56C105.161 397.56 104.975 397.52 104.793 397.438C104.613 397.357 104.464 397.233 104.345 397.066C104.227 396.899 104.168 396.689 104.168 396.435V392.094ZM106.779 397.503V393.14H107.45V397.503H106.779ZM107.12 392.413C106.989 392.413 106.877 392.368 106.782 392.279C106.689 392.19 106.643 392.083 106.643 391.958C106.643 391.833 106.689 391.726 106.782 391.637C106.877 391.548 106.989 391.503 107.12 391.503C107.251 391.503 107.362 391.548 107.455 391.637C107.55 391.726 107.597 391.833 107.597 391.958C107.597 392.083 107.55 392.19 107.455 392.279C107.362 392.368 107.251 392.413 107.12 392.413ZM110.45 397.594C110.056 397.594 109.711 397.501 109.413 397.313C109.118 397.126 108.887 396.863 108.72 396.526C108.555 396.189 108.473 395.795 108.473 395.344C108.473 394.89 108.555 394.493 108.72 394.154C108.887 393.815 109.118 393.552 109.413 393.364C109.711 393.177 110.056 393.083 110.45 393.083C110.844 393.083 111.189 393.177 111.484 393.364C111.782 393.552 112.013 393.815 112.178 394.154C112.344 394.493 112.428 394.89 112.428 395.344C112.428 395.795 112.344 396.189 112.178 396.526C112.013 396.863 111.782 397.126 111.484 397.313C111.189 397.501 110.844 397.594 110.45 397.594ZM110.45 396.992C110.75 396.992 110.996 396.915 111.189 396.762C111.382 396.609 111.525 396.407 111.618 396.157C111.711 395.907 111.757 395.636 111.757 395.344C111.757 395.053 111.711 394.781 111.618 394.529C111.525 394.277 111.382 394.073 111.189 393.918C110.996 393.763 110.75 393.685 110.45 393.685C110.151 393.685 109.905 393.763 109.712 393.918C109.519 394.073 109.376 394.277 109.283 394.529C109.19 394.781 109.144 395.053 109.144 395.344C109.144 395.636 109.19 395.907 109.283 396.157C109.376 396.407 109.519 396.609 109.712 396.762C109.905 396.915 110.151 396.992 110.45 396.992ZM114.121 394.878V397.503H113.451V393.14H114.099V393.822H114.156C114.258 393.6 114.413 393.422 114.621 393.288C114.83 393.151 115.099 393.083 115.428 393.083C115.724 393.083 115.982 393.144 116.204 393.265C116.425 393.384 116.598 393.566 116.721 393.81C116.844 394.053 116.906 394.359 116.906 394.731V397.503H116.235V394.776C116.235 394.433 116.146 394.166 115.968 393.975C115.79 393.782 115.546 393.685 115.235 393.685C115.021 393.685 114.83 393.732 114.661 393.824C114.495 393.917 114.363 394.053 114.266 394.231C114.17 394.409 114.121 394.625 114.121 394.878ZM94.8637 401.685V407.503H94.1591V401.685H94.8637ZM97.9581 407.594C97.549 407.594 97.1968 407.498 96.9013 407.305C96.6059 407.111 96.3786 406.845 96.2195 406.506C96.0604 406.167 95.9809 405.78 95.9809 405.344C95.9809 404.901 96.0623 404.51 96.2252 404.171C96.39 403.83 96.6191 403.564 96.9127 403.373C97.2081 403.18 97.5528 403.083 97.9468 403.083C98.2536 403.083 98.5301 403.14 98.7763 403.253C99.0225 403.367 99.2242 403.526 99.3814 403.731C99.5386 403.935 99.6362 404.174 99.674 404.447H99.0036C98.9525 404.248 98.8388 404.072 98.6627 403.918C98.4884 403.763 98.2536 403.685 97.9581 403.685C97.6968 403.685 97.4676 403.753 97.2706 403.89C97.0756 404.024 96.9231 404.215 96.8133 404.461C96.7053 404.705 96.6513 404.992 96.6513 405.322C96.6513 405.659 96.7043 405.952 96.8104 406.202C96.9184 406.452 97.0699 406.646 97.265 406.785C97.4619 406.923 97.693 406.992 97.9581 406.992C98.1324 406.992 98.2905 406.962 98.4326 406.901C98.5746 406.841 98.6949 406.753 98.7934 406.64C98.8918 406.526 98.9619 406.39 99.0036 406.231H99.674C99.6362 406.488 99.5424 406.72 99.3928 406.927C99.2451 407.131 99.049 407.294 98.8047 407.415C98.5623 407.535 98.2801 407.594 97.9581 407.594ZM102.427 407.594C102.033 407.594 101.687 407.501 101.39 407.313C101.095 407.126 100.863 406.863 100.697 406.526C100.532 406.189 100.45 405.795 100.45 405.344C100.45 404.89 100.532 404.493 100.697 404.154C100.863 403.815 101.095 403.552 101.39 403.364C101.687 403.177 102.033 403.083 102.427 403.083C102.821 403.083 103.166 403.177 103.461 403.364C103.758 403.552 103.989 403.815 104.154 404.154C104.321 404.493 104.404 404.89 104.404 405.344C104.404 405.795 104.321 406.189 104.154 406.526C103.989 406.863 103.758 407.126 103.461 407.313C103.166 407.501 102.821 407.594 102.427 407.594ZM102.427 406.992C102.726 406.992 102.972 406.915 103.166 406.762C103.359 406.609 103.502 406.407 103.595 406.157C103.687 405.907 103.734 405.636 103.734 405.344C103.734 405.053 103.687 404.781 103.595 404.529C103.502 404.277 103.359 404.073 103.166 403.918C102.972 403.763 102.726 403.685 102.427 403.685C102.128 403.685 101.881 403.763 101.688 403.918C101.495 404.073 101.352 404.277 101.259 404.529C101.166 404.781 101.12 405.053 101.12 405.344C101.12 405.636 101.166 405.907 101.259 406.157C101.352 406.407 101.495 406.609 101.688 406.762C101.881 406.915 102.128 406.992 102.427 406.992ZM106.098 404.878V407.503H105.428V403.14H106.075V403.822H106.132C106.234 403.6 106.39 403.422 106.598 403.288C106.806 403.151 107.075 403.083 107.405 403.083C107.7 403.083 107.959 403.144 108.18 403.265C108.402 403.384 108.574 403.566 108.697 403.81C108.821 404.053 108.882 404.359 108.882 404.731V407.503H108.212V404.776C108.212 404.433 108.123 404.166 107.945 403.975C107.767 403.782 107.522 403.685 107.212 403.685C106.998 403.685 106.806 403.732 106.638 403.824C106.471 403.917 106.34 404.053 106.243 404.231C106.146 404.409 106.098 404.625 106.098 404.878Z" fill="black"/>
</svg>
