<svg width="202" height="432" viewBox="0 0 202 432" fill="none" xmlns="http://www.w3.org/2000/svg">
<rect width="202" height="431" fill="white"/>
<rect y="366" width="202" height="66" fill="#D9D9D9"/>
<rect x="9" y="18" width="157" height="16" fill="#D9D9D9"/>
<rect x="9" y="40" width="43" height="8" fill="#D9D9D9"/>
<rect x="56" y="40" width="43" height="8" fill="#656565"/>
<rect x="103" y="40" width="42" height="8" fill="#D9D9D9"/>
<rect x="149" y="40" width="43" height="8" fill="#D9D9D9"/>
<path d="M20.8864 26.6364C20.8523 26.3485 20.714 26.125 20.4716 25.9659C20.2292 25.8068 19.9318 25.7273 19.5795 25.7273C19.322 25.7273 19.0966 25.7689 18.9034 25.8523C18.7121 25.9356 18.5625 26.0502 18.4545 26.196C18.3485 26.3419 18.2955 26.5076 18.2955 26.6932C18.2955 26.8485 18.3324 26.982 18.4062 27.0938C18.482 27.2036 18.5786 27.2955 18.696 27.3693C18.8134 27.4413 18.9366 27.5009 19.0653 27.5483C19.1941 27.5937 19.3125 27.6307 19.4205 27.6591L20.0114 27.8182C20.1629 27.858 20.3314 27.9129 20.517 27.983C20.7045 28.053 20.8835 28.1487 21.054 28.2699C21.2263 28.3892 21.3684 28.5426 21.4801 28.7301C21.5919 28.9176 21.6477 29.1477 21.6477 29.4205C21.6477 29.7348 21.5653 30.0189 21.4006 30.2727C21.2377 30.5265 20.9991 30.7282 20.6847 30.8778C20.3722 31.0275 19.9924 31.1023 19.5455 31.1023C19.1288 31.1023 18.768 31.035 18.4631 30.9006C18.16 30.7661 17.9214 30.5786 17.7472 30.3381C17.5748 30.0975 17.4773 29.8182 17.4545 29.5H18.1818C18.2008 29.7197 18.2746 29.9015 18.4034 30.0455C18.5341 30.1875 18.6989 30.2936 18.8977 30.3636C19.0985 30.4318 19.3144 30.4659 19.5455 30.4659C19.8144 30.4659 20.0559 30.4223 20.2699 30.3352C20.4839 30.2462 20.6534 30.1231 20.7784 29.9659C20.9034 29.8068 20.9659 29.6212 20.9659 29.4091C20.9659 29.2159 20.9119 29.0587 20.804 28.9375C20.696 28.8163 20.554 28.7178 20.3778 28.642C20.2017 28.5663 20.0114 28.5 19.8068 28.4432L19.0909 28.2386C18.6364 28.108 18.2765 27.9214 18.0114 27.679C17.7462 27.4366 17.6136 27.1193 17.6136 26.7273C17.6136 26.4015 17.7017 26.1174 17.8778 25.875C18.0559 25.6307 18.2945 25.4413 18.5938 25.3068C18.8949 25.1705 19.2311 25.1023 19.6023 25.1023C19.9773 25.1023 20.3106 25.1695 20.6023 25.304C20.8939 25.4366 21.125 25.6184 21.2955 25.8494C21.4678 26.0805 21.5587 26.3428 21.5682 26.6364H20.8864ZM24.5447 31.0909C24.1243 31.0909 23.7616 30.9981 23.4567 30.8125C23.1536 30.625 22.9197 30.3636 22.755 30.0284C22.5921 29.6913 22.5107 29.2992 22.5107 28.8523C22.5107 28.4053 22.5921 28.0114 22.755 27.6705C22.9197 27.3277 23.1489 27.0606 23.4425 26.8693C23.7379 26.6761 24.0826 26.5795 24.4766 26.5795C24.7038 26.5795 24.9283 26.6174 25.1499 26.6932C25.3714 26.7689 25.5732 26.892 25.755 27.0625C25.9368 27.2311 26.0817 27.4545 26.1896 27.733C26.2976 28.0114 26.3516 28.3542 26.3516 28.7614V29.0455H22.9879V28.4659H25.6697C25.6697 28.2197 25.6205 28 25.522 27.8068C25.4254 27.6136 25.2872 27.4612 25.1072 27.3494C24.9292 27.2377 24.719 27.1818 24.4766 27.1818C24.2095 27.1818 23.9785 27.2481 23.7834 27.3807C23.5902 27.5114 23.4415 27.6818 23.3374 27.892C23.2332 28.1023 23.1811 28.3277 23.1811 28.5682V28.9545C23.1811 29.2841 23.2379 29.5634 23.3516 29.7926C23.4671 30.0199 23.6271 30.1932 23.8317 30.3125C24.0362 30.4299 24.2739 30.4886 24.5447 30.4886C24.7209 30.4886 24.88 30.464 25.022 30.4148C25.166 30.3636 25.29 30.2879 25.3942 30.1875C25.4983 30.0852 25.5788 29.9583 25.6357 29.8068L26.2834 29.9886C26.2152 30.2083 26.1006 30.4015 25.9396 30.5682C25.7786 30.733 25.5798 30.8617 25.343 30.9545C25.1063 31.0455 24.8402 31.0909 24.5447 31.0909ZM28.6555 31.1023C28.379 31.1023 28.1281 31.0502 27.9027 30.946C27.6773 30.84 27.4983 30.6875 27.3658 30.4886C27.2332 30.2879 27.1669 30.0455 27.1669 29.7614C27.1669 29.5114 27.2161 29.3087 27.3146 29.1534C27.4131 28.9962 27.5447 28.8731 27.7095 28.7841C27.8743 28.6951 28.0561 28.6288 28.255 28.5852C28.4557 28.5398 28.6574 28.5038 28.8601 28.4773C29.1252 28.4432 29.3402 28.4176 29.505 28.4006C29.6716 28.3816 29.7929 28.3504 29.8686 28.3068C29.9463 28.2633 29.9851 28.1875 29.9851 28.0795V28.0568C29.9851 27.7765 29.9084 27.5587 29.755 27.4034C29.6035 27.2481 29.3733 27.1705 29.0646 27.1705C28.7446 27.1705 28.4936 27.2405 28.3118 27.3807C28.13 27.5208 28.0021 27.6705 27.9283 27.8295L27.2919 27.6023C27.4055 27.3371 27.5571 27.1307 27.7464 26.983C27.9377 26.8333 28.1461 26.7292 28.3714 26.6705C28.5987 26.6098 28.8222 26.5795 29.0419 26.5795C29.1821 26.5795 29.343 26.5966 29.5249 26.6307C29.7086 26.6629 29.8857 26.7301 30.0561 26.8324C30.2285 26.9347 30.3714 27.089 30.4851 27.2955C30.5987 27.5019 30.6555 27.7784 30.6555 28.125V31H29.9851V30.4091H29.951C29.9055 30.5038 29.8298 30.6051 29.7237 30.7131C29.6177 30.821 29.4766 30.9129 29.3004 30.9886C29.1243 31.0644 28.9093 31.1023 28.6555 31.1023ZM28.7578 30.5C29.023 30.5 29.2464 30.4479 29.4283 30.3438C29.612 30.2396 29.7502 30.1051 29.843 29.9403C29.9377 29.7756 29.9851 29.6023 29.9851 29.4205V28.8068C29.9567 28.8409 29.8942 28.8722 29.7976 28.9006C29.7029 28.9271 29.593 28.9508 29.468 28.9716C29.3449 28.9905 29.2247 29.0076 29.1072 29.0227C28.9917 29.036 28.898 29.0473 28.826 29.0568C28.6518 29.0795 28.4889 29.1165 28.3374 29.1676C28.1877 29.2169 28.0665 29.2917 27.9737 29.392C27.8828 29.4905 27.8374 29.625 27.8374 29.7955C27.8374 30.0284 27.9235 30.2045 28.0959 30.3239C28.2701 30.4413 28.4908 30.5 28.7578 30.5ZM31.8793 31V26.6364H32.527V27.2955H32.5724C32.652 27.0795 32.7959 26.9044 33.0043 26.7699C33.2126 26.6354 33.4474 26.5682 33.7088 26.5682C33.758 26.5682 33.8196 26.5691 33.8935 26.571C33.9673 26.5729 34.0232 26.5758 34.0611 26.5795V27.2614C34.0384 27.2557 33.9863 27.2472 33.9048 27.2358C33.8253 27.2225 33.741 27.2159 33.652 27.2159C33.4399 27.2159 33.2505 27.2604 33.0838 27.3494C32.919 27.4366 32.7884 27.5578 32.6918 27.7131C32.5971 27.8665 32.5497 28.0417 32.5497 28.2386V31H31.8793ZM36.4957 31.0909C36.0866 31.0909 35.7344 30.9943 35.4389 30.8011C35.1435 30.608 34.9162 30.3419 34.7571 30.0028C34.598 29.6638 34.5185 29.2765 34.5185 28.8409C34.5185 28.3977 34.5999 28.0066 34.7628 27.6676C34.9276 27.3267 35.1567 27.0606 35.4503 26.8693C35.7457 26.6761 36.0904 26.5795 36.4844 26.5795C36.7912 26.5795 37.0677 26.6364 37.3139 26.75C37.5601 26.8636 37.7618 27.0227 37.919 27.2273C38.0762 27.4318 38.1738 27.6705 38.2116 27.9432H37.5412C37.4901 27.7443 37.3764 27.5682 37.2003 27.4148C37.026 27.2595 36.7912 27.1818 36.4957 27.1818C36.2344 27.1818 36.0052 27.25 35.8082 27.3864C35.6132 27.5208 35.4607 27.7112 35.3509 27.9574C35.2429 28.2017 35.1889 28.4886 35.1889 28.8182C35.1889 29.1553 35.242 29.4489 35.348 29.6989C35.456 29.9489 35.6075 30.143 35.8026 30.2812C35.9995 30.4195 36.2306 30.4886 36.4957 30.4886C36.67 30.4886 36.8281 30.4583 36.9702 30.3977C37.1122 30.3371 37.2325 30.25 37.331 30.1364C37.4295 30.0227 37.4995 29.8864 37.5412 29.7273H38.2116C38.1738 29.9848 38.08 30.2169 37.9304 30.4233C37.7827 30.6278 37.5866 30.7907 37.3423 30.9119C37.0999 31.0312 36.8177 31.0909 36.4957 31.0909ZM39.8622 28.375V31H39.1918V25.1818H39.8622V27.3182H39.919C40.0213 27.0928 40.1747 26.9138 40.3793 26.7812C40.5857 26.6468 40.8603 26.5795 41.2031 26.5795C41.5005 26.5795 41.7609 26.6392 41.9844 26.7585C42.2079 26.8759 42.3812 27.0568 42.5043 27.3011C42.6293 27.5436 42.6918 27.8523 42.6918 28.2273V31H42.0213V28.2727C42.0213 27.9261 41.9313 27.6581 41.7514 27.4688C41.5734 27.2775 41.3262 27.1818 41.0099 27.1818C40.7902 27.1818 40.5933 27.2282 40.419 27.321C40.2467 27.4138 40.1103 27.5492 40.0099 27.7273C39.9115 27.9053 39.8622 28.1212 39.8622 28.375ZM46.2592 31V25.1818H48.2933C48.6986 25.1818 49.0329 25.2519 49.2962 25.392C49.5594 25.5303 49.7554 25.7169 49.8842 25.9517C50.013 26.1847 50.0774 26.4432 50.0774 26.7273C50.0774 26.9773 50.0329 27.1837 49.9439 27.3466C49.8568 27.5095 49.7412 27.6383 49.5973 27.733C49.4553 27.8277 49.3009 27.8977 49.1342 27.9432V28C49.3123 28.0114 49.4912 28.0739 49.6712 28.1875C49.8511 28.3011 50.0017 28.464 50.1229 28.6761C50.2441 28.8883 50.3047 29.1477 50.3047 29.4545C50.3047 29.7462 50.2384 30.0085 50.1058 30.2415C49.9732 30.4744 49.764 30.6591 49.478 30.7955C49.192 30.9318 48.8198 31 48.3615 31H46.2592ZM46.9638 30.375H48.3615C48.8217 30.375 49.1484 30.286 49.3416 30.108C49.5367 29.928 49.6342 29.7102 49.6342 29.4545C49.6342 29.2576 49.584 29.0758 49.4837 28.9091C49.3833 28.7405 49.2403 28.6061 49.0547 28.5057C48.8691 28.4034 48.6494 28.3523 48.3956 28.3523H46.9638V30.375ZM46.9638 27.7386H48.2706C48.4827 27.7386 48.674 27.697 48.8445 27.6136C49.0168 27.5303 49.1532 27.4129 49.2536 27.2614C49.3558 27.1098 49.407 26.9318 49.407 26.7273C49.407 26.4716 49.3179 26.2547 49.1399 26.0767C48.9619 25.8968 48.6797 25.8068 48.2933 25.8068H46.9638V27.7386ZM52.6555 31.1023C52.379 31.1023 52.1281 31.0502 51.9027 30.946C51.6773 30.84 51.4983 30.6875 51.3658 30.4886C51.2332 30.2879 51.1669 30.0455 51.1669 29.7614C51.1669 29.5114 51.2161 29.3087 51.3146 29.1534C51.4131 28.9962 51.5447 28.8731 51.7095 28.7841C51.8743 28.6951 52.0561 28.6288 52.255 28.5852C52.4557 28.5398 52.6574 28.5038 52.8601 28.4773C53.1252 28.4432 53.3402 28.4176 53.505 28.4006C53.6716 28.3816 53.7929 28.3504 53.8686 28.3068C53.9463 28.2633 53.9851 28.1875 53.9851 28.0795V28.0568C53.9851 27.7765 53.9084 27.5587 53.755 27.4034C53.6035 27.2481 53.3733 27.1705 53.0646 27.1705C52.7446 27.1705 52.4936 27.2405 52.3118 27.3807C52.13 27.5208 52.0021 27.6705 51.9283 27.8295L51.2919 27.6023C51.4055 27.3371 51.5571 27.1307 51.7464 26.983C51.9377 26.8333 52.1461 26.7292 52.3714 26.6705C52.5987 26.6098 52.8222 26.5795 53.0419 26.5795C53.1821 26.5795 53.343 26.5966 53.5249 26.6307C53.7086 26.6629 53.8857 26.7301 54.0561 26.8324C54.2285 26.9347 54.3714 27.089 54.4851 27.2955C54.5987 27.5019 54.6555 27.7784 54.6555 28.125V31H53.9851V30.4091H53.951C53.9055 30.5038 53.8298 30.6051 53.7237 30.7131C53.6177 30.821 53.4766 30.9129 53.3004 30.9886C53.1243 31.0644 52.9093 31.1023 52.6555 31.1023ZM52.7578 30.5C53.023 30.5 53.2464 30.4479 53.4283 30.3438C53.612 30.2396 53.7502 30.1051 53.843 29.9403C53.9377 29.7756 53.9851 29.6023 53.9851 29.4205V28.8068C53.9567 28.8409 53.8942 28.8722 53.7976 28.9006C53.7029 28.9271 53.593 28.9508 53.468 28.9716C53.3449 28.9905 53.2247 29.0076 53.1072 29.0227C52.9917 29.036 52.898 29.0473 52.826 29.0568C52.6518 29.0795 52.4889 29.1165 52.3374 29.1676C52.1877 29.2169 52.0665 29.2917 51.9737 29.392C51.8828 29.4905 51.8374 29.625 51.8374 29.7955C51.8374 30.0284 51.9235 30.2045 52.0959 30.3239C52.2701 30.4413 52.4908 30.5 52.7578 30.5ZM55.8793 31V26.6364H56.527V27.2955H56.5724C56.652 27.0795 56.7959 26.9044 57.0043 26.7699C57.2126 26.6354 57.4474 26.5682 57.7088 26.5682C57.758 26.5682 57.8196 26.5691 57.8935 26.571C57.9673 26.5729 58.0232 26.5758 58.0611 26.5795V27.2614C58.0384 27.2557 57.9863 27.2472 57.9048 27.2358C57.8253 27.2225 57.741 27.2159 57.652 27.2159C57.4399 27.2159 57.2505 27.2604 57.0838 27.3494C56.919 27.4366 56.7884 27.5578 56.6918 27.7131C56.5971 27.8665 56.5497 28.0417 56.5497 28.2386V31H55.8793Z" fill="black"/>
<rect x="175" y="18" width="17" height="16" fill="#D9D9D9"/>
<path d="M60.2415 41.7543V41.3636H62.9688V41.7543H61.8253V45H61.3849V41.7543H60.2415ZM64.304 45.0568C64.0578 45.0568 63.8417 44.9982 63.6559 44.881C63.4712 44.7638 63.3268 44.5999 63.2227 44.3892C63.1197 44.1785 63.0682 43.9323 63.0682 43.6506C63.0682 43.3665 63.1197 43.1185 63.2227 42.9066C63.3268 42.6947 63.4712 42.5302 63.6559 42.413C63.8417 42.2958 64.0578 42.2372 64.304 42.2372C64.5502 42.2372 64.7656 42.2958 64.9503 42.413C65.1361 42.5302 65.2805 42.6947 65.3835 42.9066C65.4877 43.1185 65.5398 43.3665 65.5398 43.6506C65.5398 43.9323 65.4877 44.1785 65.3835 44.3892C65.2805 44.5999 65.1361 44.7638 64.9503 44.881C64.7656 44.9982 64.5502 45.0568 64.304 45.0568ZM64.304 44.6804C64.491 44.6804 64.6449 44.6325 64.7656 44.5366C64.8864 44.4407 64.9757 44.3146 65.0337 44.1584C65.0917 44.0021 65.1207 43.8329 65.1207 43.6506C65.1207 43.4683 65.0917 43.2984 65.0337 43.141C64.9757 42.9835 64.8864 42.8563 64.7656 42.7592C64.6449 42.6622 64.491 42.6136 64.304 42.6136C64.117 42.6136 63.9631 42.6622 63.8423 42.7592C63.7216 42.8563 63.6322 42.9835 63.5742 43.141C63.5162 43.2984 63.4872 43.4683 63.4872 43.6506C63.4872 43.8329 63.5162 44.0021 63.5742 44.1584C63.6322 44.3146 63.7216 44.4407 63.8423 44.5366C63.9631 44.6325 64.117 44.6804 64.304 44.6804ZM66.1794 46.0227V42.2727H66.5843V42.706H66.634C66.6647 42.6586 66.7074 42.5982 66.7618 42.5249C66.8174 42.4503 66.8968 42.384 66.9997 42.326C67.1039 42.2668 67.2448 42.2372 67.4223 42.2372C67.652 42.2372 67.8544 42.2946 68.0296 42.4094C68.2048 42.5243 68.3415 42.687 68.4397 42.8977C68.538 43.1084 68.5871 43.357 68.5871 43.6435C68.5871 43.9323 68.538 44.1826 68.4397 44.3945C68.3415 44.6052 68.2053 44.7686 68.0313 44.8846C67.8573 44.9994 67.6567 45.0568 67.4294 45.0568C67.2542 45.0568 67.114 45.0278 67.0086 44.9698C66.9033 44.9106 66.8222 44.8437 66.7654 44.7692C66.7085 44.6934 66.6647 44.6307 66.634 44.581H66.5985V46.0227H66.1794ZM66.5914 43.6364C66.5914 43.8423 66.6215 44.024 66.6819 44.1815C66.7423 44.3377 66.8305 44.4602 66.9465 44.549C67.0625 44.6366 67.2045 44.6804 67.3726 44.6804C67.5478 44.6804 67.694 44.6342 67.8112 44.5419C67.9295 44.4484 68.0183 44.3229 68.0775 44.1655C68.1379 44.0069 68.1681 43.8305 68.1681 43.6364C68.1681 43.4446 68.1385 43.2718 68.0793 43.1179C68.0213 42.9628 67.9331 42.8403 67.8147 42.7504C67.6975 42.6592 67.5502 42.6136 67.3726 42.6136C67.2021 42.6136 67.0589 42.6568 66.9429 42.7433C66.8269 42.8285 66.7393 42.948 66.6801 43.1019C66.6209 43.2546 66.5914 43.4328 66.5914 43.6364ZM69.2263 45V42.2727H69.6453V45H69.2263ZM69.4394 41.8182C69.3577 41.8182 69.2873 41.7904 69.2281 41.7347C69.1701 41.6791 69.1411 41.6122 69.1411 41.5341C69.1411 41.456 69.1701 41.3891 69.2281 41.3335C69.2873 41.2778 69.3577 41.25 69.4394 41.25C69.521 41.25 69.5909 41.2778 69.6489 41.3335C69.7081 41.3891 69.7377 41.456 69.7377 41.5341C69.7377 41.6122 69.7081 41.6791 69.6489 41.7347C69.5909 41.7904 69.521 41.8182 69.4394 41.8182ZM71.5208 45.0568C71.2651 45.0568 71.0449 44.9964 70.8603 44.8757C70.6756 44.755 70.5336 44.5887 70.4341 44.3768C70.3347 44.1649 70.285 43.9228 70.285 43.6506C70.285 43.3736 70.3359 43.1291 70.4377 42.9173C70.5407 42.7042 70.6839 42.5379 70.8674 42.4183C71.052 42.2976 71.2675 42.2372 71.5137 42.2372C71.7054 42.2372 71.8783 42.2727 72.0321 42.3438C72.186 42.4148 72.3121 42.5142 72.4103 42.642C72.5086 42.7699 72.5695 42.919 72.5932 43.0895H72.1742C72.1422 42.9652 72.0712 42.8551 71.9611 42.7592C71.8522 42.6622 71.7054 42.6136 71.5208 42.6136C71.3574 42.6136 71.2142 42.6562 71.0911 42.7415C70.9692 42.8255 70.8739 42.9445 70.8052 43.0984C70.7377 43.2511 70.704 43.4304 70.704 43.6364C70.704 43.8471 70.7372 44.0305 70.8034 44.1868C70.8709 44.343 70.9656 44.4644 71.0875 44.5508C71.2106 44.6372 71.3551 44.6804 71.5208 44.6804C71.6297 44.6804 71.7285 44.6615 71.8173 44.6236C71.9061 44.5857 71.9812 44.5312 72.0428 44.4602C72.1043 44.3892 72.1481 44.304 72.1742 44.2045H72.5932C72.5695 44.3655 72.5109 44.5105 72.4174 44.6396C72.3251 44.7674 72.2026 44.8692 72.0499 44.945C71.8984 45.0195 71.722 45.0568 71.5208 45.0568Z" fill="white"/>
<path d="M9 58L192 160M9 58V160M9 58H192M192 160V58M192 160H9M192 58L9 160" stroke="black"/>
<rect x="3.7583" y="382.349" width="35.2326" height="32.665" fill="white"/>
<rect x="43.6886" y="382.349" width="35.2326" height="32.665" fill="#656565"/>
<rect x="83.6188" y="382.349" width="35.2326" height="32.665" fill="white"/>
<rect x="123.549" y="382.349" width="35.2326" height="32.665" fill="white"/>
<rect x="163.479" y="382.349" width="35.2326" height="32.665" fill="white"/>
<path d="M10.7045 402V396.182H11.4091V398.773H14.5114V396.182H15.2159V402H14.5114V399.398H11.4091V402H10.7045ZM18.3082 402.091C17.9143 402.091 17.5687 401.997 17.2713 401.81C16.9759 401.622 16.7448 401.36 16.5781 401.023C16.4134 400.686 16.331 400.292 16.331 399.841C16.331 399.386 16.4134 398.99 16.5781 398.651C16.7448 398.312 16.9759 398.048 17.2713 397.861C17.5687 397.673 17.9143 397.58 18.3082 397.58C18.7022 397.58 19.0469 397.673 19.3423 397.861C19.6397 398.048 19.8707 398.312 20.0355 398.651C20.2022 398.99 20.2855 399.386 20.2855 399.841C20.2855 400.292 20.2022 400.686 20.0355 401.023C19.8707 401.36 19.6397 401.622 19.3423 401.81C19.0469 401.997 18.7022 402.091 18.3082 402.091ZM18.3082 401.489C18.6075 401.489 18.8537 401.412 19.0469 401.259C19.2401 401.105 19.383 400.903 19.4759 400.653C19.5687 400.403 19.6151 400.133 19.6151 399.841C19.6151 399.549 19.5687 399.277 19.4759 399.026C19.383 398.774 19.2401 398.57 19.0469 398.415C18.8537 398.259 18.6075 398.182 18.3082 398.182C18.009 398.182 17.7628 398.259 17.5696 398.415C17.3764 398.57 17.2334 398.774 17.1406 399.026C17.0478 399.277 17.0014 399.549 17.0014 399.841C17.0014 400.133 17.0478 400.403 17.1406 400.653C17.2334 400.903 17.3764 401.105 17.5696 401.259C17.7628 401.412 18.009 401.489 18.3082 401.489ZM21.3089 402V397.636H21.9567V398.318H22.0135C22.1044 398.085 22.2512 397.904 22.4538 397.776C22.6565 397.645 22.8999 397.58 23.1839 397.58C23.4718 397.58 23.7114 397.645 23.9027 397.776C24.0959 397.904 24.2464 398.085 24.3544 398.318H24.3999C24.5116 398.093 24.6792 397.914 24.9027 397.781C25.1262 397.647 25.3942 397.58 25.7067 397.58C26.0968 397.58 26.416 397.702 26.6641 397.946C26.9122 398.188 27.0362 398.566 27.0362 399.08V402H26.3658V399.08C26.3658 398.758 26.2777 398.527 26.1016 398.389C25.9254 398.251 25.718 398.182 25.4794 398.182C25.1726 398.182 24.9349 398.275 24.7663 398.46C24.5978 398.644 24.5135 398.877 24.5135 399.159V402H23.8317V399.011C23.8317 398.763 23.7512 398.563 23.5902 398.412C23.4292 398.259 23.2218 398.182 22.968 398.182C22.7938 398.182 22.6309 398.228 22.4794 398.321C22.3298 398.414 22.2086 398.543 22.1158 398.707C22.0249 398.87 21.9794 399.059 21.9794 399.273V402H21.3089ZM30.0916 402.091C29.6712 402.091 29.3085 401.998 29.0036 401.812C28.7005 401.625 28.4666 401.364 28.3018 401.028C28.139 400.691 28.0575 400.299 28.0575 399.852C28.0575 399.405 28.139 399.011 28.3018 398.67C28.4666 398.328 28.6958 398.061 28.9893 397.869C29.2848 397.676 29.6295 397.58 30.0234 397.58C30.2507 397.58 30.4751 397.617 30.6967 397.693C30.9183 397.769 31.12 397.892 31.3018 398.062C31.4837 398.231 31.6286 398.455 31.7365 398.733C31.8445 399.011 31.8984 399.354 31.8984 399.761V400.045H28.5348V399.466H31.2166C31.2166 399.22 31.1674 399 31.0689 398.807C30.9723 398.614 30.834 398.461 30.6541 398.349C30.4761 398.238 30.2659 398.182 30.0234 398.182C29.7564 398.182 29.5253 398.248 29.3303 398.381C29.1371 398.511 28.9884 398.682 28.8842 398.892C28.7801 399.102 28.728 399.328 28.728 399.568V399.955C28.728 400.284 28.7848 400.563 28.8984 400.793C29.014 401.02 29.174 401.193 29.3786 401.312C29.5831 401.43 29.8208 401.489 30.0916 401.489C30.2678 401.489 30.4268 401.464 30.5689 401.415C30.7128 401.364 30.8369 401.288 30.9411 401.188C31.0452 401.085 31.1257 400.958 31.1825 400.807L31.8303 400.989C31.7621 401.208 31.6475 401.402 31.4865 401.568C31.3255 401.733 31.1267 401.862 30.8899 401.955C30.6532 402.045 30.3871 402.091 30.0916 402.091Z" fill="black"/>
<path d="M53.6818 398C53.6193 397.809 53.5369 397.637 53.4347 397.486C53.3343 397.332 53.214 397.202 53.0739 397.094C52.9356 396.986 52.7784 396.903 52.6023 396.847C52.4261 396.79 52.233 396.761 52.0227 396.761C51.678 396.761 51.3646 396.85 51.0824 397.028C50.8002 397.206 50.5758 397.469 50.4091 397.815C50.2424 398.162 50.1591 398.587 50.1591 399.091C50.1591 399.595 50.2434 400.02 50.4119 400.366C50.5805 400.713 50.8087 400.975 51.0966 401.153C51.3845 401.331 51.7083 401.42 52.0682 401.42C52.4015 401.42 52.6951 401.349 52.9489 401.207C53.2045 401.063 53.4034 400.861 53.5455 400.599C53.6894 400.336 53.7614 400.027 53.7614 399.67L53.9773 399.716H52.2273V399.091H54.4432V399.716C54.4432 400.195 54.3409 400.612 54.1364 400.966C53.9337 401.32 53.6534 401.595 53.2955 401.79C52.9394 401.983 52.5303 402.08 52.0682 402.08C51.553 402.08 51.1004 401.958 50.7102 401.716C50.322 401.473 50.0189 401.129 49.8011 400.682C49.5852 400.235 49.4773 399.705 49.4773 399.091C49.4773 398.631 49.5388 398.217 49.6619 397.849C49.7869 397.48 49.9631 397.166 50.1903 396.906C50.4176 396.647 50.6866 396.448 50.9972 396.31C51.3078 396.171 51.6496 396.102 52.0227 396.102C52.3295 396.102 52.6155 396.149 52.8807 396.241C53.1477 396.332 53.3854 396.462 53.5938 396.631C53.804 396.797 53.9792 396.997 54.1193 397.23C54.2595 397.461 54.3561 397.718 54.4091 398H53.6818ZM55.5589 402V397.636H56.2067V398.295H56.2521C56.3317 398.08 56.4756 397.904 56.6839 397.77C56.8923 397.635 57.1271 397.568 57.3885 397.568C57.4377 397.568 57.4993 397.569 57.5732 397.571C57.647 397.573 57.7029 397.576 57.7408 397.58V398.261C57.718 398.256 57.666 398.247 57.5845 398.236C57.505 398.223 57.4207 398.216 57.3317 398.216C57.1196 398.216 56.9302 398.26 56.7635 398.349C56.5987 398.437 56.468 398.558 56.3714 398.713C56.2768 398.866 56.2294 399.042 56.2294 399.239V402H55.5589ZM60.1754 402.091C59.7815 402.091 59.4358 401.997 59.1385 401.81C58.843 401.622 58.612 401.36 58.4453 401.023C58.2805 400.686 58.1982 400.292 58.1982 399.841C58.1982 399.386 58.2805 398.99 58.4453 398.651C58.612 398.312 58.843 398.048 59.1385 397.861C59.4358 397.673 59.7815 397.58 60.1754 397.58C60.5694 397.58 60.9141 397.673 61.2095 397.861C61.5069 398.048 61.7379 398.312 61.9027 398.651C62.0694 398.99 62.1527 399.386 62.1527 399.841C62.1527 400.292 62.0694 400.686 61.9027 401.023C61.7379 401.36 61.5069 401.622 61.2095 401.81C60.9141 401.997 60.5694 402.091 60.1754 402.091ZM60.1754 401.489C60.4747 401.489 60.7209 401.412 60.9141 401.259C61.1072 401.105 61.2502 400.903 61.343 400.653C61.4358 400.403 61.4822 400.133 61.4822 399.841C61.4822 399.549 61.4358 399.277 61.343 399.026C61.2502 398.774 61.1072 398.57 60.9141 398.415C60.7209 398.259 60.4747 398.182 60.1754 398.182C59.8762 398.182 59.63 398.259 59.4368 398.415C59.2436 398.57 59.1006 398.774 59.0078 399.026C58.915 399.277 58.8686 399.549 58.8686 399.841C58.8686 400.133 58.915 400.403 59.0078 400.653C59.1006 400.903 59.2436 401.105 59.4368 401.259C59.63 401.412 59.8762 401.489 60.1754 401.489ZM65.9261 400.216V397.636H66.5966V402H65.9261V401.261H65.8807C65.7784 401.483 65.6193 401.671 65.4034 401.827C65.1875 401.98 64.9148 402.057 64.5852 402.057C64.3125 402.057 64.0701 401.997 63.858 401.878C63.6458 401.757 63.4792 401.575 63.358 401.332C63.2367 401.088 63.1761 400.78 63.1761 400.409V397.636H63.8466V400.364C63.8466 400.682 63.9356 400.936 64.1136 401.125C64.2936 401.314 64.5227 401.409 64.8011 401.409C64.9678 401.409 65.1373 401.366 65.3097 401.281C65.4839 401.196 65.6297 401.065 65.7472 400.889C65.8665 400.713 65.9261 400.489 65.9261 400.216ZM67.8246 403.636V397.636H68.4723V398.33H68.5518C68.6011 398.254 68.6693 398.157 68.7564 398.04C68.8454 397.92 68.9723 397.814 69.1371 397.722C69.3037 397.627 69.5291 397.58 69.8132 397.58C70.1806 397.58 70.5045 397.671 70.7848 397.855C71.0651 398.039 71.2839 398.299 71.4411 398.636C71.5982 398.973 71.6768 399.371 71.6768 399.83C71.6768 400.292 71.5982 400.692 71.4411 401.031C71.2839 401.368 71.0661 401.63 70.7876 401.815C70.5092 401.999 70.1882 402.091 69.8246 402.091C69.5443 402.091 69.3198 402.045 69.1513 401.952C68.9827 401.857 68.853 401.75 68.7621 401.631C68.6712 401.509 68.6011 401.409 68.5518 401.33H68.495V403.636H67.8246ZM68.4837 399.818C68.4837 400.148 68.532 400.438 68.6286 400.69C68.7251 400.94 68.8662 401.136 69.0518 401.278C69.2375 401.419 69.4647 401.489 69.7337 401.489C70.014 401.489 70.2479 401.415 70.4354 401.267C70.6248 401.117 70.7668 400.917 70.8615 400.665C70.9581 400.411 71.0064 400.129 71.0064 399.818C71.0064 399.511 70.959 399.235 70.8643 398.989C70.7715 398.741 70.6304 398.545 70.4411 398.401C70.2536 398.255 70.0178 398.182 69.7337 398.182C69.4609 398.182 69.2318 398.251 69.0462 398.389C68.8606 398.526 68.7204 398.717 68.6257 398.963C68.531 399.207 68.4837 399.492 68.4837 399.818ZM75.7905 398.614L75.1882 398.784C75.1503 398.684 75.0945 398.586 75.0206 398.491C74.9486 398.395 74.8501 398.315 74.7251 398.253C74.6001 398.19 74.4401 398.159 74.245 398.159C73.978 398.159 73.7554 398.221 73.5774 398.344C73.4013 398.465 73.3132 398.619 73.3132 398.807C73.3132 398.973 73.3738 399.105 73.495 399.202C73.6162 399.298 73.8056 399.379 74.0632 399.443L74.7109 399.602C75.1011 399.697 75.3918 399.842 75.5831 400.037C75.7744 400.23 75.87 400.479 75.87 400.784C75.87 401.034 75.7981 401.258 75.6541 401.455C75.5121 401.652 75.3132 401.807 75.0575 401.92C74.8018 402.034 74.5045 402.091 74.1655 402.091C73.7204 402.091 73.352 401.994 73.0604 401.801C72.7687 401.608 72.584 401.326 72.5064 400.955L73.1428 400.795C73.2034 401.03 73.3179 401.206 73.4865 401.324C73.657 401.441 73.8795 401.5 74.1541 401.5C74.4666 401.5 74.7147 401.434 74.8984 401.301C75.084 401.167 75.1768 401.006 75.1768 400.818C75.1768 400.667 75.1238 400.54 75.0178 400.438C74.9117 400.333 74.7488 400.256 74.5291 400.205L73.8018 400.034C73.4022 399.939 73.1087 399.793 72.9212 399.594C72.7356 399.393 72.6428 399.142 72.6428 398.841C72.6428 398.595 72.7119 398.377 72.8501 398.188C72.9903 397.998 73.1806 397.849 73.4212 397.741C73.6636 397.634 73.9382 397.58 74.245 397.58C74.6768 397.58 75.0159 397.674 75.2621 397.864C75.5102 398.053 75.6863 398.303 75.7905 398.614Z" fill="white"/>
<path d="M128.705 402V396.182H129.409V398.773H132.511V396.182H133.216V402H132.511V399.398H129.409V402H128.705ZM134.536 402V397.636H135.206V402H134.536ZM134.876 396.909C134.746 396.909 134.633 396.865 134.538 396.776C134.446 396.687 134.399 396.58 134.399 396.455C134.399 396.33 134.446 396.223 134.538 396.134C134.633 396.045 134.746 396 134.876 396C135.007 396 135.119 396.045 135.212 396.134C135.306 396.223 135.354 396.33 135.354 396.455C135.354 396.58 135.306 396.687 135.212 396.776C135.119 396.865 135.007 396.909 134.876 396.909ZM139.525 398.614L138.923 398.784C138.885 398.684 138.829 398.586 138.755 398.491C138.683 398.395 138.585 398.315 138.46 398.253C138.335 398.19 138.174 398.159 137.979 398.159C137.712 398.159 137.49 398.221 137.312 398.344C137.136 398.465 137.048 398.619 137.048 398.807C137.048 398.973 137.108 399.105 137.229 399.202C137.351 399.298 137.54 399.379 137.798 399.443L138.445 399.602C138.835 399.697 139.126 399.842 139.317 400.037C139.509 400.23 139.604 400.479 139.604 400.784C139.604 401.034 139.532 401.258 139.388 401.455C139.246 401.652 139.048 401.807 138.792 401.92C138.536 402.034 138.239 402.091 137.9 402.091C137.455 402.091 137.086 401.994 136.795 401.801C136.503 401.608 136.318 401.326 136.241 400.955L136.877 400.795C136.938 401.03 137.052 401.206 137.221 401.324C137.391 401.441 137.614 401.5 137.888 401.5C138.201 401.5 138.449 401.434 138.633 401.301C138.818 401.167 138.911 401.006 138.911 400.818C138.911 400.667 138.858 400.54 138.752 400.438C138.646 400.333 138.483 400.256 138.263 400.205L137.536 400.034C137.137 399.939 136.843 399.793 136.656 399.594C136.47 399.393 136.377 399.142 136.377 398.841C136.377 398.595 136.446 398.377 136.585 398.188C136.725 397.998 136.915 397.849 137.156 397.741C137.398 397.634 137.673 397.58 137.979 397.58C138.411 397.58 138.75 397.674 138.996 397.864C139.245 398.053 139.421 398.303 139.525 398.614ZM142.511 397.636V398.205H140.25V397.636H142.511ZM140.909 396.591H141.58V400.75C141.58 400.939 141.607 401.081 141.662 401.176C141.719 401.269 141.791 401.331 141.878 401.364C141.967 401.394 142.061 401.409 142.159 401.409C142.233 401.409 142.294 401.405 142.341 401.398C142.388 401.388 142.426 401.381 142.455 401.375L142.591 401.977C142.545 401.994 142.482 402.011 142.401 402.028C142.319 402.047 142.216 402.057 142.091 402.057C141.902 402.057 141.716 402.016 141.534 401.935C141.354 401.853 141.205 401.729 141.085 401.562C140.968 401.396 140.909 401.186 140.909 400.932V396.591ZM145.246 402.091C144.852 402.091 144.506 401.997 144.209 401.81C143.913 401.622 143.682 401.36 143.516 401.023C143.351 400.686 143.268 400.292 143.268 399.841C143.268 399.386 143.351 398.99 143.516 398.651C143.682 398.312 143.913 398.048 144.209 397.861C144.506 397.673 144.852 397.58 145.246 397.58C145.64 397.58 145.984 397.673 146.28 397.861C146.577 398.048 146.808 398.312 146.973 398.651C147.14 398.99 147.223 399.386 147.223 399.841C147.223 400.292 147.14 400.686 146.973 401.023C146.808 401.36 146.577 401.622 146.28 401.81C145.984 401.997 145.64 402.091 145.246 402.091ZM145.246 401.489C145.545 401.489 145.791 401.412 145.984 401.259C146.178 401.105 146.321 400.903 146.413 400.653C146.506 400.403 146.553 400.133 146.553 399.841C146.553 399.549 146.506 399.277 146.413 399.026C146.321 398.774 146.178 398.57 145.984 398.415C145.791 398.259 145.545 398.182 145.246 398.182C144.946 398.182 144.7 398.259 144.507 398.415C144.314 398.57 144.171 398.774 144.078 399.026C143.985 399.277 143.939 399.549 143.939 399.841C143.939 400.133 143.985 400.403 144.078 400.653C144.171 400.903 144.314 401.105 144.507 401.259C144.7 401.412 144.946 401.489 145.246 401.489ZM148.246 402V397.636H148.894V398.295H148.94C149.019 398.08 149.163 397.904 149.371 397.77C149.58 397.635 149.815 397.568 150.076 397.568C150.125 397.568 150.187 397.569 150.261 397.571C150.335 397.573 150.39 397.576 150.428 397.58V398.261C150.406 398.256 150.353 398.247 150.272 398.236C150.192 398.223 150.108 398.216 150.019 398.216C149.807 398.216 149.618 398.26 149.451 398.349C149.286 398.437 149.156 398.558 149.059 398.713C148.964 398.866 148.917 399.042 148.917 399.239V402H148.246ZM151.788 403.636C151.674 403.636 151.573 403.627 151.484 403.608C151.395 403.591 151.333 403.574 151.299 403.557L151.469 402.966C151.632 403.008 151.776 403.023 151.901 403.011C152.026 403 152.137 402.944 152.234 402.844C152.332 402.745 152.422 402.585 152.504 402.364L152.629 402.023L151.015 397.636H151.742L152.947 401.114H152.992L154.197 397.636H154.924L153.072 402.636C152.988 402.862 152.885 403.048 152.762 403.196C152.639 403.346 152.496 403.456 152.333 403.528C152.172 403.6 151.99 403.636 151.788 403.636Z" fill="black"/>
<path d="M176.705 396.182H177.545L179.523 401.011H179.591L181.568 396.182H182.409V402H181.75V397.58H181.693L179.875 402H179.239L177.42 397.58H177.364V402H176.705V396.182ZM185.56 402.091C185.14 402.091 184.777 401.998 184.472 401.812C184.169 401.625 183.935 401.364 183.771 401.028C183.608 400.691 183.526 400.299 183.526 399.852C183.526 399.405 183.608 399.011 183.771 398.67C183.935 398.328 184.165 398.061 184.458 397.869C184.754 397.676 185.098 397.58 185.492 397.58C185.719 397.58 185.944 397.617 186.165 397.693C186.387 397.769 186.589 397.892 186.771 398.062C186.952 398.231 187.097 398.455 187.205 398.733C187.313 399.011 187.367 399.354 187.367 399.761V400.045H184.004V399.466H186.685C186.685 399.22 186.636 399 186.538 398.807C186.441 398.614 186.303 398.461 186.123 398.349C185.945 398.238 185.735 398.182 185.492 398.182C185.225 398.182 184.994 398.248 184.799 398.381C184.606 398.511 184.457 398.682 184.353 398.892C184.249 399.102 184.197 399.328 184.197 399.568V399.955C184.197 400.284 184.254 400.563 184.367 400.793C184.483 401.02 184.643 401.193 184.847 401.312C185.052 401.43 185.29 401.489 185.56 401.489C185.737 401.489 185.896 401.464 186.038 401.415C186.182 401.364 186.306 401.288 186.41 401.188C186.514 401.085 186.594 400.958 186.651 400.807L187.299 400.989C187.231 401.208 187.116 401.402 186.955 401.568C186.794 401.733 186.595 401.862 186.359 401.955C186.122 402.045 185.856 402.091 185.56 402.091Z" fill="black"/>
<path d="M91.4655 394H90.7609C90.7192 393.797 90.6463 393.619 90.5422 393.466C90.4399 393.312 90.3149 393.184 90.1672 393.08C90.0213 392.973 89.8594 392.894 89.6814 392.841C89.5033 392.788 89.3177 392.761 89.1246 392.761C88.7723 392.761 88.4532 392.85 88.1672 393.028C87.8831 393.206 87.6567 393.469 87.4882 393.815C87.3215 394.162 87.2382 394.587 87.2382 395.091C87.2382 395.595 87.3215 396.02 87.4882 396.366C87.6567 396.713 87.8831 396.975 88.1672 397.153C88.4532 397.331 88.7723 397.42 89.1246 397.42C89.3177 397.42 89.5033 397.394 89.6814 397.341C89.8594 397.288 90.0213 397.209 90.1672 397.105C90.3149 396.999 90.4399 396.869 90.5422 396.716C90.6463 396.561 90.7192 396.383 90.7609 396.182H91.4655C91.4124 396.479 91.3158 396.745 91.1757 396.98C91.0355 397.215 90.8613 397.415 90.653 397.58C90.4446 397.742 90.2107 397.866 89.9513 397.952C89.6937 398.037 89.4181 398.08 89.1246 398.08C88.6283 398.08 88.1871 397.958 87.8007 397.716C87.4143 397.473 87.1103 397.129 86.8888 396.682C86.6672 396.235 86.5564 395.705 86.5564 395.091C86.5564 394.477 86.6672 393.947 86.8888 393.5C87.1103 393.053 87.4143 392.708 87.8007 392.466C88.1871 392.223 88.6283 392.102 89.1246 392.102C89.4181 392.102 89.6937 392.145 89.9513 392.23C90.2107 392.315 90.4446 392.44 90.653 392.605C90.8613 392.768 91.0355 392.967 91.1757 393.202C91.3158 393.435 91.4124 393.701 91.4655 394ZM92.513 398V393.636H93.1608V394.295H93.2062C93.2858 394.08 93.4297 393.904 93.638 393.77C93.8464 393.635 94.0812 393.568 94.3426 393.568C94.3918 393.568 94.4534 393.569 94.5273 393.571C94.6011 393.573 94.657 393.576 94.6949 393.58V394.261C94.6721 394.256 94.6201 394.247 94.5386 394.236C94.4591 394.223 94.3748 394.216 94.2858 394.216C94.0737 394.216 93.8843 394.26 93.7176 394.349C93.5528 394.437 93.4221 394.558 93.3255 394.713C93.2308 394.866 93.1835 395.042 93.1835 395.239V398H92.513ZM97.1863 398.091C96.7659 398.091 96.4032 397.998 96.0983 397.812C95.7952 397.625 95.5613 397.364 95.3966 397.028C95.2337 396.691 95.1523 396.299 95.1523 395.852C95.1523 395.405 95.2337 395.011 95.3966 394.67C95.5613 394.328 95.7905 394.061 96.0841 393.869C96.3795 393.676 96.7242 393.58 97.1182 393.58C97.3454 393.58 97.5699 393.617 97.7915 393.693C98.013 393.769 98.2148 393.892 98.3966 394.062C98.5784 394.231 98.7233 394.455 98.8312 394.733C98.9392 395.011 98.9932 395.354 98.9932 395.761V396.045H95.6295V395.466H98.3113C98.3113 395.22 98.2621 395 98.1636 394.807C98.067 394.614 97.9288 394.461 97.7488 394.349C97.5708 394.238 97.3606 394.182 97.1182 394.182C96.8511 394.182 96.6201 394.248 96.425 394.381C96.2318 394.511 96.0831 394.682 95.979 394.892C95.8748 395.102 95.8227 395.328 95.8227 395.568V395.955C95.8227 396.284 95.8795 396.563 95.9932 396.793C96.1087 397.02 96.2687 397.193 96.4733 397.312C96.6778 397.43 96.9155 397.489 97.1863 397.489C97.3625 397.489 97.5216 397.464 97.6636 397.415C97.8076 397.364 97.9316 397.288 98.0358 397.188C98.1399 397.085 98.2204 396.958 98.2773 396.807L98.925 396.989C98.8568 397.208 98.7422 397.402 98.5812 397.568C98.4202 397.733 98.2214 397.862 97.9846 397.955C97.7479 398.045 97.4818 398.091 97.1863 398.091ZM101.297 398.102C101.021 398.102 100.77 398.05 100.544 397.946C100.319 397.84 100.14 397.688 100.007 397.489C99.8748 397.288 99.8085 397.045 99.8085 396.761C99.8085 396.511 99.8577 396.309 99.9562 396.153C100.055 395.996 100.186 395.873 100.351 395.784C100.516 395.695 100.698 395.629 100.897 395.585C101.097 395.54 101.299 395.504 101.502 395.477C101.767 395.443 101.982 395.418 102.147 395.401C102.313 395.382 102.434 395.35 102.51 395.307C102.588 395.263 102.627 395.187 102.627 395.08V395.057C102.627 394.777 102.55 394.559 102.397 394.403C102.245 394.248 102.015 394.17 101.706 394.17C101.386 394.17 101.135 394.241 100.953 394.381C100.772 394.521 100.644 394.67 100.57 394.83L99.9335 394.602C100.047 394.337 100.199 394.131 100.388 393.983C100.579 393.833 100.788 393.729 101.013 393.67C101.24 393.61 101.464 393.58 101.684 393.58C101.824 393.58 101.985 393.597 102.166 393.631C102.35 393.663 102.527 393.73 102.698 393.832C102.87 393.935 103.013 394.089 103.127 394.295C103.24 394.502 103.297 394.778 103.297 395.125V398H102.627V397.409H102.593C102.547 397.504 102.471 397.605 102.365 397.713C102.259 397.821 102.118 397.913 101.942 397.989C101.766 398.064 101.551 398.102 101.297 398.102ZM101.399 397.5C101.665 397.5 101.888 397.448 102.07 397.344C102.254 397.24 102.392 397.105 102.485 396.94C102.579 396.776 102.627 396.602 102.627 396.42V395.807C102.598 395.841 102.536 395.872 102.439 395.901C102.344 395.927 102.235 395.951 102.11 395.972C101.987 395.991 101.866 396.008 101.749 396.023C101.633 396.036 101.54 396.047 101.468 396.057C101.293 396.08 101.13 396.116 100.979 396.168C100.829 396.217 100.708 396.292 100.615 396.392C100.524 396.491 100.479 396.625 100.479 396.795C100.479 397.028 100.565 397.205 100.737 397.324C100.912 397.441 101.132 397.5 101.399 397.5ZM106.419 393.636V394.205H104.157V393.636H106.419ZM104.816 392.591H105.487V396.75C105.487 396.939 105.514 397.081 105.569 397.176C105.626 397.269 105.698 397.331 105.785 397.364C105.874 397.394 105.968 397.409 106.066 397.409C106.14 397.409 106.201 397.405 106.248 397.398C106.295 397.388 106.333 397.381 106.362 397.375L106.498 397.977C106.453 397.994 106.389 398.011 106.308 398.028C106.226 398.047 106.123 398.057 105.998 398.057C105.809 398.057 105.623 398.016 105.441 397.935C105.261 397.853 105.112 397.729 104.992 397.562C104.875 397.396 104.816 397.186 104.816 396.932V392.591ZM107.427 398V393.636H108.098V398H107.427ZM107.768 392.909C107.637 392.909 107.525 392.865 107.43 392.776C107.337 392.687 107.291 392.58 107.291 392.455C107.291 392.33 107.337 392.223 107.43 392.134C107.525 392.045 107.637 392 107.768 392C107.899 392 108.01 392.045 108.103 392.134C108.198 392.223 108.245 392.33 108.245 392.455C108.245 392.58 108.198 392.687 108.103 392.776C108.01 392.865 107.899 392.909 107.768 392.909ZM111.098 398.091C110.704 398.091 110.359 397.997 110.061 397.81C109.766 397.622 109.535 397.36 109.368 397.023C109.203 396.686 109.121 396.292 109.121 395.841C109.121 395.386 109.203 394.99 109.368 394.651C109.535 394.312 109.766 394.048 110.061 393.861C110.359 393.673 110.704 393.58 111.098 393.58C111.492 393.58 111.837 393.673 112.132 393.861C112.43 394.048 112.661 394.312 112.826 394.651C112.992 394.99 113.076 395.386 113.076 395.841C113.076 396.292 112.992 396.686 112.826 397.023C112.661 397.36 112.43 397.622 112.132 397.81C111.837 397.997 111.492 398.091 111.098 398.091ZM111.098 397.489C111.398 397.489 111.644 397.412 111.837 397.259C112.03 397.105 112.173 396.903 112.266 396.653C112.359 396.403 112.405 396.133 112.405 395.841C112.405 395.549 112.359 395.277 112.266 395.026C112.173 394.774 112.03 394.57 111.837 394.415C111.644 394.259 111.398 394.182 111.098 394.182C110.799 394.182 110.553 394.259 110.36 394.415C110.166 394.57 110.023 394.774 109.931 395.026C109.838 395.277 109.791 395.549 109.791 395.841C109.791 396.133 109.838 396.403 109.931 396.653C110.023 396.903 110.166 397.105 110.36 397.259C110.553 397.412 110.799 397.489 111.098 397.489ZM114.769 395.375V398H114.099V393.636H114.747V394.318H114.804C114.906 394.097 115.061 393.919 115.269 393.784C115.478 393.648 115.747 393.58 116.076 393.58C116.372 393.58 116.63 393.64 116.852 393.761C117.073 393.881 117.246 394.062 117.369 394.307C117.492 394.549 117.554 394.856 117.554 395.227V398H116.883V395.273C116.883 394.93 116.794 394.663 116.616 394.472C116.438 394.278 116.194 394.182 115.883 394.182C115.669 394.182 115.478 394.228 115.309 394.321C115.143 394.414 115.011 394.549 114.914 394.727C114.818 394.905 114.769 395.121 114.769 395.375ZM95.5116 402.182V408H94.8071V402.182H95.5116ZM98.6061 408.091C98.197 408.091 97.8447 407.994 97.5493 407.801C97.2538 407.608 97.0265 407.342 96.8675 407.003C96.7084 406.664 96.6288 406.277 96.6288 405.841C96.6288 405.398 96.7103 405.007 96.8731 404.668C97.0379 404.327 97.2671 404.061 97.5606 403.869C97.8561 403.676 98.2008 403.58 98.5947 403.58C98.9015 403.58 99.1781 403.636 99.4243 403.75C99.6705 403.864 99.8722 404.023 100.029 404.227C100.187 404.432 100.284 404.67 100.322 404.943H99.6515C99.6004 404.744 99.4868 404.568 99.3106 404.415C99.1364 404.259 98.9015 404.182 98.6061 404.182C98.3447 404.182 98.1156 404.25 97.9186 404.386C97.7235 404.521 97.571 404.711 97.4612 404.957C97.3532 405.202 97.2993 405.489 97.2993 405.818C97.2993 406.155 97.3523 406.449 97.4584 406.699C97.5663 406.949 97.7178 407.143 97.9129 407.281C98.1099 407.42 98.3409 407.489 98.6061 407.489C98.7803 407.489 98.9385 407.458 99.0805 407.398C99.2226 407.337 99.3428 407.25 99.4413 407.136C99.5398 407.023 99.6099 406.886 99.6515 406.727H100.322C100.284 406.985 100.19 407.217 100.041 407.423C99.893 407.628 99.697 407.791 99.4527 407.912C99.2103 408.031 98.9281 408.091 98.6061 408.091ZM103.075 408.091C102.681 408.091 102.335 407.997 102.038 407.81C101.742 407.622 101.511 407.36 101.345 407.023C101.18 406.686 101.098 406.292 101.098 405.841C101.098 405.386 101.18 404.99 101.345 404.651C101.511 404.312 101.742 404.048 102.038 403.861C102.335 403.673 102.681 403.58 103.075 403.58C103.469 403.58 103.813 403.673 104.109 403.861C104.406 404.048 104.637 404.312 104.802 404.651C104.969 404.99 105.052 405.386 105.052 405.841C105.052 406.292 104.969 406.686 104.802 407.023C104.637 407.36 104.406 407.622 104.109 407.81C103.813 407.997 103.469 408.091 103.075 408.091ZM103.075 407.489C103.374 407.489 103.62 407.412 103.813 407.259C104.007 407.105 104.15 406.903 104.242 406.653C104.335 406.403 104.382 406.133 104.382 405.841C104.382 405.549 104.335 405.277 104.242 405.026C104.15 404.774 104.007 404.57 103.813 404.415C103.62 404.259 103.374 404.182 103.075 404.182C102.776 404.182 102.529 404.259 102.336 404.415C102.143 404.57 102 404.774 101.907 405.026C101.814 405.277 101.768 405.549 101.768 405.841C101.768 406.133 101.814 406.403 101.907 406.653C102 406.903 102.143 407.105 102.336 407.259C102.529 407.412 102.776 407.489 103.075 407.489ZM106.746 405.375V408H106.076V403.636H106.723V404.318H106.78C106.882 404.097 107.038 403.919 107.246 403.784C107.454 403.648 107.723 403.58 108.053 403.58C108.348 403.58 108.607 403.64 108.828 403.761C109.05 403.881 109.222 404.062 109.345 404.307C109.469 404.549 109.53 404.856 109.53 405.227V408H108.86V405.273C108.86 404.93 108.771 404.663 108.593 404.472C108.415 404.278 108.17 404.182 107.86 404.182C107.646 404.182 107.454 404.228 107.286 404.321C107.119 404.414 106.987 404.549 106.891 404.727C106.794 404.905 106.746 405.121 106.746 405.375Z" fill="black"/>
<rect x="10" y="189" width="87" height="23" fill="#E3E3E3"/>
<rect x="48" y="226" width="87" height="24" fill="#E3E3E3"/>
<rect x="108" y="189" width="87" height="23" fill="#E3E3E3"/>
<rect x="10" y="254" width="87" height="23" fill="#E3E3E3"/>
<rect x="101" y="263" width="87" height="24" fill="#E3E3E3"/>
<rect x="18" y="291" width="87" height="23" fill="#E3E3E3"/>
<rect x="101" y="324" width="87" height="23" fill="#E3E3E3"/>
<path d="M17.3864 199.807V199.182H21.75V199.807H19.9205V205H19.2159V199.807H17.3864ZM23.8864 205.091C23.4924 205.091 23.1468 204.997 22.8494 204.81C22.554 204.622 22.3229 204.36 22.1562 204.023C21.9915 203.686 21.9091 203.292 21.9091 202.841C21.9091 202.386 21.9915 201.99 22.1562 201.651C22.3229 201.312 22.554 201.048 22.8494 200.861C23.1468 200.673 23.4924 200.58 23.8864 200.58C24.2803 200.58 24.625 200.673 24.9205 200.861C25.2178 201.048 25.4489 201.312 25.6136 201.651C25.7803 201.99 25.8636 202.386 25.8636 202.841C25.8636 203.292 25.7803 203.686 25.6136 204.023C25.4489 204.36 25.2178 204.622 24.9205 204.81C24.625 204.997 24.2803 205.091 23.8864 205.091ZM23.8864 204.489C24.1856 204.489 24.4318 204.412 24.625 204.259C24.8182 204.105 24.9612 203.903 25.054 203.653C25.1468 203.403 25.1932 203.133 25.1932 202.841C25.1932 202.549 25.1468 202.277 25.054 202.026C24.9612 201.774 24.8182 201.57 24.625 201.415C24.4318 201.259 24.1856 201.182 23.8864 201.182C23.5871 201.182 23.3409 201.259 23.1477 201.415C22.9545 201.57 22.8116 201.774 22.7188 202.026C22.6259 202.277 22.5795 202.549 22.5795 202.841C22.5795 203.133 22.6259 203.403 22.7188 203.653C22.8116 203.903 22.9545 204.105 23.1477 204.259C23.3409 204.412 23.5871 204.489 23.8864 204.489ZM26.8871 206.636V200.636H27.5348V201.33H27.6143C27.6636 201.254 27.7318 201.157 27.8189 201.04C27.9079 200.92 28.0348 200.814 28.1996 200.722C28.3662 200.627 28.5916 200.58 28.8757 200.58C29.2431 200.58 29.567 200.671 29.8473 200.855C30.1276 201.039 30.3464 201.299 30.5036 201.636C30.6607 201.973 30.7393 202.371 30.7393 202.83C30.7393 203.292 30.6607 203.692 30.5036 204.031C30.3464 204.368 30.1286 204.63 29.8501 204.815C29.5717 204.999 29.2507 205.091 28.8871 205.091C28.6068 205.091 28.3823 205.045 28.2138 204.952C28.0452 204.857 27.9155 204.75 27.8246 204.631C27.7337 204.509 27.6636 204.409 27.6143 204.33H27.5575V206.636H26.8871ZM27.5462 202.818C27.5462 203.148 27.5945 203.438 27.6911 203.69C27.7876 203.94 27.9287 204.136 28.1143 204.278C28.3 204.419 28.5272 204.489 28.7962 204.489C29.0765 204.489 29.3104 204.415 29.4979 204.267C29.6873 204.117 29.8293 203.917 29.924 203.665C30.0206 203.411 30.0689 203.129 30.0689 202.818C30.0689 202.511 30.0215 202.235 29.9268 201.989C29.834 201.741 29.6929 201.545 29.5036 201.401C29.3161 201.255 29.0803 201.182 28.7962 201.182C28.5234 201.182 28.2943 201.251 28.1087 201.389C27.9231 201.526 27.7829 201.717 27.6882 201.963C27.5935 202.207 27.5462 202.492 27.5462 202.818ZM31.7621 205V200.636H32.4325V205H31.7621ZM32.103 199.909C31.9723 199.909 31.8596 199.865 31.7649 199.776C31.6721 199.687 31.6257 199.58 31.6257 199.455C31.6257 199.33 31.6721 199.223 31.7649 199.134C31.8596 199.045 31.9723 199 32.103 199C32.2337 199 32.3454 199.045 32.4382 199.134C32.5329 199.223 32.5803 199.33 32.5803 199.455C32.5803 199.58 32.5329 199.687 32.4382 199.776C32.3454 199.865 32.2337 199.909 32.103 199.909ZM35.4332 205.091C35.0241 205.091 34.6719 204.994 34.3764 204.801C34.081 204.608 33.8537 204.342 33.6946 204.003C33.5355 203.664 33.456 203.277 33.456 202.841C33.456 202.398 33.5374 202.007 33.7003 201.668C33.8651 201.327 34.0942 201.061 34.3878 200.869C34.6832 200.676 35.0279 200.58 35.4219 200.58C35.7287 200.58 36.0052 200.636 36.2514 200.75C36.4976 200.864 36.6993 201.023 36.8565 201.227C37.0137 201.432 37.1113 201.67 37.1491 201.943H36.4787C36.4276 201.744 36.3139 201.568 36.1378 201.415C35.9635 201.259 35.7287 201.182 35.4332 201.182C35.1719 201.182 34.9427 201.25 34.7457 201.386C34.5507 201.521 34.3982 201.711 34.2884 201.957C34.1804 202.202 34.1264 202.489 34.1264 202.818C34.1264 203.155 34.1795 203.449 34.2855 203.699C34.3935 203.949 34.545 204.143 34.7401 204.281C34.937 204.42 35.1681 204.489 35.4332 204.489C35.6075 204.489 35.7656 204.458 35.9077 204.398C36.0497 204.337 36.17 204.25 36.2685 204.136C36.367 204.023 36.437 203.886 36.4787 203.727H37.1491C37.1113 203.985 37.0175 204.217 36.8679 204.423C36.7202 204.628 36.5241 204.791 36.2798 204.912C36.0374 205.031 35.7552 205.091 35.4332 205.091Z" fill="black"/>
<path d="M54.3864 236.807V236.182H58.75V236.807H56.9205V242H56.2159V236.807H54.3864ZM60.8864 242.091C60.4924 242.091 60.1468 241.997 59.8494 241.81C59.554 241.622 59.3229 241.36 59.1562 241.023C58.9915 240.686 58.9091 240.292 58.9091 239.841C58.9091 239.386 58.9915 238.99 59.1562 238.651C59.3229 238.312 59.554 238.048 59.8494 237.861C60.1468 237.673 60.4924 237.58 60.8864 237.58C61.2803 237.58 61.625 237.673 61.9205 237.861C62.2178 238.048 62.4489 238.312 62.6136 238.651C62.7803 238.99 62.8636 239.386 62.8636 239.841C62.8636 240.292 62.7803 240.686 62.6136 241.023C62.4489 241.36 62.2178 241.622 61.9205 241.81C61.625 241.997 61.2803 242.091 60.8864 242.091ZM60.8864 241.489C61.1856 241.489 61.4318 241.412 61.625 241.259C61.8182 241.105 61.9612 240.903 62.054 240.653C62.1468 240.403 62.1932 240.133 62.1932 239.841C62.1932 239.549 62.1468 239.277 62.054 239.026C61.9612 238.774 61.8182 238.57 61.625 238.415C61.4318 238.259 61.1856 238.182 60.8864 238.182C60.5871 238.182 60.3409 238.259 60.1477 238.415C59.9545 238.57 59.8116 238.774 59.7188 239.026C59.6259 239.277 59.5795 239.549 59.5795 239.841C59.5795 240.133 59.6259 240.403 59.7188 240.653C59.8116 240.903 59.9545 241.105 60.1477 241.259C60.3409 241.412 60.5871 241.489 60.8864 241.489ZM63.8871 243.636V237.636H64.5348V238.33H64.6143C64.6636 238.254 64.7318 238.157 64.8189 238.04C64.9079 237.92 65.0348 237.814 65.1996 237.722C65.3662 237.627 65.5916 237.58 65.8757 237.58C66.2431 237.58 66.567 237.671 66.8473 237.855C67.1276 238.039 67.3464 238.299 67.5036 238.636C67.6607 238.973 67.7393 239.371 67.7393 239.83C67.7393 240.292 67.6607 240.692 67.5036 241.031C67.3464 241.368 67.1286 241.63 66.8501 241.815C66.5717 241.999 66.2507 242.091 65.8871 242.091C65.6068 242.091 65.3823 242.045 65.2138 241.952C65.0452 241.857 64.9155 241.75 64.8246 241.631C64.7337 241.509 64.6636 241.409 64.6143 241.33H64.5575V243.636H63.8871ZM64.5462 239.818C64.5462 240.148 64.5945 240.438 64.6911 240.69C64.7876 240.94 64.9287 241.136 65.1143 241.278C65.3 241.419 65.5272 241.489 65.7962 241.489C66.0765 241.489 66.3104 241.415 66.4979 241.267C66.6873 241.117 66.8293 240.917 66.924 240.665C67.0206 240.411 67.0689 240.129 67.0689 239.818C67.0689 239.511 67.0215 239.235 66.9268 238.989C66.834 238.741 66.6929 238.545 66.5036 238.401C66.3161 238.255 66.0803 238.182 65.7962 238.182C65.5234 238.182 65.2943 238.251 65.1087 238.389C64.9231 238.526 64.7829 238.717 64.6882 238.963C64.5935 239.207 64.5462 239.492 64.5462 239.818ZM68.7621 242V237.636H69.4325V242H68.7621ZM69.103 236.909C68.9723 236.909 68.8596 236.865 68.7649 236.776C68.6721 236.687 68.6257 236.58 68.6257 236.455C68.6257 236.33 68.6721 236.223 68.7649 236.134C68.8596 236.045 68.9723 236 69.103 236C69.2337 236 69.3454 236.045 69.4382 236.134C69.5329 236.223 69.5803 236.33 69.5803 236.455C69.5803 236.58 69.5329 236.687 69.4382 236.776C69.3454 236.865 69.2337 236.909 69.103 236.909ZM72.4332 242.091C72.0241 242.091 71.6719 241.994 71.3764 241.801C71.081 241.608 70.8537 241.342 70.6946 241.003C70.5355 240.664 70.456 240.277 70.456 239.841C70.456 239.398 70.5374 239.007 70.7003 238.668C70.8651 238.327 71.0942 238.061 71.3878 237.869C71.6832 237.676 72.0279 237.58 72.4219 237.58C72.7287 237.58 73.0052 237.636 73.2514 237.75C73.4976 237.864 73.6993 238.023 73.8565 238.227C74.0137 238.432 74.1113 238.67 74.1491 238.943H73.4787C73.4276 238.744 73.3139 238.568 73.1378 238.415C72.9635 238.259 72.7287 238.182 72.4332 238.182C72.1719 238.182 71.9427 238.25 71.7457 238.386C71.5507 238.521 71.3982 238.711 71.2884 238.957C71.1804 239.202 71.1264 239.489 71.1264 239.818C71.1264 240.155 71.1795 240.449 71.2855 240.699C71.3935 240.949 71.545 241.143 71.7401 241.281C71.937 241.42 72.1681 241.489 72.4332 241.489C72.6075 241.489 72.7656 241.458 72.9077 241.398C73.0497 241.337 73.17 241.25 73.2685 241.136C73.367 241.023 73.437 240.886 73.4787 240.727H74.1491C74.1113 240.985 74.0175 241.217 73.8679 241.423C73.7202 241.628 73.5241 241.791 73.2798 241.912C73.0374 242.031 72.7552 242.091 72.4332 242.091Z" fill="black"/>
<path d="M17.3864 264.807V264.182H21.75V264.807H19.9205V270H19.2159V264.807H17.3864ZM23.8864 270.091C23.4924 270.091 23.1468 269.997 22.8494 269.81C22.554 269.622 22.3229 269.36 22.1562 269.023C21.9915 268.686 21.9091 268.292 21.9091 267.841C21.9091 267.386 21.9915 266.99 22.1562 266.651C22.3229 266.312 22.554 266.048 22.8494 265.861C23.1468 265.673 23.4924 265.58 23.8864 265.58C24.2803 265.58 24.625 265.673 24.9205 265.861C25.2178 266.048 25.4489 266.312 25.6136 266.651C25.7803 266.99 25.8636 267.386 25.8636 267.841C25.8636 268.292 25.7803 268.686 25.6136 269.023C25.4489 269.36 25.2178 269.622 24.9205 269.81C24.625 269.997 24.2803 270.091 23.8864 270.091ZM23.8864 269.489C24.1856 269.489 24.4318 269.412 24.625 269.259C24.8182 269.105 24.9612 268.903 25.054 268.653C25.1468 268.403 25.1932 268.133 25.1932 267.841C25.1932 267.549 25.1468 267.277 25.054 267.026C24.9612 266.774 24.8182 266.57 24.625 266.415C24.4318 266.259 24.1856 266.182 23.8864 266.182C23.5871 266.182 23.3409 266.259 23.1477 266.415C22.9545 266.57 22.8116 266.774 22.7188 267.026C22.6259 267.277 22.5795 267.549 22.5795 267.841C22.5795 268.133 22.6259 268.403 22.7188 268.653C22.8116 268.903 22.9545 269.105 23.1477 269.259C23.3409 269.412 23.5871 269.489 23.8864 269.489ZM26.8871 271.636V265.636H27.5348V266.33H27.6143C27.6636 266.254 27.7318 266.157 27.8189 266.04C27.9079 265.92 28.0348 265.814 28.1996 265.722C28.3662 265.627 28.5916 265.58 28.8757 265.58C29.2431 265.58 29.567 265.671 29.8473 265.855C30.1276 266.039 30.3464 266.299 30.5036 266.636C30.6607 266.973 30.7393 267.371 30.7393 267.83C30.7393 268.292 30.6607 268.692 30.5036 269.031C30.3464 269.368 30.1286 269.63 29.8501 269.815C29.5717 269.999 29.2507 270.091 28.8871 270.091C28.6068 270.091 28.3823 270.045 28.2138 269.952C28.0452 269.857 27.9155 269.75 27.8246 269.631C27.7337 269.509 27.6636 269.409 27.6143 269.33H27.5575V271.636H26.8871ZM27.5462 267.818C27.5462 268.148 27.5945 268.438 27.6911 268.69C27.7876 268.94 27.9287 269.136 28.1143 269.278C28.3 269.419 28.5272 269.489 28.7962 269.489C29.0765 269.489 29.3104 269.415 29.4979 269.267C29.6873 269.117 29.8293 268.917 29.924 268.665C30.0206 268.411 30.0689 268.129 30.0689 267.818C30.0689 267.511 30.0215 267.235 29.9268 266.989C29.834 266.741 29.6929 266.545 29.5036 266.401C29.3161 266.255 29.0803 266.182 28.7962 266.182C28.5234 266.182 28.2943 266.251 28.1087 266.389C27.9231 266.526 27.7829 266.717 27.6882 266.963C27.5935 267.207 27.5462 267.492 27.5462 267.818ZM31.7621 270V265.636H32.4325V270H31.7621ZM32.103 264.909C31.9723 264.909 31.8596 264.865 31.7649 264.776C31.6721 264.687 31.6257 264.58 31.6257 264.455C31.6257 264.33 31.6721 264.223 31.7649 264.134C31.8596 264.045 31.9723 264 32.103 264C32.2337 264 32.3454 264.045 32.4382 264.134C32.5329 264.223 32.5803 264.33 32.5803 264.455C32.5803 264.58 32.5329 264.687 32.4382 264.776C32.3454 264.865 32.2337 264.909 32.103 264.909ZM35.4332 270.091C35.0241 270.091 34.6719 269.994 34.3764 269.801C34.081 269.608 33.8537 269.342 33.6946 269.003C33.5355 268.664 33.456 268.277 33.456 267.841C33.456 267.398 33.5374 267.007 33.7003 266.668C33.8651 266.327 34.0942 266.061 34.3878 265.869C34.6832 265.676 35.0279 265.58 35.4219 265.58C35.7287 265.58 36.0052 265.636 36.2514 265.75C36.4976 265.864 36.6993 266.023 36.8565 266.227C37.0137 266.432 37.1113 266.67 37.1491 266.943H36.4787C36.4276 266.744 36.3139 266.568 36.1378 266.415C35.9635 266.259 35.7287 266.182 35.4332 266.182C35.1719 266.182 34.9427 266.25 34.7457 266.386C34.5507 266.521 34.3982 266.711 34.2884 266.957C34.1804 267.202 34.1264 267.489 34.1264 267.818C34.1264 268.155 34.1795 268.449 34.2855 268.699C34.3935 268.949 34.545 269.143 34.7401 269.281C34.937 269.42 35.1681 269.489 35.4332 269.489C35.6075 269.489 35.7656 269.458 35.9077 269.398C36.0497 269.337 36.17 269.25 36.2685 269.136C36.367 269.023 36.437 268.886 36.4787 268.727H37.1491C37.1113 268.985 37.0175 269.217 36.8679 269.423C36.7202 269.628 36.5241 269.791 36.2798 269.912C36.0374 270.031 35.7552 270.091 35.4332 270.091Z" fill="black"/>
<path d="M25.3864 301.807V301.182H29.75V301.807H27.9205V307H27.2159V301.807H25.3864ZM31.8864 307.091C31.4924 307.091 31.1468 306.997 30.8494 306.81C30.554 306.622 30.3229 306.36 30.1562 306.023C29.9915 305.686 29.9091 305.292 29.9091 304.841C29.9091 304.386 29.9915 303.99 30.1562 303.651C30.3229 303.312 30.554 303.048 30.8494 302.861C31.1468 302.673 31.4924 302.58 31.8864 302.58C32.2803 302.58 32.625 302.673 32.9205 302.861C33.2178 303.048 33.4489 303.312 33.6136 303.651C33.7803 303.99 33.8636 304.386 33.8636 304.841C33.8636 305.292 33.7803 305.686 33.6136 306.023C33.4489 306.36 33.2178 306.622 32.9205 306.81C32.625 306.997 32.2803 307.091 31.8864 307.091ZM31.8864 306.489C32.1856 306.489 32.4318 306.412 32.625 306.259C32.8182 306.105 32.9612 305.903 33.054 305.653C33.1468 305.403 33.1932 305.133 33.1932 304.841C33.1932 304.549 33.1468 304.277 33.054 304.026C32.9612 303.774 32.8182 303.57 32.625 303.415C32.4318 303.259 32.1856 303.182 31.8864 303.182C31.5871 303.182 31.3409 303.259 31.1477 303.415C30.9545 303.57 30.8116 303.774 30.7188 304.026C30.6259 304.277 30.5795 304.549 30.5795 304.841C30.5795 305.133 30.6259 305.403 30.7188 305.653C30.8116 305.903 30.9545 306.105 31.1477 306.259C31.3409 306.412 31.5871 306.489 31.8864 306.489ZM34.8871 308.636V302.636H35.5348V303.33H35.6143C35.6636 303.254 35.7318 303.157 35.8189 303.04C35.9079 302.92 36.0348 302.814 36.1996 302.722C36.3662 302.627 36.5916 302.58 36.8757 302.58C37.2431 302.58 37.567 302.671 37.8473 302.855C38.1276 303.039 38.3464 303.299 38.5036 303.636C38.6607 303.973 38.7393 304.371 38.7393 304.83C38.7393 305.292 38.6607 305.692 38.5036 306.031C38.3464 306.368 38.1286 306.63 37.8501 306.815C37.5717 306.999 37.2507 307.091 36.8871 307.091C36.6068 307.091 36.3823 307.045 36.2138 306.952C36.0452 306.857 35.9155 306.75 35.8246 306.631C35.7337 306.509 35.6636 306.409 35.6143 306.33H35.5575V308.636H34.8871ZM35.5462 304.818C35.5462 305.148 35.5945 305.438 35.6911 305.69C35.7876 305.94 35.9287 306.136 36.1143 306.278C36.3 306.419 36.5272 306.489 36.7962 306.489C37.0765 306.489 37.3104 306.415 37.4979 306.267C37.6873 306.117 37.8293 305.917 37.924 305.665C38.0206 305.411 38.0689 305.129 38.0689 304.818C38.0689 304.511 38.0215 304.235 37.9268 303.989C37.834 303.741 37.6929 303.545 37.5036 303.401C37.3161 303.255 37.0803 303.182 36.7962 303.182C36.5234 303.182 36.2943 303.251 36.1087 303.389C35.9231 303.526 35.7829 303.717 35.6882 303.963C35.5935 304.207 35.5462 304.492 35.5462 304.818ZM39.7621 307V302.636H40.4325V307H39.7621ZM40.103 301.909C39.9723 301.909 39.8596 301.865 39.7649 301.776C39.6721 301.687 39.6257 301.58 39.6257 301.455C39.6257 301.33 39.6721 301.223 39.7649 301.134C39.8596 301.045 39.9723 301 40.103 301C40.2337 301 40.3454 301.045 40.4382 301.134C40.5329 301.223 40.5803 301.33 40.5803 301.455C40.5803 301.58 40.5329 301.687 40.4382 301.776C40.3454 301.865 40.2337 301.909 40.103 301.909ZM43.4332 307.091C43.0241 307.091 42.6719 306.994 42.3764 306.801C42.081 306.608 41.8537 306.342 41.6946 306.003C41.5355 305.664 41.456 305.277 41.456 304.841C41.456 304.398 41.5374 304.007 41.7003 303.668C41.8651 303.327 42.0942 303.061 42.3878 302.869C42.6832 302.676 43.0279 302.58 43.4219 302.58C43.7287 302.58 44.0052 302.636 44.2514 302.75C44.4976 302.864 44.6993 303.023 44.8565 303.227C45.0137 303.432 45.1113 303.67 45.1491 303.943H44.4787C44.4276 303.744 44.3139 303.568 44.1378 303.415C43.9635 303.259 43.7287 303.182 43.4332 303.182C43.1719 303.182 42.9427 303.25 42.7457 303.386C42.5507 303.521 42.3982 303.711 42.2884 303.957C42.1804 304.202 42.1264 304.489 42.1264 304.818C42.1264 305.155 42.1795 305.449 42.2855 305.699C42.3935 305.949 42.545 306.143 42.7401 306.281C42.937 306.42 43.1681 306.489 43.4332 306.489C43.6075 306.489 43.7656 306.458 43.9077 306.398C44.0497 306.337 44.17 306.25 44.2685 306.136C44.367 306.023 44.437 305.886 44.4787 305.727H45.1491C45.1113 305.985 45.0175 306.217 44.8679 306.423C44.7202 306.628 44.5241 306.791 44.2798 306.912C44.0374 307.031 43.7552 307.091 43.4332 307.091Z" fill="black"/>
<path d="M110.386 333.807V333.182H114.75V333.807H112.92V339H112.216V333.807H110.386ZM116.886 339.091C116.492 339.091 116.147 338.997 115.849 338.81C115.554 338.622 115.323 338.36 115.156 338.023C114.991 337.686 114.909 337.292 114.909 336.841C114.909 336.386 114.991 335.99 115.156 335.651C115.323 335.312 115.554 335.048 115.849 334.861C116.147 334.673 116.492 334.58 116.886 334.58C117.28 334.58 117.625 334.673 117.92 334.861C118.218 335.048 118.449 335.312 118.614 335.651C118.78 335.99 118.864 336.386 118.864 336.841C118.864 337.292 118.78 337.686 118.614 338.023C118.449 338.36 118.218 338.622 117.92 338.81C117.625 338.997 117.28 339.091 116.886 339.091ZM116.886 338.489C117.186 338.489 117.432 338.412 117.625 338.259C117.818 338.105 117.961 337.903 118.054 337.653C118.147 337.403 118.193 337.133 118.193 336.841C118.193 336.549 118.147 336.277 118.054 336.026C117.961 335.774 117.818 335.57 117.625 335.415C117.432 335.259 117.186 335.182 116.886 335.182C116.587 335.182 116.341 335.259 116.148 335.415C115.955 335.57 115.812 335.774 115.719 336.026C115.626 336.277 115.58 336.549 115.58 336.841C115.58 337.133 115.626 337.403 115.719 337.653C115.812 337.903 115.955 338.105 116.148 338.259C116.341 338.412 116.587 338.489 116.886 338.489ZM119.887 340.636V334.636H120.535V335.33H120.614C120.664 335.254 120.732 335.157 120.819 335.04C120.908 334.92 121.035 334.814 121.2 334.722C121.366 334.627 121.592 334.58 121.876 334.58C122.243 334.58 122.567 334.671 122.847 334.855C123.128 335.039 123.346 335.299 123.504 335.636C123.661 335.973 123.739 336.371 123.739 336.83C123.739 337.292 123.661 337.692 123.504 338.031C123.346 338.368 123.129 338.63 122.85 338.815C122.572 338.999 122.251 339.091 121.887 339.091C121.607 339.091 121.382 339.045 121.214 338.952C121.045 338.857 120.915 338.75 120.825 338.631C120.734 338.509 120.664 338.409 120.614 338.33H120.558V340.636H119.887ZM120.546 336.818C120.546 337.148 120.594 337.438 120.691 337.69C120.788 337.94 120.929 338.136 121.114 338.278C121.3 338.419 121.527 338.489 121.796 338.489C122.076 338.489 122.31 338.415 122.498 338.267C122.687 338.117 122.829 337.917 122.924 337.665C123.021 337.411 123.069 337.129 123.069 336.818C123.069 336.511 123.022 336.235 122.927 335.989C122.834 335.741 122.693 335.545 122.504 335.401C122.316 335.255 122.08 335.182 121.796 335.182C121.523 335.182 121.294 335.251 121.109 335.389C120.923 335.526 120.783 335.717 120.688 335.963C120.594 336.207 120.546 336.492 120.546 336.818ZM124.762 339V334.636H125.433V339H124.762ZM125.103 333.909C124.972 333.909 124.86 333.865 124.765 333.776C124.672 333.687 124.626 333.58 124.626 333.455C124.626 333.33 124.672 333.223 124.765 333.134C124.86 333.045 124.972 333 125.103 333C125.234 333 125.345 333.045 125.438 333.134C125.533 333.223 125.58 333.33 125.58 333.455C125.58 333.58 125.533 333.687 125.438 333.776C125.345 333.865 125.234 333.909 125.103 333.909ZM128.433 339.091C128.024 339.091 127.672 338.994 127.376 338.801C127.081 338.608 126.854 338.342 126.695 338.003C126.536 337.664 126.456 337.277 126.456 336.841C126.456 336.398 126.537 336.007 126.7 335.668C126.865 335.327 127.094 335.061 127.388 334.869C127.683 334.676 128.028 334.58 128.422 334.58C128.729 334.58 129.005 334.636 129.251 334.75C129.498 334.864 129.699 335.023 129.857 335.227C130.014 335.432 130.111 335.67 130.149 335.943H129.479C129.428 335.744 129.314 335.568 129.138 335.415C128.964 335.259 128.729 335.182 128.433 335.182C128.172 335.182 127.943 335.25 127.746 335.386C127.551 335.521 127.398 335.711 127.288 335.957C127.18 336.202 127.126 336.489 127.126 336.818C127.126 337.155 127.179 337.449 127.286 337.699C127.393 337.949 127.545 338.143 127.74 338.281C127.937 338.42 128.168 338.489 128.433 338.489C128.607 338.489 128.766 338.458 128.908 338.398C129.05 338.337 129.17 338.25 129.268 338.136C129.367 338.023 129.437 337.886 129.479 337.727H130.149C130.111 337.985 130.018 338.217 129.868 338.423C129.72 338.628 129.524 338.791 129.28 338.912C129.037 339.031 128.755 339.091 128.433 339.091Z" fill="black"/>
<path d="M108.386 273.807V273.182H112.75V273.807H110.92V279H110.216V273.807H108.386ZM114.886 279.091C114.492 279.091 114.147 278.997 113.849 278.81C113.554 278.622 113.323 278.36 113.156 278.023C112.991 277.686 112.909 277.292 112.909 276.841C112.909 276.386 112.991 275.99 113.156 275.651C113.323 275.312 113.554 275.048 113.849 274.861C114.147 274.673 114.492 274.58 114.886 274.58C115.28 274.58 115.625 274.673 115.92 274.861C116.218 275.048 116.449 275.312 116.614 275.651C116.78 275.99 116.864 276.386 116.864 276.841C116.864 277.292 116.78 277.686 116.614 278.023C116.449 278.36 116.218 278.622 115.92 278.81C115.625 278.997 115.28 279.091 114.886 279.091ZM114.886 278.489C115.186 278.489 115.432 278.412 115.625 278.259C115.818 278.105 115.961 277.903 116.054 277.653C116.147 277.403 116.193 277.133 116.193 276.841C116.193 276.549 116.147 276.277 116.054 276.026C115.961 275.774 115.818 275.57 115.625 275.415C115.432 275.259 115.186 275.182 114.886 275.182C114.587 275.182 114.341 275.259 114.148 275.415C113.955 275.57 113.812 275.774 113.719 276.026C113.626 276.277 113.58 276.549 113.58 276.841C113.58 277.133 113.626 277.403 113.719 277.653C113.812 277.903 113.955 278.105 114.148 278.259C114.341 278.412 114.587 278.489 114.886 278.489ZM117.887 280.636V274.636H118.535V275.33H118.614C118.664 275.254 118.732 275.157 118.819 275.04C118.908 274.92 119.035 274.814 119.2 274.722C119.366 274.627 119.592 274.58 119.876 274.58C120.243 274.58 120.567 274.671 120.847 274.855C121.128 275.039 121.346 275.299 121.504 275.636C121.661 275.973 121.739 276.371 121.739 276.83C121.739 277.292 121.661 277.692 121.504 278.031C121.346 278.368 121.129 278.63 120.85 278.815C120.572 278.999 120.251 279.091 119.887 279.091C119.607 279.091 119.382 279.045 119.214 278.952C119.045 278.857 118.915 278.75 118.825 278.631C118.734 278.509 118.664 278.409 118.614 278.33H118.558V280.636H117.887ZM118.546 276.818C118.546 277.148 118.594 277.438 118.691 277.69C118.788 277.94 118.929 278.136 119.114 278.278C119.3 278.419 119.527 278.489 119.796 278.489C120.076 278.489 120.31 278.415 120.498 278.267C120.687 278.117 120.829 277.917 120.924 277.665C121.021 277.411 121.069 277.129 121.069 276.818C121.069 276.511 121.022 276.235 120.927 275.989C120.834 275.741 120.693 275.545 120.504 275.401C120.316 275.255 120.08 275.182 119.796 275.182C119.523 275.182 119.294 275.251 119.109 275.389C118.923 275.526 118.783 275.717 118.688 275.963C118.594 276.207 118.546 276.492 118.546 276.818ZM122.762 279V274.636H123.433V279H122.762ZM123.103 273.909C122.972 273.909 122.86 273.865 122.765 273.776C122.672 273.687 122.626 273.58 122.626 273.455C122.626 273.33 122.672 273.223 122.765 273.134C122.86 273.045 122.972 273 123.103 273C123.234 273 123.345 273.045 123.438 273.134C123.533 273.223 123.58 273.33 123.58 273.455C123.58 273.58 123.533 273.687 123.438 273.776C123.345 273.865 123.234 273.909 123.103 273.909ZM126.433 279.091C126.024 279.091 125.672 278.994 125.376 278.801C125.081 278.608 124.854 278.342 124.695 278.003C124.536 277.664 124.456 277.277 124.456 276.841C124.456 276.398 124.537 276.007 124.7 275.668C124.865 275.327 125.094 275.061 125.388 274.869C125.683 274.676 126.028 274.58 126.422 274.58C126.729 274.58 127.005 274.636 127.251 274.75C127.498 274.864 127.699 275.023 127.857 275.227C128.014 275.432 128.111 275.67 128.149 275.943H127.479C127.428 275.744 127.314 275.568 127.138 275.415C126.964 275.259 126.729 275.182 126.433 275.182C126.172 275.182 125.943 275.25 125.746 275.386C125.551 275.521 125.398 275.711 125.288 275.957C125.18 276.202 125.126 276.489 125.126 276.818C125.126 277.155 125.179 277.449 125.286 277.699C125.393 277.949 125.545 278.143 125.74 278.281C125.937 278.42 126.168 278.489 126.433 278.489C126.607 278.489 126.766 278.458 126.908 278.398C127.05 278.337 127.17 278.25 127.268 278.136C127.367 278.023 127.437 277.886 127.479 277.727H128.149C128.111 277.985 128.018 278.217 127.868 278.423C127.72 278.628 127.524 278.791 127.28 278.912C127.037 279.031 126.755 279.091 126.433 279.091Z" fill="black"/>
<path d="M116.386 199.807V199.182H120.75V199.807H118.92V205H118.216V199.807H116.386ZM122.886 205.091C122.492 205.091 122.147 204.997 121.849 204.81C121.554 204.622 121.323 204.36 121.156 204.023C120.991 203.686 120.909 203.292 120.909 202.841C120.909 202.386 120.991 201.99 121.156 201.651C121.323 201.312 121.554 201.048 121.849 200.861C122.147 200.673 122.492 200.58 122.886 200.58C123.28 200.58 123.625 200.673 123.92 200.861C124.218 201.048 124.449 201.312 124.614 201.651C124.78 201.99 124.864 202.386 124.864 202.841C124.864 203.292 124.78 203.686 124.614 204.023C124.449 204.36 124.218 204.622 123.92 204.81C123.625 204.997 123.28 205.091 122.886 205.091ZM122.886 204.489C123.186 204.489 123.432 204.412 123.625 204.259C123.818 204.105 123.961 203.903 124.054 203.653C124.147 203.403 124.193 203.133 124.193 202.841C124.193 202.549 124.147 202.277 124.054 202.026C123.961 201.774 123.818 201.57 123.625 201.415C123.432 201.259 123.186 201.182 122.886 201.182C122.587 201.182 122.341 201.259 122.148 201.415C121.955 201.57 121.812 201.774 121.719 202.026C121.626 202.277 121.58 202.549 121.58 202.841C121.58 203.133 121.626 203.403 121.719 203.653C121.812 203.903 121.955 204.105 122.148 204.259C122.341 204.412 122.587 204.489 122.886 204.489ZM125.887 206.636V200.636H126.535V201.33H126.614C126.664 201.254 126.732 201.157 126.819 201.04C126.908 200.92 127.035 200.814 127.2 200.722C127.366 200.627 127.592 200.58 127.876 200.58C128.243 200.58 128.567 200.671 128.847 200.855C129.128 201.039 129.346 201.299 129.504 201.636C129.661 201.973 129.739 202.371 129.739 202.83C129.739 203.292 129.661 203.692 129.504 204.031C129.346 204.368 129.129 204.63 128.85 204.815C128.572 204.999 128.251 205.091 127.887 205.091C127.607 205.091 127.382 205.045 127.214 204.952C127.045 204.857 126.915 204.75 126.825 204.631C126.734 204.509 126.664 204.409 126.614 204.33H126.558V206.636H125.887ZM126.546 202.818C126.546 203.148 126.594 203.438 126.691 203.69C126.788 203.94 126.929 204.136 127.114 204.278C127.3 204.419 127.527 204.489 127.796 204.489C128.076 204.489 128.31 204.415 128.498 204.267C128.687 204.117 128.829 203.917 128.924 203.665C129.021 203.411 129.069 203.129 129.069 202.818C129.069 202.511 129.022 202.235 128.927 201.989C128.834 201.741 128.693 201.545 128.504 201.401C128.316 201.255 128.08 201.182 127.796 201.182C127.523 201.182 127.294 201.251 127.109 201.389C126.923 201.526 126.783 201.717 126.688 201.963C126.594 202.207 126.546 202.492 126.546 202.818ZM130.762 205V200.636H131.433V205H130.762ZM131.103 199.909C130.972 199.909 130.86 199.865 130.765 199.776C130.672 199.687 130.626 199.58 130.626 199.455C130.626 199.33 130.672 199.223 130.765 199.134C130.86 199.045 130.972 199 131.103 199C131.234 199 131.345 199.045 131.438 199.134C131.533 199.223 131.58 199.33 131.58 199.455C131.58 199.58 131.533 199.687 131.438 199.776C131.345 199.865 131.234 199.909 131.103 199.909ZM134.433 205.091C134.024 205.091 133.672 204.994 133.376 204.801C133.081 204.608 132.854 204.342 132.695 204.003C132.536 203.664 132.456 203.277 132.456 202.841C132.456 202.398 132.537 202.007 132.7 201.668C132.865 201.327 133.094 201.061 133.388 200.869C133.683 200.676 134.028 200.58 134.422 200.58C134.729 200.58 135.005 200.636 135.251 200.75C135.498 200.864 135.699 201.023 135.857 201.227C136.014 201.432 136.111 201.67 136.149 201.943H135.479C135.428 201.744 135.314 201.568 135.138 201.415C134.964 201.259 134.729 201.182 134.433 201.182C134.172 201.182 133.943 201.25 133.746 201.386C133.551 201.521 133.398 201.711 133.288 201.957C133.18 202.202 133.126 202.489 133.126 202.818C133.126 203.155 133.179 203.449 133.286 203.699C133.393 203.949 133.545 204.143 133.74 204.281C133.937 204.42 134.168 204.489 134.433 204.489C134.607 204.489 134.766 204.458 134.908 204.398C135.05 204.337 135.17 204.25 135.268 204.136C135.367 204.023 135.437 203.886 135.479 203.727H136.149C136.111 203.985 136.018 204.217 135.868 204.423C135.72 204.628 135.524 204.791 135.28 204.912C135.037 205.031 134.755 205.091 134.433 205.091Z" fill="black"/>
</svg>
