<svg width="202" height="431" viewBox="0 0 202 431" fill="none" xmlns="http://www.w3.org/2000/svg">
<rect width="202" height="431" fill="white"/>
<rect y="364" width="202" height="67" fill="#D9D9D9"/>
<path d="M24.7045 61V55.1818H26.6705C27.1269 55.1818 27.5 55.2642 27.7898 55.429C28.0814 55.5919 28.2973 55.8125 28.4375 56.0909C28.5777 56.3693 28.6477 56.6799 28.6477 57.0227C28.6477 57.3655 28.5777 57.6771 28.4375 57.9574C28.2992 58.2377 28.0852 58.4612 27.7955 58.6278C27.5057 58.7926 27.1345 58.875 26.6818 58.875H25.2727V58.25H26.6591C26.9716 58.25 27.2225 58.196 27.4119 58.0881C27.6013 57.9801 27.7386 57.8343 27.8239 57.6506C27.911 57.465 27.9545 57.2557 27.9545 57.0227C27.9545 56.7898 27.911 56.5814 27.8239 56.3977C27.7386 56.214 27.6004 56.0701 27.4091 55.9659C27.2178 55.8598 26.964 55.8068 26.6477 55.8068H25.4091V61H24.7045ZM32.4418 59.2159V56.6364H33.1122V61H32.4418V60.2614H32.3963C32.294 60.483 32.1349 60.6714 31.919 60.8267C31.7031 60.9801 31.4304 61.0568 31.1009 61.0568C30.8281 61.0568 30.5857 60.9972 30.3736 60.8778C30.1615 60.7566 29.9948 60.5748 29.8736 60.3324C29.7524 60.0881 29.6918 59.7803 29.6918 59.4091V56.6364H30.3622V59.3636C30.3622 59.6818 30.4512 59.9356 30.6293 60.125C30.8092 60.3144 31.0384 60.4091 31.3168 60.4091C31.4834 60.4091 31.6529 60.3665 31.8253 60.2812C31.9995 60.196 32.1454 60.0653 32.2628 59.8892C32.3821 59.7131 32.4418 59.4886 32.4418 59.2159ZM24.7045 71V65.1818H25.375V67.3295H25.4318C25.4811 67.2538 25.5492 67.1572 25.6364 67.0398C25.7254 66.9205 25.8523 66.8144 26.017 66.7216C26.1837 66.6269 26.4091 66.5795 26.6932 66.5795C27.0606 66.5795 27.3845 66.6714 27.6648 66.8551C27.9451 67.0388 28.1638 67.2992 28.321 67.6364C28.4782 67.9735 28.5568 68.3712 28.5568 68.8295C28.5568 69.2917 28.4782 69.6922 28.321 70.0312C28.1638 70.3684 27.946 70.6297 27.6676 70.8153C27.3892 70.9991 27.0682 71.0909 26.7045 71.0909C26.4242 71.0909 26.1998 71.0445 26.0312 70.9517C25.8627 70.857 25.733 70.75 25.642 70.6307C25.5511 70.5095 25.4811 70.4091 25.4318 70.3295H25.3523V71H24.7045ZM25.3636 68.8182C25.3636 69.1477 25.4119 69.4384 25.5085 69.6903C25.6051 69.9403 25.7462 70.1364 25.9318 70.2784C26.1174 70.4186 26.3447 70.4886 26.6136 70.4886C26.8939 70.4886 27.1278 70.4148 27.3153 70.267C27.5047 70.1174 27.6468 69.9167 27.7415 69.6648C27.8381 69.411 27.8864 69.1288 27.8864 68.8182C27.8864 68.5114 27.839 68.2348 27.7443 67.9886C27.6515 67.7405 27.5104 67.5445 27.321 67.4006C27.1335 67.2547 26.8977 67.1818 26.6136 67.1818C26.3409 67.1818 26.1117 67.2509 25.9261 67.3892C25.7405 67.5256 25.6004 67.7169 25.5057 67.9631C25.411 68.2074 25.3636 68.4924 25.3636 68.8182ZM30.2528 65.1818V71H29.5824V65.1818H30.2528ZM31.4808 71V66.6364H32.1513V71H31.4808ZM31.8217 65.9091C31.6911 65.9091 31.5784 65.8646 31.4837 65.7756C31.3909 65.6866 31.3445 65.5795 31.3445 65.4545C31.3445 65.3295 31.3909 65.2225 31.4837 65.1335C31.5784 65.0445 31.6911 65 31.8217 65C31.9524 65 32.0642 65.0445 32.157 65.1335C32.2517 65.2225 32.299 65.3295 32.299 65.4545C32.299 65.5795 32.2517 65.6866 32.157 65.7756C32.0642 65.8646 31.9524 65.9091 31.8217 65.9091ZM35.152 71.0909C34.7429 71.0909 34.3906 70.9943 34.0952 70.8011C33.7997 70.608 33.5724 70.3419 33.4134 70.0028C33.2543 69.6638 33.1747 69.2765 33.1747 68.8409C33.1747 68.3977 33.2562 68.0066 33.419 67.6676C33.5838 67.3267 33.813 67.0606 34.1065 66.8693C34.402 66.6761 34.7467 66.5795 35.1406 66.5795C35.4474 66.5795 35.724 66.6364 35.9702 66.75C36.2164 66.8636 36.4181 67.0227 36.5753 67.2273C36.7325 67.4318 36.83 67.6705 36.8679 67.9432H36.1974C36.1463 67.7443 36.0327 67.5682 35.8565 67.4148C35.6823 67.2595 35.4474 67.1818 35.152 67.1818C34.8906 67.1818 34.6615 67.25 34.4645 67.3864C34.2694 67.5208 34.117 67.7112 34.0071 67.9574C33.8991 68.2017 33.8452 68.4886 33.8452 68.8182C33.8452 69.1553 33.8982 69.4489 34.0043 69.6989C34.1122 69.9489 34.2637 70.143 34.4588 70.2812C34.6558 70.4195 34.8868 70.4886 35.152 70.4886C35.3262 70.4886 35.4844 70.4583 35.6264 70.3977C35.7685 70.3371 35.8887 70.25 35.9872 70.1364C36.0857 70.0227 36.1558 69.8864 36.1974 69.7273H36.8679C36.83 69.9848 36.7363 70.2169 36.5866 70.4233C36.4389 70.6278 36.2429 70.7907 35.9986 70.9119C35.7562 71.0312 35.474 71.0909 35.152 71.0909Z" fill="white"/>
<rect x="3.75806" y="381.118" width="35.2326" height="32.8173" fill="white"/>
<rect x="43.6882" y="381.118" width="35.2326" height="32.8173" fill="white"/>
<rect x="83.6184" y="381.118" width="35.2326" height="32.8173" fill="white"/>
<rect x="123.549" y="381.118" width="35.2326" height="32.8173" fill="white"/>
<rect x="163.479" y="381.118" width="35.2326" height="32.8173" fill="#656565"/>
<path d="M9.70455 401V395.182H10.4091V397.773H13.5114V395.182H14.2159V401H13.5114V398.398H10.4091V401H9.70455ZM17.3082 401.091C16.9143 401.091 16.5687 400.997 16.2713 400.81C15.9759 400.622 15.7448 400.36 15.5781 400.023C15.4134 399.686 15.331 399.292 15.331 398.841C15.331 398.386 15.4134 397.99 15.5781 397.651C15.7448 397.312 15.9759 397.048 16.2713 396.861C16.5687 396.673 16.9143 396.58 17.3082 396.58C17.7022 396.58 18.0469 396.673 18.3423 396.861C18.6397 397.048 18.8707 397.312 19.0355 397.651C19.2022 397.99 19.2855 398.386 19.2855 398.841C19.2855 399.292 19.2022 399.686 19.0355 400.023C18.8707 400.36 18.6397 400.622 18.3423 400.81C18.0469 400.997 17.7022 401.091 17.3082 401.091ZM17.3082 400.489C17.6075 400.489 17.8537 400.412 18.0469 400.259C18.2401 400.105 18.383 399.903 18.4759 399.653C18.5687 399.403 18.6151 399.133 18.6151 398.841C18.6151 398.549 18.5687 398.277 18.4759 398.026C18.383 397.774 18.2401 397.57 18.0469 397.415C17.8537 397.259 17.6075 397.182 17.3082 397.182C17.009 397.182 16.7628 397.259 16.5696 397.415C16.3764 397.57 16.2334 397.774 16.1406 398.026C16.0478 398.277 16.0014 398.549 16.0014 398.841C16.0014 399.133 16.0478 399.403 16.1406 399.653C16.2334 399.903 16.3764 400.105 16.5696 400.259C16.7628 400.412 17.009 400.489 17.3082 400.489ZM20.3089 401V396.636H20.9567V397.318H21.0135C21.1044 397.085 21.2512 396.904 21.4538 396.776C21.6565 396.645 21.8999 396.58 22.1839 396.58C22.4718 396.58 22.7114 396.645 22.9027 396.776C23.0959 396.904 23.2464 397.085 23.3544 397.318H23.3999C23.5116 397.093 23.6792 396.914 23.9027 396.781C24.1262 396.647 24.3942 396.58 24.7067 396.58C25.0968 396.58 25.416 396.702 25.6641 396.946C25.9122 397.188 26.0362 397.566 26.0362 398.08V401H25.3658V398.08C25.3658 397.758 25.2777 397.527 25.1016 397.389C24.9254 397.251 24.718 397.182 24.4794 397.182C24.1726 397.182 23.9349 397.275 23.7663 397.46C23.5978 397.644 23.5135 397.877 23.5135 398.159V401H22.8317V398.011C22.8317 397.763 22.7512 397.563 22.5902 397.412C22.4292 397.259 22.2218 397.182 21.968 397.182C21.7938 397.182 21.6309 397.228 21.4794 397.321C21.3298 397.414 21.2086 397.543 21.1158 397.707C21.0249 397.87 20.9794 398.059 20.9794 398.273V401H20.3089ZM29.0916 401.091C28.6712 401.091 28.3085 400.998 28.0036 400.812C27.7005 400.625 27.4666 400.364 27.3018 400.028C27.139 399.691 27.0575 399.299 27.0575 398.852C27.0575 398.405 27.139 398.011 27.3018 397.67C27.4666 397.328 27.6958 397.061 27.9893 396.869C28.2848 396.676 28.6295 396.58 29.0234 396.58C29.2507 396.58 29.4751 396.617 29.6967 396.693C29.9183 396.769 30.12 396.892 30.3018 397.062C30.4837 397.231 30.6286 397.455 30.7365 397.733C30.8445 398.011 30.8984 398.354 30.8984 398.761V399.045H27.5348V398.466H30.2166C30.2166 398.22 30.1674 398 30.0689 397.807C29.9723 397.614 29.834 397.461 29.6541 397.349C29.4761 397.238 29.2659 397.182 29.0234 397.182C28.7564 397.182 28.5253 397.248 28.3303 397.381C28.1371 397.511 27.9884 397.682 27.8842 397.892C27.7801 398.102 27.728 398.328 27.728 398.568V398.955C27.728 399.284 27.7848 399.563 27.8984 399.793C28.014 400.02 28.174 400.193 28.3786 400.312C28.5831 400.43 28.8208 400.489 29.0916 400.489C29.2678 400.489 29.4268 400.464 29.5689 400.415C29.7128 400.364 29.8369 400.288 29.9411 400.188C30.0452 400.085 30.1257 399.958 30.1825 399.807L30.8303 399.989C30.7621 400.208 30.6475 400.402 30.4865 400.568C30.3255 400.733 30.1267 400.862 29.8899 400.955C29.6532 401.045 29.3871 401.091 29.0916 401.091Z" fill="black"/>
<path d="M50.6818 397C50.6193 396.809 50.5369 396.637 50.4347 396.486C50.3343 396.332 50.214 396.202 50.0739 396.094C49.9356 395.986 49.7784 395.903 49.6023 395.847C49.4261 395.79 49.233 395.761 49.0227 395.761C48.678 395.761 48.3646 395.85 48.0824 396.028C47.8002 396.206 47.5758 396.469 47.4091 396.815C47.2424 397.162 47.1591 397.587 47.1591 398.091C47.1591 398.595 47.2434 399.02 47.4119 399.366C47.5805 399.713 47.8087 399.975 48.0966 400.153C48.3845 400.331 48.7083 400.42 49.0682 400.42C49.4015 400.42 49.6951 400.349 49.9489 400.207C50.2045 400.063 50.4034 399.861 50.5455 399.599C50.6894 399.336 50.7614 399.027 50.7614 398.67L50.9773 398.716H49.2273V398.091H51.4432V398.716C51.4432 399.195 51.3409 399.612 51.1364 399.966C50.9337 400.32 50.6534 400.595 50.2955 400.79C49.9394 400.983 49.5303 401.08 49.0682 401.08C48.553 401.08 48.1004 400.958 47.7102 400.716C47.322 400.473 47.0189 400.129 46.8011 399.682C46.5852 399.235 46.4773 398.705 46.4773 398.091C46.4773 397.631 46.5388 397.217 46.6619 396.849C46.7869 396.48 46.9631 396.166 47.1903 395.906C47.4176 395.647 47.6866 395.448 47.9972 395.31C48.3078 395.171 48.6496 395.102 49.0227 395.102C49.3295 395.102 49.6155 395.149 49.8807 395.241C50.1477 395.332 50.3854 395.462 50.5938 395.631C50.804 395.797 50.9792 395.997 51.1193 396.23C51.2595 396.461 51.3561 396.718 51.4091 397H50.6818ZM52.5589 401V396.636H53.2067V397.295H53.2521C53.3317 397.08 53.4756 396.904 53.6839 396.77C53.8923 396.635 54.1271 396.568 54.3885 396.568C54.4377 396.568 54.4993 396.569 54.5732 396.571C54.647 396.573 54.7029 396.576 54.7408 396.58V397.261C54.718 397.256 54.666 397.247 54.5845 397.236C54.505 397.223 54.4207 397.216 54.3317 397.216C54.1196 397.216 53.9302 397.26 53.7635 397.349C53.5987 397.437 53.468 397.558 53.3714 397.713C53.2768 397.866 53.2294 398.042 53.2294 398.239V401H52.5589ZM57.1754 401.091C56.7815 401.091 56.4358 400.997 56.1385 400.81C55.843 400.622 55.612 400.36 55.4453 400.023C55.2805 399.686 55.1982 399.292 55.1982 398.841C55.1982 398.386 55.2805 397.99 55.4453 397.651C55.612 397.312 55.843 397.048 56.1385 396.861C56.4358 396.673 56.7815 396.58 57.1754 396.58C57.5694 396.58 57.9141 396.673 58.2095 396.861C58.5069 397.048 58.7379 397.312 58.9027 397.651C59.0694 397.99 59.1527 398.386 59.1527 398.841C59.1527 399.292 59.0694 399.686 58.9027 400.023C58.7379 400.36 58.5069 400.622 58.2095 400.81C57.9141 400.997 57.5694 401.091 57.1754 401.091ZM57.1754 400.489C57.4747 400.489 57.7209 400.412 57.9141 400.259C58.1072 400.105 58.2502 399.903 58.343 399.653C58.4358 399.403 58.4822 399.133 58.4822 398.841C58.4822 398.549 58.4358 398.277 58.343 398.026C58.2502 397.774 58.1072 397.57 57.9141 397.415C57.7209 397.259 57.4747 397.182 57.1754 397.182C56.8762 397.182 56.63 397.259 56.4368 397.415C56.2436 397.57 56.1006 397.774 56.0078 398.026C55.915 398.277 55.8686 398.549 55.8686 398.841C55.8686 399.133 55.915 399.403 56.0078 399.653C56.1006 399.903 56.2436 400.105 56.4368 400.259C56.63 400.412 56.8762 400.489 57.1754 400.489ZM62.9261 399.216V396.636H63.5966V401H62.9261V400.261H62.8807C62.7784 400.483 62.6193 400.671 62.4034 400.827C62.1875 400.98 61.9148 401.057 61.5852 401.057C61.3125 401.057 61.0701 400.997 60.858 400.878C60.6458 400.757 60.4792 400.575 60.358 400.332C60.2367 400.088 60.1761 399.78 60.1761 399.409V396.636H60.8466V399.364C60.8466 399.682 60.9356 399.936 61.1136 400.125C61.2936 400.314 61.5227 400.409 61.8011 400.409C61.9678 400.409 62.1373 400.366 62.3097 400.281C62.4839 400.196 62.6297 400.065 62.7472 399.889C62.8665 399.713 62.9261 399.489 62.9261 399.216ZM64.8246 402.636V396.636H65.4723V397.33H65.5518C65.6011 397.254 65.6693 397.157 65.7564 397.04C65.8454 396.92 65.9723 396.814 66.1371 396.722C66.3037 396.627 66.5291 396.58 66.8132 396.58C67.1806 396.58 67.5045 396.671 67.7848 396.855C68.0651 397.039 68.2839 397.299 68.4411 397.636C68.5982 397.973 68.6768 398.371 68.6768 398.83C68.6768 399.292 68.5982 399.692 68.4411 400.031C68.2839 400.368 68.0661 400.63 67.7876 400.815C67.5092 400.999 67.1882 401.091 66.8246 401.091C66.5443 401.091 66.3198 401.045 66.1513 400.952C65.9827 400.857 65.853 400.75 65.7621 400.631C65.6712 400.509 65.6011 400.409 65.5518 400.33H65.495V402.636H64.8246ZM65.4837 398.818C65.4837 399.148 65.532 399.438 65.6286 399.69C65.7251 399.94 65.8662 400.136 66.0518 400.278C66.2375 400.419 66.4647 400.489 66.7337 400.489C67.014 400.489 67.2479 400.415 67.4354 400.267C67.6248 400.117 67.7668 399.917 67.8615 399.665C67.9581 399.411 68.0064 399.129 68.0064 398.818C68.0064 398.511 67.959 398.235 67.8643 397.989C67.7715 397.741 67.6304 397.545 67.4411 397.401C67.2536 397.255 67.0178 397.182 66.7337 397.182C66.4609 397.182 66.2318 397.251 66.0462 397.389C65.8606 397.526 65.7204 397.717 65.6257 397.963C65.531 398.207 65.4837 398.492 65.4837 398.818ZM72.7905 397.614L72.1882 397.784C72.1503 397.684 72.0945 397.586 72.0206 397.491C71.9486 397.395 71.8501 397.315 71.7251 397.253C71.6001 397.19 71.4401 397.159 71.245 397.159C70.978 397.159 70.7554 397.221 70.5774 397.344C70.4013 397.465 70.3132 397.619 70.3132 397.807C70.3132 397.973 70.3738 398.105 70.495 398.202C70.6162 398.298 70.8056 398.379 71.0632 398.443L71.7109 398.602C72.1011 398.697 72.3918 398.842 72.5831 399.037C72.7744 399.23 72.87 399.479 72.87 399.784C72.87 400.034 72.7981 400.258 72.6541 400.455C72.5121 400.652 72.3132 400.807 72.0575 400.92C71.8018 401.034 71.5045 401.091 71.1655 401.091C70.7204 401.091 70.352 400.994 70.0604 400.801C69.7687 400.608 69.584 400.326 69.5064 399.955L70.1428 399.795C70.2034 400.03 70.3179 400.206 70.4865 400.324C70.657 400.441 70.8795 400.5 71.1541 400.5C71.4666 400.5 71.7147 400.434 71.8984 400.301C72.084 400.167 72.1768 400.006 72.1768 399.818C72.1768 399.667 72.1238 399.54 72.0178 399.438C71.9117 399.333 71.7488 399.256 71.5291 399.205L70.8018 399.034C70.4022 398.939 70.1087 398.793 69.9212 398.594C69.7356 398.393 69.6428 398.142 69.6428 397.841C69.6428 397.595 69.7119 397.377 69.8501 397.188C69.9903 396.998 70.1806 396.849 70.4212 396.741C70.6636 396.634 70.9382 396.58 71.245 396.58C71.6768 396.58 72.0159 396.674 72.2621 396.864C72.5102 397.053 72.6863 397.303 72.7905 397.614Z" fill="black"/>
<path d="M127.705 401V395.182H128.409V397.773H131.511V395.182H132.216V401H131.511V398.398H128.409V401H127.705ZM133.536 401V396.636H134.206V401H133.536ZM133.876 395.909C133.746 395.909 133.633 395.865 133.538 395.776C133.446 395.687 133.399 395.58 133.399 395.455C133.399 395.33 133.446 395.223 133.538 395.134C133.633 395.045 133.746 395 133.876 395C134.007 395 134.119 395.045 134.212 395.134C134.306 395.223 134.354 395.33 134.354 395.455C134.354 395.58 134.306 395.687 134.212 395.776C134.119 395.865 134.007 395.909 133.876 395.909ZM138.525 397.614L137.923 397.784C137.885 397.684 137.829 397.586 137.755 397.491C137.683 397.395 137.585 397.315 137.46 397.253C137.335 397.19 137.174 397.159 136.979 397.159C136.712 397.159 136.49 397.221 136.312 397.344C136.136 397.465 136.048 397.619 136.048 397.807C136.048 397.973 136.108 398.105 136.229 398.202C136.351 398.298 136.54 398.379 136.798 398.443L137.445 398.602C137.835 398.697 138.126 398.842 138.317 399.037C138.509 399.23 138.604 399.479 138.604 399.784C138.604 400.034 138.532 400.258 138.388 400.455C138.246 400.652 138.048 400.807 137.792 400.92C137.536 401.034 137.239 401.091 136.9 401.091C136.455 401.091 136.086 400.994 135.795 400.801C135.503 400.608 135.318 400.326 135.241 399.955L135.877 399.795C135.938 400.03 136.052 400.206 136.221 400.324C136.391 400.441 136.614 400.5 136.888 400.5C137.201 400.5 137.449 400.434 137.633 400.301C137.818 400.167 137.911 400.006 137.911 399.818C137.911 399.667 137.858 399.54 137.752 399.438C137.646 399.333 137.483 399.256 137.263 399.205L136.536 399.034C136.137 398.939 135.843 398.793 135.656 398.594C135.47 398.393 135.377 398.142 135.377 397.841C135.377 397.595 135.446 397.377 135.585 397.188C135.725 396.998 135.915 396.849 136.156 396.741C136.398 396.634 136.673 396.58 136.979 396.58C137.411 396.58 137.75 396.674 137.996 396.864C138.245 397.053 138.421 397.303 138.525 397.614ZM141.511 396.636V397.205H139.25V396.636H141.511ZM139.909 395.591H140.58V399.75C140.58 399.939 140.607 400.081 140.662 400.176C140.719 400.269 140.791 400.331 140.878 400.364C140.967 400.394 141.061 400.409 141.159 400.409C141.233 400.409 141.294 400.405 141.341 400.398C141.388 400.388 141.426 400.381 141.455 400.375L141.591 400.977C141.545 400.994 141.482 401.011 141.401 401.028C141.319 401.047 141.216 401.057 141.091 401.057C140.902 401.057 140.716 401.016 140.534 400.935C140.354 400.853 140.205 400.729 140.085 400.562C139.968 400.396 139.909 400.186 139.909 399.932V395.591ZM144.246 401.091C143.852 401.091 143.506 400.997 143.209 400.81C142.913 400.622 142.682 400.36 142.516 400.023C142.351 399.686 142.268 399.292 142.268 398.841C142.268 398.386 142.351 397.99 142.516 397.651C142.682 397.312 142.913 397.048 143.209 396.861C143.506 396.673 143.852 396.58 144.246 396.58C144.64 396.58 144.984 396.673 145.28 396.861C145.577 397.048 145.808 397.312 145.973 397.651C146.14 397.99 146.223 398.386 146.223 398.841C146.223 399.292 146.14 399.686 145.973 400.023C145.808 400.36 145.577 400.622 145.28 400.81C144.984 400.997 144.64 401.091 144.246 401.091ZM144.246 400.489C144.545 400.489 144.791 400.412 144.984 400.259C145.178 400.105 145.321 399.903 145.413 399.653C145.506 399.403 145.553 399.133 145.553 398.841C145.553 398.549 145.506 398.277 145.413 398.026C145.321 397.774 145.178 397.57 144.984 397.415C144.791 397.259 144.545 397.182 144.246 397.182C143.946 397.182 143.7 397.259 143.507 397.415C143.314 397.57 143.171 397.774 143.078 398.026C142.985 398.277 142.939 398.549 142.939 398.841C142.939 399.133 142.985 399.403 143.078 399.653C143.171 399.903 143.314 400.105 143.507 400.259C143.7 400.412 143.946 400.489 144.246 400.489ZM147.246 401V396.636H147.894V397.295H147.94C148.019 397.08 148.163 396.904 148.371 396.77C148.58 396.635 148.815 396.568 149.076 396.568C149.125 396.568 149.187 396.569 149.261 396.571C149.335 396.573 149.39 396.576 149.428 396.58V397.261C149.406 397.256 149.353 397.247 149.272 397.236C149.192 397.223 149.108 397.216 149.019 397.216C148.807 397.216 148.618 397.26 148.451 397.349C148.286 397.437 148.156 397.558 148.059 397.713C147.964 397.866 147.917 398.042 147.917 398.239V401H147.246ZM150.788 402.636C150.674 402.636 150.573 402.627 150.484 402.608C150.395 402.591 150.333 402.574 150.299 402.557L150.469 401.966C150.632 402.008 150.776 402.023 150.901 402.011C151.026 402 151.137 401.944 151.234 401.844C151.332 401.745 151.422 401.585 151.504 401.364L151.629 401.023L150.015 396.636H150.742L151.947 400.114H151.992L153.197 396.636H153.924L152.072 401.636C151.988 401.862 151.885 402.048 151.762 402.196C151.639 402.346 151.496 402.456 151.333 402.528C151.172 402.6 150.99 402.636 150.788 402.636Z" fill="black"/>
<path d="M175.705 395.182H176.545L178.523 400.011H178.591L180.568 395.182H181.409V401H180.75V396.58H180.693L178.875 401H178.239L176.42 396.58H176.364V401H175.705V395.182ZM184.56 401.091C184.14 401.091 183.777 400.998 183.472 400.812C183.169 400.625 182.935 400.364 182.771 400.028C182.608 399.691 182.526 399.299 182.526 398.852C182.526 398.405 182.608 398.011 182.771 397.67C182.935 397.328 183.165 397.061 183.458 396.869C183.754 396.676 184.098 396.58 184.492 396.58C184.719 396.58 184.944 396.617 185.165 396.693C185.387 396.769 185.589 396.892 185.771 397.062C185.952 397.231 186.097 397.455 186.205 397.733C186.313 398.011 186.367 398.354 186.367 398.761V399.045H183.004V398.466H185.685C185.685 398.22 185.636 398 185.538 397.807C185.441 397.614 185.303 397.461 185.123 397.349C184.945 397.238 184.735 397.182 184.492 397.182C184.225 397.182 183.994 397.248 183.799 397.381C183.606 397.511 183.457 397.682 183.353 397.892C183.249 398.102 183.197 398.328 183.197 398.568V398.955C183.197 399.284 183.254 399.563 183.367 399.793C183.483 400.02 183.643 400.193 183.847 400.312C184.052 400.43 184.29 400.489 184.56 400.489C184.737 400.489 184.896 400.464 185.038 400.415C185.182 400.364 185.306 400.288 185.41 400.188C185.514 400.085 185.594 399.958 185.651 399.807L186.299 399.989C186.231 400.208 186.116 400.402 185.955 400.568C185.794 400.733 185.595 400.862 185.359 400.955C185.122 401.045 184.856 401.091 184.56 401.091Z" fill="white"/>
<path d="M90.4655 393H89.7609C89.7192 392.797 89.6463 392.619 89.5422 392.466C89.4399 392.312 89.3149 392.184 89.1672 392.08C89.0213 391.973 88.8594 391.894 88.6814 391.841C88.5033 391.788 88.3177 391.761 88.1246 391.761C87.7723 391.761 87.4532 391.85 87.1672 392.028C86.8831 392.206 86.6567 392.469 86.4882 392.815C86.3215 393.162 86.2382 393.587 86.2382 394.091C86.2382 394.595 86.3215 395.02 86.4882 395.366C86.6567 395.713 86.8831 395.975 87.1672 396.153C87.4532 396.331 87.7723 396.42 88.1246 396.42C88.3177 396.42 88.5033 396.394 88.6814 396.341C88.8594 396.288 89.0213 396.209 89.1672 396.105C89.3149 395.999 89.4399 395.869 89.5422 395.716C89.6463 395.561 89.7192 395.383 89.7609 395.182H90.4655C90.4124 395.479 90.3158 395.745 90.1757 395.98C90.0355 396.215 89.8613 396.415 89.653 396.58C89.4446 396.742 89.2107 396.866 88.9513 396.952C88.6937 397.037 88.4181 397.08 88.1246 397.08C87.6283 397.08 87.1871 396.958 86.8007 396.716C86.4143 396.473 86.1103 396.129 85.8888 395.682C85.6672 395.235 85.5564 394.705 85.5564 394.091C85.5564 393.477 85.6672 392.947 85.8888 392.5C86.1103 392.053 86.4143 391.708 86.8007 391.466C87.1871 391.223 87.6283 391.102 88.1246 391.102C88.4181 391.102 88.6937 391.145 88.9513 391.23C89.2107 391.315 89.4446 391.44 89.653 391.605C89.8613 391.768 90.0355 391.967 90.1757 392.202C90.3158 392.435 90.4124 392.701 90.4655 393ZM91.513 397V392.636H92.1608V393.295H92.2062C92.2858 393.08 92.4297 392.904 92.638 392.77C92.8464 392.635 93.0812 392.568 93.3426 392.568C93.3918 392.568 93.4534 392.569 93.5273 392.571C93.6011 392.573 93.657 392.576 93.6949 392.58V393.261C93.6721 393.256 93.6201 393.247 93.5386 393.236C93.4591 393.223 93.3748 393.216 93.2858 393.216C93.0737 393.216 92.8843 393.26 92.7176 393.349C92.5528 393.437 92.4221 393.558 92.3255 393.713C92.2308 393.866 92.1835 394.042 92.1835 394.239V397H91.513ZM96.1863 397.091C95.7659 397.091 95.4032 396.998 95.0983 396.812C94.7952 396.625 94.5613 396.364 94.3966 396.028C94.2337 395.691 94.1523 395.299 94.1523 394.852C94.1523 394.405 94.2337 394.011 94.3966 393.67C94.5613 393.328 94.7905 393.061 95.0841 392.869C95.3795 392.676 95.7242 392.58 96.1182 392.58C96.3454 392.58 96.5699 392.617 96.7915 392.693C97.013 392.769 97.2148 392.892 97.3966 393.062C97.5784 393.231 97.7233 393.455 97.8312 393.733C97.9392 394.011 97.9932 394.354 97.9932 394.761V395.045H94.6295V394.466H97.3113C97.3113 394.22 97.2621 394 97.1636 393.807C97.067 393.614 96.9288 393.461 96.7488 393.349C96.5708 393.238 96.3606 393.182 96.1182 393.182C95.8511 393.182 95.6201 393.248 95.425 393.381C95.2318 393.511 95.0831 393.682 94.979 393.892C94.8748 394.102 94.8227 394.328 94.8227 394.568V394.955C94.8227 395.284 94.8795 395.563 94.9932 395.793C95.1087 396.02 95.2687 396.193 95.4733 396.312C95.6778 396.43 95.9155 396.489 96.1863 396.489C96.3625 396.489 96.5216 396.464 96.6636 396.415C96.8076 396.364 96.9316 396.288 97.0358 396.188C97.1399 396.085 97.2204 395.958 97.2773 395.807L97.925 395.989C97.8568 396.208 97.7422 396.402 97.5812 396.568C97.4202 396.733 97.2214 396.862 96.9846 396.955C96.7479 397.045 96.4818 397.091 96.1863 397.091ZM100.297 397.102C100.021 397.102 99.7697 397.05 99.5443 396.946C99.3189 396.84 99.1399 396.688 99.0074 396.489C98.8748 396.288 98.8085 396.045 98.8085 395.761C98.8085 395.511 98.8577 395.309 98.9562 395.153C99.0547 394.996 99.1863 394.873 99.3511 394.784C99.5159 394.695 99.6977 394.629 99.8966 394.585C100.097 394.54 100.299 394.504 100.502 394.477C100.767 394.443 100.982 394.418 101.147 394.401C101.313 394.382 101.434 394.35 101.51 394.307C101.588 394.263 101.627 394.187 101.627 394.08V394.057C101.627 393.777 101.55 393.559 101.397 393.403C101.245 393.248 101.015 393.17 100.706 393.17C100.386 393.17 100.135 393.241 99.9534 393.381C99.7716 393.521 99.6437 393.67 99.5699 393.83L98.9335 393.602C99.0471 393.337 99.1987 393.131 99.388 392.983C99.5793 392.833 99.7877 392.729 100.013 392.67C100.24 392.61 100.464 392.58 100.684 392.58C100.824 392.58 100.985 392.597 101.166 392.631C101.35 392.663 101.527 392.73 101.698 392.832C101.87 392.935 102.013 393.089 102.127 393.295C102.24 393.502 102.297 393.778 102.297 394.125V397H101.627V396.409H101.593C101.547 396.504 101.471 396.605 101.365 396.713C101.259 396.821 101.118 396.913 100.942 396.989C100.766 397.064 100.551 397.102 100.297 397.102ZM100.399 396.5C100.665 396.5 100.888 396.448 101.07 396.344C101.254 396.24 101.392 396.105 101.485 395.94C101.579 395.776 101.627 395.602 101.627 395.42V394.807C101.598 394.841 101.536 394.872 101.439 394.901C101.344 394.927 101.235 394.951 101.11 394.972C100.987 394.991 100.866 395.008 100.749 395.023C100.633 395.036 100.54 395.047 100.468 395.057C100.293 395.08 100.13 395.116 99.979 395.168C99.8293 395.217 99.7081 395.292 99.6153 395.392C99.5244 395.491 99.479 395.625 99.479 395.795C99.479 396.028 99.5651 396.205 99.7375 396.324C99.9117 396.441 100.132 396.5 100.399 396.5ZM105.419 392.636V393.205H103.157V392.636H105.419ZM103.816 391.591H104.487V395.75C104.487 395.939 104.514 396.081 104.569 396.176C104.626 396.269 104.698 396.331 104.785 396.364C104.874 396.394 104.968 396.409 105.066 396.409C105.14 396.409 105.201 396.405 105.248 396.398C105.295 396.388 105.333 396.381 105.362 396.375L105.498 396.977C105.453 396.994 105.389 397.011 105.308 397.028C105.226 397.047 105.123 397.057 104.998 397.057C104.809 397.057 104.623 397.016 104.441 396.935C104.261 396.853 104.112 396.729 103.992 396.562C103.875 396.396 103.816 396.186 103.816 395.932V391.591ZM106.427 397V392.636H107.098V397H106.427ZM106.768 391.909C106.637 391.909 106.525 391.865 106.43 391.776C106.337 391.687 106.291 391.58 106.291 391.455C106.291 391.33 106.337 391.223 106.43 391.134C106.525 391.045 106.637 391 106.768 391C106.899 391 107.01 391.045 107.103 391.134C107.198 391.223 107.245 391.33 107.245 391.455C107.245 391.58 107.198 391.687 107.103 391.776C107.01 391.865 106.899 391.909 106.768 391.909ZM110.098 397.091C109.704 397.091 109.359 396.997 109.061 396.81C108.766 396.622 108.535 396.36 108.368 396.023C108.203 395.686 108.121 395.292 108.121 394.841C108.121 394.386 108.203 393.99 108.368 393.651C108.535 393.312 108.766 393.048 109.061 392.861C109.359 392.673 109.704 392.58 110.098 392.58C110.492 392.58 110.837 392.673 111.132 392.861C111.43 393.048 111.661 393.312 111.826 393.651C111.992 393.99 112.076 394.386 112.076 394.841C112.076 395.292 111.992 395.686 111.826 396.023C111.661 396.36 111.43 396.622 111.132 396.81C110.837 396.997 110.492 397.091 110.098 397.091ZM110.098 396.489C110.398 396.489 110.644 396.412 110.837 396.259C111.03 396.105 111.173 395.903 111.266 395.653C111.359 395.403 111.405 395.133 111.405 394.841C111.405 394.549 111.359 394.277 111.266 394.026C111.173 393.774 111.03 393.57 110.837 393.415C110.644 393.259 110.398 393.182 110.098 393.182C109.799 393.182 109.553 393.259 109.36 393.415C109.166 393.57 109.023 393.774 108.931 394.026C108.838 394.277 108.791 394.549 108.791 394.841C108.791 395.133 108.838 395.403 108.931 395.653C109.023 395.903 109.166 396.105 109.36 396.259C109.553 396.412 109.799 396.489 110.098 396.489ZM113.769 394.375V397H113.099V392.636H113.747V393.318H113.804C113.906 393.097 114.061 392.919 114.269 392.784C114.478 392.648 114.747 392.58 115.076 392.58C115.372 392.58 115.63 392.64 115.852 392.761C116.073 392.881 116.246 393.062 116.369 393.307C116.492 393.549 116.554 393.856 116.554 394.227V397H115.883V394.273C115.883 393.93 115.794 393.663 115.616 393.472C115.438 393.278 115.194 393.182 114.883 393.182C114.669 393.182 114.478 393.228 114.309 393.321C114.143 393.414 114.011 393.549 113.914 393.727C113.818 393.905 113.769 394.121 113.769 394.375ZM94.5116 401.182V407H93.8071V401.182H94.5116ZM97.6061 407.091C97.197 407.091 96.8447 406.994 96.5493 406.801C96.2538 406.608 96.0265 406.342 95.8675 406.003C95.7084 405.664 95.6288 405.277 95.6288 404.841C95.6288 404.398 95.7103 404.007 95.8731 403.668C96.0379 403.327 96.2671 403.061 96.5606 402.869C96.8561 402.676 97.2008 402.58 97.5947 402.58C97.9015 402.58 98.1781 402.636 98.4243 402.75C98.6705 402.864 98.8722 403.023 99.0294 403.227C99.1866 403.432 99.2841 403.67 99.322 403.943H98.6515C98.6004 403.744 98.4868 403.568 98.3106 403.415C98.1364 403.259 97.9015 403.182 97.6061 403.182C97.3447 403.182 97.1156 403.25 96.9186 403.386C96.7235 403.521 96.571 403.711 96.4612 403.957C96.3532 404.202 96.2993 404.489 96.2993 404.818C96.2993 405.155 96.3523 405.449 96.4584 405.699C96.5663 405.949 96.7178 406.143 96.9129 406.281C97.1099 406.42 97.3409 406.489 97.6061 406.489C97.7803 406.489 97.9385 406.458 98.0805 406.398C98.2226 406.337 98.3428 406.25 98.4413 406.136C98.5398 406.023 98.6099 405.886 98.6515 405.727H99.322C99.2841 405.985 99.1904 406.217 99.0407 406.423C98.893 406.628 98.697 406.791 98.4527 406.912C98.2103 407.031 97.9281 407.091 97.6061 407.091ZM102.075 407.091C101.681 407.091 101.335 406.997 101.038 406.81C100.742 406.622 100.511 406.36 100.345 406.023C100.18 405.686 100.098 405.292 100.098 404.841C100.098 404.386 100.18 403.99 100.345 403.651C100.511 403.312 100.742 403.048 101.038 402.861C101.335 402.673 101.681 402.58 102.075 402.58C102.469 402.58 102.813 402.673 103.109 402.861C103.406 403.048 103.637 403.312 103.802 403.651C103.969 403.99 104.052 404.386 104.052 404.841C104.052 405.292 103.969 405.686 103.802 406.023C103.637 406.36 103.406 406.622 103.109 406.81C102.813 406.997 102.469 407.091 102.075 407.091ZM102.075 406.489C102.374 406.489 102.62 406.412 102.813 406.259C103.007 406.105 103.15 405.903 103.242 405.653C103.335 405.403 103.382 405.133 103.382 404.841C103.382 404.549 103.335 404.277 103.242 404.026C103.15 403.774 103.007 403.57 102.813 403.415C102.62 403.259 102.374 403.182 102.075 403.182C101.776 403.182 101.529 403.259 101.336 403.415C101.143 403.57 101 403.774 100.907 404.026C100.814 404.277 100.768 404.549 100.768 404.841C100.768 405.133 100.814 405.403 100.907 405.653C101 405.903 101.143 406.105 101.336 406.259C101.529 406.412 101.776 406.489 102.075 406.489ZM105.746 404.375V407H105.076V402.636H105.723V403.318H105.78C105.882 403.097 106.038 402.919 106.246 402.784C106.454 402.648 106.723 402.58 107.053 402.58C107.348 402.58 107.607 402.64 107.828 402.761C108.05 402.881 108.222 403.062 108.345 403.307C108.469 403.549 108.53 403.856 108.53 404.227V407H107.86V404.273C107.86 403.93 107.771 403.663 107.593 403.472C107.415 403.278 107.17 403.182 106.86 403.182C106.646 403.182 106.454 403.228 106.286 403.321C106.119 403.414 105.987 403.549 105.891 403.727C105.794 403.905 105.746 404.121 105.746 404.375Z" fill="black"/>
<circle cx="38.5" cy="41.5" r="17.5" fill="#D9D9D9"/>
<path d="M27 29L38.75 41.75L50.5 54.5" stroke="black"/>
<path d="M50.5 29.5L27.5 53.5" stroke="black"/>
<path d="M73.5227 36.1818H74.2273V40.0341C74.2273 40.4318 74.1335 40.7869 73.946 41.0994C73.7604 41.41 73.4981 41.6553 73.1591 41.8352C72.8201 42.0133 72.4223 42.1023 71.9659 42.1023C71.5095 42.1023 71.1117 42.0133 70.7727 41.8352C70.4337 41.6553 70.1705 41.41 69.983 41.0994C69.7973 40.7869 69.7045 40.4318 69.7045 40.0341V36.1818H70.4091V39.9773C70.4091 40.2614 70.4716 40.5142 70.5966 40.7358C70.7216 40.9555 70.8996 41.1288 71.1307 41.2557C71.3636 41.3807 71.642 41.4432 71.9659 41.4432C72.2898 41.4432 72.5682 41.3807 72.8011 41.2557C73.0341 41.1288 73.2121 40.9555 73.3352 40.7358C73.4602 40.5142 73.5227 40.2614 73.5227 39.9773V36.1818ZM78.6342 38.6136L78.032 38.7841C77.9941 38.6837 77.9382 38.5862 77.8643 38.4915C77.7924 38.3949 77.6939 38.3153 77.5689 38.2528C77.4439 38.1903 77.2839 38.1591 77.0888 38.1591C76.8217 38.1591 76.5992 38.2206 76.4212 38.3438C76.245 38.465 76.157 38.6193 76.157 38.8068C76.157 38.9735 76.2176 39.1051 76.3388 39.2017C76.46 39.2983 76.6494 39.3788 76.907 39.4432L77.5547 39.6023C77.9448 39.697 78.2356 39.8419 78.4268 40.0369C78.6181 40.2301 78.7138 40.4792 78.7138 40.7841C78.7138 41.0341 78.6418 41.2576 78.4979 41.4545C78.3558 41.6515 78.157 41.8068 77.9013 41.9205C77.6456 42.0341 77.3482 42.0909 77.0092 42.0909C76.5642 42.0909 76.1958 41.9943 75.9041 41.8011C75.6125 41.608 75.4278 41.3258 75.3501 40.9545L75.9865 40.7955C76.0471 41.0303 76.1617 41.2064 76.3303 41.3239C76.5007 41.4413 76.7232 41.5 76.9979 41.5C77.3104 41.5 77.5585 41.4337 77.7422 41.3011C77.9278 41.1667 78.0206 41.0057 78.0206 40.8182C78.0206 40.6667 77.9676 40.5398 77.8615 40.4375C77.7554 40.3333 77.5926 40.2557 77.3729 40.2045L76.6456 40.0341C76.246 39.9394 75.9524 39.7926 75.7649 39.5938C75.5793 39.393 75.4865 39.142 75.4865 38.8409C75.4865 38.5947 75.5556 38.3769 75.6939 38.1875C75.834 37.9981 76.0244 37.8494 76.2649 37.7415C76.5073 37.6335 76.782 37.5795 77.0888 37.5795C77.5206 37.5795 77.8596 37.6742 78.1058 37.8636C78.3539 38.053 78.5301 38.303 78.6342 38.6136ZM81.5526 42.0909C81.1321 42.0909 80.7694 41.9981 80.4645 41.8125C80.1615 41.625 79.9276 41.3636 79.7628 41.0284C79.5999 40.6913 79.5185 40.2992 79.5185 39.8523C79.5185 39.4053 79.5999 39.0114 79.7628 38.6705C79.9276 38.3277 80.1567 38.0606 80.4503 37.8693C80.7457 37.6761 81.0904 37.5795 81.4844 37.5795C81.7116 37.5795 81.9361 37.6174 82.1577 37.6932C82.3793 37.7689 82.581 37.892 82.7628 38.0625C82.9446 38.2311 83.0895 38.4545 83.1974 38.733C83.3054 39.0114 83.3594 39.3542 83.3594 39.7614V40.0455H79.9957V39.4659H82.6776C82.6776 39.2197 82.6283 39 82.5298 38.8068C82.4332 38.6136 82.295 38.4612 82.1151 38.3494C81.937 38.2377 81.7268 38.1818 81.4844 38.1818C81.2173 38.1818 80.9863 38.2481 80.7912 38.3807C80.598 38.5114 80.4493 38.6818 80.3452 38.892C80.241 39.1023 80.1889 39.3277 80.1889 39.5682V39.9545C80.1889 40.2841 80.2457 40.5634 80.3594 40.7926C80.4749 41.0199 80.6349 41.1932 80.8395 41.3125C81.044 41.4299 81.2817 41.4886 81.5526 41.4886C81.7287 41.4886 81.8878 41.464 82.0298 41.4148C82.1738 41.3636 82.2978 41.2879 82.402 41.1875C82.5062 41.0852 82.5866 40.9583 82.6435 40.8068L83.2912 40.9886C83.223 41.2083 83.1084 41.4015 82.9474 41.5682C82.7865 41.733 82.5876 41.8617 82.3509 41.9545C82.1141 42.0455 81.848 42.0909 81.5526 42.0909ZM84.3793 42V37.6364H85.027V38.2955H85.0724C85.152 38.0795 85.2959 37.9044 85.5043 37.7699C85.7126 37.6354 85.9474 37.5682 86.2088 37.5682C86.258 37.5682 86.3196 37.5691 86.3935 37.571C86.4673 37.5729 86.5232 37.5758 86.5611 37.5795V38.2614C86.5384 38.2557 86.4863 38.2472 86.4048 38.2358C86.3253 38.2225 86.241 38.2159 86.152 38.2159C85.9399 38.2159 85.7505 38.2604 85.5838 38.3494C85.419 38.4366 85.2884 38.5578 85.1918 38.7131C85.0971 38.8665 85.0497 39.0417 85.0497 39.2386V42H84.3793ZM90.2763 39.375V42H89.6058V37.6364H90.2536V38.3182H90.3104C90.4126 38.0966 90.5679 37.9186 90.7763 37.7841C90.9846 37.6477 91.2536 37.5795 91.5831 37.5795C91.8786 37.5795 92.1371 37.6402 92.3587 37.7614C92.5803 37.8807 92.7526 38.0625 92.8757 38.3068C92.9988 38.5492 93.0604 38.8561 93.0604 39.2273V42H92.3899V39.2727C92.3899 38.9299 92.3009 38.6629 92.1229 38.4716C91.9448 38.2784 91.7005 38.1818 91.3899 38.1818C91.1759 38.1818 90.9846 38.2282 90.8161 38.321C90.6494 38.4138 90.5178 38.5492 90.4212 38.7273C90.3246 38.9053 90.2763 39.1212 90.2763 39.375ZM95.5696 42.1023C95.2931 42.1023 95.0421 42.0502 94.8168 41.946C94.5914 41.84 94.4124 41.6875 94.2798 41.4886C94.1473 41.2879 94.081 41.0455 94.081 40.7614C94.081 40.5114 94.1302 40.3087 94.2287 40.1534C94.3272 39.9962 94.4588 39.8731 94.6236 39.7841C94.7884 39.6951 94.9702 39.6288 95.169 39.5852C95.3698 39.5398 95.5715 39.5038 95.7741 39.4773C96.0393 39.4432 96.2543 39.4176 96.419 39.4006C96.5857 39.3816 96.7069 39.3504 96.7827 39.3068C96.8603 39.2633 96.8991 39.1875 96.8991 39.0795V39.0568C96.8991 38.7765 96.8224 38.5587 96.669 38.4034C96.5175 38.2481 96.2874 38.1705 95.9787 38.1705C95.6586 38.1705 95.4077 38.2405 95.2259 38.3807C95.044 38.5208 94.9162 38.6705 94.8423 38.8295L94.206 38.6023C94.3196 38.3371 94.4711 38.1307 94.6605 37.983C94.8518 37.8333 95.0601 37.7292 95.2855 37.6705C95.5128 37.6098 95.7363 37.5795 95.956 37.5795C96.0961 37.5795 96.2571 37.5966 96.4389 37.6307C96.6226 37.6629 96.7997 37.7301 96.9702 37.8324C97.1425 37.9347 97.2855 38.089 97.3991 38.2955C97.5128 38.5019 97.5696 38.7784 97.5696 39.125V42H96.8991V41.4091H96.8651C96.8196 41.5038 96.7438 41.6051 96.6378 41.7131C96.5317 41.821 96.3906 41.9129 96.2145 41.9886C96.0384 42.0644 95.8234 42.1023 95.5696 42.1023ZM95.6719 41.5C95.937 41.5 96.1605 41.4479 96.3423 41.3438C96.526 41.2396 96.6643 41.1051 96.7571 40.9403C96.8518 40.7756 96.8991 40.6023 96.8991 40.4205V39.8068C96.8707 39.8409 96.8082 39.8722 96.7116 39.9006C96.617 39.9271 96.5071 39.9508 96.3821 39.9716C96.259 39.9905 96.1387 40.0076 96.0213 40.0227C95.9058 40.036 95.812 40.0473 95.7401 40.0568C95.5658 40.0795 95.4029 40.1165 95.2514 40.1676C95.1018 40.2169 94.9806 40.2917 94.8878 40.392C94.7969 40.4905 94.7514 40.625 94.7514 40.7955C94.7514 41.0284 94.8376 41.2045 95.0099 41.3239C95.1842 41.4413 95.4048 41.5 95.6719 41.5ZM98.7933 42V37.6364H99.4411V38.3182H99.4979C99.5888 38.0852 99.7356 37.9044 99.9382 37.7756C100.141 37.6449 100.384 37.5795 100.668 37.5795C100.956 37.5795 101.196 37.6449 101.387 37.7756C101.58 37.9044 101.731 38.0852 101.839 38.3182H101.884C101.996 38.0928 102.164 37.9138 102.387 37.7812C102.611 37.6468 102.879 37.5795 103.191 37.5795C103.581 37.5795 103.9 37.7017 104.148 37.946C104.397 38.1884 104.521 38.5663 104.521 39.0795V42H103.85V39.0795C103.85 38.7576 103.762 38.5275 103.586 38.3892C103.41 38.2509 103.202 38.1818 102.964 38.1818C102.657 38.1818 102.419 38.2746 102.251 38.4602C102.082 38.6439 101.998 38.8769 101.998 39.1591V42H101.316V39.0114C101.316 38.7633 101.236 38.5634 101.075 38.4119C100.914 38.2585 100.706 38.1818 100.452 38.1818C100.278 38.1818 100.115 38.2282 99.9638 38.321C99.8142 38.4138 99.6929 38.5426 99.6001 38.7074C99.5092 38.8703 99.4638 39.0587 99.4638 39.2727V42H98.7933ZM107.576 42.0909C107.156 42.0909 106.793 41.9981 106.488 41.8125C106.185 41.625 105.951 41.3636 105.786 41.0284C105.623 40.6913 105.542 40.2992 105.542 39.8523C105.542 39.4053 105.623 39.0114 105.786 38.6705C105.951 38.3277 106.18 38.0606 106.474 37.8693C106.769 37.6761 107.114 37.5795 107.508 37.5795C107.735 37.5795 107.96 37.6174 108.181 37.6932C108.403 37.7689 108.604 37.892 108.786 38.0625C108.968 38.2311 109.113 38.4545 109.221 38.733C109.329 39.0114 109.383 39.3542 109.383 39.7614V40.0455H106.019V39.4659H108.701C108.701 39.2197 108.652 39 108.553 38.8068C108.457 38.6136 108.318 38.4612 108.138 38.3494C107.96 38.2377 107.75 38.1818 107.508 38.1818C107.241 38.1818 107.01 38.2481 106.815 38.3807C106.621 38.5114 106.473 38.6818 106.369 38.892C106.264 39.1023 106.212 39.3277 106.212 39.5682V39.9545C106.212 40.2841 106.269 40.5634 106.383 40.7926C106.498 41.0199 106.658 41.1932 106.863 41.3125C107.067 41.4299 107.305 41.4886 107.576 41.4886C107.752 41.4886 107.911 41.464 108.053 41.4148C108.197 41.3636 108.321 41.2879 108.425 41.1875C108.53 41.0852 108.61 40.9583 108.667 40.8068L109.315 40.9886C109.246 41.2083 109.132 41.4015 108.971 41.5682C108.81 41.733 108.611 41.8617 108.374 41.9545C108.138 42.0455 107.871 42.0909 107.576 42.0909Z" fill="black"/>
<path d="M12 299L67 354M12 299V354M12 299H67M67 354V299M67 354H12M67 299L12 354" stroke="black"/>
<path d="M12 238L67 293M12 238V293M12 238H67M67 293V238M67 293H12M67 238L12 293" stroke="black"/>
<path d="M12 177L67 232M12 177V232M12 177H67M67 232V177M67 232H12M67 177L12 232" stroke="black"/>
<path d="M74 299L129 354M74 299V354M74 299H129M129 354V299M129 354H74M129 299L74 354" stroke="black"/>
<path d="M74 238L129 293M74 238V293M74 238H129M129 293V238M129 293H74M129 238L74 293" stroke="black"/>
<path d="M74 177L129 232M74 177V232M74 177H129M129 232V177M129 232H74M129 177L74 232" stroke="black"/>
<path d="M133 299L188 354M133 299V354M133 299H188M188 354V299M188 354H133M188 299L133 354" stroke="black"/>
<path d="M133 238L188 293M133 238V293M133 238H188M188 293V238M188 293H133M188 238L133 293" stroke="black"/>
<path d="M133 177L188 232M133 177V232M133 177H188M188 232V177M188 232H133M188 177L133 232" stroke="black"/>
<rect x="12" y="164" width="177" height="2" fill="#D9D9D9"/>
<rect x="12" y="71" width="177" height="78" fill="#D9D9D9"/>
<path d="M65.5227 111.182H66.2273V115.034C66.2273 115.432 66.1335 115.787 65.946 116.099C65.7604 116.41 65.4981 116.655 65.1591 116.835C64.8201 117.013 64.4223 117.102 63.9659 117.102C63.5095 117.102 63.1117 117.013 62.7727 116.835C62.4337 116.655 62.1705 116.41 61.983 116.099C61.7973 115.787 61.7045 115.432 61.7045 115.034V111.182H62.4091V114.977C62.4091 115.261 62.4716 115.514 62.5966 115.736C62.7216 115.955 62.8996 116.129 63.1307 116.256C63.3636 116.381 63.642 116.443 63.9659 116.443C64.2898 116.443 64.5682 116.381 64.8011 116.256C65.0341 116.129 65.2121 115.955 65.3352 115.736C65.4602 115.514 65.5227 115.261 65.5227 114.977V111.182ZM70.6342 113.614L70.032 113.784C69.9941 113.684 69.9382 113.586 69.8643 113.491C69.7924 113.395 69.6939 113.315 69.5689 113.253C69.4439 113.19 69.2839 113.159 69.0888 113.159C68.8217 113.159 68.5992 113.221 68.4212 113.344C68.245 113.465 68.157 113.619 68.157 113.807C68.157 113.973 68.2176 114.105 68.3388 114.202C68.46 114.298 68.6494 114.379 68.907 114.443L69.5547 114.602C69.9448 114.697 70.2356 114.842 70.4268 115.037C70.6181 115.23 70.7138 115.479 70.7138 115.784C70.7138 116.034 70.6418 116.258 70.4979 116.455C70.3558 116.652 70.157 116.807 69.9013 116.92C69.6456 117.034 69.3482 117.091 69.0092 117.091C68.5642 117.091 68.1958 116.994 67.9041 116.801C67.6125 116.608 67.4278 116.326 67.3501 115.955L67.9865 115.795C68.0471 116.03 68.1617 116.206 68.3303 116.324C68.5007 116.441 68.7232 116.5 68.9979 116.5C69.3104 116.5 69.5585 116.434 69.7422 116.301C69.9278 116.167 70.0206 116.006 70.0206 115.818C70.0206 115.667 69.9676 115.54 69.8615 115.438C69.7554 115.333 69.5926 115.256 69.3729 115.205L68.6456 115.034C68.246 114.939 67.9524 114.793 67.7649 114.594C67.5793 114.393 67.4865 114.142 67.4865 113.841C67.4865 113.595 67.5556 113.377 67.6939 113.188C67.834 112.998 68.0244 112.849 68.2649 112.741C68.5073 112.634 68.782 112.58 69.0888 112.58C69.5206 112.58 69.8596 112.674 70.1058 112.864C70.3539 113.053 70.5301 113.303 70.6342 113.614ZM73.5526 117.091C73.1321 117.091 72.7694 116.998 72.4645 116.812C72.1615 116.625 71.9276 116.364 71.7628 116.028C71.5999 115.691 71.5185 115.299 71.5185 114.852C71.5185 114.405 71.5999 114.011 71.7628 113.67C71.9276 113.328 72.1567 113.061 72.4503 112.869C72.7457 112.676 73.0904 112.58 73.4844 112.58C73.7116 112.58 73.9361 112.617 74.1577 112.693C74.3793 112.769 74.581 112.892 74.7628 113.062C74.9446 113.231 75.0895 113.455 75.1974 113.733C75.3054 114.011 75.3594 114.354 75.3594 114.761V115.045H71.9957V114.466H74.6776C74.6776 114.22 74.6283 114 74.5298 113.807C74.4332 113.614 74.295 113.461 74.1151 113.349C73.937 113.238 73.7268 113.182 73.4844 113.182C73.2173 113.182 72.9863 113.248 72.7912 113.381C72.598 113.511 72.4493 113.682 72.3452 113.892C72.241 114.102 72.1889 114.328 72.1889 114.568V114.955C72.1889 115.284 72.2457 115.563 72.3594 115.793C72.4749 116.02 72.6349 116.193 72.8395 116.312C73.044 116.43 73.2817 116.489 73.5526 116.489C73.7287 116.489 73.8878 116.464 74.0298 116.415C74.1738 116.364 74.2978 116.288 74.402 116.188C74.5062 116.085 74.5866 115.958 74.6435 115.807L75.2912 115.989C75.223 116.208 75.1084 116.402 74.9474 116.568C74.7865 116.733 74.5876 116.862 74.3509 116.955C74.1141 117.045 73.848 117.091 73.5526 117.091ZM76.3793 117V112.636H77.027V113.295H77.0724C77.152 113.08 77.2959 112.904 77.5043 112.77C77.7126 112.635 77.9474 112.568 78.2088 112.568C78.258 112.568 78.3196 112.569 78.3935 112.571C78.4673 112.573 78.5232 112.576 78.5611 112.58V113.261C78.5384 113.256 78.4863 113.247 78.4048 113.236C78.3253 113.223 78.241 113.216 78.152 113.216C77.9399 113.216 77.7505 113.26 77.5838 113.349C77.419 113.437 77.2884 113.558 77.1918 113.713C77.0971 113.866 77.0497 114.042 77.0497 114.239V117H76.3793ZM81.6967 117V111.182H83.7308C84.1361 111.182 84.4704 111.252 84.7337 111.392C84.9969 111.53 85.1929 111.717 85.3217 111.952C85.4505 112.185 85.5149 112.443 85.5149 112.727C85.5149 112.977 85.4704 113.184 85.3814 113.347C85.2943 113.509 85.1787 113.638 85.0348 113.733C84.8928 113.828 84.7384 113.898 84.5717 113.943V114C84.7498 114.011 84.9287 114.074 85.1087 114.188C85.2886 114.301 85.4392 114.464 85.5604 114.676C85.6816 114.888 85.7422 115.148 85.7422 115.455C85.7422 115.746 85.6759 116.009 85.5433 116.241C85.4107 116.474 85.2015 116.659 84.9155 116.795C84.6295 116.932 84.2573 117 83.799 117H81.6967ZM82.4013 116.375H83.799C84.2592 116.375 84.5859 116.286 84.7791 116.108C84.9742 115.928 85.0717 115.71 85.0717 115.455C85.0717 115.258 85.0215 115.076 84.9212 114.909C84.8208 114.741 84.6778 114.606 84.4922 114.506C84.3066 114.403 84.0869 114.352 83.8331 114.352H82.4013V116.375ZM82.4013 113.739H83.7081C83.9202 113.739 84.1115 113.697 84.282 113.614C84.4543 113.53 84.5907 113.413 84.6911 113.261C84.7933 113.11 84.8445 112.932 84.8445 112.727C84.8445 112.472 84.7554 112.255 84.5774 112.077C84.3994 111.897 84.1172 111.807 83.7308 111.807H82.4013V113.739ZM88.093 117.102C87.8165 117.102 87.5656 117.05 87.3402 116.946C87.1148 116.84 86.9358 116.688 86.8033 116.489C86.6707 116.288 86.6044 116.045 86.6044 115.761C86.6044 115.511 86.6536 115.309 86.7521 115.153C86.8506 114.996 86.9822 114.873 87.147 114.784C87.3118 114.695 87.4936 114.629 87.6925 114.585C87.8932 114.54 88.0949 114.504 88.2976 114.477C88.5627 114.443 88.7777 114.418 88.9425 114.401C89.1091 114.382 89.2304 114.35 89.3061 114.307C89.3838 114.263 89.4226 114.187 89.4226 114.08V114.057C89.4226 113.777 89.3459 113.559 89.1925 113.403C89.041 113.248 88.8108 113.17 88.5021 113.17C88.1821 113.17 87.9311 113.241 87.7493 113.381C87.5675 113.521 87.4396 113.67 87.3658 113.83L86.7294 113.602C86.843 113.337 86.9946 113.131 87.1839 112.983C87.3752 112.833 87.5836 112.729 87.8089 112.67C88.0362 112.61 88.2597 112.58 88.4794 112.58C88.6196 112.58 88.7805 112.597 88.9624 112.631C89.1461 112.663 89.3232 112.73 89.4936 112.832C89.666 112.935 89.8089 113.089 89.9226 113.295C90.0362 113.502 90.093 113.778 90.093 114.125V117H89.4226V116.409H89.3885C89.343 116.504 89.2673 116.605 89.1612 116.713C89.0552 116.821 88.9141 116.913 88.7379 116.989C88.5618 117.064 88.3468 117.102 88.093 117.102ZM88.1953 116.5C88.4605 116.5 88.6839 116.448 88.8658 116.344C89.0495 116.24 89.1877 116.105 89.2805 115.94C89.3752 115.776 89.4226 115.602 89.4226 115.42V114.807C89.3942 114.841 89.3317 114.872 89.2351 114.901C89.1404 114.927 89.0305 114.951 88.9055 114.972C88.7824 114.991 88.6622 115.008 88.5447 115.023C88.4292 115.036 88.3355 115.047 88.2635 115.057C88.0893 115.08 87.9264 115.116 87.7749 115.168C87.6252 115.217 87.504 115.292 87.4112 115.392C87.3203 115.491 87.2749 115.625 87.2749 115.795C87.2749 116.028 87.361 116.205 87.5334 116.324C87.7076 116.441 87.9283 116.5 88.1953 116.5ZM94.4077 113.614L93.8054 113.784C93.7675 113.684 93.7116 113.586 93.6378 113.491C93.5658 113.395 93.4673 113.315 93.3423 113.253C93.2173 113.19 93.0573 113.159 92.8622 113.159C92.5952 113.159 92.3726 113.221 92.1946 113.344C92.0185 113.465 91.9304 113.619 91.9304 113.807C91.9304 113.973 91.991 114.105 92.1122 114.202C92.2334 114.298 92.4228 114.379 92.6804 114.443L93.3281 114.602C93.7183 114.697 94.009 114.842 94.2003 115.037C94.3916 115.23 94.4872 115.479 94.4872 115.784C94.4872 116.034 94.4152 116.258 94.2713 116.455C94.1293 116.652 93.9304 116.807 93.6747 116.92C93.419 117.034 93.1217 117.091 92.7827 117.091C92.3376 117.091 91.9692 116.994 91.6776 116.801C91.3859 116.608 91.2012 116.326 91.1236 115.955L91.7599 115.795C91.8205 116.03 91.9351 116.206 92.1037 116.324C92.2741 116.441 92.4967 116.5 92.7713 116.5C93.0838 116.5 93.3319 116.434 93.5156 116.301C93.7012 116.167 93.794 116.006 93.794 115.818C93.794 115.667 93.741 115.54 93.6349 115.438C93.5289 115.333 93.366 115.256 93.1463 115.205L92.419 115.034C92.0194 114.939 91.7259 114.793 91.5384 114.594C91.3527 114.393 91.2599 114.142 91.2599 113.841C91.2599 113.595 91.3291 113.377 91.4673 113.188C91.6075 112.998 91.7978 112.849 92.0384 112.741C92.2808 112.634 92.5554 112.58 92.8622 112.58C93.294 112.58 93.633 112.674 93.8793 112.864C94.1274 113.053 94.3035 113.303 94.4077 113.614ZM95.4964 117V112.636H96.1669V117H95.4964ZM95.8374 111.909C95.7067 111.909 95.594 111.865 95.4993 111.776C95.4065 111.687 95.3601 111.58 95.3601 111.455C95.3601 111.33 95.4065 111.223 95.4993 111.134C95.594 111.045 95.7067 111 95.8374 111C95.968 111 96.0798 111.045 96.1726 111.134C96.2673 111.223 96.3146 111.33 96.3146 111.455C96.3146 111.58 96.2673 111.687 96.1726 111.776C96.0798 111.865 95.968 111.909 95.8374 111.909ZM99.1676 117.091C98.7585 117.091 98.4063 116.994 98.1108 116.801C97.8153 116.608 97.5881 116.342 97.429 116.003C97.2699 115.664 97.1903 115.277 97.1903 114.841C97.1903 114.398 97.2718 114.007 97.4347 113.668C97.5994 113.327 97.8286 113.061 98.1222 112.869C98.4176 112.676 98.7623 112.58 99.1562 112.58C99.4631 112.58 99.7396 112.636 99.9858 112.75C100.232 112.864 100.434 113.023 100.591 113.227C100.748 113.432 100.846 113.67 100.884 113.943H100.213C100.162 113.744 100.048 113.568 99.8722 113.415C99.6979 113.259 99.4631 113.182 99.1676 113.182C98.9063 113.182 98.6771 113.25 98.4801 113.386C98.285 113.521 98.1326 113.711 98.0227 113.957C97.9148 114.202 97.8608 114.489 97.8608 114.818C97.8608 115.155 97.9138 115.449 98.0199 115.699C98.1278 115.949 98.2794 116.143 98.4744 116.281C98.6714 116.42 98.9025 116.489 99.1676 116.489C99.3419 116.489 99.5 116.458 99.642 116.398C99.7841 116.337 99.9044 116.25 100.003 116.136C100.101 116.023 100.171 115.886 100.213 115.727H100.884C100.846 115.985 100.752 116.217 100.602 116.423C100.455 116.628 100.259 116.791 100.014 116.912C99.7718 117.031 99.4896 117.091 99.1676 117.091ZM104.909 111.182V117H104.205V111.182H104.909ZM106.901 114.375V117H106.231V112.636H106.879V113.318H106.935C107.038 113.097 107.193 112.919 107.401 112.784C107.61 112.648 107.879 112.58 108.208 112.58C108.504 112.58 108.762 112.64 108.984 112.761C109.205 112.881 109.378 113.062 109.501 113.307C109.624 113.549 109.685 113.856 109.685 114.227V117H109.015V114.273C109.015 113.93 108.926 113.663 108.748 113.472C108.57 113.278 108.326 113.182 108.015 113.182C107.801 113.182 107.61 113.228 107.441 113.321C107.274 113.414 107.143 113.549 107.046 113.727C106.95 113.905 106.901 114.121 106.901 114.375ZM112.854 112.636V113.205H110.501V112.636H112.854ZM111.206 117V112.034C111.206 111.784 111.265 111.576 111.382 111.409C111.5 111.242 111.652 111.117 111.839 111.034C112.027 110.951 112.225 110.909 112.433 110.909C112.598 110.909 112.732 110.922 112.837 110.949C112.941 110.975 113.018 111 113.07 111.023L112.876 111.602C112.842 111.591 112.795 111.577 112.734 111.56C112.676 111.543 112.598 111.534 112.501 111.534C112.28 111.534 112.12 111.59 112.021 111.702C111.925 111.813 111.876 111.977 111.876 112.193V117H111.206ZM115.386 117.091C114.992 117.091 114.647 116.997 114.349 116.81C114.054 116.622 113.823 116.36 113.656 116.023C113.491 115.686 113.409 115.292 113.409 114.841C113.409 114.386 113.491 113.99 113.656 113.651C113.823 113.312 114.054 113.048 114.349 112.861C114.647 112.673 114.992 112.58 115.386 112.58C115.78 112.58 116.125 112.673 116.42 112.861C116.718 113.048 116.949 113.312 117.114 113.651C117.28 113.99 117.364 114.386 117.364 114.841C117.364 115.292 117.28 115.686 117.114 116.023C116.949 116.36 116.718 116.622 116.42 116.81C116.125 116.997 115.78 117.091 115.386 117.091ZM115.386 116.489C115.686 116.489 115.932 116.412 116.125 116.259C116.318 116.105 116.461 115.903 116.554 115.653C116.647 115.403 116.693 115.133 116.693 114.841C116.693 114.549 116.647 114.277 116.554 114.026C116.461 113.774 116.318 113.57 116.125 113.415C115.932 113.259 115.686 113.182 115.386 113.182C115.087 113.182 114.841 113.259 114.648 113.415C114.455 113.57 114.312 113.774 114.219 114.026C114.126 114.277 114.08 114.549 114.08 114.841C114.08 115.133 114.126 115.403 114.219 115.653C114.312 115.903 114.455 116.105 114.648 116.259C114.841 116.412 115.087 116.489 115.386 116.489ZM118.387 117V112.636H119.035V113.295H119.08C119.16 113.08 119.304 112.904 119.512 112.77C119.72 112.635 119.955 112.568 120.217 112.568C120.266 112.568 120.327 112.569 120.401 112.571C120.475 112.573 120.531 112.576 120.569 112.58V113.261C120.546 113.256 120.494 113.247 120.413 113.236C120.333 113.223 120.249 113.216 120.16 113.216C119.948 113.216 119.758 113.26 119.592 113.349C119.427 113.437 119.296 113.558 119.2 113.713C119.105 113.866 119.058 114.042 119.058 114.239V117H118.387ZM121.364 117V112.636H122.011V113.318H122.068C122.159 113.085 122.306 112.904 122.509 112.776C122.711 112.645 122.955 112.58 123.239 112.58C123.527 112.58 123.766 112.645 123.957 112.776C124.151 112.904 124.301 113.085 124.409 113.318H124.455C124.566 113.093 124.734 112.914 124.957 112.781C125.181 112.647 125.449 112.58 125.761 112.58C126.152 112.58 126.471 112.702 126.719 112.946C126.967 113.188 127.091 113.566 127.091 114.08V117H126.42V114.08C126.42 113.758 126.332 113.527 126.156 113.389C125.98 113.251 125.773 113.182 125.534 113.182C125.227 113.182 124.99 113.275 124.821 113.46C124.652 113.644 124.568 113.877 124.568 114.159V117H123.886V114.011C123.886 113.763 123.806 113.563 123.645 113.412C123.484 113.259 123.277 113.182 123.023 113.182C122.848 113.182 122.686 113.228 122.534 113.321C122.384 113.414 122.263 113.543 122.17 113.707C122.08 113.87 122.034 114.059 122.034 114.273V117H121.364ZM129.601 117.102C129.324 117.102 129.073 117.05 128.848 116.946C128.623 116.84 128.444 116.688 128.311 116.489C128.179 116.288 128.112 116.045 128.112 115.761C128.112 115.511 128.161 115.309 128.26 115.153C128.358 114.996 128.49 114.873 128.655 114.784C128.82 114.695 129.001 114.629 129.2 114.585C129.401 114.54 129.603 114.504 129.805 114.477C130.071 114.443 130.286 114.418 130.45 114.401C130.617 114.382 130.738 114.35 130.814 114.307C130.892 114.263 130.93 114.187 130.93 114.08V114.057C130.93 113.777 130.854 113.559 130.7 113.403C130.549 113.248 130.319 113.17 130.01 113.17C129.69 113.17 129.439 113.241 129.257 113.381C129.075 113.521 128.947 113.67 128.874 113.83L128.237 113.602C128.351 113.337 128.502 113.131 128.692 112.983C128.883 112.833 129.091 112.729 129.317 112.67C129.544 112.61 129.768 112.58 129.987 112.58C130.127 112.58 130.288 112.597 130.47 112.631C130.654 112.663 130.831 112.73 131.001 112.832C131.174 112.935 131.317 113.089 131.43 113.295C131.544 113.502 131.601 113.778 131.601 114.125V117H130.93V116.409H130.896C130.851 116.504 130.775 116.605 130.669 116.713C130.563 116.821 130.422 116.913 130.246 116.989C130.07 117.064 129.855 117.102 129.601 117.102ZM129.703 116.5C129.968 116.5 130.192 116.448 130.374 116.344C130.557 116.24 130.696 116.105 130.788 115.94C130.883 115.776 130.93 115.602 130.93 115.42V114.807C130.902 114.841 130.839 114.872 130.743 114.901C130.648 114.927 130.538 114.951 130.413 114.972C130.29 114.991 130.17 115.008 130.053 115.023C129.937 115.036 129.843 115.047 129.771 115.057C129.597 115.08 129.434 115.116 129.283 115.168C129.133 115.217 129.012 115.292 128.919 115.392C128.828 115.491 128.783 115.625 128.783 115.795C128.783 116.028 128.869 116.205 129.041 116.324C129.215 116.441 129.436 116.5 129.703 116.5ZM134.722 112.636V113.205H132.461V112.636H134.722ZM133.12 111.591H133.79V115.75C133.79 115.939 133.818 116.081 133.873 116.176C133.93 116.269 134.002 116.331 134.089 116.364C134.178 116.394 134.272 116.409 134.37 116.409C134.444 116.409 134.504 116.405 134.552 116.398C134.599 116.388 134.637 116.381 134.665 116.375L134.802 116.977C134.756 116.994 134.693 117.011 134.612 117.028C134.53 117.047 134.427 117.057 134.302 117.057C134.112 117.057 133.927 117.016 133.745 116.935C133.565 116.853 133.415 116.729 133.296 116.562C133.179 116.396 133.12 116.186 133.12 115.932V111.591ZM135.731 117V112.636H136.401V117H135.731ZM136.072 111.909C135.941 111.909 135.828 111.865 135.734 111.776C135.641 111.687 135.594 111.58 135.594 111.455C135.594 111.33 135.641 111.223 135.734 111.134C135.828 111.045 135.941 111 136.072 111C136.202 111 136.314 111.045 136.407 111.134C136.502 111.223 136.549 111.33 136.549 111.455C136.549 111.58 136.502 111.687 136.407 111.776C136.314 111.865 136.202 111.909 136.072 111.909ZM139.402 117.091C139.008 117.091 138.662 116.997 138.365 116.81C138.07 116.622 137.839 116.36 137.672 116.023C137.507 115.686 137.425 115.292 137.425 114.841C137.425 114.386 137.507 113.99 137.672 113.651C137.839 113.312 138.07 113.048 138.365 112.861C138.662 112.673 139.008 112.58 139.402 112.58C139.796 112.58 140.141 112.673 140.436 112.861C140.733 113.048 140.964 113.312 141.129 113.651C141.296 113.99 141.379 114.386 141.379 114.841C141.379 115.292 141.296 115.686 141.129 116.023C140.964 116.36 140.733 116.622 140.436 116.81C140.141 116.997 139.796 117.091 139.402 117.091ZM139.402 116.489C139.701 116.489 139.947 116.412 140.141 116.259C140.334 116.105 140.477 115.903 140.57 115.653C140.662 115.403 140.709 115.133 140.709 114.841C140.709 114.549 140.662 114.277 140.57 114.026C140.477 113.774 140.334 113.57 140.141 113.415C139.947 113.259 139.701 113.182 139.402 113.182C139.103 113.182 138.857 113.259 138.663 113.415C138.47 113.57 138.327 113.774 138.234 114.026C138.142 114.277 138.095 114.549 138.095 114.841C138.095 115.133 138.142 115.403 138.234 115.653C138.327 115.903 138.47 116.105 138.663 116.259C138.857 116.412 139.103 116.489 139.402 116.489ZM143.073 114.375V117H142.403V112.636H143.05V113.318H143.107C143.21 113.097 143.365 112.919 143.573 112.784C143.781 112.648 144.05 112.58 144.38 112.58C144.675 112.58 144.934 112.64 145.156 112.761C145.377 112.881 145.549 113.062 145.673 113.307C145.796 113.549 145.857 113.856 145.857 114.227V117H145.187V114.273C145.187 113.93 145.098 113.663 144.92 113.472C144.742 113.278 144.497 113.182 144.187 113.182C143.973 113.182 143.781 113.228 143.613 113.321C143.446 113.414 143.315 113.549 143.218 113.727C143.121 113.905 143.073 114.121 143.073 114.375Z" fill="black"/>
</svg>
