<svg width="202" height="431" viewBox="0 0 202 431" fill="none" xmlns="http://www.w3.org/2000/svg">
<rect width="202" height="431" fill="white"/>
<rect x="9.39532" y="116.392" width="42.2791" height="12.6893" fill="#E3E3E3"/>
<rect x="9.39532" y="205.217" width="42.2791" height="12.6893" fill="#E3E3E3"/>
<rect x="9.39532" y="273.915" width="42.2791" height="12.6893" fill="#E3E3E3"/>
<rect x="9.39532" y="368.428" width="42.2791" height="12.6893" fill="#E3E3E3"/>
<rect x="56.3721" y="116.392" width="42.2791" height="12.6893" fill="#E3E3E3"/>
<rect x="56.3721" y="205.217" width="42.2791" height="12.6893" fill="#E3E3E3"/>
<rect x="56.3721" y="273.915" width="42.2791" height="12.6893" fill="#E3E3E3"/>
<rect x="56.3721" y="368.428" width="42.2791" height="12.6893" fill="#E3E3E3"/>
<rect x="103.349" y="116.392" width="42.2791" height="12.6893" fill="#E3E3E3"/>
<rect x="103.349" y="205.217" width="42.2791" height="12.6893" fill="#E3E3E3"/>
<rect x="103.349" y="273.915" width="42.2791" height="12.6893" fill="#E3E3E3"/>
<rect x="103.349" y="368.428" width="42.2791" height="12.6893" fill="#E3E3E3"/>
<rect x="150.326" y="116.392" width="42.2791" height="12.6893" fill="#E3E3E3"/>
<rect x="150.326" y="205.217" width="42.2791" height="12.6893" fill="#E3E3E3"/>
<rect x="150.326" y="273.915" width="42.2791" height="12.6893" fill="#E3E3E3"/>
<rect x="150.326" y="368.428" width="42.2791" height="12.6893" fill="#E3E3E3"/>
<rect y="364.49" width="202" height="66.5096" fill="#D9D9D9"/>
<path d="M9.39532 157.523L51.6744 196.904M9.39532 157.523V196.904M9.39532 157.523H51.6744M51.6744 196.904V157.523M51.6744 196.904H9.39532M51.6744 157.523L9.39532 196.904" stroke="black"/>
<path d="M9.39532 226.221L51.6744 265.601M9.39532 226.221V265.601M9.39532 226.221H51.6744M51.6744 265.601V226.221M51.6744 265.601H9.39532M51.6744 226.221L9.39532 265.601" stroke="black"/>
<path d="M9.39532 320.734L51.6744 360.115M9.39532 320.734V360.115M9.39532 320.734H51.6744M51.6744 360.115V320.734M51.6744 360.115H9.39532M51.6744 320.734L9.39532 360.115" stroke="black"/>
<rect x="3.75806" y="381.118" width="35.2326" height="32.8173" fill="#656565"/>
<rect x="43.6885" y="381.118" width="35.2326" height="32.8173" fill="white"/>
<rect x="83.6186" y="381.118" width="35.2326" height="32.8173" fill="white"/>
<rect x="123.549" y="381.118" width="35.2326" height="32.8173" fill="white"/>
<rect x="163.479" y="381.118" width="35.2326" height="32.8173" fill="white"/>
<path d="M56.3721 157.523L98.6511 196.904M56.3721 157.523V196.904M56.3721 157.523H98.6511M98.6511 196.904V157.523M98.6511 196.904H56.3721M98.6511 157.523L56.3721 196.904" stroke="black"/>
<path d="M56.3721 226.221L98.6511 265.601M56.3721 226.221V265.601M56.3721 226.221H98.6511M98.6511 265.601V226.221M98.6511 265.601H56.3721M98.6511 226.221L56.3721 265.601" stroke="black"/>
<path d="M56.3721 320.734L98.6511 360.115M56.3721 320.734V360.115M56.3721 320.734H98.6511M98.6511 360.115V320.734M98.6511 360.115H56.3721M98.6511 320.734L56.3721 360.115" stroke="black"/>
<path d="M103.349 157.523L145.628 196.904M103.349 157.523V196.904M103.349 157.523H145.628M145.628 196.904V157.523M145.628 196.904H103.349M145.628 157.523L103.349 196.904" stroke="black"/>
<path d="M103.349 226.221L145.628 265.601M103.349 226.221V265.601M103.349 226.221H145.628M145.628 265.601V226.221M145.628 265.601H103.349M145.628 226.221L103.349 265.601" stroke="black"/>
<path d="M103.349 320.734L145.628 360.115M103.349 320.734V360.115M103.349 320.734H145.628M145.628 360.115V320.734M145.628 360.115H103.349M145.628 320.734L103.349 360.115" stroke="black"/>
<path d="M9.39539 68.6978L51.6745 108.078M9.39539 68.6978V108.078M9.39539 68.6978H51.6745M51.6745 108.078V68.6978M51.6745 108.078H9.39539M51.6745 68.6978L9.39539 108.078" stroke="black"/>
<path d="M56.3721 68.6978L98.6511 108.078M56.3721 68.6978V108.078M56.3721 68.6978H98.6511M98.6511 108.078V68.6978M98.6511 108.078H56.3721M98.6511 68.6978L56.3721 108.078" stroke="black"/>
<path d="M103.349 68.6978L145.628 108.078M103.349 68.6978V108.078M103.349 68.6978H145.628M145.628 108.078V68.6978M145.628 108.078H103.349M145.628 68.6978L103.349 108.078" stroke="black"/>
<path d="M150.326 68.6978L192.605 108.078M150.326 68.6978V108.078M150.326 68.6978H192.605M192.605 108.078V68.6978M192.605 108.078H150.326M192.605 68.6978L150.326 108.078" stroke="black"/>
<path d="M150.326 157.523L192.605 196.904M150.326 157.523V196.904M150.326 157.523H192.605M192.605 196.904V157.523M192.605 196.904H150.326M192.605 157.523L150.326 196.904" stroke="black"/>
<path d="M150.326 226.221L192.605 265.601M150.326 226.221V265.601M150.326 226.221H192.605M192.605 265.601V226.221M192.605 265.601H150.326M192.605 226.221L150.326 265.601" stroke="black"/>
<path d="M150.326 320.734L192.605 360.115M150.326 320.734V360.115M150.326 320.734H192.605M192.605 360.115V320.734M192.605 360.115H150.326M192.605 320.734L150.326 360.115" stroke="black"/>
<rect x="9.39532" y="14.8774" width="157.372" height="16.6274" fill="#D9D9D9"/>
<rect x="9.39532" y="37.6309" width="42.7488" height="7.87614" fill="#D9D9D9"/>
<rect x="56.3721" y="37.6309" width="42.7488" height="7.87614" fill="#656565"/>
<rect x="102.409" y="37.6309" width="42.7488" height="7.87614" fill="#D9D9D9"/>
<rect x="149.386" y="37.6309" width="42.7488" height="7.87614" fill="#D9D9D9"/>
<path d="M19.8864 23.6364C19.8523 23.3485 19.714 23.125 19.4716 22.9659C19.2292 22.8068 18.9318 22.7273 18.5795 22.7273C18.322 22.7273 18.0966 22.7689 17.9034 22.8523C17.7121 22.9356 17.5625 23.0502 17.4545 23.196C17.3485 23.3419 17.2955 23.5076 17.2955 23.6932C17.2955 23.8485 17.3324 23.982 17.4062 24.0938C17.482 24.2036 17.5786 24.2955 17.696 24.3693C17.8134 24.4413 17.9366 24.5009 18.0653 24.5483C18.1941 24.5937 18.3125 24.6307 18.4205 24.6591L19.0114 24.8182C19.1629 24.858 19.3314 24.9129 19.517 24.983C19.7045 25.053 19.8835 25.1487 20.054 25.2699C20.2263 25.3892 20.3684 25.5426 20.4801 25.7301C20.5919 25.9176 20.6477 26.1477 20.6477 26.4205C20.6477 26.7348 20.5653 27.0189 20.4006 27.2727C20.2377 27.5265 19.9991 27.7282 19.6847 27.8778C19.3722 28.0275 18.9924 28.1023 18.5455 28.1023C18.1288 28.1023 17.768 28.035 17.4631 27.9006C17.16 27.7661 16.9214 27.5786 16.7472 27.3381C16.5748 27.0975 16.4773 26.8182 16.4545 26.5H17.1818C17.2008 26.7197 17.2746 26.9015 17.4034 27.0455C17.5341 27.1875 17.6989 27.2936 17.8977 27.3636C18.0985 27.4318 18.3144 27.4659 18.5455 27.4659C18.8144 27.4659 19.0559 27.4223 19.2699 27.3352C19.4839 27.2462 19.6534 27.1231 19.7784 26.9659C19.9034 26.8068 19.9659 26.6212 19.9659 26.4091C19.9659 26.2159 19.9119 26.0587 19.804 25.9375C19.696 25.8163 19.554 25.7178 19.3778 25.642C19.2017 25.5663 19.0114 25.5 18.8068 25.4432L18.0909 25.2386C17.6364 25.108 17.2765 24.9214 17.0114 24.679C16.7462 24.4366 16.6136 24.1193 16.6136 23.7273C16.6136 23.4015 16.7017 23.1174 16.8778 22.875C17.0559 22.6307 17.2945 22.4413 17.5938 22.3068C17.8949 22.1705 18.2311 22.1023 18.6023 22.1023C18.9773 22.1023 19.3106 22.1695 19.6023 22.304C19.8939 22.4366 20.125 22.6184 20.2955 22.8494C20.4678 23.0805 20.5587 23.3428 20.5682 23.6364H19.8864ZM23.5447 28.0909C23.1243 28.0909 22.7616 27.9981 22.4567 27.8125C22.1536 27.625 21.9197 27.3636 21.755 27.0284C21.5921 26.6913 21.5107 26.2992 21.5107 25.8523C21.5107 25.4053 21.5921 25.0114 21.755 24.6705C21.9197 24.3277 22.1489 24.0606 22.4425 23.8693C22.7379 23.6761 23.0826 23.5795 23.4766 23.5795C23.7038 23.5795 23.9283 23.6174 24.1499 23.6932C24.3714 23.7689 24.5732 23.892 24.755 24.0625C24.9368 24.2311 25.0817 24.4545 25.1896 24.733C25.2976 25.0114 25.3516 25.3542 25.3516 25.7614V26.0455H21.9879V25.4659H24.6697C24.6697 25.2197 24.6205 25 24.522 24.8068C24.4254 24.6136 24.2872 24.4612 24.1072 24.3494C23.9292 24.2377 23.719 24.1818 23.4766 24.1818C23.2095 24.1818 22.9785 24.2481 22.7834 24.3807C22.5902 24.5114 22.4415 24.6818 22.3374 24.892C22.2332 25.1023 22.1811 25.3277 22.1811 25.5682V25.9545C22.1811 26.2841 22.2379 26.5634 22.3516 26.7926C22.4671 27.0199 22.6271 27.1932 22.8317 27.3125C23.0362 27.4299 23.2739 27.4886 23.5447 27.4886C23.7209 27.4886 23.88 27.464 24.022 27.4148C24.166 27.3636 24.29 27.2879 24.3942 27.1875C24.4983 27.0852 24.5788 26.9583 24.6357 26.8068L25.2834 26.9886C25.2152 27.2083 25.1006 27.4015 24.9396 27.5682C24.7786 27.733 24.5798 27.8617 24.343 27.9545C24.1063 28.0455 23.8402 28.0909 23.5447 28.0909ZM27.6555 28.1023C27.379 28.1023 27.1281 28.0502 26.9027 27.946C26.6773 27.84 26.4983 27.6875 26.3658 27.4886C26.2332 27.2879 26.1669 27.0455 26.1669 26.7614C26.1669 26.5114 26.2161 26.3087 26.3146 26.1534C26.4131 25.9962 26.5447 25.8731 26.7095 25.7841C26.8743 25.6951 27.0561 25.6288 27.255 25.5852C27.4557 25.5398 27.6574 25.5038 27.8601 25.4773C28.1252 25.4432 28.3402 25.4176 28.505 25.4006C28.6716 25.3816 28.7929 25.3504 28.8686 25.3068C28.9463 25.2633 28.9851 25.1875 28.9851 25.0795V25.0568C28.9851 24.7765 28.9084 24.5587 28.755 24.4034C28.6035 24.2481 28.3733 24.1705 28.0646 24.1705C27.7446 24.1705 27.4936 24.2405 27.3118 24.3807C27.13 24.5208 27.0021 24.6705 26.9283 24.8295L26.2919 24.6023C26.4055 24.3371 26.5571 24.1307 26.7464 23.983C26.9377 23.8333 27.1461 23.7292 27.3714 23.6705C27.5987 23.6098 27.8222 23.5795 28.0419 23.5795C28.1821 23.5795 28.343 23.5966 28.5249 23.6307C28.7086 23.6629 28.8857 23.7301 29.0561 23.8324C29.2285 23.9347 29.3714 24.089 29.4851 24.2955C29.5987 24.5019 29.6555 24.7784 29.6555 25.125V28H28.9851V27.4091H28.951C28.9055 27.5038 28.8298 27.6051 28.7237 27.7131C28.6177 27.821 28.4766 27.9129 28.3004 27.9886C28.1243 28.0644 27.9093 28.1023 27.6555 28.1023ZM27.7578 27.5C28.023 27.5 28.2464 27.4479 28.4283 27.3438C28.612 27.2396 28.7502 27.1051 28.843 26.9403C28.9377 26.7756 28.9851 26.6023 28.9851 26.4205V25.8068C28.9567 25.8409 28.8942 25.8722 28.7976 25.9006C28.7029 25.9271 28.593 25.9508 28.468 25.9716C28.3449 25.9905 28.2247 26.0076 28.1072 26.0227C27.9917 26.036 27.898 26.0473 27.826 26.0568C27.6518 26.0795 27.4889 26.1165 27.3374 26.1676C27.1877 26.2169 27.0665 26.2917 26.9737 26.392C26.8828 26.4905 26.8374 26.625 26.8374 26.7955C26.8374 27.0284 26.9235 27.2045 27.0959 27.3239C27.2701 27.4413 27.4908 27.5 27.7578 27.5ZM30.8793 28V23.6364H31.527V24.2955H31.5724C31.652 24.0795 31.7959 23.9044 32.0043 23.7699C32.2126 23.6354 32.4474 23.5682 32.7088 23.5682C32.758 23.5682 32.8196 23.5691 32.8935 23.571C32.9673 23.5729 33.0232 23.5758 33.0611 23.5795V24.2614C33.0384 24.2557 32.9863 24.2472 32.9048 24.2358C32.8253 24.2225 32.741 24.2159 32.652 24.2159C32.4399 24.2159 32.2505 24.2604 32.0838 24.3494C31.919 24.4366 31.7884 24.5578 31.6918 24.7131C31.5971 24.8665 31.5497 25.0417 31.5497 25.2386V28H30.8793ZM35.4957 28.0909C35.0866 28.0909 34.7344 27.9943 34.4389 27.8011C34.1435 27.608 33.9162 27.3419 33.7571 27.0028C33.598 26.6638 33.5185 26.2765 33.5185 25.8409C33.5185 25.3977 33.5999 25.0066 33.7628 24.6676C33.9276 24.3267 34.1567 24.0606 34.4503 23.8693C34.7457 23.6761 35.0904 23.5795 35.4844 23.5795C35.7912 23.5795 36.0677 23.6364 36.3139 23.75C36.5601 23.8636 36.7618 24.0227 36.919 24.2273C37.0762 24.4318 37.1738 24.6705 37.2116 24.9432H36.5412C36.4901 24.7443 36.3764 24.5682 36.2003 24.4148C36.026 24.2595 35.7912 24.1818 35.4957 24.1818C35.2344 24.1818 35.0052 24.25 34.8082 24.3864C34.6132 24.5208 34.4607 24.7112 34.3509 24.9574C34.2429 25.2017 34.1889 25.4886 34.1889 25.8182C34.1889 26.1553 34.242 26.4489 34.348 26.6989C34.456 26.9489 34.6075 27.143 34.8026 27.2812C34.9995 27.4195 35.2306 27.4886 35.4957 27.4886C35.67 27.4886 35.8281 27.4583 35.9702 27.3977C36.1122 27.3371 36.2325 27.25 36.331 27.1364C36.4295 27.0227 36.4995 26.8864 36.5412 26.7273H37.2116C37.1738 26.9848 37.08 27.2169 36.9304 27.4233C36.7827 27.6278 36.5866 27.7907 36.3423 27.9119C36.0999 28.0312 35.8177 28.0909 35.4957 28.0909ZM38.8622 25.375V28H38.1918V22.1818H38.8622V24.3182H38.919C39.0213 24.0928 39.1747 23.9138 39.3793 23.7812C39.5857 23.6468 39.8603 23.5795 40.2031 23.5795C40.5005 23.5795 40.7609 23.6392 40.9844 23.7585C41.2079 23.8759 41.3812 24.0568 41.5043 24.3011C41.6293 24.5436 41.6918 24.8523 41.6918 25.2273V28H41.0213V25.2727C41.0213 24.9261 40.9313 24.6581 40.7514 24.4688C40.5734 24.2775 40.3262 24.1818 40.0099 24.1818C39.7902 24.1818 39.5933 24.2282 39.419 24.321C39.2467 24.4138 39.1103 24.5492 39.0099 24.7273C38.9115 24.9053 38.8622 25.1212 38.8622 25.375ZM45.2592 28V22.1818H47.2933C47.6986 22.1818 48.0329 22.2519 48.2962 22.392C48.5594 22.5303 48.7554 22.7169 48.8842 22.9517C49.013 23.1847 49.0774 23.4432 49.0774 23.7273C49.0774 23.9773 49.0329 24.1837 48.9439 24.3466C48.8568 24.5095 48.7412 24.6383 48.5973 24.733C48.4553 24.8277 48.3009 24.8977 48.1342 24.9432V25C48.3123 25.0114 48.4912 25.0739 48.6712 25.1875C48.8511 25.3011 49.0017 25.464 49.1229 25.6761C49.2441 25.8883 49.3047 26.1477 49.3047 26.4545C49.3047 26.7462 49.2384 27.0085 49.1058 27.2415C48.9732 27.4744 48.764 27.6591 48.478 27.7955C48.192 27.9318 47.8198 28 47.3615 28H45.2592ZM45.9638 27.375H47.3615C47.8217 27.375 48.1484 27.286 48.3416 27.108C48.5367 26.928 48.6342 26.7102 48.6342 26.4545C48.6342 26.2576 48.584 26.0758 48.4837 25.9091C48.3833 25.7405 48.2403 25.6061 48.0547 25.5057C47.8691 25.4034 47.6494 25.3523 47.3956 25.3523H45.9638V27.375ZM45.9638 24.7386H47.2706C47.4827 24.7386 47.674 24.697 47.8445 24.6136C48.0168 24.5303 48.1532 24.4129 48.2536 24.2614C48.3558 24.1098 48.407 23.9318 48.407 23.7273C48.407 23.4716 48.3179 23.2547 48.1399 23.0767C47.9619 22.8968 47.6797 22.8068 47.2933 22.8068H45.9638V24.7386ZM51.6555 28.1023C51.379 28.1023 51.1281 28.0502 50.9027 27.946C50.6773 27.84 50.4983 27.6875 50.3658 27.4886C50.2332 27.2879 50.1669 27.0455 50.1669 26.7614C50.1669 26.5114 50.2161 26.3087 50.3146 26.1534C50.4131 25.9962 50.5447 25.8731 50.7095 25.7841C50.8743 25.6951 51.0561 25.6288 51.255 25.5852C51.4557 25.5398 51.6574 25.5038 51.8601 25.4773C52.1252 25.4432 52.3402 25.4176 52.505 25.4006C52.6716 25.3816 52.7929 25.3504 52.8686 25.3068C52.9463 25.2633 52.9851 25.1875 52.9851 25.0795V25.0568C52.9851 24.7765 52.9084 24.5587 52.755 24.4034C52.6035 24.2481 52.3733 24.1705 52.0646 24.1705C51.7446 24.1705 51.4936 24.2405 51.3118 24.3807C51.13 24.5208 51.0021 24.6705 50.9283 24.8295L50.2919 24.6023C50.4055 24.3371 50.5571 24.1307 50.7464 23.983C50.9377 23.8333 51.1461 23.7292 51.3714 23.6705C51.5987 23.6098 51.8222 23.5795 52.0419 23.5795C52.1821 23.5795 52.343 23.5966 52.5249 23.6307C52.7086 23.6629 52.8857 23.7301 53.0561 23.8324C53.2285 23.9347 53.3714 24.089 53.4851 24.2955C53.5987 24.5019 53.6555 24.7784 53.6555 25.125V28H52.9851V27.4091H52.951C52.9055 27.5038 52.8298 27.6051 52.7237 27.7131C52.6177 27.821 52.4766 27.9129 52.3004 27.9886C52.1243 28.0644 51.9093 28.1023 51.6555 28.1023ZM51.7578 27.5C52.023 27.5 52.2464 27.4479 52.4283 27.3438C52.612 27.2396 52.7502 27.1051 52.843 26.9403C52.9377 26.7756 52.9851 26.6023 52.9851 26.4205V25.8068C52.9567 25.8409 52.8942 25.8722 52.7976 25.9006C52.7029 25.9271 52.593 25.9508 52.468 25.9716C52.3449 25.9905 52.2247 26.0076 52.1072 26.0227C51.9917 26.036 51.898 26.0473 51.826 26.0568C51.6518 26.0795 51.4889 26.1165 51.3374 26.1676C51.1877 26.2169 51.0665 26.2917 50.9737 26.392C50.8828 26.4905 50.8374 26.625 50.8374 26.7955C50.8374 27.0284 50.9235 27.2045 51.0959 27.3239C51.2701 27.4413 51.4908 27.5 51.7578 27.5ZM54.8793 28V23.6364H55.527V24.2955H55.5724C55.652 24.0795 55.7959 23.9044 56.0043 23.7699C56.2126 23.6354 56.4474 23.5682 56.7088 23.5682C56.758 23.5682 56.8196 23.5691 56.8935 23.571C56.9673 23.5729 57.0232 23.5758 57.0611 23.5795V24.2614C57.0384 24.2557 56.9863 24.2472 56.9048 24.2358C56.8253 24.2225 56.741 24.2159 56.652 24.2159C56.4399 24.2159 56.2505 24.2604 56.0838 24.3494C55.919 24.4366 55.7884 24.5578 55.6918 24.7131C55.5971 24.8665 55.5497 25.0417 55.5497 25.2386V28H54.8793Z" fill="black"/>
<rect x="174.284" y="14.8774" width="17.8512" height="16.6274" fill="#D9D9D9"/>
<path d="M9.40419 56.5641V55.9391H13.7678V56.5641H11.9383V61.7573H11.2337V56.5641H9.40419ZM14.7643 61.7573V57.3937H15.4347V61.7573H14.7643ZM15.1052 56.6664C14.9745 56.6664 14.8618 56.6219 14.7671 56.5329C14.6743 56.4439 14.6279 56.3369 14.6279 56.2119C14.6279 56.0869 14.6743 55.9799 14.7671 55.8908C14.8618 55.8018 14.9745 55.7573 15.1052 55.7573C15.2359 55.7573 15.3476 55.8018 15.4404 55.8908C15.5351 55.9799 15.5825 56.0869 15.5825 56.2119C15.5825 56.3369 15.5351 56.4439 15.4404 56.5329C15.3476 56.6219 15.2359 56.6664 15.1052 56.6664ZM18.5604 57.3937V57.9619H16.2991V57.3937H18.5604ZM16.9582 56.3482H17.6286V60.5073C17.6286 60.6967 17.6561 60.8388 17.711 60.9335C17.7678 61.0263 17.8398 61.0888 17.9269 61.121C18.0159 61.1513 18.1097 61.1664 18.2082 61.1664C18.282 61.1664 18.3426 61.1626 18.39 61.1551C18.4373 61.1456 18.4752 61.138 18.5036 61.1323L18.64 61.7346C18.5945 61.7516 18.5311 61.7687 18.4496 61.7857C18.3682 61.8047 18.265 61.8141 18.14 61.8141C17.9506 61.8141 17.765 61.7734 17.5832 61.692C17.4032 61.6105 17.2536 61.4865 17.1343 61.3198C17.0169 61.1532 16.9582 60.9429 16.9582 60.6891V56.3482ZM20.3332 55.9391V61.7573H19.6627V55.9391H20.3332ZM23.3907 61.8482C22.9702 61.8482 22.6075 61.7554 22.3026 61.5698C21.9996 61.3823 21.7657 61.121 21.6009 60.7857C21.438 60.4486 21.3566 60.0566 21.3566 59.6096C21.3566 59.1626 21.438 58.7687 21.6009 58.4278C21.7657 58.085 21.9949 57.8179 22.2884 57.6266C22.5839 57.4335 22.9286 57.3369 23.3225 57.3369C23.5498 57.3369 23.7742 57.3747 23.9958 57.4505C24.2174 57.5263 24.4191 57.6494 24.6009 57.8198C24.7827 57.9884 24.9276 58.2119 25.0356 58.4903C25.1435 58.7687 25.1975 59.1115 25.1975 59.5187V59.8028H21.8339V59.2232H24.5157C24.5157 58.977 24.4664 58.7573 24.368 58.5641C24.2714 58.371 24.1331 58.2185 23.9532 58.1068C23.7752 57.995 23.5649 57.9391 23.3225 57.9391C23.0555 57.9391 22.8244 58.0054 22.6293 58.138C22.4361 58.2687 22.2875 58.4391 22.1833 58.6494C22.0791 58.8596 22.0271 59.085 22.0271 59.3255V59.7119C22.0271 60.0414 22.0839 60.3208 22.1975 60.5499C22.313 60.7772 22.4731 60.9505 22.6776 61.0698C22.8822 61.1872 23.1199 61.246 23.3907 61.246C23.5668 61.246 23.7259 61.2213 23.868 61.1721C24.0119 61.121 24.136 61.0452 24.2401 60.9448C24.3443 60.8426 24.4248 60.7157 24.4816 60.5641L25.1293 60.746C25.0611 60.9657 24.9466 61.1588 24.7856 61.3255C24.6246 61.4903 24.4257 61.6191 24.189 61.7119C23.9522 61.8028 23.6861 61.8482 23.3907 61.8482Z" fill="black"/>
<path d="M18.3864 121H17.6818C17.6402 120.797 17.5672 120.619 17.4631 120.466C17.3608 120.312 17.2358 120.184 17.0881 120.08C16.9422 119.973 16.7803 119.894 16.6023 119.841C16.4242 119.788 16.2386 119.761 16.0455 119.761C15.6932 119.761 15.3741 119.85 15.0881 120.028C14.804 120.206 14.5777 120.469 14.4091 120.815C14.2424 121.162 14.1591 121.587 14.1591 122.091C14.1591 122.595 14.2424 123.02 14.4091 123.366C14.5777 123.713 14.804 123.975 15.0881 124.153C15.3741 124.331 15.6932 124.42 16.0455 124.42C16.2386 124.42 16.4242 124.394 16.6023 124.341C16.7803 124.288 16.9422 124.209 17.0881 124.105C17.2358 123.999 17.3608 123.869 17.4631 123.716C17.5672 123.561 17.6402 123.383 17.6818 123.182H18.3864C18.3333 123.479 18.2367 123.745 18.0966 123.98C17.9564 124.215 17.7822 124.415 17.5739 124.58C17.3655 124.742 17.1316 124.866 16.8722 124.952C16.6146 125.037 16.339 125.08 16.0455 125.08C15.5492 125.08 15.108 124.958 14.7216 124.716C14.3352 124.473 14.0313 124.129 13.8097 123.682C13.5881 123.235 13.4773 122.705 13.4773 122.091C13.4773 121.477 13.5881 120.947 13.8097 120.5C14.0313 120.053 14.3352 119.708 14.7216 119.466C15.108 119.223 15.5492 119.102 16.0455 119.102C16.339 119.102 16.6146 119.145 16.8722 119.23C17.1316 119.315 17.3655 119.44 17.5739 119.605C17.7822 119.768 17.9564 119.967 18.0966 120.202C18.2367 120.435 18.3333 120.701 18.3864 121ZM20.718 125.102C20.4415 125.102 20.1906 125.05 19.9652 124.946C19.7398 124.84 19.5608 124.688 19.4283 124.489C19.2957 124.288 19.2294 124.045 19.2294 123.761C19.2294 123.511 19.2786 123.309 19.3771 123.153C19.4756 122.996 19.6072 122.873 19.772 122.784C19.9368 122.695 20.1186 122.629 20.3175 122.585C20.5182 122.54 20.7199 122.504 20.9226 122.477C21.1877 122.443 21.4027 122.418 21.5675 122.401C21.7341 122.382 21.8554 122.35 21.9311 122.307C22.0088 122.263 22.0476 122.187 22.0476 122.08V122.057C22.0476 121.777 21.9709 121.559 21.8175 121.403C21.666 121.248 21.4358 121.17 21.1271 121.17C20.8071 121.17 20.5561 121.241 20.3743 121.381C20.1925 121.521 20.0646 121.67 19.9908 121.83L19.3544 121.602C19.468 121.337 19.6196 121.131 19.8089 120.983C20.0002 120.833 20.2086 120.729 20.4339 120.67C20.6612 120.61 20.8847 120.58 21.1044 120.58C21.2446 120.58 21.4055 120.597 21.5874 120.631C21.7711 120.663 21.9482 120.73 22.1186 120.832C22.291 120.935 22.4339 121.089 22.5476 121.295C22.6612 121.502 22.718 121.778 22.718 122.125V125H22.0476V124.409H22.0135C21.968 124.504 21.8923 124.605 21.7862 124.713C21.6802 124.821 21.5391 124.913 21.3629 124.989C21.1868 125.064 20.9718 125.102 20.718 125.102ZM20.8203 124.5C21.0855 124.5 21.3089 124.448 21.4908 124.344C21.6745 124.24 21.8127 124.105 21.9055 123.94C22.0002 123.776 22.0476 123.602 22.0476 123.42V122.807C22.0192 122.841 21.9567 122.872 21.8601 122.901C21.7654 122.927 21.6555 122.951 21.5305 122.972C21.4074 122.991 21.2872 123.008 21.1697 123.023C21.0542 123.036 20.9605 123.047 20.8885 123.057C20.7143 123.08 20.5514 123.116 20.3999 123.168C20.2502 123.217 20.129 123.292 20.0362 123.392C19.9453 123.491 19.8999 123.625 19.8999 123.795C19.8999 124.028 19.986 124.205 20.1584 124.324C20.3326 124.441 20.5533 124.5 20.8203 124.5ZM25.8395 120.636V121.205H23.5781V120.636H25.8395ZM24.2372 119.591H24.9077V123.75C24.9077 123.939 24.9351 124.081 24.9901 124.176C25.0469 124.269 25.1188 124.331 25.206 124.364C25.295 124.394 25.3887 124.409 25.4872 124.409C25.5611 124.409 25.6217 124.405 25.669 124.398C25.7164 124.388 25.7543 124.381 25.7827 124.375L25.919 124.977C25.8736 124.994 25.8101 125.011 25.7287 125.028C25.6473 125.047 25.544 125.057 25.419 125.057C25.2296 125.057 25.044 125.016 24.8622 124.935C24.6823 124.853 24.5327 124.729 24.4134 124.562C24.2959 124.396 24.2372 124.186 24.2372 123.932V119.591ZM28.6307 125.091C28.2102 125.091 27.8475 124.998 27.5426 124.812C27.2396 124.625 27.0057 124.364 26.8409 124.028C26.678 123.691 26.5966 123.299 26.5966 122.852C26.5966 122.405 26.678 122.011 26.8409 121.67C27.0057 121.328 27.2348 121.061 27.5284 120.869C27.8239 120.676 28.1686 120.58 28.5625 120.58C28.7898 120.58 29.0142 120.617 29.2358 120.693C29.4574 120.769 29.6591 120.892 29.8409 121.062C30.0227 121.231 30.1676 121.455 30.2756 121.733C30.3835 122.011 30.4375 122.354 30.4375 122.761V123.045H27.0739V122.466H29.7557C29.7557 122.22 29.7064 122 29.608 121.807C29.5114 121.614 29.3731 121.461 29.1932 121.349C29.0152 121.238 28.8049 121.182 28.5625 121.182C28.2955 121.182 28.0644 121.248 27.8693 121.381C27.6761 121.511 27.5275 121.682 27.4233 121.892C27.3191 122.102 27.267 122.328 27.267 122.568V122.955C27.267 123.284 27.3239 123.563 27.4375 123.793C27.553 124.02 27.7131 124.193 27.9176 124.312C28.1222 124.43 28.3598 124.489 28.6307 124.489C28.8068 124.489 28.9659 124.464 29.108 124.415C29.2519 124.364 29.3759 124.288 29.4801 124.188C29.5843 124.085 29.6648 123.958 29.7216 123.807L30.3693 123.989C30.3011 124.208 30.1866 124.402 30.0256 124.568C29.8646 124.733 29.6657 124.862 29.429 124.955C29.1922 125.045 28.9261 125.091 28.6307 125.091ZM33.2188 126.727C32.8949 126.727 32.6165 126.686 32.3835 126.602C32.1506 126.521 31.9564 126.413 31.8011 126.278C31.6477 126.146 31.5256 126.004 31.4347 125.852L31.9688 125.477C32.0294 125.557 32.1061 125.648 32.1989 125.75C32.2917 125.854 32.4186 125.944 32.5795 126.02C32.7424 126.098 32.9555 126.136 33.2188 126.136C33.571 126.136 33.8617 126.051 34.0909 125.881C34.3201 125.71 34.4347 125.443 34.4347 125.08V124.193H34.3778C34.3286 124.273 34.2585 124.371 34.1676 124.489C34.0786 124.604 33.9498 124.707 33.7812 124.798C33.6146 124.887 33.3892 124.932 33.1051 124.932C32.7528 124.932 32.4366 124.848 32.1562 124.682C31.8778 124.515 31.6572 124.273 31.4943 123.955C31.3333 123.636 31.2528 123.25 31.2528 122.795C31.2528 122.348 31.3314 121.959 31.4886 121.628C31.6458 121.295 31.8646 121.037 32.1449 120.855C32.4252 120.671 32.7491 120.58 33.1165 120.58C33.4006 120.58 33.6259 120.627 33.7926 120.722C33.9612 120.814 34.09 120.92 34.179 121.04C34.2699 121.157 34.34 121.254 34.3892 121.33H34.4574V120.636H35.1051V125.125C35.1051 125.5 35.0199 125.805 34.8494 126.04C34.6809 126.277 34.4536 126.45 34.1676 126.56C33.8835 126.671 33.5672 126.727 33.2188 126.727ZM33.196 124.33C33.465 124.33 33.6922 124.268 33.8778 124.145C34.0634 124.022 34.2045 123.845 34.3011 123.614C34.3977 123.383 34.446 123.106 34.446 122.784C34.446 122.47 34.3987 122.192 34.304 121.952C34.2093 121.711 34.0691 121.523 33.8835 121.386C33.6979 121.25 33.4688 121.182 33.196 121.182C32.9119 121.182 32.6752 121.254 32.4858 121.398C32.2983 121.542 32.1572 121.735 32.0625 121.977C31.9697 122.22 31.9233 122.489 31.9233 122.784C31.9233 123.087 31.9706 123.355 32.0653 123.588C32.1619 123.819 32.304 124.001 32.4915 124.134C32.6809 124.264 32.9157 124.33 33.196 124.33ZM38.1051 125.091C37.7112 125.091 37.3655 124.997 37.0682 124.81C36.7727 124.622 36.5417 124.36 36.375 124.023C36.2102 123.686 36.1278 123.292 36.1278 122.841C36.1278 122.386 36.2102 121.99 36.375 121.651C36.5417 121.312 36.7727 121.048 37.0682 120.861C37.3655 120.673 37.7112 120.58 38.1051 120.58C38.4991 120.58 38.8438 120.673 39.1392 120.861C39.4366 121.048 39.6676 121.312 39.8324 121.651C39.9991 121.99 40.0824 122.386 40.0824 122.841C40.0824 123.292 39.9991 123.686 39.8324 124.023C39.6676 124.36 39.4366 124.622 39.1392 124.81C38.8438 124.997 38.4991 125.091 38.1051 125.091ZM38.1051 124.489C38.4044 124.489 38.6506 124.412 38.8438 124.259C39.0369 124.105 39.1799 123.903 39.2727 123.653C39.3655 123.403 39.4119 123.133 39.4119 122.841C39.4119 122.549 39.3655 122.277 39.2727 122.026C39.1799 121.774 39.0369 121.57 38.8438 121.415C38.6506 121.259 38.4044 121.182 38.1051 121.182C37.8059 121.182 37.5597 121.259 37.3665 121.415C37.1733 121.57 37.0303 121.774 36.9375 122.026C36.8447 122.277 36.7983 122.549 36.7983 122.841C36.7983 123.133 36.8447 123.403 36.9375 123.653C37.0303 123.903 37.1733 124.105 37.3665 124.259C37.5597 124.412 37.8059 124.489 38.1051 124.489ZM41.1058 125V120.636H41.7536V121.295H41.799C41.8786 121.08 42.0225 120.904 42.2308 120.77C42.4392 120.635 42.674 120.568 42.9354 120.568C42.9846 120.568 43.0462 120.569 43.12 120.571C43.1939 120.573 43.2498 120.576 43.2876 120.58V121.261C43.2649 121.256 43.2128 121.247 43.1314 121.236C43.0518 121.223 42.9676 121.216 42.8786 121.216C42.6664 121.216 42.477 121.26 42.3104 121.349C42.1456 121.437 42.0149 121.558 41.9183 121.713C41.8236 121.866 41.7763 122.042 41.7763 122.239V125H41.1058ZM44.647 126.636C44.5334 126.636 44.4321 126.627 44.343 126.608C44.254 126.591 44.1925 126.574 44.1584 126.557L44.3288 125.966C44.4917 126.008 44.6357 126.023 44.7607 126.011C44.8857 126 44.9964 125.944 45.093 125.844C45.1915 125.745 45.2815 125.585 45.3629 125.364L45.4879 125.023L43.8743 120.636H44.6016L45.8061 124.114H45.8516L47.0561 120.636H47.7834L45.9311 125.636C45.8478 125.862 45.7446 126.048 45.6214 126.196C45.4983 126.346 45.3554 126.456 45.1925 126.528C45.0315 126.6 44.8497 126.636 44.647 126.636Z" fill="black"/>
<path d="M9.40425 145.216V144.591H13.7679V145.216H11.9383V150.409H11.2338V145.216H9.40425ZM14.7643 150.409V146.046H15.4348V150.409H14.7643ZM15.1052 145.318C14.9746 145.318 14.8619 145.274 14.7672 145.185C14.6744 145.096 14.628 144.989 14.628 144.864C14.628 144.739 14.6744 144.632 14.7672 144.543C14.8619 144.454 14.9746 144.409 15.1052 144.409C15.2359 144.409 15.3477 144.454 15.4405 144.543C15.5352 144.632 15.5825 144.739 15.5825 144.864C15.5825 144.989 15.5352 145.096 15.4405 145.185C15.3477 145.274 15.2359 145.318 15.1052 145.318ZM18.5605 146.046V146.614H16.2991V146.046H18.5605ZM16.9582 145H17.6287V149.159C17.6287 149.349 17.6561 149.491 17.7111 149.585C17.7679 149.678 17.8399 149.741 17.927 149.773C18.016 149.803 18.1097 149.818 18.2082 149.818C18.2821 149.818 18.3427 149.814 18.39 149.807C18.4374 149.797 18.4753 149.79 18.5037 149.784L18.64 150.386C18.5946 150.403 18.5311 150.421 18.4497 150.438C18.3683 150.457 18.265 150.466 18.14 150.466C17.9506 150.466 17.765 150.425 17.5832 150.344C17.4033 150.262 17.2537 150.138 17.1344 149.972C17.0169 149.805 16.9582 149.595 16.9582 149.341V145ZM20.3332 144.591V150.409H19.6628V144.591H20.3332ZM23.3908 150.5C22.9703 150.5 22.6076 150.407 22.3027 150.222C21.9997 150.034 21.7658 149.773 21.601 149.438C21.4381 149.1 21.3567 148.708 21.3567 148.261C21.3567 147.814 21.4381 147.421 21.601 147.08C21.7658 146.737 21.9949 146.47 22.2885 146.278C22.5839 146.085 22.9286 145.989 23.3226 145.989C23.5498 145.989 23.7743 146.027 23.9959 146.102C24.2175 146.178 24.4192 146.301 24.601 146.472C24.7828 146.64 24.9277 146.864 25.0356 147.142C25.1436 147.421 25.1976 147.763 25.1976 148.171V148.455H21.8339V147.875H24.5158C24.5158 147.629 24.4665 147.409 24.368 147.216C24.2714 147.023 24.1332 146.87 23.9533 146.759C23.7752 146.647 23.565 146.591 23.3226 146.591C23.0555 146.591 22.8245 146.657 22.6294 146.79C22.4362 146.921 22.2875 147.091 22.1834 147.301C22.0792 147.511 22.0271 147.737 22.0271 147.977V148.364C22.0271 148.693 22.0839 148.973 22.1976 149.202C22.3131 149.429 22.4731 149.602 22.6777 149.722C22.8822 149.839 23.1199 149.898 23.3908 149.898C23.5669 149.898 23.726 149.873 23.868 149.824C24.012 149.773 24.136 149.697 24.2402 149.597C24.3444 149.494 24.4248 149.368 24.4817 149.216L25.1294 149.398C25.0612 149.618 24.9466 149.811 24.7856 149.977C24.6247 150.142 24.4258 150.271 24.189 150.364C23.9523 150.455 23.6862 150.5 23.3908 150.5Z" fill="black"/>
<path d="M9.40425 303.658V303.033H13.7679V303.658H11.9383V308.851H11.2338V303.658H9.40425ZM14.7643 308.851V304.487H15.4348V308.851H14.7643ZM15.1052 303.76C14.9746 303.76 14.8619 303.716 14.7672 303.627C14.6744 303.538 14.628 303.431 14.628 303.306C14.628 303.181 14.6744 303.074 14.7672 302.985C14.8619 302.896 14.9746 302.851 15.1052 302.851C15.2359 302.851 15.3477 302.896 15.4405 302.985C15.5352 303.074 15.5825 303.181 15.5825 303.306C15.5825 303.431 15.5352 303.538 15.4405 303.627C15.3477 303.716 15.2359 303.76 15.1052 303.76ZM18.5605 304.487V305.056H16.2991V304.487H18.5605ZM16.9582 303.442H17.6287V307.601C17.6287 307.79 17.6561 307.933 17.7111 308.027C17.7679 308.12 17.8399 308.183 17.927 308.215C18.016 308.245 18.1097 308.26 18.2082 308.26C18.2821 308.26 18.3427 308.256 18.39 308.249C18.4374 308.239 18.4753 308.232 18.5037 308.226L18.64 308.828C18.5946 308.845 18.5311 308.862 18.4497 308.879C18.3683 308.898 18.265 308.908 18.14 308.908C17.9506 308.908 17.765 308.867 17.5832 308.786C17.4033 308.704 17.2537 308.58 17.1344 308.414C17.0169 308.247 16.9582 308.037 16.9582 307.783V303.442ZM20.3332 303.033V308.851H19.6628V303.033H20.3332ZM23.3908 308.942C22.9703 308.942 22.6076 308.849 22.3027 308.664C21.9997 308.476 21.7658 308.215 21.601 307.879C21.4381 307.542 21.3567 307.15 21.3567 306.703C21.3567 306.256 21.4381 305.862 21.601 305.522C21.7658 305.179 21.9949 304.912 22.2885 304.72C22.5839 304.527 22.9286 304.431 23.3226 304.431C23.5498 304.431 23.7743 304.468 23.9959 304.544C24.2175 304.62 24.4192 304.743 24.601 304.914C24.7828 305.082 24.9277 305.306 25.0356 305.584C25.1436 305.862 25.1976 306.205 25.1976 306.612V306.897H21.8339V306.317H24.5158C24.5158 306.071 24.4665 305.851 24.368 305.658C24.2714 305.465 24.1332 305.312 23.9533 305.201C23.7752 305.089 23.565 305.033 23.3226 305.033C23.0555 305.033 22.8245 305.099 22.6294 305.232C22.4362 305.362 22.2875 305.533 22.1834 305.743C22.0792 305.953 22.0271 306.179 22.0271 306.419V306.806C22.0271 307.135 22.0839 307.415 22.1976 307.644C22.3131 307.871 22.4731 308.044 22.6777 308.164C22.8822 308.281 23.1199 308.34 23.3908 308.34C23.5669 308.34 23.726 308.315 23.868 308.266C24.012 308.215 24.136 308.139 24.2402 308.039C24.3444 307.936 24.4248 307.809 24.4817 307.658L25.1294 307.84C25.0612 308.059 24.9466 308.253 24.7856 308.419C24.6247 308.584 24.4258 308.713 24.189 308.806C23.9523 308.897 23.6862 308.942 23.3908 308.942Z" fill="black"/>
<path d="M69.0398 40H68.5114C68.4801 39.848 68.4254 39.7145 68.3473 39.5994C68.2706 39.4844 68.1768 39.3878 68.0661 39.3097C67.9567 39.2301 67.8352 39.1705 67.7017 39.1307C67.5682 39.0909 67.429 39.071 67.2841 39.071C67.0199 39.071 66.7805 39.1378 66.5661 39.2713C66.353 39.4048 66.1832 39.6016 66.0568 39.8615C65.9318 40.1214 65.8693 40.4403 65.8693 40.8182C65.8693 41.196 65.9318 41.5149 66.0568 41.7749C66.1832 42.0348 66.353 42.2315 66.5661 42.3651C66.7805 42.4986 67.0199 42.5653 67.2841 42.5653C67.429 42.5653 67.5682 42.5455 67.7017 42.5057C67.8352 42.4659 67.9567 42.407 68.0661 42.3288C68.1768 42.2493 68.2706 42.152 68.3473 42.0369C68.4254 41.9205 68.4801 41.7869 68.5114 41.6364H69.0398C69 41.8594 68.9276 42.0589 68.8224 42.2351C68.7173 42.4112 68.5866 42.5611 68.4304 42.6847C68.2741 42.8068 68.0987 42.8999 67.9041 42.9638C67.7109 43.0277 67.5043 43.0597 67.2841 43.0597C66.9119 43.0597 66.581 42.9688 66.2912 42.7869C66.0014 42.6051 65.7734 42.3466 65.6072 42.0114C65.4411 41.6761 65.358 41.2784 65.358 40.8182C65.358 40.358 65.4411 39.9602 65.6072 39.625C65.7734 39.2898 66.0014 39.0312 66.2912 38.8494C66.581 38.6676 66.9119 38.5767 67.2841 38.5767C67.5043 38.5767 67.7109 38.6087 67.9041 38.6726C68.0987 38.7365 68.2741 38.8303 68.4304 38.9538C68.5866 39.076 68.7173 39.2251 68.8224 39.4013C68.9276 39.576 69 39.7756 69.0398 40ZM70.7885 43.0767C70.5811 43.0767 70.3929 43.0376 70.2239 42.9595C70.0549 42.88 69.9206 42.7656 69.8212 42.6165C69.7218 42.4659 69.6721 42.2841 69.6721 42.071C69.6721 41.8835 69.709 41.7315 69.7828 41.6151C69.8567 41.4972 69.9554 41.4048 70.079 41.3381C70.2026 41.2713 70.339 41.2216 70.4881 41.1889C70.6387 41.1548 70.79 41.1278 70.9419 41.108C71.1408 41.0824 71.302 41.0632 71.4256 41.0504C71.5506 41.0362 71.6415 41.0128 71.6983 40.9801C71.7566 40.9474 71.7857 40.8906 71.7857 40.8097V40.7926C71.7857 40.5824 71.7282 40.419 71.6131 40.3026C71.4995 40.1861 71.3269 40.1278 71.0953 40.1278C70.8553 40.1278 70.6671 40.1804 70.5307 40.2855C70.3944 40.3906 70.2985 40.5028 70.2431 40.6222L69.7658 40.4517C69.851 40.2528 69.9647 40.098 70.1067 39.9872C70.2502 39.875 70.4064 39.7969 70.5755 39.7528C70.7459 39.7074 70.9135 39.6847 71.0783 39.6847C71.1834 39.6847 71.3042 39.6974 71.4405 39.723C71.5783 39.7472 71.7111 39.7976 71.839 39.8743C71.9682 39.951 72.0755 40.0668 72.1607 40.2216C72.2459 40.3764 72.2885 40.5838 72.2885 40.8438V43H71.7857V42.5568H71.7601C71.726 42.6278 71.6692 42.7038 71.5897 42.7848C71.5101 42.8658 71.4043 42.9347 71.2722 42.9915C71.1401 43.0483 70.9789 43.0767 70.7885 43.0767ZM70.8652 42.625C71.0641 42.625 71.2317 42.5859 71.3681 42.5078C71.5059 42.4297 71.6096 42.3288 71.6792 42.2053C71.7502 42.0817 71.7857 41.9517 71.7857 41.8153V41.3551C71.7644 41.3807 71.7175 41.4041 71.6451 41.4254C71.574 41.4453 71.4917 41.4631 71.3979 41.4787C71.3056 41.4929 71.2154 41.5057 71.1273 41.517C71.0407 41.527 70.9703 41.5355 70.9164 41.5426C70.7857 41.5597 70.6635 41.5874 70.5499 41.6257C70.4377 41.6626 70.3468 41.7187 70.2772 41.794C70.209 41.8679 70.1749 41.9687 70.1749 42.0966C70.1749 42.2713 70.2395 42.4034 70.3688 42.4929C70.4995 42.581 70.665 42.625 70.8652 42.625ZM74.6296 39.7273V40.1534H72.9336V39.7273H74.6296ZM73.4279 38.9432H73.9308V42.0625C73.9308 42.2045 73.9513 42.3111 73.9925 42.3821C74.0352 42.4517 74.0891 42.4986 74.1545 42.5227C74.2212 42.5455 74.2915 42.5568 74.3654 42.5568C74.4208 42.5568 74.4663 42.554 74.5018 42.5483C74.5373 42.5412 74.5657 42.5355 74.587 42.5312L74.6893 42.983C74.6552 42.9957 74.6076 43.0085 74.5465 43.0213C74.4854 43.0355 74.408 43.0426 74.3143 43.0426C74.1722 43.0426 74.033 43.0121 73.8967 42.951C73.7617 42.8899 73.6495 42.7969 73.56 42.6719C73.4719 42.5469 73.4279 42.3892 73.4279 42.1989V38.9432ZM76.723 43.0682C76.4077 43.0682 76.1357 42.9986 75.907 42.8594C75.6797 42.7188 75.5043 42.5227 75.3807 42.2713C75.2585 42.0185 75.1974 41.7244 75.1974 41.3892C75.1974 41.054 75.2585 40.7585 75.3807 40.5028C75.5043 40.2457 75.6761 40.0455 75.8963 39.902C76.1179 39.7571 76.3764 39.6847 76.6719 39.6847C76.8423 39.6847 77.0107 39.7131 77.1768 39.7699C77.343 39.8267 77.4943 39.919 77.6307 40.0469C77.767 40.1733 77.8757 40.3409 77.9567 40.5497C78.0376 40.7585 78.0781 41.0156 78.0781 41.321V41.5341H75.5554V41.0994H77.5668C77.5668 40.9148 77.5298 40.75 77.456 40.6051C77.3835 40.4602 77.2798 40.3459 77.1449 40.2621C77.0114 40.1783 76.8537 40.1364 76.6719 40.1364C76.4716 40.1364 76.2983 40.1861 76.152 40.2855C76.0071 40.3835 75.8956 40.5114 75.8175 40.669C75.7393 40.8267 75.7003 40.9957 75.7003 41.1761V41.4659C75.7003 41.7131 75.7429 41.9226 75.8281 42.0945C75.9148 42.2649 76.0348 42.3949 76.1882 42.4844C76.3416 42.5724 76.5199 42.6165 76.723 42.6165C76.8551 42.6165 76.9744 42.598 77.081 42.5611C77.1889 42.5227 77.282 42.4659 77.3601 42.3906C77.4382 42.3139 77.4986 42.2187 77.5412 42.1051L78.027 42.2415C77.9759 42.4062 77.8899 42.5511 77.7692 42.6761C77.6484 42.7997 77.4993 42.8963 77.3217 42.9659C77.1442 43.0341 76.9446 43.0682 76.723 43.0682ZM80.1641 44.2955C79.9212 44.2955 79.7124 44.2642 79.5376 44.2017C79.3629 44.1406 79.2173 44.0597 79.1009 43.9588C78.9858 43.8594 78.8942 43.7528 78.826 43.6392L79.2266 43.358C79.272 43.4176 79.3295 43.4858 79.3991 43.5625C79.4688 43.6406 79.5639 43.7081 79.6847 43.7649C79.8068 43.8232 79.9666 43.8523 80.1641 43.8523C80.4283 43.8523 80.6463 43.7884 80.8182 43.6605C80.9901 43.5327 81.076 43.3324 81.076 43.0597V42.3949H81.0334C80.9964 42.4545 80.9439 42.5284 80.8757 42.6165C80.8089 42.7031 80.7124 42.7805 80.5859 42.8487C80.4609 42.9155 80.2919 42.9489 80.0788 42.9489C79.8146 42.9489 79.5774 42.8864 79.3672 42.7614C79.1584 42.6364 78.9929 42.4545 78.8707 42.2159C78.75 41.9773 78.6896 41.6875 78.6896 41.3466C78.6896 41.0114 78.7486 40.7195 78.8665 40.4709C78.9844 40.2209 79.1484 40.0277 79.3587 39.8913C79.5689 39.7536 79.8118 39.6847 80.0874 39.6847C80.3004 39.6847 80.4695 39.7202 80.5945 39.7912C80.7209 39.8608 80.8175 39.9403 80.8842 40.0298C80.9524 40.1179 81.005 40.1903 81.0419 40.2472H81.093V39.7273H81.5788V43.0938C81.5788 43.375 81.5149 43.6037 81.3871 43.7798C81.2607 43.9574 81.0902 44.0874 80.8757 44.1697C80.6626 44.2536 80.4254 44.2955 80.1641 44.2955ZM80.147 42.4972C80.3487 42.4972 80.5192 42.451 80.6584 42.3587C80.7976 42.2663 80.9034 42.1335 80.9759 41.9602C81.0483 41.7869 81.0845 41.5795 81.0845 41.3381C81.0845 41.1023 81.049 40.8942 80.978 40.7138C80.907 40.5334 80.8018 40.392 80.6626 40.2898C80.5234 40.1875 80.3516 40.1364 80.147 40.1364C79.9339 40.1364 79.7564 40.1903 79.6143 40.2983C79.4737 40.4062 79.3679 40.5511 79.2969 40.733C79.2273 40.9148 79.1925 41.1165 79.1925 41.3381C79.1925 41.5653 79.228 41.7663 79.299 41.9411C79.3714 42.1143 79.478 42.2507 79.6186 42.3501C79.7607 42.4482 79.9368 42.4972 80.147 42.4972ZM83.8288 43.0682C83.5334 43.0682 83.2741 42.9979 83.0511 42.8572C82.8295 42.7166 82.6562 42.5199 82.5312 42.267C82.4077 42.0142 82.3459 41.7187 82.3459 41.3807C82.3459 41.0398 82.4077 40.7422 82.5312 40.4879C82.6562 40.2337 82.8295 40.0362 83.0511 39.8956C83.2741 39.755 83.5334 39.6847 83.8288 39.6847C84.1243 39.6847 84.3828 39.755 84.6044 39.8956C84.8274 40.0362 85.0007 40.2337 85.1243 40.4879C85.2493 40.7422 85.3118 41.0398 85.3118 41.3807C85.3118 41.7187 85.2493 42.0142 85.1243 42.267C85.0007 42.5199 84.8274 42.7166 84.6044 42.8572C84.3828 42.9979 84.1243 43.0682 83.8288 43.0682ZM83.8288 42.6165C84.0533 42.6165 84.2379 42.5589 84.3828 42.4439C84.5277 42.3288 84.6349 42.1776 84.7045 41.9901C84.7741 41.8026 84.8089 41.5994 84.8089 41.3807C84.8089 41.1619 84.7741 40.9581 84.7045 40.7692C84.6349 40.5803 84.5277 40.4276 84.3828 40.3111C84.2379 40.1946 84.0533 40.1364 83.8288 40.1364C83.6044 40.1364 83.4197 40.1946 83.2749 40.3111C83.13 40.4276 83.0227 40.5803 82.9531 40.7692C82.8835 40.9581 82.8487 41.1619 82.8487 41.3807C82.8487 41.5994 82.8835 41.8026 82.9531 41.9901C83.0227 42.1776 83.13 42.3288 83.2749 42.4439C83.4197 42.5589 83.6044 42.6165 83.8288 42.6165ZM86.0794 43V39.7273H86.5652V40.2216H86.5993C86.6589 40.0597 86.7669 39.9283 86.9231 39.8274C87.0794 39.7266 87.2555 39.6761 87.4515 39.6761C87.4885 39.6761 87.5346 39.6768 87.59 39.6783C87.6454 39.6797 87.6873 39.6818 87.7157 39.6847V40.196C87.6987 40.1918 87.6596 40.1854 87.5985 40.1768C87.5389 40.1669 87.4757 40.1619 87.4089 40.1619C87.2498 40.1619 87.1078 40.1953 86.9828 40.2621C86.8592 40.3274 86.7612 40.4183 86.6887 40.5348C86.6177 40.6499 86.5822 40.7812 86.5822 40.929V43H86.0794ZM88.7353 44.2273C88.65 44.2273 88.574 44.2202 88.5073 44.206C88.4405 44.1932 88.3944 44.1804 88.3688 44.1676L88.4966 43.7244C88.6188 43.7557 88.7267 43.767 88.8205 43.7585C88.9142 43.75 88.9973 43.7081 89.0698 43.6328C89.1436 43.5589 89.2111 43.4389 89.2722 43.2727L89.3659 43.017L88.1557 39.7273H88.7012L89.6046 42.3352H89.6387L90.5421 39.7273H91.0875L89.6983 43.4773C89.6358 43.6463 89.5584 43.7862 89.4661 43.897C89.3738 44.0092 89.2665 44.0923 89.1444 44.1463C89.0236 44.2003 88.8873 44.2273 88.7353 44.2273Z" fill="white"/>
<path d="M11.1364 401.276V395.458H11.841V398.049H14.9432V395.458H15.6478V401.276H14.9432V398.674H11.841V401.276H11.1364ZM18.7401 401.367C18.3462 401.367 18.0005 401.273 17.7032 401.086C17.4077 400.898 17.1767 400.636 17.01 400.299C16.8452 399.961 16.7629 399.568 16.7629 399.117C16.7629 398.662 16.8452 398.265 17.01 397.926C17.1767 397.587 17.4077 397.324 17.7032 397.137C18.0005 396.949 18.3462 396.855 18.7401 396.855C19.1341 396.855 19.4788 396.949 19.7742 397.137C20.0716 397.324 20.3026 397.587 20.4674 397.926C20.6341 398.265 20.7174 398.662 20.7174 399.117C20.7174 399.568 20.6341 399.961 20.4674 400.299C20.3026 400.636 20.0716 400.898 19.7742 401.086C19.4788 401.273 19.1341 401.367 18.7401 401.367ZM18.7401 400.765C19.0394 400.765 19.2856 400.688 19.4788 400.534C19.6719 400.381 19.8149 400.179 19.9077 399.929C20.0005 399.679 20.0469 399.408 20.0469 399.117C20.0469 398.825 20.0005 398.553 19.9077 398.301C19.8149 398.05 19.6719 397.846 19.4788 397.691C19.2856 397.535 19.0394 397.458 18.7401 397.458C18.4409 397.458 18.1947 397.535 18.0015 397.691C17.8083 397.846 17.6653 398.05 17.5725 398.301C17.4797 398.553 17.4333 398.825 17.4333 399.117C17.4333 399.408 17.4797 399.679 17.5725 399.929C17.6653 400.179 17.8083 400.381 18.0015 400.534C18.1947 400.688 18.4409 400.765 18.7401 400.765ZM21.7408 401.276V396.912H22.3886V397.594H22.4454C22.5363 397.361 22.6831 397.18 22.8857 397.051C23.0884 396.921 23.3317 396.855 23.6158 396.855C23.9037 396.855 24.1433 396.921 24.3346 397.051C24.5278 397.18 24.6783 397.361 24.7863 397.594H24.8317C24.9435 397.369 25.1111 397.19 25.3346 397.057C25.5581 396.923 25.8261 396.855 26.1386 396.855C26.5287 396.855 26.8478 396.978 27.0959 397.222C27.3441 397.464 27.4681 397.842 27.4681 398.355V401.276H26.7977V398.355C26.7977 398.033 26.7096 397.803 26.5334 397.665C26.3573 397.527 26.1499 397.458 25.9113 397.458C25.6045 397.458 25.3668 397.55 25.1982 397.736C25.0297 397.92 24.9454 398.153 24.9454 398.435V401.276H24.2636V398.287C24.2636 398.039 24.1831 397.839 24.0221 397.688C23.8611 397.534 23.6537 397.458 23.3999 397.458C23.2257 397.458 23.0628 397.504 22.9113 397.597C22.7617 397.69 22.6405 397.818 22.5477 397.983C22.4567 398.146 22.4113 398.335 22.4113 398.549V401.276H21.7408ZM30.5235 401.367C30.103 401.367 29.7404 401.274 29.4354 401.088C29.1324 400.901 28.8985 400.64 28.7337 400.304C28.5709 399.967 28.4894 399.575 28.4894 399.128C28.4894 398.681 28.5709 398.287 28.7337 397.946C28.8985 397.604 29.1277 397.336 29.4212 397.145C29.7167 396.952 30.0614 396.855 30.4553 396.855C30.6826 396.855 30.907 396.893 31.1286 396.969C31.3502 397.045 31.5519 397.168 31.7337 397.338C31.9155 397.507 32.0604 397.73 32.1684 398.009C32.2763 398.287 32.3303 398.63 32.3303 399.037V399.321H28.9667V398.742H31.6485C31.6485 398.496 31.5993 398.276 31.5008 398.083C31.4042 397.89 31.2659 397.737 31.086 397.625C30.908 397.514 30.6977 397.458 30.4553 397.458C30.1883 397.458 29.9572 397.524 29.7621 397.657C29.569 397.787 29.4203 397.958 29.3161 398.168C29.212 398.378 29.1599 398.604 29.1599 398.844V399.23C29.1599 399.56 29.2167 399.839 29.3303 400.068C29.4459 400.296 29.6059 400.469 29.8104 400.588C30.015 400.706 30.2527 400.765 30.5235 400.765C30.6996 400.765 30.8587 400.74 31.0008 400.691C31.1447 400.64 31.2688 400.564 31.3729 400.463C31.4771 400.361 31.5576 400.234 31.6144 400.083L32.2621 400.265C32.194 400.484 32.0794 400.677 31.9184 400.844C31.7574 401.009 31.5585 401.138 31.3218 401.23C31.0851 401.321 30.819 401.367 30.5235 401.367Z" fill="white"/>
<path d="M53.9964 397.276C53.9339 397.085 53.8515 396.913 53.7492 396.762C53.6489 396.608 53.5286 396.478 53.3884 396.37C53.2502 396.262 53.093 396.179 52.9168 396.122C52.7407 396.066 52.5475 396.037 52.3373 396.037C51.9926 396.037 51.6792 396.126 51.397 396.304C51.1148 396.482 50.8903 396.745 50.7237 397.091C50.557 397.438 50.4737 397.863 50.4737 398.367C50.4737 398.871 50.5579 399.296 50.7265 399.642C50.8951 399.989 51.1233 400.251 51.4112 400.429C51.699 400.607 52.0229 400.696 52.3828 400.696C52.7161 400.696 53.0097 400.625 53.2634 400.483C53.5191 400.339 53.718 400.137 53.86 399.875C54.004 399.612 54.0759 399.302 54.0759 398.946L54.2918 398.992H52.5418V398.367H54.7578V398.992C54.7578 399.471 54.6555 399.888 54.4509 400.242C54.2483 400.596 53.968 400.871 53.61 401.066C53.254 401.259 52.8449 401.355 52.3828 401.355C51.8676 401.355 51.415 401.234 51.0248 400.992C50.6365 400.749 50.3335 400.405 50.1157 399.958C49.8998 399.511 49.7918 398.98 49.7918 398.367C49.7918 397.907 49.8534 397.493 49.9765 397.125C50.1015 396.756 50.2776 396.442 50.5049 396.182C50.7322 395.923 51.0011 395.724 51.3117 395.586C51.6223 395.447 51.9642 395.378 52.3373 395.378C52.6441 395.378 52.9301 395.425 53.1953 395.517C53.4623 395.608 53.7 395.738 53.9083 395.907C54.1186 396.073 54.2937 396.273 54.4339 396.506C54.574 396.737 54.6706 396.994 54.7237 397.276H53.9964ZM55.8735 401.276V396.912H56.5213V397.571H56.5667C56.6463 397.355 56.7902 397.18 56.9985 397.046C57.2069 396.911 57.4417 396.844 57.7031 396.844C57.7523 396.844 57.8139 396.845 57.8877 396.847C57.9616 396.849 58.0175 396.852 58.0553 396.855V397.537C58.0326 397.532 57.9805 397.523 57.8991 397.512C57.8195 397.498 57.7353 397.492 57.6463 397.492C57.4341 397.492 57.2447 397.536 57.0781 397.625C56.9133 397.712 56.7826 397.834 56.686 397.989C56.5913 398.142 56.544 398.318 56.544 398.515V401.276H55.8735ZM60.49 401.367C60.0961 401.367 59.7504 401.273 59.4531 401.086C59.1576 400.898 58.9266 400.636 58.7599 400.299C58.5951 399.961 58.5127 399.568 58.5127 399.117C58.5127 398.662 58.5951 398.265 58.7599 397.926C58.9266 397.587 59.1576 397.324 59.4531 397.137C59.7504 396.949 60.0961 396.855 60.49 396.855C60.8839 396.855 61.2286 396.949 61.5241 397.137C61.8214 397.324 62.0525 397.587 62.2173 397.926C62.3839 398.265 62.4673 398.662 62.4673 399.117C62.4673 399.568 62.3839 399.961 62.2173 400.299C62.0525 400.636 61.8214 400.898 61.5241 401.086C61.2286 401.273 60.8839 401.367 60.49 401.367ZM60.49 400.765C60.7892 400.765 61.0355 400.688 61.2286 400.534C61.4218 400.381 61.5648 400.179 61.6576 399.929C61.7504 399.679 61.7968 399.408 61.7968 399.117C61.7968 398.825 61.7504 398.553 61.6576 398.301C61.5648 398.05 61.4218 397.846 61.2286 397.691C61.0355 397.535 60.7892 397.458 60.49 397.458C60.1908 397.458 59.9445 397.535 59.7514 397.691C59.5582 397.846 59.4152 398.05 59.3224 398.301C59.2296 398.553 59.1832 398.825 59.1832 399.117C59.1832 399.408 59.2296 399.679 59.3224 399.929C59.4152 400.179 59.5582 400.381 59.7514 400.534C59.9445 400.688 60.1908 400.765 60.49 400.765ZM66.2407 399.492V396.912H66.9112V401.276H66.2407V400.537H66.1953C66.093 400.759 65.9339 400.947 65.718 401.103C65.5021 401.256 65.2293 401.333 64.8998 401.333C64.6271 401.333 64.3847 401.273 64.1725 401.154C63.9604 401.033 63.7937 400.851 63.6725 400.608C63.5513 400.364 63.4907 400.056 63.4907 399.685V396.912H64.1612V399.64C64.1612 399.958 64.2502 400.211 64.4282 400.401C64.6081 400.59 64.8373 400.685 65.1157 400.685C65.2824 400.685 65.4519 400.642 65.6242 400.557C65.7985 400.472 65.9443 400.341 66.0617 400.165C66.1811 399.989 66.2407 399.765 66.2407 399.492ZM68.1391 402.912V396.912H68.7869V397.605H68.8664C68.9157 397.53 68.9838 397.433 69.071 397.316C69.16 397.196 69.2869 397.09 69.4516 396.997C69.6183 396.903 69.8437 396.855 70.1278 396.855C70.4952 396.855 70.8191 396.947 71.0994 397.131C71.3797 397.315 71.5984 397.575 71.7556 397.912C71.9128 398.249 71.9914 398.647 71.9914 399.105C71.9914 399.568 71.9128 399.968 71.7556 400.307C71.5984 400.644 71.3806 400.906 71.1022 401.091C70.8238 401.275 70.5028 401.367 70.1391 401.367C69.8588 401.367 69.6344 401.32 69.4659 401.228C69.2973 401.133 69.1676 401.026 69.0766 400.907C68.9857 400.785 68.9157 400.685 68.8664 400.605H68.8096V402.912H68.1391ZM68.7982 399.094C68.7982 399.424 68.8465 399.714 68.9431 399.966C69.0397 400.216 69.1808 400.412 69.3664 400.554C69.552 400.694 69.7793 400.765 70.0482 400.765C70.3285 400.765 70.5624 400.691 70.7499 400.543C70.9393 400.393 71.0814 400.193 71.1761 399.941C71.2727 399.687 71.321 399.405 71.321 399.094C71.321 398.787 71.2736 398.511 71.1789 398.265C71.0861 398.016 70.945 397.82 70.7556 397.676C70.5681 397.531 70.3323 397.458 70.0482 397.458C69.7755 397.458 69.5463 397.527 69.3607 397.665C69.1751 397.801 69.035 397.993 68.9403 398.239C68.8456 398.483 68.7982 398.768 68.7982 399.094ZM76.1051 397.89L75.5028 398.06C75.4649 397.96 75.409 397.862 75.3352 397.767C75.2632 397.671 75.1647 397.591 75.0397 397.529C74.9147 397.466 74.7547 397.435 74.5596 397.435C74.2926 397.435 74.07 397.497 73.892 397.62C73.7159 397.741 73.6278 397.895 73.6278 398.083C73.6278 398.249 73.6884 398.381 73.8096 398.478C73.9308 398.574 74.1202 398.655 74.3778 398.719L75.0255 398.878C75.4157 398.973 75.7064 399.118 75.8977 399.313C76.089 399.506 76.1846 399.755 76.1846 400.06C76.1846 400.31 76.1126 400.533 75.9687 400.73C75.8266 400.927 75.6278 401.083 75.3721 401.196C75.1164 401.31 74.8191 401.367 74.4801 401.367C74.035 401.367 73.6666 401.27 73.3749 401.077C73.0833 400.884 72.8986 400.602 72.821 400.23L73.4573 400.071C73.5179 400.306 73.6325 400.482 73.8011 400.6C73.9715 400.717 74.1941 400.776 74.4687 400.776C74.7812 400.776 75.0293 400.71 75.213 400.577C75.3986 400.443 75.4914 400.282 75.4914 400.094C75.4914 399.943 75.4384 399.816 75.3323 399.713C75.2263 399.609 75.0634 399.532 74.8437 399.48L74.1164 399.31C73.7168 399.215 73.4232 399.068 73.2357 398.87C73.0501 398.669 72.9573 398.418 72.9573 398.117C72.9573 397.871 73.0265 397.653 73.1647 397.463C73.3049 397.274 73.4952 397.125 73.7357 397.017C73.9782 396.909 74.2528 396.855 74.5596 396.855C74.9914 396.855 75.3304 396.95 75.5766 397.14C75.8248 397.329 76.0009 397.579 76.1051 397.89Z" fill="black"/>
<path d="M129.705 401V395.182H130.409V397.773H133.511V395.182H134.216V401H133.511V398.398H130.409V401H129.705ZM135.536 401V396.636H136.206V401H135.536ZM135.876 395.909C135.746 395.909 135.633 395.865 135.538 395.776C135.446 395.687 135.399 395.58 135.399 395.455C135.399 395.33 135.446 395.223 135.538 395.134C135.633 395.045 135.746 395 135.876 395C136.007 395 136.119 395.045 136.212 395.134C136.306 395.223 136.354 395.33 136.354 395.455C136.354 395.58 136.306 395.687 136.212 395.776C136.119 395.865 136.007 395.909 135.876 395.909ZM140.525 397.614L139.923 397.784C139.885 397.684 139.829 397.586 139.755 397.491C139.683 397.395 139.585 397.315 139.46 397.253C139.335 397.19 139.174 397.159 138.979 397.159C138.712 397.159 138.49 397.221 138.312 397.344C138.136 397.465 138.048 397.619 138.048 397.807C138.048 397.973 138.108 398.105 138.229 398.202C138.351 398.298 138.54 398.379 138.798 398.443L139.445 398.602C139.835 398.697 140.126 398.842 140.317 399.037C140.509 399.23 140.604 399.479 140.604 399.784C140.604 400.034 140.532 400.258 140.388 400.455C140.246 400.652 140.048 400.807 139.792 400.92C139.536 401.034 139.239 401.091 138.9 401.091C138.455 401.091 138.086 400.994 137.795 400.801C137.503 400.608 137.318 400.326 137.241 399.955L137.877 399.795C137.938 400.03 138.052 400.206 138.221 400.324C138.391 400.441 138.614 400.5 138.888 400.5C139.201 400.5 139.449 400.434 139.633 400.301C139.818 400.167 139.911 400.006 139.911 399.818C139.911 399.667 139.858 399.54 139.752 399.438C139.646 399.333 139.483 399.256 139.263 399.205L138.536 399.034C138.137 398.939 137.843 398.793 137.656 398.594C137.47 398.393 137.377 398.142 137.377 397.841C137.377 397.595 137.446 397.377 137.585 397.188C137.725 396.998 137.915 396.849 138.156 396.741C138.398 396.634 138.673 396.58 138.979 396.58C139.411 396.58 139.75 396.674 139.996 396.864C140.245 397.053 140.421 397.303 140.525 397.614ZM143.511 396.636V397.205H141.25V396.636H143.511ZM141.909 395.591H142.58V399.75C142.58 399.939 142.607 400.081 142.662 400.176C142.719 400.269 142.791 400.331 142.878 400.364C142.967 400.394 143.061 400.409 143.159 400.409C143.233 400.409 143.294 400.405 143.341 400.398C143.388 400.388 143.426 400.381 143.455 400.375L143.591 400.977C143.545 400.994 143.482 401.011 143.401 401.028C143.319 401.047 143.216 401.057 143.091 401.057C142.902 401.057 142.716 401.016 142.534 400.935C142.354 400.853 142.205 400.729 142.085 400.562C141.968 400.396 141.909 400.186 141.909 399.932V395.591ZM146.246 401.091C145.852 401.091 145.506 400.997 145.209 400.81C144.913 400.622 144.682 400.36 144.516 400.023C144.351 399.686 144.268 399.292 144.268 398.841C144.268 398.386 144.351 397.99 144.516 397.651C144.682 397.312 144.913 397.048 145.209 396.861C145.506 396.673 145.852 396.58 146.246 396.58C146.64 396.58 146.984 396.673 147.28 396.861C147.577 397.048 147.808 397.312 147.973 397.651C148.14 397.99 148.223 398.386 148.223 398.841C148.223 399.292 148.14 399.686 147.973 400.023C147.808 400.36 147.577 400.622 147.28 400.81C146.984 400.997 146.64 401.091 146.246 401.091ZM146.246 400.489C146.545 400.489 146.791 400.412 146.984 400.259C147.178 400.105 147.321 399.903 147.413 399.653C147.506 399.403 147.553 399.133 147.553 398.841C147.553 398.549 147.506 398.277 147.413 398.026C147.321 397.774 147.178 397.57 146.984 397.415C146.791 397.259 146.545 397.182 146.246 397.182C145.946 397.182 145.7 397.259 145.507 397.415C145.314 397.57 145.171 397.774 145.078 398.026C144.985 398.277 144.939 398.549 144.939 398.841C144.939 399.133 144.985 399.403 145.078 399.653C145.171 399.903 145.314 400.105 145.507 400.259C145.7 400.412 145.946 400.489 146.246 400.489ZM149.246 401V396.636H149.894V397.295H149.94C150.019 397.08 150.163 396.904 150.371 396.77C150.58 396.635 150.815 396.568 151.076 396.568C151.125 396.568 151.187 396.569 151.261 396.571C151.335 396.573 151.39 396.576 151.428 396.58V397.261C151.406 397.256 151.353 397.247 151.272 397.236C151.192 397.223 151.108 397.216 151.019 397.216C150.807 397.216 150.618 397.26 150.451 397.349C150.286 397.437 150.156 397.558 150.059 397.713C149.964 397.866 149.917 398.042 149.917 398.239V401H149.246ZM152.788 402.636C152.674 402.636 152.573 402.627 152.484 402.608C152.395 402.591 152.333 402.574 152.299 402.557L152.469 401.966C152.632 402.008 152.776 402.023 152.901 402.011C153.026 402 153.137 401.944 153.234 401.844C153.332 401.745 153.422 401.585 153.504 401.364L153.629 401.023L152.015 396.636H152.742L153.947 400.114H153.992L155.197 396.636H155.924L154.072 401.636C153.988 401.862 153.885 402.048 153.762 402.196C153.639 402.346 153.496 402.456 153.333 402.528C153.172 402.6 152.99 402.636 152.788 402.636Z" fill="black"/>
<path d="M176.705 395.182H177.545L179.523 400.011H179.591L181.568 395.182H182.409V401H181.75V396.58H181.693L179.875 401H179.239L177.42 396.58H177.364V401H176.705V395.182ZM185.56 401.091C185.14 401.091 184.777 400.998 184.472 400.812C184.169 400.625 183.935 400.364 183.771 400.028C183.608 399.691 183.526 399.299 183.526 398.852C183.526 398.405 183.608 398.011 183.771 397.67C183.935 397.328 184.165 397.061 184.458 396.869C184.754 396.676 185.098 396.58 185.492 396.58C185.719 396.58 185.944 396.617 186.165 396.693C186.387 396.769 186.589 396.892 186.771 397.062C186.952 397.231 187.097 397.455 187.205 397.733C187.313 398.011 187.367 398.354 187.367 398.761V399.045H184.004V398.466H186.685C186.685 398.22 186.636 398 186.538 397.807C186.441 397.614 186.303 397.461 186.123 397.349C185.945 397.238 185.735 397.182 185.492 397.182C185.225 397.182 184.994 397.248 184.799 397.381C184.606 397.511 184.457 397.682 184.353 397.892C184.249 398.102 184.197 398.328 184.197 398.568V398.955C184.197 399.284 184.254 399.563 184.367 399.793C184.483 400.02 184.643 400.193 184.847 400.312C185.052 400.43 185.29 400.489 185.56 400.489C185.737 400.489 185.896 400.464 186.038 400.415C186.182 400.364 186.306 400.288 186.41 400.188C186.514 400.085 186.594 399.958 186.651 399.807L187.299 399.989C187.231 400.208 187.116 400.402 186.955 400.568C186.794 400.733 186.595 400.862 186.359 400.955C186.122 401.045 185.856 401.091 185.56 401.091Z" fill="black"/>
<path d="M90.8175 393.503H90.113C90.0713 393.301 89.9984 393.123 89.8942 392.969C89.7919 392.816 89.6669 392.687 89.5192 392.583C89.3734 392.477 89.2115 392.397 89.0334 392.344C88.8554 392.291 88.6698 392.265 88.4766 392.265C88.1243 392.265 87.8052 392.354 87.5192 392.532C87.2351 392.71 87.0088 392.972 86.8402 393.319C86.6736 393.665 86.5902 394.091 86.5902 394.594C86.5902 395.098 86.6736 395.523 86.8402 395.87C87.0088 396.216 87.2351 396.479 87.5192 396.657C87.8052 396.835 88.1243 396.924 88.4766 396.924C88.6698 396.924 88.8554 396.897 89.0334 396.844C89.2115 396.791 89.3734 396.713 89.5192 396.609C89.6669 396.502 89.7919 396.373 89.8942 396.219C89.9984 396.064 90.0713 395.886 90.113 395.685H90.8175C90.7645 395.983 90.6679 396.249 90.5277 396.484C90.3876 396.718 90.2133 396.918 90.005 397.083C89.7967 397.246 89.5628 397.37 89.3033 397.455C89.0457 397.54 88.7702 397.583 88.4766 397.583C87.9804 397.583 87.5391 397.462 87.1527 397.219C86.7664 396.977 86.4624 396.632 86.2408 396.185C86.0192 395.738 85.9084 395.208 85.9084 394.594C85.9084 393.981 86.0192 393.45 86.2408 393.003C86.4624 392.556 86.7664 392.212 87.1527 391.969C87.5391 391.727 87.9804 391.606 88.4766 391.606C88.7702 391.606 89.0457 391.648 89.3033 391.734C89.5628 391.819 89.7967 391.944 90.005 392.109C90.2133 392.271 90.3876 392.47 90.5277 392.705C90.6679 392.938 90.7645 393.204 90.8175 393.503ZM91.8651 397.503V393.14H92.5128V393.799H92.5583C92.6378 393.583 92.7818 393.408 92.9901 393.273C93.1984 393.139 93.4333 393.072 93.6946 393.072C93.7439 393.072 93.8054 393.073 93.8793 393.074C93.9532 393.076 94.009 393.079 94.0469 393.083V393.765C94.0242 393.759 93.9721 393.751 93.8907 393.739C93.8111 393.726 93.7268 393.719 93.6378 393.719C93.4257 393.719 93.2363 393.764 93.0696 393.853C92.9049 393.94 92.7742 394.061 92.6776 394.216C92.5829 394.37 92.5356 394.545 92.5356 394.742V397.503H91.8651ZM96.5384 397.594C96.1179 397.594 95.7552 397.502 95.4503 397.316C95.1473 397.128 94.9134 396.867 94.7486 396.532C94.5857 396.195 94.5043 395.803 94.5043 395.356C94.5043 394.909 94.5857 394.515 94.7486 394.174C94.9134 393.831 95.1426 393.564 95.4361 393.373C95.7316 393.18 96.0763 393.083 96.4702 393.083C96.6975 393.083 96.9219 393.121 97.1435 393.197C97.3651 393.272 97.5668 393.395 97.7486 393.566C97.9304 393.734 98.0753 393.958 98.1833 394.236C98.2912 394.515 98.3452 394.858 98.3452 395.265V395.549H94.9816V394.969H97.6634C97.6634 394.723 97.6142 394.503 97.5157 394.31C97.4191 394.117 97.2808 393.965 97.1009 393.853C96.9229 393.741 96.7126 393.685 96.4702 393.685C96.2032 393.685 95.9721 393.752 95.777 393.884C95.5838 394.015 95.4352 394.185 95.331 394.395C95.2268 394.606 95.1748 394.831 95.1748 395.072V395.458C95.1748 395.788 95.2316 396.067 95.3452 396.296C95.4607 396.523 95.6208 396.697 95.8253 396.816C96.0299 396.933 96.2676 396.992 96.5384 396.992C96.7145 396.992 96.8736 396.967 97.0157 396.918C97.1596 396.867 97.2837 396.791 97.3878 396.691C97.492 396.589 97.5725 396.462 97.6293 396.31L98.277 396.492C98.2088 396.712 98.0943 396.905 97.9333 397.072C97.7723 397.236 97.5734 397.365 97.3367 397.458C97.0999 397.549 96.8338 397.594 96.5384 397.594ZM100.649 397.606C100.373 397.606 100.122 397.554 99.8963 397.449C99.671 397.343 99.492 397.191 99.3594 396.992C99.2268 396.791 99.1606 396.549 99.1606 396.265C99.1606 396.015 99.2098 395.812 99.3083 395.657C99.4068 395.5 99.5384 395.377 99.7032 395.288C99.8679 395.198 100.05 395.132 100.249 395.089C100.449 395.043 100.651 395.007 100.854 394.981C101.119 394.947 101.334 394.921 101.499 394.904C101.665 394.885 101.786 394.854 101.862 394.81C101.94 394.767 101.979 394.691 101.979 394.583V394.56C101.979 394.28 101.902 394.062 101.749 393.907C101.597 393.752 101.367 393.674 101.058 393.674C100.738 393.674 100.487 393.744 100.305 393.884C100.124 394.024 99.9958 394.174 99.9219 394.333L99.2856 394.106C99.3992 393.841 99.5507 393.634 99.7401 393.486C99.9314 393.337 100.14 393.233 100.365 393.174C100.592 393.113 100.816 393.083 101.036 393.083C101.176 393.083 101.337 393.1 101.519 393.134C101.702 393.166 101.879 393.234 102.05 393.336C102.222 393.438 102.365 393.592 102.479 393.799C102.592 394.005 102.649 394.282 102.649 394.628V397.503H101.979V396.913H101.945C101.899 397.007 101.823 397.109 101.717 397.216C101.611 397.324 101.47 397.416 101.294 397.492C101.118 397.568 100.903 397.606 100.649 397.606ZM100.751 397.003C101.017 397.003 101.24 396.951 101.422 396.847C101.606 396.743 101.744 396.609 101.837 396.444C101.931 396.279 101.979 396.106 101.979 395.924V395.31C101.95 395.344 101.888 395.376 101.791 395.404C101.697 395.431 101.587 395.454 101.462 395.475C101.339 395.494 101.218 395.511 101.101 395.526C100.985 395.539 100.892 395.551 100.82 395.56C100.645 395.583 100.483 395.62 100.331 395.671C100.181 395.72 100.06 395.795 99.9674 395.895C99.8765 395.994 99.831 396.128 99.831 396.299C99.831 396.532 99.9172 396.708 100.09 396.827C100.264 396.945 100.484 397.003 100.751 397.003ZM105.771 393.14V393.708H103.509V393.14H105.771ZM104.168 392.094H104.839V396.253C104.839 396.443 104.866 396.585 104.921 396.68C104.978 396.772 105.05 396.835 105.137 396.867C105.226 396.897 105.32 396.913 105.418 396.913C105.492 396.913 105.553 396.909 105.6 396.901C105.648 396.892 105.685 396.884 105.714 396.878L105.85 397.481C105.805 397.498 105.741 397.515 105.66 397.532C105.578 397.551 105.475 397.56 105.35 397.56C105.161 397.56 104.975 397.52 104.793 397.438C104.613 397.357 104.464 397.233 104.345 397.066C104.227 396.899 104.168 396.689 104.168 396.435V392.094ZM106.779 397.503V393.14H107.45V397.503H106.779ZM107.12 392.413C106.989 392.413 106.877 392.368 106.782 392.279C106.689 392.19 106.643 392.083 106.643 391.958C106.643 391.833 106.689 391.726 106.782 391.637C106.877 391.548 106.989 391.503 107.12 391.503C107.251 391.503 107.362 391.548 107.455 391.637C107.55 391.726 107.597 391.833 107.597 391.958C107.597 392.083 107.55 392.19 107.455 392.279C107.362 392.368 107.251 392.413 107.12 392.413ZM110.45 397.594C110.056 397.594 109.711 397.501 109.413 397.313C109.118 397.126 108.887 396.863 108.72 396.526C108.555 396.189 108.473 395.795 108.473 395.344C108.473 394.89 108.555 394.493 108.72 394.154C108.887 393.815 109.118 393.552 109.413 393.364C109.711 393.177 110.056 393.083 110.45 393.083C110.844 393.083 111.189 393.177 111.484 393.364C111.782 393.552 112.013 393.815 112.178 394.154C112.344 394.493 112.428 394.89 112.428 395.344C112.428 395.795 112.344 396.189 112.178 396.526C112.013 396.863 111.782 397.126 111.484 397.313C111.189 397.501 110.844 397.594 110.45 397.594ZM110.45 396.992C110.75 396.992 110.996 396.915 111.189 396.762C111.382 396.609 111.525 396.407 111.618 396.157C111.711 395.907 111.757 395.636 111.757 395.344C111.757 395.053 111.711 394.781 111.618 394.529C111.525 394.277 111.382 394.073 111.189 393.918C110.996 393.763 110.75 393.685 110.45 393.685C110.151 393.685 109.905 393.763 109.712 393.918C109.519 394.073 109.376 394.277 109.283 394.529C109.19 394.781 109.144 395.053 109.144 395.344C109.144 395.636 109.19 395.907 109.283 396.157C109.376 396.407 109.519 396.609 109.712 396.762C109.905 396.915 110.151 396.992 110.45 396.992ZM114.121 394.878V397.503H113.451V393.14H114.099V393.822H114.156C114.258 393.6 114.413 393.422 114.621 393.288C114.83 393.151 115.099 393.083 115.428 393.083C115.724 393.083 115.982 393.144 116.204 393.265C116.425 393.384 116.598 393.566 116.721 393.81C116.844 394.053 116.906 394.359 116.906 394.731V397.503H116.235V394.776C116.235 394.433 116.146 394.166 115.968 393.975C115.79 393.782 115.546 393.685 115.235 393.685C115.021 393.685 114.83 393.732 114.661 393.824C114.495 393.917 114.363 394.053 114.266 394.231C114.17 394.409 114.121 394.625 114.121 394.878ZM94.8637 401.685V407.503H94.1591V401.685H94.8637ZM97.9581 407.594C97.549 407.594 97.1968 407.498 96.9013 407.305C96.6059 407.111 96.3786 406.845 96.2195 406.506C96.0604 406.167 95.9809 405.78 95.9809 405.344C95.9809 404.901 96.0623 404.51 96.2252 404.171C96.39 403.83 96.6191 403.564 96.9127 403.373C97.2081 403.18 97.5528 403.083 97.9468 403.083C98.2536 403.083 98.5301 403.14 98.7763 403.253C99.0225 403.367 99.2242 403.526 99.3814 403.731C99.5386 403.935 99.6362 404.174 99.674 404.447H99.0036C98.9525 404.248 98.8388 404.072 98.6627 403.918C98.4884 403.763 98.2536 403.685 97.9581 403.685C97.6968 403.685 97.4676 403.753 97.2706 403.89C97.0756 404.024 96.9231 404.215 96.8133 404.461C96.7053 404.705 96.6513 404.992 96.6513 405.322C96.6513 405.659 96.7043 405.952 96.8104 406.202C96.9184 406.452 97.0699 406.646 97.265 406.785C97.4619 406.923 97.693 406.992 97.9581 406.992C98.1324 406.992 98.2905 406.962 98.4326 406.901C98.5746 406.841 98.6949 406.753 98.7934 406.64C98.8918 406.526 98.9619 406.39 99.0036 406.231H99.674C99.6362 406.488 99.5424 406.72 99.3928 406.927C99.2451 407.131 99.049 407.294 98.8047 407.415C98.5623 407.535 98.2801 407.594 97.9581 407.594ZM102.427 407.594C102.033 407.594 101.687 407.501 101.39 407.313C101.095 407.126 100.863 406.863 100.697 406.526C100.532 406.189 100.45 405.795 100.45 405.344C100.45 404.89 100.532 404.493 100.697 404.154C100.863 403.815 101.095 403.552 101.39 403.364C101.687 403.177 102.033 403.083 102.427 403.083C102.821 403.083 103.166 403.177 103.461 403.364C103.758 403.552 103.989 403.815 104.154 404.154C104.321 404.493 104.404 404.89 104.404 405.344C104.404 405.795 104.321 406.189 104.154 406.526C103.989 406.863 103.758 407.126 103.461 407.313C103.166 407.501 102.821 407.594 102.427 407.594ZM102.427 406.992C102.726 406.992 102.972 406.915 103.166 406.762C103.359 406.609 103.502 406.407 103.595 406.157C103.687 405.907 103.734 405.636 103.734 405.344C103.734 405.053 103.687 404.781 103.595 404.529C103.502 404.277 103.359 404.073 103.166 403.918C102.972 403.763 102.726 403.685 102.427 403.685C102.128 403.685 101.881 403.763 101.688 403.918C101.495 404.073 101.352 404.277 101.259 404.529C101.166 404.781 101.12 405.053 101.12 405.344C101.12 405.636 101.166 405.907 101.259 406.157C101.352 406.407 101.495 406.609 101.688 406.762C101.881 406.915 102.128 406.992 102.427 406.992ZM106.098 404.878V407.503H105.428V403.14H106.075V403.822H106.132C106.234 403.6 106.39 403.422 106.598 403.288C106.806 403.151 107.075 403.083 107.405 403.083C107.7 403.083 107.959 403.144 108.18 403.265C108.402 403.384 108.574 403.566 108.697 403.81C108.821 404.053 108.882 404.359 108.882 404.731V407.503H108.212V404.776C108.212 404.433 108.123 404.166 107.945 403.975C107.767 403.782 107.522 403.685 107.212 403.685C106.998 403.685 106.806 403.732 106.638 403.824C106.471 403.917 106.34 404.053 106.243 404.231C106.146 404.409 106.098 404.625 106.098 404.878Z" fill="black"/>
</svg>
