<svg width="202" height="431" viewBox="0 0 202 431" fill="none" xmlns="http://www.w3.org/2000/svg">
<rect width="202" height="431" fill="white"/>
<rect y="364.04" width="202" height="66.9606" fill="#D9D9D9"/>
<rect x="9.96411" y="15.0898" width="156.709" height="16.0328" fill="#D9D9D9"/>
<rect x="9.96411" y="37.7241" width="41.6682" height="7.54486" fill="#D9D9D9"/>
<rect x="56.1614" y="37.7241" width="42.574" height="7.54486" fill="#D9D9D9"/>
<rect x="102.359" y="37.7241" width="43.4798" height="7.54486" fill="#D9D9D9"/>
<rect x="149.462" y="37.7241" width="42.574" height="7.54486" fill="#656565"/>
<path d="M20.8864 23.6364C20.8523 23.3485 20.714 23.125 20.4716 22.9659C20.2292 22.8068 19.9318 22.7273 19.5795 22.7273C19.322 22.7273 19.0966 22.7689 18.9034 22.8523C18.7121 22.9356 18.5625 23.0502 18.4545 23.196C18.3485 23.3419 18.2955 23.5076 18.2955 23.6932C18.2955 23.8485 18.3324 23.982 18.4062 24.0938C18.482 24.2036 18.5786 24.2955 18.696 24.3693C18.8134 24.4413 18.9366 24.5009 19.0653 24.5483C19.1941 24.5937 19.3125 24.6307 19.4205 24.6591L20.0114 24.8182C20.1629 24.858 20.3314 24.9129 20.517 24.983C20.7045 25.053 20.8835 25.1487 21.054 25.2699C21.2263 25.3892 21.3684 25.5426 21.4801 25.7301C21.5919 25.9176 21.6477 26.1477 21.6477 26.4205C21.6477 26.7348 21.5653 27.0189 21.4006 27.2727C21.2377 27.5265 20.9991 27.7282 20.6847 27.8778C20.3722 28.0275 19.9924 28.1023 19.5455 28.1023C19.1288 28.1023 18.768 28.035 18.4631 27.9006C18.16 27.7661 17.9214 27.5786 17.7472 27.3381C17.5748 27.0975 17.4773 26.8182 17.4545 26.5H18.1818C18.2008 26.7197 18.2746 26.9015 18.4034 27.0455C18.5341 27.1875 18.6989 27.2936 18.8977 27.3636C19.0985 27.4318 19.3144 27.4659 19.5455 27.4659C19.8144 27.4659 20.0559 27.4223 20.2699 27.3352C20.4839 27.2462 20.6534 27.1231 20.7784 26.9659C20.9034 26.8068 20.9659 26.6212 20.9659 26.4091C20.9659 26.2159 20.9119 26.0587 20.804 25.9375C20.696 25.8163 20.554 25.7178 20.3778 25.642C20.2017 25.5663 20.0114 25.5 19.8068 25.4432L19.0909 25.2386C18.6364 25.108 18.2765 24.9214 18.0114 24.679C17.7462 24.4366 17.6136 24.1193 17.6136 23.7273C17.6136 23.4015 17.7017 23.1174 17.8778 22.875C18.0559 22.6307 18.2945 22.4413 18.5938 22.3068C18.8949 22.1705 19.2311 22.1023 19.6023 22.1023C19.9773 22.1023 20.3106 22.1695 20.6023 22.304C20.8939 22.4366 21.125 22.6184 21.2955 22.8494C21.4678 23.0805 21.5587 23.3428 21.5682 23.6364H20.8864ZM24.5447 28.0909C24.1243 28.0909 23.7616 27.9981 23.4567 27.8125C23.1536 27.625 22.9197 27.3636 22.755 27.0284C22.5921 26.6913 22.5107 26.2992 22.5107 25.8523C22.5107 25.4053 22.5921 25.0114 22.755 24.6705C22.9197 24.3277 23.1489 24.0606 23.4425 23.8693C23.7379 23.6761 24.0826 23.5795 24.4766 23.5795C24.7038 23.5795 24.9283 23.6174 25.1499 23.6932C25.3714 23.7689 25.5732 23.892 25.755 24.0625C25.9368 24.2311 26.0817 24.4545 26.1896 24.733C26.2976 25.0114 26.3516 25.3542 26.3516 25.7614V26.0455H22.9879V25.4659H25.6697C25.6697 25.2197 25.6205 25 25.522 24.8068C25.4254 24.6136 25.2872 24.4612 25.1072 24.3494C24.9292 24.2377 24.719 24.1818 24.4766 24.1818C24.2095 24.1818 23.9785 24.2481 23.7834 24.3807C23.5902 24.5114 23.4415 24.6818 23.3374 24.892C23.2332 25.1023 23.1811 25.3277 23.1811 25.5682V25.9545C23.1811 26.2841 23.2379 26.5634 23.3516 26.7926C23.4671 27.0199 23.6271 27.1932 23.8317 27.3125C24.0362 27.4299 24.2739 27.4886 24.5447 27.4886C24.7209 27.4886 24.88 27.464 25.022 27.4148C25.166 27.3636 25.29 27.2879 25.3942 27.1875C25.4983 27.0852 25.5788 26.9583 25.6357 26.8068L26.2834 26.9886C26.2152 27.2083 26.1006 27.4015 25.9396 27.5682C25.7786 27.733 25.5798 27.8617 25.343 27.9545C25.1063 28.0455 24.8402 28.0909 24.5447 28.0909ZM28.6555 28.1023C28.379 28.1023 28.1281 28.0502 27.9027 27.946C27.6773 27.84 27.4983 27.6875 27.3658 27.4886C27.2332 27.2879 27.1669 27.0455 27.1669 26.7614C27.1669 26.5114 27.2161 26.3087 27.3146 26.1534C27.4131 25.9962 27.5447 25.8731 27.7095 25.7841C27.8743 25.6951 28.0561 25.6288 28.255 25.5852C28.4557 25.5398 28.6574 25.5038 28.8601 25.4773C29.1252 25.4432 29.3402 25.4176 29.505 25.4006C29.6716 25.3816 29.7929 25.3504 29.8686 25.3068C29.9463 25.2633 29.9851 25.1875 29.9851 25.0795V25.0568C29.9851 24.7765 29.9084 24.5587 29.755 24.4034C29.6035 24.2481 29.3733 24.1705 29.0646 24.1705C28.7446 24.1705 28.4936 24.2405 28.3118 24.3807C28.13 24.5208 28.0021 24.6705 27.9283 24.8295L27.2919 24.6023C27.4055 24.3371 27.5571 24.1307 27.7464 23.983C27.9377 23.8333 28.1461 23.7292 28.3714 23.6705C28.5987 23.6098 28.8222 23.5795 29.0419 23.5795C29.1821 23.5795 29.343 23.5966 29.5249 23.6307C29.7086 23.6629 29.8857 23.7301 30.0561 23.8324C30.2285 23.9347 30.3714 24.089 30.4851 24.2955C30.5987 24.5019 30.6555 24.7784 30.6555 25.125V28H29.9851V27.4091H29.951C29.9055 27.5038 29.8298 27.6051 29.7237 27.7131C29.6177 27.821 29.4766 27.9129 29.3004 27.9886C29.1243 28.0644 28.9093 28.1023 28.6555 28.1023ZM28.7578 27.5C29.023 27.5 29.2464 27.4479 29.4283 27.3438C29.612 27.2396 29.7502 27.1051 29.843 26.9403C29.9377 26.7756 29.9851 26.6023 29.9851 26.4205V25.8068C29.9567 25.8409 29.8942 25.8722 29.7976 25.9006C29.7029 25.9271 29.593 25.9508 29.468 25.9716C29.3449 25.9905 29.2247 26.0076 29.1072 26.0227C28.9917 26.036 28.898 26.0473 28.826 26.0568C28.6518 26.0795 28.4889 26.1165 28.3374 26.1676C28.1877 26.2169 28.0665 26.2917 27.9737 26.392C27.8828 26.4905 27.8374 26.625 27.8374 26.7955C27.8374 27.0284 27.9235 27.2045 28.0959 27.3239C28.2701 27.4413 28.4908 27.5 28.7578 27.5ZM31.8793 28V23.6364H32.527V24.2955H32.5724C32.652 24.0795 32.7959 23.9044 33.0043 23.7699C33.2126 23.6354 33.4474 23.5682 33.7088 23.5682C33.758 23.5682 33.8196 23.5691 33.8935 23.571C33.9673 23.5729 34.0232 23.5758 34.0611 23.5795V24.2614C34.0384 24.2557 33.9863 24.2472 33.9048 24.2358C33.8253 24.2225 33.741 24.2159 33.652 24.2159C33.4399 24.2159 33.2505 24.2604 33.0838 24.3494C32.919 24.4366 32.7884 24.5578 32.6918 24.7131C32.5971 24.8665 32.5497 25.0417 32.5497 25.2386V28H31.8793ZM36.4957 28.0909C36.0866 28.0909 35.7344 27.9943 35.4389 27.8011C35.1435 27.608 34.9162 27.3419 34.7571 27.0028C34.598 26.6638 34.5185 26.2765 34.5185 25.8409C34.5185 25.3977 34.5999 25.0066 34.7628 24.6676C34.9276 24.3267 35.1567 24.0606 35.4503 23.8693C35.7457 23.6761 36.0904 23.5795 36.4844 23.5795C36.7912 23.5795 37.0677 23.6364 37.3139 23.75C37.5601 23.8636 37.7618 24.0227 37.919 24.2273C38.0762 24.4318 38.1738 24.6705 38.2116 24.9432H37.5412C37.4901 24.7443 37.3764 24.5682 37.2003 24.4148C37.026 24.2595 36.7912 24.1818 36.4957 24.1818C36.2344 24.1818 36.0052 24.25 35.8082 24.3864C35.6132 24.5208 35.4607 24.7112 35.3509 24.9574C35.2429 25.2017 35.1889 25.4886 35.1889 25.8182C35.1889 26.1553 35.242 26.4489 35.348 26.6989C35.456 26.9489 35.6075 27.143 35.8026 27.2812C35.9995 27.4195 36.2306 27.4886 36.4957 27.4886C36.67 27.4886 36.8281 27.4583 36.9702 27.3977C37.1122 27.3371 37.2325 27.25 37.331 27.1364C37.4295 27.0227 37.4995 26.8864 37.5412 26.7273H38.2116C38.1738 26.9848 38.08 27.2169 37.9304 27.4233C37.7827 27.6278 37.5866 27.7907 37.3423 27.9119C37.0999 28.0312 36.8177 28.0909 36.4957 28.0909ZM39.8622 25.375V28H39.1918V22.1818H39.8622V24.3182H39.919C40.0213 24.0928 40.1747 23.9138 40.3793 23.7812C40.5857 23.6468 40.8603 23.5795 41.2031 23.5795C41.5005 23.5795 41.7609 23.6392 41.9844 23.7585C42.2079 23.8759 42.3812 24.0568 42.5043 24.3011C42.6293 24.5436 42.6918 24.8523 42.6918 25.2273V28H42.0213V25.2727C42.0213 24.9261 41.9313 24.6581 41.7514 24.4688C41.5734 24.2775 41.3262 24.1818 41.0099 24.1818C40.7902 24.1818 40.5933 24.2282 40.419 24.321C40.2467 24.4138 40.1103 24.5492 40.0099 24.7273C39.9115 24.9053 39.8622 25.1212 39.8622 25.375ZM46.2592 28V22.1818H48.2933C48.6986 22.1818 49.0329 22.2519 49.2962 22.392C49.5594 22.5303 49.7554 22.7169 49.8842 22.9517C50.013 23.1847 50.0774 23.4432 50.0774 23.7273C50.0774 23.9773 50.0329 24.1837 49.9439 24.3466C49.8568 24.5095 49.7412 24.6383 49.5973 24.733C49.4553 24.8277 49.3009 24.8977 49.1342 24.9432V25C49.3123 25.0114 49.4912 25.0739 49.6712 25.1875C49.8511 25.3011 50.0017 25.464 50.1229 25.6761C50.2441 25.8883 50.3047 26.1477 50.3047 26.4545C50.3047 26.7462 50.2384 27.0085 50.1058 27.2415C49.9732 27.4744 49.764 27.6591 49.478 27.7955C49.192 27.9318 48.8198 28 48.3615 28H46.2592ZM46.9638 27.375H48.3615C48.8217 27.375 49.1484 27.286 49.3416 27.108C49.5367 26.928 49.6342 26.7102 49.6342 26.4545C49.6342 26.2576 49.584 26.0758 49.4837 25.9091C49.3833 25.7405 49.2403 25.6061 49.0547 25.5057C48.8691 25.4034 48.6494 25.3523 48.3956 25.3523H46.9638V27.375ZM46.9638 24.7386H48.2706C48.4827 24.7386 48.674 24.697 48.8445 24.6136C49.0168 24.5303 49.1532 24.4129 49.2536 24.2614C49.3558 24.1098 49.407 23.9318 49.407 23.7273C49.407 23.4716 49.3179 23.2547 49.1399 23.0767C48.9619 22.8968 48.6797 22.8068 48.2933 22.8068H46.9638V24.7386ZM52.6555 28.1023C52.379 28.1023 52.1281 28.0502 51.9027 27.946C51.6773 27.84 51.4983 27.6875 51.3658 27.4886C51.2332 27.2879 51.1669 27.0455 51.1669 26.7614C51.1669 26.5114 51.2161 26.3087 51.3146 26.1534C51.4131 25.9962 51.5447 25.8731 51.7095 25.7841C51.8743 25.6951 52.0561 25.6288 52.255 25.5852C52.4557 25.5398 52.6574 25.5038 52.8601 25.4773C53.1252 25.4432 53.3402 25.4176 53.505 25.4006C53.6716 25.3816 53.7929 25.3504 53.8686 25.3068C53.9463 25.2633 53.9851 25.1875 53.9851 25.0795V25.0568C53.9851 24.7765 53.9084 24.5587 53.755 24.4034C53.6035 24.2481 53.3733 24.1705 53.0646 24.1705C52.7446 24.1705 52.4936 24.2405 52.3118 24.3807C52.13 24.5208 52.0021 24.6705 51.9283 24.8295L51.2919 24.6023C51.4055 24.3371 51.5571 24.1307 51.7464 23.983C51.9377 23.8333 52.1461 23.7292 52.3714 23.6705C52.5987 23.6098 52.8222 23.5795 53.0419 23.5795C53.1821 23.5795 53.343 23.5966 53.5249 23.6307C53.7086 23.6629 53.8857 23.7301 54.0561 23.8324C54.2285 23.9347 54.3714 24.089 54.4851 24.2955C54.5987 24.5019 54.6555 24.7784 54.6555 25.125V28H53.9851V27.4091H53.951C53.9055 27.5038 53.8298 27.6051 53.7237 27.7131C53.6177 27.821 53.4766 27.9129 53.3004 27.9886C53.1243 28.0644 52.9093 28.1023 52.6555 28.1023ZM52.7578 27.5C53.023 27.5 53.2464 27.4479 53.4283 27.3438C53.612 27.2396 53.7502 27.1051 53.843 26.9403C53.9377 26.7756 53.9851 26.6023 53.9851 26.4205V25.8068C53.9567 25.8409 53.8942 25.8722 53.7976 25.9006C53.7029 25.9271 53.593 25.9508 53.468 25.9716C53.3449 25.9905 53.2247 26.0076 53.1072 26.0227C52.9917 26.036 52.898 26.0473 52.826 26.0568C52.6518 26.0795 52.4889 26.1165 52.3374 26.1676C52.1877 26.2169 52.0665 26.2917 51.9737 26.392C51.8828 26.4905 51.8374 26.625 51.8374 26.7955C51.8374 27.0284 51.9235 27.2045 52.0959 27.3239C52.2701 27.4413 52.4908 27.5 52.7578 27.5ZM55.8793 28V23.6364H56.527V24.2955H56.5724C56.652 24.0795 56.7959 23.9044 57.0043 23.7699C57.2126 23.6354 57.4474 23.5682 57.7088 23.5682C57.758 23.5682 57.8196 23.5691 57.8935 23.571C57.9673 23.5729 58.0232 23.5758 58.0611 23.5795V24.2614C58.0384 24.2557 57.9863 24.2472 57.9048 24.2358C57.8253 24.2225 57.741 24.2159 57.652 24.2159C57.4399 24.2159 57.2505 24.2604 57.0838 24.3494C56.919 24.4366 56.7884 24.5578 56.6918 24.7131C56.5971 24.8665 56.5497 25.0417 56.5497 25.2386V28H55.8793Z" fill="black"/>
<rect x="174.825" y="15.0898" width="17.2108" height="16.0328" fill="#D9D9D9"/>
<rect x="3.75818" y="381.118" width="35.2326" height="32.8173" fill="#656565"/>
<rect x="43.6882" y="381.118" width="35.2326" height="32.8173" fill="white"/>
<rect x="83.6187" y="381.118" width="35.2326" height="32.8173" fill="white"/>
<rect x="123.549" y="381.118" width="35.2326" height="32.8173" fill="white"/>
<rect x="163.479" y="381.118" width="35.2326" height="32.8173" fill="white"/>
<path d="M161.241 39.7543V39.3636H163.969V39.7543H162.825V43H162.385V39.7543H161.241ZM164.308 43V40.2727H164.713V40.6847H164.742C164.791 40.5497 164.881 40.4402 165.011 40.3562C165.142 40.2721 165.288 40.2301 165.452 40.2301C165.483 40.2301 165.521 40.2307 165.567 40.2319C165.613 40.2331 165.648 40.2348 165.672 40.2372V40.6634C165.658 40.6598 165.625 40.6545 165.574 40.6474C165.525 40.6391 165.472 40.6349 165.416 40.6349C165.284 40.6349 165.165 40.6628 165.061 40.7184C164.958 40.7728 164.877 40.8486 164.816 40.9457C164.757 41.0415 164.727 41.151 164.727 41.2741V43H164.308ZM167.229 43.0568C166.966 43.0568 166.74 42.9988 166.549 42.8828C166.36 42.7656 166.214 42.6023 166.111 42.3928C166.009 42.1821 165.958 41.937 165.958 41.6577C165.958 41.3783 166.009 41.1321 166.111 40.919C166.214 40.7048 166.357 40.5379 166.54 40.4183C166.725 40.2976 166.94 40.2372 167.187 40.2372C167.329 40.2372 167.469 40.2609 167.607 40.3082C167.746 40.3556 167.872 40.4325 167.986 40.5391C168.099 40.6444 168.19 40.7841 168.257 40.9581C168.325 41.1321 168.358 41.3464 168.358 41.6009V41.7784H166.256V41.4162H167.932C167.932 41.2623 167.901 41.125 167.84 41.0043C167.78 40.8835 167.693 40.7882 167.581 40.7184C167.469 40.6486 167.338 40.6136 167.187 40.6136C167.02 40.6136 166.875 40.6551 166.753 40.7379C166.633 40.8196 166.54 40.9261 166.475 41.0575C166.409 41.1889 166.377 41.3298 166.377 41.4801V41.7216C166.377 41.9276 166.412 42.1022 166.483 42.2454C166.556 42.3874 166.656 42.4957 166.783 42.5703C166.911 42.6437 167.06 42.6804 167.229 42.6804C167.339 42.6804 167.439 42.665 167.527 42.6342C167.617 42.6023 167.695 42.5549 167.76 42.4922C167.825 42.4283 167.875 42.349 167.911 42.2543L168.316 42.3679C168.273 42.5052 168.202 42.6259 168.101 42.7301C168 42.8331 167.876 42.9136 167.728 42.9716C167.58 43.0284 167.414 43.0568 167.229 43.0568ZM169.415 41.3594V43H168.996V40.2727H169.401V40.6989H169.436C169.5 40.5604 169.597 40.4491 169.727 40.3651C169.858 40.2798 170.026 40.2372 170.232 40.2372C170.416 40.2372 170.578 40.2751 170.716 40.3509C170.855 40.4254 170.963 40.5391 171.04 40.6918C171.116 40.8433 171.155 41.035 171.155 41.267V43H170.736V41.2955C170.736 41.0812 170.68 40.9143 170.569 40.7947C170.458 40.674 170.305 40.6136 170.111 40.6136C169.977 40.6136 169.858 40.6426 169.752 40.7006C169.648 40.7586 169.566 40.8433 169.505 40.9545C169.445 41.0658 169.415 41.2008 169.415 41.3594ZM172.95 43.0568C172.723 43.0568 172.523 42.9994 172.349 42.8846C172.175 42.7686 172.038 42.6052 171.94 42.3945C171.842 42.1826 171.793 41.9323 171.793 41.6435C171.793 41.357 171.842 41.1084 171.94 40.8977C172.038 40.687 172.175 40.5243 172.35 40.4094C172.526 40.2946 172.728 40.2372 172.958 40.2372C173.135 40.2372 173.275 40.2668 173.378 40.326C173.483 40.384 173.562 40.4503 173.616 40.5249C173.672 40.5982 173.715 40.6586 173.746 40.706H173.781V39.3636H174.2V43H173.796V42.581H173.746C173.715 42.6307 173.671 42.6934 173.615 42.7692C173.558 42.8437 173.477 42.9106 173.371 42.9698C173.266 43.0278 173.126 43.0568 172.95 43.0568ZM173.007 42.6804C173.175 42.6804 173.317 42.6366 173.433 42.549C173.549 42.4602 173.638 42.3377 173.698 42.1815C173.758 42.024 173.789 41.8423 173.789 41.6364C173.789 41.4328 173.759 41.2546 173.7 41.1019C173.641 40.948 173.553 40.8285 173.437 40.7433C173.321 40.6568 173.178 40.6136 173.007 40.6136C172.83 40.6136 172.682 40.6592 172.563 40.7504C172.446 40.8403 172.358 40.9628 172.299 41.1179C172.241 41.2718 172.212 41.4446 172.212 41.6364C172.212 41.8305 172.241 42.0069 172.301 42.1655C172.361 42.3229 172.45 42.4484 172.567 42.5419C172.685 42.6342 172.832 42.6804 173.007 42.6804ZM175.026 43V40.2727H175.445V43H175.026ZM175.239 39.8182C175.157 39.8182 175.087 39.7904 175.028 39.7347C174.97 39.6791 174.941 39.6122 174.941 39.5341C174.941 39.456 174.97 39.3891 175.028 39.3335C175.087 39.2778 175.157 39.25 175.239 39.25C175.321 39.25 175.391 39.2778 175.449 39.3335C175.508 39.3891 175.537 39.456 175.537 39.5341C175.537 39.6122 175.508 39.6791 175.449 39.7347C175.391 39.7904 175.321 39.8182 175.239 39.8182ZM176.632 41.3594V43H176.213V40.2727H176.617V40.6989H176.653C176.717 40.5604 176.814 40.4491 176.944 40.3651C177.074 40.2798 177.242 40.2372 177.448 40.2372C177.633 40.2372 177.795 40.2751 177.933 40.3509C178.072 40.4254 178.179 40.5391 178.256 40.6918C178.333 40.8433 178.372 41.035 178.372 41.267V43H177.953V41.2955C177.953 41.0812 177.897 40.9143 177.786 40.7947C177.675 40.674 177.522 40.6136 177.328 40.6136C177.194 40.6136 177.074 40.6426 176.969 40.7006C176.865 40.7586 176.783 40.8433 176.722 40.9545C176.662 41.0658 176.632 41.2008 176.632 41.3594ZM180.238 44.0795C180.036 44.0795 179.862 44.0535 179.716 44.0014C179.571 43.9505 179.449 43.883 179.352 43.799C179.256 43.7161 179.18 43.6274 179.123 43.5327L179.457 43.2983C179.495 43.348 179.543 43.4048 179.601 43.4688C179.659 43.5339 179.738 43.5901 179.839 43.6374C179.941 43.686 180.074 43.7102 180.238 43.7102C180.458 43.7102 180.64 43.657 180.783 43.5504C180.927 43.4439 180.998 43.277 180.998 43.0497V42.4957H180.963C180.932 42.5455 180.888 42.607 180.831 42.6804C180.776 42.7526 180.695 42.8171 180.59 42.8739C180.486 42.9296 180.345 42.9574 180.167 42.9574C179.947 42.9574 179.749 42.9053 179.574 42.8011C179.4 42.697 179.262 42.5455 179.161 42.3466C179.06 42.1477 179.01 41.9062 179.01 41.6222C179.01 41.3428 179.059 41.0996 179.157 40.8924C179.255 40.6841 179.392 40.5231 179.567 40.4094C179.742 40.2946 179.945 40.2372 180.174 40.2372C180.352 40.2372 180.493 40.2668 180.597 40.326C180.702 40.384 180.783 40.4503 180.838 40.5249C180.895 40.5982 180.939 40.6586 180.97 40.706H181.012V40.2727H181.417V43.0781C181.417 43.3125 181.364 43.5031 181.257 43.6499C181.152 43.7978 181.01 43.9061 180.831 43.9748C180.654 44.0446 180.456 44.0795 180.238 44.0795ZM180.224 42.581C180.392 42.581 180.534 42.5425 180.65 42.4656C180.766 42.3886 180.854 42.2779 180.915 42.1335C180.975 41.9891 181.005 41.8163 181.005 41.6151C181.005 41.4186 180.976 41.2451 180.917 41.0948C180.857 40.9445 180.77 40.8267 180.654 40.7415C180.538 40.6562 180.395 40.6136 180.224 40.6136C180.047 40.6136 179.899 40.6586 179.78 40.7486C179.663 40.8385 179.575 40.9593 179.516 41.1108C179.458 41.2623 179.429 41.4304 179.429 41.6151C179.429 41.8045 179.458 41.9719 179.517 42.1175C179.578 42.262 179.667 42.3756 179.784 42.4585C179.902 42.5401 180.049 42.581 180.224 42.581Z" fill="white"/>
<path d="M10.87 192.394L50.7265 228.232M10.87 192.394V228.232M10.87 192.394H50.7265M50.7265 228.232V192.394M50.7265 228.232H10.87M50.7265 192.394L10.87 228.232" stroke="black"/>
<path d="M10.87 234.833L50.7265 271.615M10.87 234.833V271.615M10.87 234.833H50.7265M50.7265 271.615V234.833M50.7265 271.615H10.87M50.7265 234.833L10.87 271.615" stroke="black"/>
<path d="M11.7758 278.217L50.7264 314.998M11.7758 278.217V314.998M11.7758 278.217H50.7264M50.7264 314.998V278.217M50.7264 314.998H11.7758M50.7264 278.217L11.7758 314.998" stroke="black"/>
<path d="M11.7758 321.6L50.7264 357.438M11.7758 321.6V357.438M11.7758 321.6H50.7264M50.7264 357.438V321.6M50.7264 357.438H11.7758M50.7264 321.6L11.7758 357.438" stroke="black"/>
<rect x="62.5022" y="192.394" width="129.534" height="35.8381" fill="#E3E3E3"/>
<rect x="62.5022" y="234.833" width="129.534" height="36.7812" fill="#E3E3E3"/>
<rect x="62.5022" y="278.217" width="129.534" height="36.7812" fill="#E3E3E3"/>
<rect x="62.5022" y="321.6" width="129.534" height="35.8381" fill="#E3E3E3"/>
<path d="M10.6687 62.7002V56.882H11.3732V59.7684H11.4414L14.055 56.882H14.9755L12.5323 59.507L14.9755 62.7002H14.1232L12.1005 59.9956L11.3732 60.8138V62.7002H10.6687ZM17.3057 62.7911C16.8853 62.7911 16.5226 62.6983 16.2177 62.5127C15.9146 62.3252 15.6807 62.0638 15.516 61.7286C15.3531 61.3915 15.2716 60.9994 15.2716 60.5525C15.2716 60.1055 15.3531 59.7116 15.516 59.3706C15.6807 59.0278 15.9099 58.7608 16.2035 58.5695C16.4989 58.3763 16.8436 58.2797 17.2375 58.2797C17.4648 58.2797 17.6893 58.3176 17.9108 58.3934C18.1324 58.4691 18.3341 58.5922 18.516 58.7627C18.6978 58.9313 18.8427 59.1547 18.9506 59.4331C19.0586 59.7116 19.1125 60.0544 19.1125 60.4616V60.7456H15.7489V60.1661H18.4307C18.4307 59.9199 18.3815 59.7002 18.283 59.507C18.1864 59.3138 18.0482 59.1614 17.8682 59.0496C17.6902 58.9379 17.48 58.882 17.2375 58.882C16.9705 58.882 16.7394 58.9483 16.5444 59.0809C16.3512 59.2116 16.2025 59.382 16.0983 59.5922C15.9942 59.8025 15.9421 60.0278 15.9421 60.2684V60.6547C15.9421 60.9843 15.9989 61.2636 16.1125 61.4928C16.2281 61.7201 16.3881 61.8934 16.5927 62.0127C16.7972 62.1301 17.0349 62.1888 17.3057 62.1888C17.4819 62.1888 17.641 62.1642 17.783 62.115C17.9269 62.0638 18.051 61.9881 18.1552 61.8877C18.2593 61.7854 18.3398 61.6585 18.3966 61.507L19.0444 61.6888C18.9762 61.9085 18.8616 62.1017 18.7006 62.2684C18.5396 62.4331 18.3408 62.5619 18.104 62.6547C17.8673 62.7456 17.6012 62.7911 17.3057 62.7911ZM20.4314 64.3366C20.3178 64.3366 20.2165 64.3271 20.1275 64.3081C20.0384 64.2911 19.9769 64.2741 19.9428 64.257L20.1133 63.6661C20.2761 63.7078 20.4201 63.7229 20.5451 63.7116C20.6701 63.7002 20.7809 63.6443 20.8775 63.5439C20.9759 63.4455 21.0659 63.2854 21.1474 63.0638L21.2724 62.7229L19.6587 58.3366H20.386L21.5905 61.8138H21.636L22.8405 58.3366H23.5678L21.7155 63.3366C21.6322 63.5619 21.529 63.7485 21.4059 63.8962C21.2828 64.0458 21.1398 64.1566 20.9769 64.2286C20.8159 64.3006 20.6341 64.3366 20.4314 64.3366ZM25.4414 62.7002L24.1118 58.3366H24.8164L25.7596 61.6775H25.805L26.7368 58.3366H27.4527L28.3732 61.6661H28.4187L29.3618 58.3366H30.0664L28.7368 62.7002H28.0777L27.1232 59.3479H27.055L26.1005 62.7002H25.4414ZM32.577 62.7911C32.1831 62.7911 31.8375 62.6974 31.5401 62.5099C31.2447 62.3224 31.0136 62.06 30.8469 61.7229C30.6822 61.3858 30.5998 60.9919 30.5998 60.5411C30.5998 60.0866 30.6822 59.6898 30.8469 59.3508C31.0136 59.0117 31.2447 58.7485 31.5401 58.561C31.8375 58.3735 32.1831 58.2797 32.577 58.2797C32.971 58.2797 33.3157 58.3735 33.6111 58.561C33.9085 58.7485 34.1395 59.0117 34.3043 59.3508C34.471 59.6898 34.5543 60.0866 34.5543 60.5411C34.5543 60.9919 34.471 61.3858 34.3043 61.7229C34.1395 62.06 33.9085 62.3224 33.6111 62.5099C33.3157 62.6974 32.971 62.7911 32.577 62.7911ZM32.577 62.1888C32.8763 62.1888 33.1225 62.1121 33.3157 61.9587C33.5089 61.8053 33.6518 61.6036 33.7447 61.3536C33.8375 61.1036 33.8839 60.8328 33.8839 60.5411C33.8839 60.2494 33.8375 59.9777 33.7447 59.7258C33.6518 59.4739 33.5089 59.2703 33.3157 59.115C33.1225 58.9597 32.8763 58.882 32.577 58.882C32.2778 58.882 32.0316 58.9597 31.8384 59.115C31.6452 59.2703 31.5022 59.4739 31.4094 59.7258C31.3166 59.9777 31.2702 60.2494 31.2702 60.5411C31.2702 60.8328 31.3166 61.1036 31.4094 61.3536C31.5022 61.6036 31.6452 61.8053 31.8384 61.9587C32.0316 62.1121 32.2778 62.1888 32.577 62.1888ZM35.5777 62.7002V58.3366H36.2255V58.9956H36.2709C36.3505 58.7797 36.4944 58.6046 36.7027 58.4701C36.9111 58.3356 37.1459 58.2684 37.4073 58.2684C37.4565 58.2684 37.5181 58.2693 37.592 58.2712C37.6658 58.2731 37.7217 58.276 37.7596 58.2797V58.9616C37.7368 58.9559 37.6848 58.9474 37.6033 58.936C37.5238 58.9227 37.4395 58.9161 37.3505 58.9161C37.1384 58.9161 36.949 58.9606 36.7823 59.0496C36.6175 59.1367 36.4868 59.258 36.3902 59.4133C36.2956 59.5667 36.2482 59.7419 36.2482 59.9388V62.7002H35.5777ZM40.0692 62.7911C39.7056 62.7911 39.3846 62.6992 39.1062 62.5155C38.8277 62.3299 38.6099 62.0686 38.4527 61.7314C38.2956 61.3924 38.217 60.9919 38.217 60.5297C38.217 60.0714 38.2956 59.6737 38.4527 59.3366C38.6099 58.9994 38.8287 58.739 39.109 58.5553C39.3893 58.3716 39.7132 58.2797 40.0806 58.2797C40.3647 58.2797 40.5891 58.3271 40.7539 58.4218C40.9206 58.5146 41.0474 58.6206 41.1346 58.74C41.2236 58.8574 41.2927 58.954 41.342 59.0297H41.3988V56.882H42.0692V62.7002H41.4215V62.0297H41.342C41.2927 62.1093 41.2226 62.2097 41.1317 62.3309C41.0408 62.4502 40.9111 62.5572 40.7425 62.6519C40.574 62.7447 40.3495 62.7911 40.0692 62.7911ZM40.1601 62.1888C40.4291 62.1888 40.6563 62.1188 40.842 61.9786C41.0276 61.8366 41.1687 61.6405 41.2652 61.3905C41.3618 61.1386 41.4101 60.8479 41.4101 60.5184C41.4101 60.1926 41.3628 59.9076 41.2681 59.6633C41.1734 59.4171 41.0332 59.2258 40.8476 59.0894C40.662 58.9511 40.4329 58.882 40.1601 58.882C39.876 58.882 39.6393 58.9549 39.4499 59.1008C39.2624 59.2447 39.1213 59.4407 39.0266 59.6888C38.9338 59.935 38.8874 60.2116 38.8874 60.5184C38.8874 60.829 38.9348 61.1112 39.0295 61.365C39.126 61.6169 39.2681 61.8176 39.4556 61.9672C39.645 62.115 39.8798 62.1888 40.1601 62.1888ZM46.4812 59.3138L45.8789 59.4843C45.841 59.3839 45.7851 59.2864 45.7113 59.1917C45.6393 59.0951 45.5408 59.0155 45.4158 58.953C45.2908 58.8905 45.1308 58.8593 44.9357 58.8593C44.6687 58.8593 44.4461 58.9208 44.2681 59.0439C44.092 59.1652 44.0039 59.3195 44.0039 59.507C44.0039 59.6737 44.0645 59.8053 44.1857 59.9019C44.3069 59.9985 44.4963 60.079 44.7539 60.1434L45.4016 60.3025C45.7918 60.3972 46.0825 60.5421 46.2738 60.7371C46.4651 60.9303 46.5607 61.1794 46.5607 61.4843C46.5607 61.7343 46.4887 61.9578 46.3448 62.1547C46.2027 62.3517 46.0039 62.507 45.7482 62.6206C45.4925 62.7343 45.1952 62.7911 44.8562 62.7911C44.4111 62.7911 44.0427 62.6945 43.751 62.5013C43.4594 62.3081 43.2747 62.026 43.1971 61.6547L43.8334 61.4956C43.894 61.7305 44.0086 61.9066 44.1772 62.0241C44.3476 62.1415 44.5702 62.2002 44.8448 62.2002C45.1573 62.2002 45.4054 62.1339 45.5891 62.0013C45.7747 61.8669 45.8675 61.7059 45.8675 61.5184C45.8675 61.3669 45.8145 61.24 45.7084 61.1377C45.6024 61.0335 45.4395 60.9559 45.2198 60.9047L44.4925 60.7343C44.0929 60.6396 43.7993 60.4928 43.6118 60.2939C43.4262 60.0932 43.3334 59.8422 43.3334 59.5411C43.3334 59.2949 43.4026 59.0771 43.5408 58.8877C43.681 58.6983 43.8713 58.5496 44.1118 58.4417C44.3543 58.3337 44.6289 58.2797 44.9357 58.2797C45.3675 58.2797 45.7065 58.3744 45.9527 58.5638C46.2009 58.7532 46.377 59.0032 46.4812 59.3138ZM51.5927 62.7911C51.1987 62.7911 50.8531 62.6974 50.5557 62.5099C50.2603 62.3224 50.0292 62.06 49.8625 61.7229C49.6978 61.3858 49.6154 60.9919 49.6154 60.5411C49.6154 60.0866 49.6978 59.6898 49.8625 59.3508C50.0292 59.0117 50.2603 58.7485 50.5557 58.561C50.8531 58.3735 51.1987 58.2797 51.5927 58.2797C51.9866 58.2797 52.3313 58.3735 52.6268 58.561C52.9241 58.7485 53.1552 59.0117 53.3199 59.3508C53.4866 59.6898 53.5699 60.0866 53.5699 60.5411C53.5699 60.9919 53.4866 61.3858 53.3199 61.7229C53.1552 62.06 52.9241 62.3224 52.6268 62.5099C52.3313 62.6974 51.9866 62.7911 51.5927 62.7911ZM51.5927 62.1888C51.8919 62.1888 52.1381 62.1121 52.3313 61.9587C52.5245 61.8053 52.6675 61.6036 52.7603 61.3536C52.8531 61.1036 52.8995 60.8328 52.8995 60.5411C52.8995 60.2494 52.8531 59.9777 52.7603 59.7258C52.6675 59.4739 52.5245 59.2703 52.3313 59.115C52.1381 58.9597 51.8919 58.882 51.5927 58.882C51.2934 58.882 51.0472 58.9597 50.854 59.115C50.6608 59.2703 50.5179 59.4739 50.425 59.7258C50.3322 59.9777 50.2858 60.2494 50.2858 60.5411C50.2858 60.8328 50.3322 61.1036 50.425 61.3536C50.5179 61.6036 50.6608 61.8053 50.854 61.9587C51.0472 62.1121 51.2934 62.1888 51.5927 62.1888ZM56.5366 58.3366V58.9047H54.1843V58.3366H56.5366ZM54.8888 62.7002V57.7343C54.8888 57.4843 54.9475 57.276 55.065 57.1093C55.1824 56.9426 55.3348 56.8176 55.5223 56.7343C55.7099 56.651 55.9078 56.6093 56.1161 56.6093C56.2809 56.6093 56.4153 56.6225 56.5195 56.6491C56.6237 56.6756 56.7013 56.7002 56.7525 56.7229L56.5593 57.3025C56.5252 57.2911 56.4778 57.2769 56.4172 57.2599C56.3585 57.2428 56.2809 57.2343 56.1843 57.2343C55.9627 57.2343 55.8027 57.2902 55.7042 57.4019C55.6076 57.5136 55.5593 57.6775 55.5593 57.8934V62.7002H54.8888ZM61.6239 58.3366V58.9047H59.3625V58.3366H61.6239ZM60.0216 57.2911H60.6921V61.4502C60.6921 61.6396 60.7196 61.7816 60.7745 61.8763C60.8313 61.9691 60.9033 62.0316 60.9904 62.0638C61.0794 62.0941 61.1732 62.1093 61.2716 62.1093C61.3455 62.1093 61.4061 62.1055 61.4535 62.0979C61.5008 62.0885 61.5387 62.0809 61.5671 62.0752L61.7035 62.6775C61.658 62.6945 61.5946 62.7116 61.5131 62.7286C61.4317 62.7475 61.3285 62.757 61.2035 62.757C61.0141 62.757 60.8285 62.7163 60.6466 62.6349C60.4667 62.5534 60.3171 62.4294 60.1978 62.2627C60.0804 62.096 60.0216 61.8858 60.0216 61.632V57.2911ZM63.3966 60.0752V62.7002H62.7262V56.882H63.3966V59.0184H63.4535C63.5557 58.793 63.7091 58.614 63.9137 58.4814C64.1201 58.347 64.3947 58.2797 64.7375 58.2797C65.0349 58.2797 65.2953 58.3394 65.5188 58.4587C65.7423 58.5761 65.9156 58.757 66.0387 59.0013C66.1637 59.2438 66.2262 59.5525 66.2262 59.9275V62.7002H65.5557V59.9729C65.5557 59.6263 65.4658 59.3583 65.2858 59.1689C65.1078 58.9777 64.8607 58.882 64.5444 58.882C64.3247 58.882 64.1277 58.9284 63.9535 59.0212C63.7811 59.114 63.6447 59.2494 63.5444 59.4275C63.4459 59.6055 63.3966 59.8214 63.3966 60.0752ZM69.2823 62.7911C68.8618 62.7911 68.4991 62.6983 68.1942 62.5127C67.8912 62.3252 67.6573 62.0638 67.4925 61.7286C67.3296 61.3915 67.2482 60.9994 67.2482 60.5525C67.2482 60.1055 67.3296 59.7116 67.4925 59.3706C67.6573 59.0278 67.8865 58.7608 68.18 58.5695C68.4755 58.3763 68.8202 58.2797 69.2141 58.2797C69.4414 58.2797 69.6658 58.3176 69.8874 58.3934C70.109 58.4691 70.3107 58.5922 70.4925 58.7627C70.6743 58.9313 70.8192 59.1547 70.9272 59.4331C71.0351 59.7116 71.0891 60.0544 71.0891 60.4616V60.7456H67.7255V60.1661H70.4073C70.4073 59.9199 70.3581 59.7002 70.2596 59.507C70.163 59.3138 70.0247 59.1614 69.8448 59.0496C69.6668 58.9379 69.4565 58.882 69.2141 58.882C68.9471 58.882 68.716 58.9483 68.5209 59.0809C68.3277 59.2116 68.1791 59.382 68.0749 59.5922C67.9707 59.8025 67.9187 60.0278 67.9187 60.2684V60.6547C67.9187 60.9843 67.9755 61.2636 68.0891 61.4928C68.2046 61.7201 68.3647 61.8934 68.5692 62.0127C68.7738 62.1301 69.0115 62.1888 69.2823 62.1888C69.4584 62.1888 69.6175 62.1642 69.7596 62.115C69.9035 62.0638 70.0276 61.9881 70.1317 61.8877C70.2359 61.7854 70.3164 61.6585 70.3732 61.507L71.0209 61.6888C70.9527 61.9085 70.8382 62.1017 70.6772 62.2684C70.5162 62.4331 70.3173 62.5619 70.0806 62.6547C69.8438 62.7456 69.5777 62.7911 69.2823 62.7911ZM75.3476 62.7002L74.0181 58.3366H74.7226L75.6658 61.6775H75.7113L76.6431 58.3366H77.359L78.2795 61.6661H78.3249L79.2681 58.3366H79.9726L78.6431 62.7002H77.984L77.0295 59.3479H76.9613L76.0067 62.7002H75.3476ZM82.5401 62.7911C82.1197 62.7911 81.757 62.6983 81.452 62.5127C81.149 62.3252 80.9151 62.0638 80.7503 61.7286C80.5875 61.3915 80.506 60.9994 80.506 60.5525C80.506 60.1055 80.5875 59.7116 80.7503 59.3706C80.9151 59.0278 81.1443 58.7608 81.4378 58.5695C81.7333 58.3763 82.078 58.2797 82.4719 58.2797C82.6992 58.2797 82.9236 58.3176 83.1452 58.3934C83.3668 58.4691 83.5685 58.5922 83.7503 58.7627C83.9322 58.9313 84.077 59.1547 84.185 59.4331C84.2929 59.7116 84.3469 60.0544 84.3469 60.4616V60.7456H80.9833V60.1661H83.6651C83.6651 59.9199 83.6159 59.7002 83.5174 59.507C83.4208 59.3138 83.2825 59.1614 83.1026 59.0496C82.9246 58.9379 82.7143 58.882 82.4719 58.882C82.2049 58.882 81.9738 58.9483 81.7787 59.0809C81.5856 59.2116 81.4369 59.382 81.3327 59.5922C81.2286 59.8025 81.1765 60.0278 81.1765 60.2684V60.6547C81.1765 60.9843 81.2333 61.2636 81.3469 61.4928C81.4625 61.7201 81.6225 61.8934 81.827 62.0127C82.0316 62.1301 82.2693 62.1888 82.5401 62.1888C82.7162 62.1888 82.8753 62.1642 83.0174 62.115C83.1613 62.0638 83.2854 61.9881 83.3895 61.8877C83.4937 61.7854 83.5742 61.6585 83.631 61.507L84.2787 61.6888C84.2106 61.9085 84.096 62.1017 83.935 62.2684C83.774 62.4331 83.5751 62.5619 83.3384 62.6547C83.1017 62.7456 82.8356 62.7911 82.5401 62.7911ZM87.1964 62.7911C86.7759 62.7911 86.4132 62.6983 86.1083 62.5127C85.8053 62.3252 85.5714 62.0638 85.4066 61.7286C85.2437 61.3915 85.1623 60.9994 85.1623 60.5525C85.1623 60.1055 85.2437 59.7116 85.4066 59.3706C85.5714 59.0278 85.8005 58.7608 86.0941 58.5695C86.3895 58.3763 86.7342 58.2797 87.1282 58.2797C87.3554 58.2797 87.5799 58.3176 87.8015 58.3934C88.0231 58.4691 88.2248 58.5922 88.4066 58.7627C88.5884 58.9313 88.7333 59.1547 88.8412 59.4331C88.9492 59.7116 89.0032 60.0544 89.0032 60.4616V60.7456H85.6395V60.1661H88.3214C88.3214 59.9199 88.2721 59.7002 88.1736 59.507C88.077 59.3138 87.9388 59.1614 87.7589 59.0496C87.5808 58.9379 87.3706 58.882 87.1282 58.882C86.8611 58.882 86.6301 58.9483 86.435 59.0809C86.2418 59.2116 86.0931 59.382 85.989 59.5922C85.8848 59.8025 85.8327 60.0278 85.8327 60.2684V60.6547C85.8327 60.9843 85.8895 61.2636 86.0032 61.4928C86.1187 61.7201 86.2787 61.8934 86.4833 62.0127C86.6878 62.1301 86.9255 62.1888 87.1964 62.1888C87.3725 62.1888 87.5316 62.1642 87.6736 62.115C87.8176 62.0638 87.9416 61.9881 88.0458 61.8877C88.15 61.7854 88.2304 61.6585 88.2873 61.507L88.935 61.6888C88.8668 61.9085 88.7522 62.1017 88.5912 62.2684C88.4303 62.4331 88.2314 62.5619 87.9947 62.6547C87.7579 62.7456 87.4918 62.7911 87.1964 62.7911ZM90.6481 61.1093L90.6367 60.2797H90.7731L92.6822 58.3366H93.5117L91.4776 60.3934H91.4208L90.6481 61.1093ZM90.0231 62.7002V56.882H90.6935V62.7002H90.0231ZM92.7958 62.7002L91.0912 60.5411L91.5685 60.0752L93.6481 62.7002H92.7958Z" fill="black"/>
<path d="M10.6687 185.304V179.486H12.6346C13.091 179.486 13.4641 179.568 13.7539 179.733C14.0456 179.896 14.2615 180.117 14.4016 180.395C14.5418 180.674 14.6118 180.984 14.6118 181.327C14.6118 181.67 14.5418 181.981 14.4016 182.262C14.2634 182.542 14.0493 182.765 13.7596 182.932C13.4698 183.097 13.0986 183.179 12.6459 183.179H11.2368V182.554H12.6232C12.9357 182.554 13.1866 182.5 13.376 182.392C13.5654 182.284 13.7027 182.138 13.788 181.955C13.8751 181.769 13.9187 181.56 13.9187 181.327C13.9187 181.094 13.8751 180.886 13.788 180.702C13.7027 180.518 13.5645 180.374 13.3732 180.27C13.1819 180.164 12.9281 180.111 12.6118 180.111H11.3732V185.304H10.6687ZM17.3817 185.395C16.9878 185.395 16.6421 185.301 16.3448 185.114C16.0493 184.926 15.8183 184.664 15.6516 184.327C15.4868 183.99 15.4045 183.596 15.4045 183.145C15.4045 182.691 15.4868 182.294 15.6516 181.955C15.8183 181.616 16.0493 181.352 16.3448 181.165C16.6421 180.977 16.9878 180.884 17.3817 180.884C17.7757 180.884 18.1204 180.977 18.4158 181.165C18.7132 181.352 18.9442 181.616 19.109 181.955C19.2757 182.294 19.359 182.691 19.359 183.145C19.359 183.596 19.2757 183.99 19.109 184.327C18.9442 184.664 18.7132 184.926 18.4158 185.114C18.1204 185.301 17.7757 185.395 17.3817 185.395ZM17.3817 184.793C17.681 184.793 17.9272 184.716 18.1204 184.563C18.3135 184.409 18.4565 184.208 18.5493 183.958C18.6421 183.708 18.6885 183.437 18.6885 183.145C18.6885 182.853 18.6421 182.582 18.5493 182.33C18.4565 182.078 18.3135 181.874 18.1204 181.719C17.9272 181.564 17.681 181.486 17.3817 181.486C17.0825 181.486 16.8363 181.564 16.6431 181.719C16.4499 181.874 16.3069 182.078 16.2141 182.33C16.1213 182.582 16.0749 182.853 16.0749 183.145C16.0749 183.437 16.1213 183.708 16.2141 183.958C16.3069 184.208 16.4499 184.409 16.6431 184.563C16.8363 184.716 17.0825 184.793 17.3817 184.793ZM20.3824 186.941V180.941H21.0302V181.634H21.1097C21.159 181.558 21.2271 181.461 21.3143 181.344C21.4033 181.225 21.5302 181.119 21.6949 181.026C21.8616 180.931 22.087 180.884 22.3711 180.884C22.7385 180.884 23.0624 180.976 23.3427 181.159C23.623 181.343 23.8417 181.603 23.9989 181.941C24.1561 182.278 24.2347 182.675 24.2347 183.134C24.2347 183.596 24.1561 183.996 23.9989 184.335C23.8417 184.673 23.6239 184.934 23.3455 185.12C23.0671 185.303 22.7461 185.395 22.3824 185.395C22.1021 185.395 21.8777 185.349 21.7091 185.256C21.5406 185.161 21.4108 185.054 21.3199 184.935C21.229 184.814 21.159 184.713 21.1097 184.634H21.0529V186.941H20.3824ZM21.0415 183.122C21.0415 183.452 21.0898 183.743 21.1864 183.995C21.283 184.245 21.4241 184.441 21.6097 184.583C21.7953 184.723 22.0226 184.793 22.2915 184.793C22.5718 184.793 22.8057 184.719 22.9932 184.571C23.1826 184.422 23.3247 184.221 23.4194 183.969C23.516 183.715 23.5643 183.433 23.5643 183.122C23.5643 182.816 23.5169 182.539 23.4222 182.293C23.3294 182.045 23.1883 181.849 22.9989 181.705C22.8114 181.559 22.5756 181.486 22.2915 181.486C22.0188 181.486 21.7896 181.555 21.604 181.693C21.4184 181.83 21.2783 182.021 21.1836 182.267C21.0889 182.512 21.0415 182.797 21.0415 183.122ZM28.0074 183.52V180.941H28.6779V185.304H28.0074V184.566H27.962C27.8597 184.787 27.7006 184.976 27.4847 185.131C27.2688 185.284 26.9961 185.361 26.6665 185.361C26.3938 185.361 26.1514 185.301 25.9393 185.182C25.7271 185.061 25.5605 184.879 25.4393 184.637C25.318 184.392 25.2574 184.085 25.2574 183.713V180.941H25.9279V183.668C25.9279 183.986 26.0169 184.24 26.1949 184.429C26.3749 184.619 26.604 184.713 26.8824 184.713C27.0491 184.713 27.2186 184.671 27.391 184.585C27.5652 184.5 27.711 184.37 27.8285 184.193C27.9478 184.017 28.0074 183.793 28.0074 183.52ZM30.5763 179.486V185.304H29.9059V179.486H30.5763ZM33.0884 185.406C32.8119 185.406 32.5609 185.354 32.3356 185.25C32.1102 185.144 31.9312 184.992 31.7986 184.793C31.6661 184.592 31.5998 184.35 31.5998 184.066C31.5998 183.816 31.649 183.613 31.7475 183.458C31.846 183.3 31.9776 183.177 32.1424 183.088C32.3072 182.999 32.489 182.933 32.6878 182.889C32.8886 182.844 33.0903 182.808 33.2929 182.781C33.5581 182.747 33.7731 182.722 33.9378 182.705C34.1045 182.686 34.2257 182.655 34.3015 182.611C34.3791 182.567 34.4179 182.492 34.4179 182.384V182.361C34.4179 182.081 34.3412 181.863 34.1878 181.708C34.0363 181.552 33.8062 181.475 33.4975 181.475C33.1774 181.475 32.9265 181.545 32.7447 181.685C32.5628 181.825 32.435 181.975 32.3611 182.134L31.7248 181.906C31.8384 181.641 31.9899 181.435 32.1793 181.287C32.3706 181.138 32.5789 181.033 32.8043 180.975C33.0316 180.914 33.2551 180.884 33.4748 180.884C33.6149 180.884 33.7759 180.901 33.9577 180.935C34.1414 180.967 34.3185 181.034 34.489 181.137C34.6613 181.239 34.8043 181.393 34.9179 181.6C35.0316 181.806 35.0884 182.083 35.0884 182.429V185.304H34.4179V184.713H34.3839C34.3384 184.808 34.2626 184.909 34.1566 185.017C34.0505 185.125 33.9094 185.217 33.7333 185.293C33.5572 185.369 33.3422 185.406 33.0884 185.406ZM33.1907 184.804C33.4558 184.804 33.6793 184.752 33.8611 184.648C34.0448 184.544 34.1831 184.409 34.2759 184.245C34.3706 184.08 34.4179 183.906 34.4179 183.725V183.111C34.3895 183.145 34.327 183.176 34.2304 183.205C34.1357 183.231 34.0259 183.255 33.9009 183.276C33.7778 183.295 33.6575 183.312 33.5401 183.327C33.4246 183.34 33.3308 183.352 33.2589 183.361C33.0846 183.384 32.9217 183.421 32.7702 183.472C32.6206 183.521 32.4994 183.596 32.4066 183.696C32.3157 183.795 32.2702 183.929 32.2702 184.1C32.2702 184.333 32.3564 184.509 32.5287 184.628C32.703 184.745 32.9236 184.804 33.1907 184.804ZM36.3121 185.304V180.941H36.9598V181.6H37.0053C37.0848 181.384 37.2288 181.209 37.4371 181.074C37.6455 180.94 37.8803 180.872 38.1417 180.872C38.1909 180.872 38.2525 180.873 38.3263 180.875C38.4002 180.877 38.4561 180.88 38.4939 180.884V181.566C38.4712 181.56 38.4191 181.551 38.3377 181.54C38.2581 181.527 38.1739 181.52 38.0849 181.52C37.8727 181.52 37.6833 181.565 37.5167 181.654C37.3519 181.741 37.2212 181.862 37.1246 182.017C37.0299 182.171 36.9826 182.346 36.9826 182.543V185.304H36.3121ZM41.5387 185.304V180.941H42.1864V181.6H42.2319C42.3114 181.384 42.4554 181.209 42.6637 181.074C42.872 180.94 43.1069 180.872 43.3682 180.872C43.4175 180.872 43.479 180.873 43.5529 180.875C43.6268 180.877 43.6826 180.88 43.7205 180.884V181.566C43.6978 181.56 43.6457 181.551 43.5643 181.54C43.4847 181.527 43.4004 181.52 43.3114 181.52C43.0993 181.52 42.9099 181.565 42.7432 181.654C42.5785 181.741 42.4478 181.862 42.3512 182.017C42.2565 182.171 42.2091 182.346 42.2091 182.543V185.304H41.5387ZM46.212 185.395C45.7915 185.395 45.4288 185.302 45.1239 185.117C44.8209 184.929 44.587 184.668 44.4222 184.333C44.2593 183.995 44.1779 183.603 44.1779 183.156C44.1779 182.71 44.2593 182.316 44.4222 181.975C44.587 181.632 44.8161 181.365 45.1097 181.174C45.4052 180.98 45.7499 180.884 46.1438 180.884C46.3711 180.884 46.5955 180.922 46.8171 180.997C47.0387 181.073 47.2404 181.196 47.4222 181.367C47.604 181.535 47.7489 181.759 47.8569 182.037C47.9648 182.316 48.0188 182.658 48.0188 183.066V183.35H44.6552V182.77H47.337C47.337 182.524 47.2877 182.304 47.1893 182.111C47.0927 181.918 46.9544 181.765 46.7745 181.654C46.5965 181.542 46.3862 181.486 46.1438 181.486C45.8768 181.486 45.6457 181.552 45.4506 181.685C45.2574 181.816 45.1088 181.986 45.0046 182.196C44.9004 182.406 44.8483 182.632 44.8483 182.872V183.259C44.8483 183.588 44.9052 183.868 45.0188 184.097C45.1343 184.324 45.2944 184.497 45.4989 184.617C45.7035 184.734 45.9411 184.793 46.212 184.793C46.3881 184.793 46.5472 184.768 46.6893 184.719C46.8332 184.668 46.9572 184.592 47.0614 184.492C47.1656 184.389 47.2461 184.263 47.3029 184.111L47.9506 184.293C47.8824 184.513 47.7679 184.706 47.6069 184.872C47.4459 185.037 47.247 185.166 47.0103 185.259C46.7735 185.35 46.5074 185.395 46.212 185.395ZM50.8114 185.395C50.4023 185.395 50.05 185.299 49.7546 185.105C49.4591 184.912 49.2319 184.646 49.0728 184.307C48.9137 183.968 48.8341 183.581 48.8341 183.145C48.8341 182.702 48.9156 182.311 49.0785 181.972C49.2432 181.631 49.4724 181.365 49.766 181.174C50.0614 180.98 50.4061 180.884 50.8 180.884C51.1069 180.884 51.3834 180.941 51.6296 181.054C51.8758 181.168 52.0775 181.327 52.2347 181.531C52.3919 181.736 52.4894 181.975 52.5273 182.247H51.8569C51.8057 182.049 51.6921 181.872 51.516 181.719C51.3417 181.564 51.1069 181.486 50.8114 181.486C50.55 181.486 50.3209 181.554 50.1239 181.691C49.9288 181.825 49.7764 182.015 49.6665 182.262C49.5586 182.506 49.5046 182.793 49.5046 183.122C49.5046 183.46 49.5576 183.753 49.6637 184.003C49.7716 184.253 49.9232 184.447 50.1182 184.585C50.3152 184.724 50.5463 184.793 50.8114 184.793C50.9857 184.793 51.1438 184.763 51.2858 184.702C51.4279 184.641 51.5482 184.554 51.6466 184.441C51.7451 184.327 51.8152 184.191 51.8569 184.031H52.5273C52.4894 184.289 52.3957 184.521 52.2461 184.727C52.0983 184.932 51.9023 185.095 51.658 185.216C51.4156 185.335 51.1334 185.395 50.8114 185.395ZM53.5074 185.304V180.941H54.1779V185.304H53.5074ZM53.8483 180.213C53.7177 180.213 53.605 180.169 53.5103 180.08C53.4175 179.991 53.3711 179.884 53.3711 179.759C53.3711 179.634 53.4175 179.527 53.5103 179.438C53.605 179.349 53.7177 179.304 53.8483 179.304C53.979 179.304 54.0908 179.349 54.1836 179.438C54.2783 179.527 54.3256 179.634 54.3256 179.759C54.3256 179.884 54.2783 179.991 54.1836 180.08C54.0908 180.169 53.979 180.213 53.8483 180.213ZM55.4059 186.941V180.941H56.0536V181.634H56.1331C56.1824 181.558 56.2506 181.461 56.3377 181.344C56.4267 181.225 56.5536 181.119 56.7184 181.026C56.885 180.931 57.1104 180.884 57.3945 180.884C57.7619 180.884 58.0858 180.976 58.3661 181.159C58.6464 181.343 58.8652 181.603 59.0224 181.941C59.1795 182.278 59.2581 182.675 59.2581 183.134C59.2581 183.596 59.1795 183.996 59.0224 184.335C58.8652 184.673 58.6474 184.934 58.3689 185.12C58.0905 185.303 57.7695 185.395 57.4059 185.395C57.1256 185.395 56.9011 185.349 56.7326 185.256C56.564 185.161 56.4343 185.054 56.3434 184.935C56.2525 184.814 56.1824 184.713 56.1331 184.634H56.0763V186.941H55.4059ZM56.065 183.122C56.065 183.452 56.1133 183.743 56.2098 183.995C56.3064 184.245 56.4475 184.441 56.6331 184.583C56.8188 184.723 57.046 184.793 57.315 184.793C57.5953 184.793 57.8292 184.719 58.0167 184.571C58.2061 184.422 58.3481 184.221 58.4428 183.969C58.5394 183.715 58.5877 183.433 58.5877 183.122C58.5877 182.816 58.5403 182.539 58.4456 182.293C58.3528 182.045 58.2117 181.849 58.0224 181.705C57.8349 181.559 57.5991 181.486 57.315 181.486C57.0422 181.486 56.8131 181.555 56.6275 181.693C56.4419 181.83 56.3017 182.021 56.207 182.267C56.1123 182.512 56.065 182.797 56.065 183.122ZM62.1104 185.395C61.69 185.395 61.3273 185.302 61.0223 185.117C60.7193 184.929 60.4854 184.668 60.3206 184.333C60.1578 183.995 60.0763 183.603 60.0763 183.156C60.0763 182.71 60.1578 182.316 60.3206 181.975C60.4854 181.632 60.7146 181.365 61.0081 181.174C61.3036 180.98 61.6483 180.884 62.0422 180.884C62.2695 180.884 62.4939 180.922 62.7155 180.997C62.9371 181.073 63.1388 181.196 63.3206 181.367C63.5025 181.535 63.6474 181.759 63.7553 182.037C63.8633 182.316 63.9172 182.658 63.9172 183.066V183.35H60.5536V182.77H63.2354C63.2354 182.524 63.1862 182.304 63.0877 182.111C62.9911 181.918 62.8528 181.765 62.6729 181.654C62.4949 181.542 62.2847 181.486 62.0422 181.486C61.7752 181.486 61.5441 181.552 61.3491 181.685C61.1559 181.816 61.0072 181.986 60.903 182.196C60.7989 182.406 60.7468 182.632 60.7468 182.872V183.259C60.7468 183.588 60.8036 183.868 60.9172 184.097C61.0328 184.324 61.1928 184.497 61.3974 184.617C61.6019 184.734 61.8396 184.793 62.1104 184.793C62.2866 184.793 62.4456 184.768 62.5877 184.719C62.7316 184.668 62.8557 184.592 62.9599 184.492C63.064 184.389 63.1445 184.263 63.2013 184.111L63.8491 184.293C63.7809 184.513 63.6663 184.706 63.5053 184.872C63.3443 185.037 63.1455 185.166 62.9087 185.259C62.672 185.35 62.4059 185.395 62.1104 185.395ZM68.028 181.918L67.4258 182.088C67.3879 181.988 67.332 181.89 67.2581 181.796C67.1862 181.699 67.0877 181.62 66.9627 181.557C66.8377 181.495 66.6777 181.463 66.4826 181.463C66.2155 181.463 65.993 181.525 65.815 181.648C65.6388 181.769 65.5508 181.924 65.5508 182.111C65.5508 182.278 65.6114 182.409 65.7326 182.506C65.8538 182.602 66.0432 182.683 66.3008 182.747L66.9485 182.906C67.3386 183.001 67.6294 183.146 67.8206 183.341C68.0119 183.534 68.1076 183.783 68.1076 184.088C68.1076 184.338 68.0356 184.562 67.8917 184.759C67.7496 184.956 67.5508 185.111 67.2951 185.225C67.0394 185.338 66.742 185.395 66.403 185.395C65.958 185.395 65.5896 185.299 65.2979 185.105C65.0063 184.912 64.8216 184.63 64.7439 184.259L65.3803 184.1C65.4409 184.335 65.5555 184.511 65.7241 184.628C65.8945 184.745 66.117 184.804 66.3917 184.804C66.7042 184.804 66.9523 184.738 67.136 184.605C67.3216 184.471 67.4144 184.31 67.4144 184.122C67.4144 183.971 67.3614 183.844 67.2553 183.742C67.1492 183.638 66.9864 183.56 66.7667 183.509L66.0394 183.338C65.6398 183.244 65.3462 183.097 65.1587 182.898C64.9731 182.697 64.8803 182.446 64.8803 182.145C64.8803 181.899 64.9494 181.681 65.0877 181.492C65.2278 181.302 65.4182 181.154 65.6587 181.046C65.9011 180.938 66.1758 180.884 66.4826 180.884C66.9144 180.884 67.2534 180.978 67.4996 181.168C67.7477 181.357 67.9239 181.607 68.028 181.918ZM72.0373 179.486V185.304H71.3668V179.486H72.0373ZM73.2652 185.304V180.941H73.9357V185.304H73.2652ZM73.6062 180.213C73.4755 180.213 73.3628 180.169 73.2681 180.08C73.1753 179.991 73.1289 179.884 73.1289 179.759C73.1289 179.634 73.1753 179.527 73.2681 179.438C73.3628 179.349 73.4755 179.304 73.6062 179.304C73.7368 179.304 73.8486 179.349 73.9414 179.438C74.0361 179.527 74.0834 179.634 74.0834 179.759C74.0834 179.884 74.0361 179.991 73.9414 180.08C73.8486 180.169 73.7368 180.213 73.6062 180.213ZM78.2546 181.918L77.6523 182.088C77.6144 181.988 77.5586 181.89 77.4847 181.796C77.4127 181.699 77.3143 181.62 77.1893 181.557C77.0643 181.495 76.9042 181.463 76.7091 181.463C76.4421 181.463 76.2196 181.525 76.0415 181.648C75.8654 181.769 75.7773 181.924 75.7773 182.111C75.7773 182.278 75.8379 182.409 75.9591 182.506C76.0804 182.602 76.2697 182.683 76.5273 182.747L77.175 182.906C77.5652 183.001 77.8559 183.146 78.0472 183.341C78.2385 183.534 78.3341 183.783 78.3341 184.088C78.3341 184.338 78.2622 184.562 78.1182 184.759C77.9762 184.956 77.7773 185.111 77.5216 185.225C77.266 185.338 76.9686 185.395 76.6296 185.395C76.1845 185.395 75.8161 185.299 75.5245 185.105C75.2328 184.912 75.0482 184.63 74.9705 184.259L75.6069 184.1C75.6675 184.335 75.7821 184.511 75.9506 184.628C76.1211 184.745 76.3436 184.804 76.6182 184.804C76.9307 184.804 77.1788 184.738 77.3625 184.605C77.5482 184.471 77.641 184.31 77.641 184.122C77.641 183.971 77.5879 183.844 77.4819 183.742C77.3758 183.638 77.2129 183.56 76.9932 183.509L76.266 183.338C75.8663 183.244 75.5728 183.097 75.3853 182.898C75.1997 182.697 75.1069 182.446 75.1069 182.145C75.1069 181.899 75.176 181.681 75.3143 181.492C75.4544 181.302 75.6447 181.154 75.8853 181.046C76.1277 180.938 76.4023 180.884 76.7091 180.884C77.141 180.884 77.48 180.978 77.7262 181.168C77.9743 181.357 78.1504 181.607 78.2546 181.918ZM81.2411 180.941V181.509H78.9797V180.941H81.2411ZM79.6388 179.895H80.3093V184.054C80.3093 184.244 80.3367 184.386 80.3917 184.48C80.4485 184.573 80.5205 184.636 80.6076 184.668C80.6966 184.698 80.7903 184.713 80.8888 184.713C80.9627 184.713 81.0233 184.71 81.0706 184.702C81.118 184.692 81.1559 184.685 81.1843 184.679L81.3206 185.281C81.2752 185.299 81.2117 185.316 81.1303 185.333C81.0489 185.352 80.9456 185.361 80.8206 185.361C80.6313 185.361 80.4456 185.32 80.2638 185.239C80.0839 185.157 79.9343 185.033 79.815 184.867C79.6975 184.7 79.6388 184.49 79.6388 184.236V179.895Z" fill="black"/>
<path d="M9.96411 66.9604L192.036 159.385M9.96411 66.9604V159.385M9.96411 66.9604H192.036M192.036 159.385V66.9604M192.036 159.385H9.96411M192.036 66.9604L9.96411 159.385" stroke="black"/>
<path d="M11.1364 401.276V395.458H11.841V398.049H14.9432V395.458H15.6478V401.276H14.9432V398.674H11.841V401.276H11.1364ZM18.7401 401.367C18.3462 401.367 18.0005 401.273 17.7032 401.086C17.4077 400.898 17.1767 400.636 17.01 400.299C16.8452 399.961 16.7629 399.568 16.7629 399.117C16.7629 398.662 16.8452 398.265 17.01 397.926C17.1767 397.587 17.4077 397.324 17.7032 397.137C18.0005 396.949 18.3462 396.855 18.7401 396.855C19.1341 396.855 19.4788 396.949 19.7742 397.137C20.0716 397.324 20.3026 397.587 20.4674 397.926C20.6341 398.265 20.7174 398.662 20.7174 399.117C20.7174 399.568 20.6341 399.961 20.4674 400.299C20.3026 400.636 20.0716 400.898 19.7742 401.086C19.4788 401.273 19.1341 401.367 18.7401 401.367ZM18.7401 400.765C19.0394 400.765 19.2856 400.688 19.4788 400.534C19.6719 400.381 19.8149 400.179 19.9077 399.929C20.0005 399.679 20.0469 399.408 20.0469 399.117C20.0469 398.825 20.0005 398.553 19.9077 398.301C19.8149 398.05 19.6719 397.846 19.4788 397.691C19.2856 397.535 19.0394 397.458 18.7401 397.458C18.4409 397.458 18.1947 397.535 18.0015 397.691C17.8083 397.846 17.6653 398.05 17.5725 398.301C17.4797 398.553 17.4333 398.825 17.4333 399.117C17.4333 399.408 17.4797 399.679 17.5725 399.929C17.6653 400.179 17.8083 400.381 18.0015 400.534C18.1947 400.688 18.4409 400.765 18.7401 400.765ZM21.7408 401.276V396.912H22.3886V397.594H22.4454C22.5363 397.361 22.6831 397.18 22.8857 397.051C23.0884 396.921 23.3317 396.855 23.6158 396.855C23.9037 396.855 24.1433 396.921 24.3346 397.051C24.5278 397.18 24.6783 397.361 24.7863 397.594H24.8317C24.9435 397.369 25.1111 397.19 25.3346 397.057C25.5581 396.923 25.8261 396.855 26.1386 396.855C26.5287 396.855 26.8478 396.978 27.0959 397.222C27.3441 397.464 27.4681 397.842 27.4681 398.355V401.276H26.7977V398.355C26.7977 398.033 26.7096 397.803 26.5334 397.665C26.3573 397.527 26.1499 397.458 25.9113 397.458C25.6045 397.458 25.3668 397.55 25.1982 397.736C25.0297 397.92 24.9454 398.153 24.9454 398.435V401.276H24.2636V398.287C24.2636 398.039 24.1831 397.839 24.0221 397.688C23.8611 397.534 23.6537 397.458 23.3999 397.458C23.2257 397.458 23.0628 397.504 22.9113 397.597C22.7617 397.69 22.6405 397.818 22.5477 397.983C22.4567 398.146 22.4113 398.335 22.4113 398.549V401.276H21.7408ZM30.5235 401.367C30.103 401.367 29.7404 401.274 29.4354 401.088C29.1324 400.901 28.8985 400.64 28.7337 400.304C28.5709 399.967 28.4894 399.575 28.4894 399.128C28.4894 398.681 28.5709 398.287 28.7337 397.946C28.8985 397.604 29.1277 397.336 29.4212 397.145C29.7167 396.952 30.0614 396.855 30.4553 396.855C30.6826 396.855 30.907 396.893 31.1286 396.969C31.3502 397.045 31.5519 397.168 31.7337 397.338C31.9155 397.507 32.0604 397.73 32.1684 398.009C32.2763 398.287 32.3303 398.63 32.3303 399.037V399.321H28.9667V398.742H31.6485C31.6485 398.496 31.5993 398.276 31.5008 398.083C31.4042 397.89 31.2659 397.737 31.086 397.625C30.908 397.514 30.6977 397.458 30.4553 397.458C30.1883 397.458 29.9572 397.524 29.7621 397.657C29.569 397.787 29.4203 397.958 29.3161 398.168C29.212 398.378 29.1599 398.604 29.1599 398.844V399.23C29.1599 399.56 29.2167 399.839 29.3303 400.068C29.4459 400.296 29.6059 400.469 29.8104 400.588C30.015 400.706 30.2527 400.765 30.5235 400.765C30.6996 400.765 30.8587 400.74 31.0008 400.691C31.1447 400.64 31.2688 400.564 31.3729 400.463C31.4771 400.361 31.5576 400.234 31.6144 400.083L32.2621 400.265C32.194 400.484 32.0794 400.677 31.9184 400.844C31.7574 401.009 31.5585 401.138 31.3218 401.23C31.0851 401.321 30.819 401.367 30.5235 401.367Z" fill="white"/>
<path d="M53.9964 397.276C53.9339 397.085 53.8515 396.913 53.7492 396.762C53.6489 396.608 53.5286 396.478 53.3884 396.37C53.2502 396.262 53.093 396.179 52.9168 396.122C52.7407 396.066 52.5475 396.037 52.3373 396.037C51.9926 396.037 51.6792 396.126 51.397 396.304C51.1148 396.482 50.8903 396.745 50.7237 397.091C50.557 397.438 50.4737 397.863 50.4737 398.367C50.4737 398.871 50.5579 399.296 50.7265 399.642C50.8951 399.989 51.1233 400.251 51.4112 400.429C51.699 400.607 52.0229 400.696 52.3828 400.696C52.7161 400.696 53.0097 400.625 53.2634 400.483C53.5191 400.339 53.718 400.137 53.86 399.875C54.004 399.612 54.0759 399.302 54.0759 398.946L54.2918 398.992H52.5418V398.367H54.7578V398.992C54.7578 399.471 54.6555 399.888 54.4509 400.242C54.2483 400.596 53.968 400.871 53.61 401.066C53.254 401.259 52.8449 401.355 52.3828 401.355C51.8676 401.355 51.415 401.234 51.0248 400.992C50.6365 400.749 50.3335 400.405 50.1157 399.958C49.8998 399.511 49.7918 398.98 49.7918 398.367C49.7918 397.907 49.8534 397.493 49.9765 397.125C50.1015 396.756 50.2776 396.442 50.5049 396.182C50.7322 395.923 51.0011 395.724 51.3117 395.586C51.6223 395.447 51.9642 395.378 52.3373 395.378C52.6441 395.378 52.9301 395.425 53.1953 395.517C53.4623 395.608 53.7 395.738 53.9083 395.907C54.1186 396.073 54.2937 396.273 54.4339 396.506C54.574 396.737 54.6706 396.994 54.7237 397.276H53.9964ZM55.8735 401.276V396.912H56.5213V397.571H56.5667C56.6463 397.355 56.7902 397.18 56.9985 397.046C57.2069 396.911 57.4417 396.844 57.7031 396.844C57.7523 396.844 57.8139 396.845 57.8877 396.847C57.9616 396.849 58.0175 396.852 58.0553 396.855V397.537C58.0326 397.532 57.9805 397.523 57.8991 397.512C57.8195 397.498 57.7353 397.492 57.6463 397.492C57.4341 397.492 57.2447 397.536 57.0781 397.625C56.9133 397.712 56.7826 397.834 56.686 397.989C56.5913 398.142 56.544 398.318 56.544 398.515V401.276H55.8735ZM60.49 401.367C60.0961 401.367 59.7504 401.273 59.4531 401.086C59.1576 400.898 58.9266 400.636 58.7599 400.299C58.5951 399.961 58.5127 399.568 58.5127 399.117C58.5127 398.662 58.5951 398.265 58.7599 397.926C58.9266 397.587 59.1576 397.324 59.4531 397.137C59.7504 396.949 60.0961 396.855 60.49 396.855C60.8839 396.855 61.2286 396.949 61.5241 397.137C61.8214 397.324 62.0525 397.587 62.2173 397.926C62.3839 398.265 62.4673 398.662 62.4673 399.117C62.4673 399.568 62.3839 399.961 62.2173 400.299C62.0525 400.636 61.8214 400.898 61.5241 401.086C61.2286 401.273 60.8839 401.367 60.49 401.367ZM60.49 400.765C60.7892 400.765 61.0355 400.688 61.2286 400.534C61.4218 400.381 61.5648 400.179 61.6576 399.929C61.7504 399.679 61.7968 399.408 61.7968 399.117C61.7968 398.825 61.7504 398.553 61.6576 398.301C61.5648 398.05 61.4218 397.846 61.2286 397.691C61.0355 397.535 60.7892 397.458 60.49 397.458C60.1908 397.458 59.9445 397.535 59.7514 397.691C59.5582 397.846 59.4152 398.05 59.3224 398.301C59.2296 398.553 59.1832 398.825 59.1832 399.117C59.1832 399.408 59.2296 399.679 59.3224 399.929C59.4152 400.179 59.5582 400.381 59.7514 400.534C59.9445 400.688 60.1908 400.765 60.49 400.765ZM66.2407 399.492V396.912H66.9112V401.276H66.2407V400.537H66.1953C66.093 400.759 65.9339 400.947 65.718 401.103C65.5021 401.256 65.2293 401.333 64.8998 401.333C64.6271 401.333 64.3847 401.273 64.1725 401.154C63.9604 401.033 63.7937 400.851 63.6725 400.608C63.5513 400.364 63.4907 400.056 63.4907 399.685V396.912H64.1612V399.64C64.1612 399.958 64.2502 400.211 64.4282 400.401C64.6081 400.59 64.8373 400.685 65.1157 400.685C65.2824 400.685 65.4519 400.642 65.6242 400.557C65.7985 400.472 65.9443 400.341 66.0617 400.165C66.1811 399.989 66.2407 399.765 66.2407 399.492ZM68.1391 402.912V396.912H68.7869V397.605H68.8664C68.9157 397.53 68.9838 397.433 69.071 397.316C69.16 397.196 69.2869 397.09 69.4516 396.997C69.6183 396.903 69.8437 396.855 70.1278 396.855C70.4952 396.855 70.8191 396.947 71.0994 397.131C71.3797 397.315 71.5984 397.575 71.7556 397.912C71.9128 398.249 71.9914 398.647 71.9914 399.105C71.9914 399.568 71.9128 399.968 71.7556 400.307C71.5984 400.644 71.3806 400.906 71.1022 401.091C70.8238 401.275 70.5028 401.367 70.1391 401.367C69.8588 401.367 69.6344 401.32 69.4659 401.228C69.2973 401.133 69.1676 401.026 69.0766 400.907C68.9857 400.785 68.9157 400.685 68.8664 400.605H68.8096V402.912H68.1391ZM68.7982 399.094C68.7982 399.424 68.8465 399.714 68.9431 399.966C69.0397 400.216 69.1808 400.412 69.3664 400.554C69.552 400.694 69.7793 400.765 70.0482 400.765C70.3285 400.765 70.5624 400.691 70.7499 400.543C70.9393 400.393 71.0814 400.193 71.1761 399.941C71.2727 399.687 71.321 399.405 71.321 399.094C71.321 398.787 71.2736 398.511 71.1789 398.265C71.0861 398.016 70.945 397.82 70.7556 397.676C70.5681 397.531 70.3323 397.458 70.0482 397.458C69.7755 397.458 69.5463 397.527 69.3607 397.665C69.1751 397.801 69.035 397.993 68.9403 398.239C68.8456 398.483 68.7982 398.768 68.7982 399.094ZM76.1051 397.89L75.5028 398.06C75.4649 397.96 75.409 397.862 75.3352 397.767C75.2632 397.671 75.1647 397.591 75.0397 397.529C74.9147 397.466 74.7547 397.435 74.5596 397.435C74.2926 397.435 74.07 397.497 73.892 397.62C73.7159 397.741 73.6278 397.895 73.6278 398.083C73.6278 398.249 73.6884 398.381 73.8096 398.478C73.9308 398.574 74.1202 398.655 74.3778 398.719L75.0255 398.878C75.4157 398.973 75.7064 399.118 75.8977 399.313C76.089 399.506 76.1846 399.755 76.1846 400.06C76.1846 400.31 76.1126 400.533 75.9687 400.73C75.8266 400.927 75.6278 401.083 75.3721 401.196C75.1164 401.31 74.8191 401.367 74.4801 401.367C74.035 401.367 73.6666 401.27 73.3749 401.077C73.0833 400.884 72.8986 400.602 72.821 400.23L73.4573 400.071C73.5179 400.306 73.6325 400.482 73.8011 400.6C73.9715 400.717 74.1941 400.776 74.4687 400.776C74.7812 400.776 75.0293 400.71 75.213 400.577C75.3986 400.443 75.4914 400.282 75.4914 400.094C75.4914 399.943 75.4384 399.816 75.3323 399.713C75.2263 399.609 75.0634 399.532 74.8437 399.48L74.1164 399.31C73.7168 399.215 73.4232 399.068 73.2357 398.87C73.0501 398.669 72.9573 398.418 72.9573 398.117C72.9573 397.871 73.0265 397.653 73.1647 397.463C73.3049 397.274 73.4952 397.125 73.7357 397.017C73.9782 396.909 74.2528 396.855 74.5596 396.855C74.9914 396.855 75.3304 396.95 75.5766 397.14C75.8248 397.329 76.0009 397.579 76.1051 397.89Z" fill="black"/>
<path d="M129.705 401V395.182H130.409V397.773H133.511V395.182H134.216V401H133.511V398.398H130.409V401H129.705ZM135.536 401V396.636H136.206V401H135.536ZM135.876 395.909C135.746 395.909 135.633 395.865 135.538 395.776C135.446 395.687 135.399 395.58 135.399 395.455C135.399 395.33 135.446 395.223 135.538 395.134C135.633 395.045 135.746 395 135.876 395C136.007 395 136.119 395.045 136.212 395.134C136.306 395.223 136.354 395.33 136.354 395.455C136.354 395.58 136.306 395.687 136.212 395.776C136.119 395.865 136.007 395.909 135.876 395.909ZM140.525 397.614L139.923 397.784C139.885 397.684 139.829 397.586 139.755 397.491C139.683 397.395 139.585 397.315 139.46 397.253C139.335 397.19 139.174 397.159 138.979 397.159C138.712 397.159 138.49 397.221 138.312 397.344C138.136 397.465 138.048 397.619 138.048 397.807C138.048 397.973 138.108 398.105 138.229 398.202C138.351 398.298 138.54 398.379 138.798 398.443L139.445 398.602C139.835 398.697 140.126 398.842 140.317 399.037C140.509 399.23 140.604 399.479 140.604 399.784C140.604 400.034 140.532 400.258 140.388 400.455C140.246 400.652 140.048 400.807 139.792 400.92C139.536 401.034 139.239 401.091 138.9 401.091C138.455 401.091 138.086 400.994 137.795 400.801C137.503 400.608 137.318 400.326 137.241 399.955L137.877 399.795C137.938 400.03 138.052 400.206 138.221 400.324C138.391 400.441 138.614 400.5 138.888 400.5C139.201 400.5 139.449 400.434 139.633 400.301C139.818 400.167 139.911 400.006 139.911 399.818C139.911 399.667 139.858 399.54 139.752 399.438C139.646 399.333 139.483 399.256 139.263 399.205L138.536 399.034C138.137 398.939 137.843 398.793 137.656 398.594C137.47 398.393 137.377 398.142 137.377 397.841C137.377 397.595 137.446 397.377 137.585 397.188C137.725 396.998 137.915 396.849 138.156 396.741C138.398 396.634 138.673 396.58 138.979 396.58C139.411 396.58 139.75 396.674 139.996 396.864C140.245 397.053 140.421 397.303 140.525 397.614ZM143.511 396.636V397.205H141.25V396.636H143.511ZM141.909 395.591H142.58V399.75C142.58 399.939 142.607 400.081 142.662 400.176C142.719 400.269 142.791 400.331 142.878 400.364C142.967 400.394 143.061 400.409 143.159 400.409C143.233 400.409 143.294 400.405 143.341 400.398C143.388 400.388 143.426 400.381 143.455 400.375L143.591 400.977C143.545 400.994 143.482 401.011 143.401 401.028C143.319 401.047 143.216 401.057 143.091 401.057C142.902 401.057 142.716 401.016 142.534 400.935C142.354 400.853 142.205 400.729 142.085 400.562C141.968 400.396 141.909 400.186 141.909 399.932V395.591ZM146.246 401.091C145.852 401.091 145.506 400.997 145.209 400.81C144.913 400.622 144.682 400.36 144.516 400.023C144.351 399.686 144.268 399.292 144.268 398.841C144.268 398.386 144.351 397.99 144.516 397.651C144.682 397.312 144.913 397.048 145.209 396.861C145.506 396.673 145.852 396.58 146.246 396.58C146.64 396.58 146.984 396.673 147.28 396.861C147.577 397.048 147.808 397.312 147.973 397.651C148.14 397.99 148.223 398.386 148.223 398.841C148.223 399.292 148.14 399.686 147.973 400.023C147.808 400.36 147.577 400.622 147.28 400.81C146.984 400.997 146.64 401.091 146.246 401.091ZM146.246 400.489C146.545 400.489 146.791 400.412 146.984 400.259C147.178 400.105 147.321 399.903 147.413 399.653C147.506 399.403 147.553 399.133 147.553 398.841C147.553 398.549 147.506 398.277 147.413 398.026C147.321 397.774 147.178 397.57 146.984 397.415C146.791 397.259 146.545 397.182 146.246 397.182C145.946 397.182 145.7 397.259 145.507 397.415C145.314 397.57 145.171 397.774 145.078 398.026C144.985 398.277 144.939 398.549 144.939 398.841C144.939 399.133 144.985 399.403 145.078 399.653C145.171 399.903 145.314 400.105 145.507 400.259C145.7 400.412 145.946 400.489 146.246 400.489ZM149.246 401V396.636H149.894V397.295H149.94C150.019 397.08 150.163 396.904 150.371 396.77C150.58 396.635 150.815 396.568 151.076 396.568C151.125 396.568 151.187 396.569 151.261 396.571C151.335 396.573 151.39 396.576 151.428 396.58V397.261C151.406 397.256 151.353 397.247 151.272 397.236C151.192 397.223 151.108 397.216 151.019 397.216C150.807 397.216 150.618 397.26 150.451 397.349C150.286 397.437 150.156 397.558 150.059 397.713C149.964 397.866 149.917 398.042 149.917 398.239V401H149.246ZM152.788 402.636C152.674 402.636 152.573 402.627 152.484 402.608C152.395 402.591 152.333 402.574 152.299 402.557L152.469 401.966C152.632 402.008 152.776 402.023 152.901 402.011C153.026 402 153.137 401.944 153.234 401.844C153.332 401.745 153.422 401.585 153.504 401.364L153.629 401.023L152.015 396.636H152.742L153.947 400.114H153.992L155.197 396.636H155.924L154.072 401.636C153.988 401.862 153.885 402.048 153.762 402.196C153.639 402.346 153.496 402.456 153.333 402.528C153.172 402.6 152.99 402.636 152.788 402.636Z" fill="black"/>
<path d="M176.705 395.182H177.545L179.523 400.011H179.591L181.568 395.182H182.409V401H181.75V396.58H181.693L179.875 401H179.239L177.42 396.58H177.364V401H176.705V395.182ZM185.56 401.091C185.14 401.091 184.777 400.998 184.472 400.812C184.169 400.625 183.935 400.364 183.771 400.028C183.608 399.691 183.526 399.299 183.526 398.852C183.526 398.405 183.608 398.011 183.771 397.67C183.935 397.328 184.165 397.061 184.458 396.869C184.754 396.676 185.098 396.58 185.492 396.58C185.719 396.58 185.944 396.617 186.165 396.693C186.387 396.769 186.589 396.892 186.771 397.062C186.952 397.231 187.097 397.455 187.205 397.733C187.313 398.011 187.367 398.354 187.367 398.761V399.045H184.004V398.466H186.685C186.685 398.22 186.636 398 186.538 397.807C186.441 397.614 186.303 397.461 186.123 397.349C185.945 397.238 185.735 397.182 185.492 397.182C185.225 397.182 184.994 397.248 184.799 397.381C184.606 397.511 184.457 397.682 184.353 397.892C184.249 398.102 184.197 398.328 184.197 398.568V398.955C184.197 399.284 184.254 399.563 184.367 399.793C184.483 400.02 184.643 400.193 184.847 400.312C185.052 400.43 185.29 400.489 185.56 400.489C185.737 400.489 185.896 400.464 186.038 400.415C186.182 400.364 186.306 400.288 186.41 400.188C186.514 400.085 186.594 399.958 186.651 399.807L187.299 399.989C187.231 400.208 187.116 400.402 186.955 400.568C186.794 400.733 186.595 400.862 186.359 400.955C186.122 401.045 185.856 401.091 185.56 401.091Z" fill="black"/>
<path d="M90.8175 393.503H90.113C90.0713 393.301 89.9984 393.123 89.8942 392.969C89.7919 392.816 89.6669 392.687 89.5192 392.583C89.3734 392.477 89.2115 392.397 89.0334 392.344C88.8554 392.291 88.6698 392.265 88.4766 392.265C88.1243 392.265 87.8052 392.354 87.5192 392.532C87.2351 392.71 87.0088 392.972 86.8402 393.319C86.6736 393.665 86.5902 394.091 86.5902 394.594C86.5902 395.098 86.6736 395.523 86.8402 395.87C87.0088 396.216 87.2351 396.479 87.5192 396.657C87.8052 396.835 88.1243 396.924 88.4766 396.924C88.6698 396.924 88.8554 396.897 89.0334 396.844C89.2115 396.791 89.3734 396.713 89.5192 396.609C89.6669 396.502 89.7919 396.373 89.8942 396.219C89.9984 396.064 90.0713 395.886 90.113 395.685H90.8175C90.7645 395.983 90.6679 396.249 90.5277 396.484C90.3876 396.718 90.2133 396.918 90.005 397.083C89.7967 397.246 89.5628 397.37 89.3033 397.455C89.0457 397.54 88.7702 397.583 88.4766 397.583C87.9804 397.583 87.5391 397.462 87.1527 397.219C86.7664 396.977 86.4624 396.632 86.2408 396.185C86.0192 395.738 85.9084 395.208 85.9084 394.594C85.9084 393.981 86.0192 393.45 86.2408 393.003C86.4624 392.556 86.7664 392.212 87.1527 391.969C87.5391 391.727 87.9804 391.606 88.4766 391.606C88.7702 391.606 89.0457 391.648 89.3033 391.734C89.5628 391.819 89.7967 391.944 90.005 392.109C90.2133 392.271 90.3876 392.47 90.5277 392.705C90.6679 392.938 90.7645 393.204 90.8175 393.503ZM91.8651 397.503V393.14H92.5128V393.799H92.5583C92.6378 393.583 92.7818 393.408 92.9901 393.273C93.1984 393.139 93.4333 393.072 93.6946 393.072C93.7439 393.072 93.8054 393.073 93.8793 393.074C93.9532 393.076 94.009 393.079 94.0469 393.083V393.765C94.0242 393.759 93.9721 393.751 93.8907 393.739C93.8111 393.726 93.7268 393.719 93.6378 393.719C93.4257 393.719 93.2363 393.764 93.0696 393.853C92.9049 393.94 92.7742 394.061 92.6776 394.216C92.5829 394.37 92.5356 394.545 92.5356 394.742V397.503H91.8651ZM96.5384 397.594C96.1179 397.594 95.7552 397.502 95.4503 397.316C95.1473 397.128 94.9134 396.867 94.7486 396.532C94.5857 396.195 94.5043 395.803 94.5043 395.356C94.5043 394.909 94.5857 394.515 94.7486 394.174C94.9134 393.831 95.1426 393.564 95.4361 393.373C95.7316 393.18 96.0763 393.083 96.4702 393.083C96.6975 393.083 96.9219 393.121 97.1435 393.197C97.3651 393.272 97.5668 393.395 97.7486 393.566C97.9304 393.734 98.0753 393.958 98.1833 394.236C98.2912 394.515 98.3452 394.858 98.3452 395.265V395.549H94.9816V394.969H97.6634C97.6634 394.723 97.6142 394.503 97.5157 394.31C97.4191 394.117 97.2808 393.965 97.1009 393.853C96.9229 393.741 96.7126 393.685 96.4702 393.685C96.2032 393.685 95.9721 393.752 95.777 393.884C95.5838 394.015 95.4352 394.185 95.331 394.395C95.2268 394.606 95.1748 394.831 95.1748 395.072V395.458C95.1748 395.788 95.2316 396.067 95.3452 396.296C95.4607 396.523 95.6208 396.697 95.8253 396.816C96.0299 396.933 96.2676 396.992 96.5384 396.992C96.7145 396.992 96.8736 396.967 97.0157 396.918C97.1596 396.867 97.2837 396.791 97.3878 396.691C97.492 396.589 97.5725 396.462 97.6293 396.31L98.277 396.492C98.2088 396.712 98.0943 396.905 97.9333 397.072C97.7723 397.236 97.5734 397.365 97.3367 397.458C97.0999 397.549 96.8338 397.594 96.5384 397.594ZM100.649 397.606C100.373 397.606 100.122 397.554 99.8963 397.449C99.671 397.343 99.492 397.191 99.3594 396.992C99.2268 396.791 99.1606 396.549 99.1606 396.265C99.1606 396.015 99.2098 395.812 99.3083 395.657C99.4068 395.5 99.5384 395.377 99.7032 395.288C99.8679 395.198 100.05 395.132 100.249 395.089C100.449 395.043 100.651 395.007 100.854 394.981C101.119 394.947 101.334 394.921 101.499 394.904C101.665 394.885 101.786 394.854 101.862 394.81C101.94 394.767 101.979 394.691 101.979 394.583V394.56C101.979 394.28 101.902 394.062 101.749 393.907C101.597 393.752 101.367 393.674 101.058 393.674C100.738 393.674 100.487 393.744 100.305 393.884C100.124 394.024 99.9958 394.174 99.9219 394.333L99.2856 394.106C99.3992 393.841 99.5507 393.634 99.7401 393.486C99.9314 393.337 100.14 393.233 100.365 393.174C100.592 393.113 100.816 393.083 101.036 393.083C101.176 393.083 101.337 393.1 101.519 393.134C101.702 393.166 101.879 393.234 102.05 393.336C102.222 393.438 102.365 393.592 102.479 393.799C102.592 394.005 102.649 394.282 102.649 394.628V397.503H101.979V396.913H101.945C101.899 397.007 101.823 397.109 101.717 397.216C101.611 397.324 101.47 397.416 101.294 397.492C101.118 397.568 100.903 397.606 100.649 397.606ZM100.751 397.003C101.017 397.003 101.24 396.951 101.422 396.847C101.606 396.743 101.744 396.609 101.837 396.444C101.931 396.279 101.979 396.106 101.979 395.924V395.31C101.95 395.344 101.888 395.376 101.791 395.404C101.697 395.431 101.587 395.454 101.462 395.475C101.339 395.494 101.218 395.511 101.101 395.526C100.985 395.539 100.892 395.551 100.82 395.56C100.645 395.583 100.483 395.62 100.331 395.671C100.181 395.72 100.06 395.795 99.9674 395.895C99.8765 395.994 99.831 396.128 99.831 396.299C99.831 396.532 99.9172 396.708 100.09 396.827C100.264 396.945 100.484 397.003 100.751 397.003ZM105.771 393.14V393.708H103.509V393.14H105.771ZM104.168 392.094H104.839V396.253C104.839 396.443 104.866 396.585 104.921 396.68C104.978 396.772 105.05 396.835 105.137 396.867C105.226 396.897 105.32 396.913 105.418 396.913C105.492 396.913 105.553 396.909 105.6 396.901C105.648 396.892 105.685 396.884 105.714 396.878L105.85 397.481C105.805 397.498 105.741 397.515 105.66 397.532C105.578 397.551 105.475 397.56 105.35 397.56C105.161 397.56 104.975 397.52 104.793 397.438C104.613 397.357 104.464 397.233 104.345 397.066C104.227 396.899 104.168 396.689 104.168 396.435V392.094ZM106.779 397.503V393.14H107.45V397.503H106.779ZM107.12 392.413C106.989 392.413 106.877 392.368 106.782 392.279C106.689 392.19 106.643 392.083 106.643 391.958C106.643 391.833 106.689 391.726 106.782 391.637C106.877 391.548 106.989 391.503 107.12 391.503C107.251 391.503 107.362 391.548 107.455 391.637C107.55 391.726 107.597 391.833 107.597 391.958C107.597 392.083 107.55 392.19 107.455 392.279C107.362 392.368 107.251 392.413 107.12 392.413ZM110.45 397.594C110.056 397.594 109.711 397.501 109.413 397.313C109.118 397.126 108.887 396.863 108.72 396.526C108.555 396.189 108.473 395.795 108.473 395.344C108.473 394.89 108.555 394.493 108.72 394.154C108.887 393.815 109.118 393.552 109.413 393.364C109.711 393.177 110.056 393.083 110.45 393.083C110.844 393.083 111.189 393.177 111.484 393.364C111.782 393.552 112.013 393.815 112.178 394.154C112.344 394.493 112.428 394.89 112.428 395.344C112.428 395.795 112.344 396.189 112.178 396.526C112.013 396.863 111.782 397.126 111.484 397.313C111.189 397.501 110.844 397.594 110.45 397.594ZM110.45 396.992C110.75 396.992 110.996 396.915 111.189 396.762C111.382 396.609 111.525 396.407 111.618 396.157C111.711 395.907 111.757 395.636 111.757 395.344C111.757 395.053 111.711 394.781 111.618 394.529C111.525 394.277 111.382 394.073 111.189 393.918C110.996 393.763 110.75 393.685 110.45 393.685C110.151 393.685 109.905 393.763 109.712 393.918C109.519 394.073 109.376 394.277 109.283 394.529C109.19 394.781 109.144 395.053 109.144 395.344C109.144 395.636 109.19 395.907 109.283 396.157C109.376 396.407 109.519 396.609 109.712 396.762C109.905 396.915 110.151 396.992 110.45 396.992ZM114.121 394.878V397.503H113.451V393.14H114.099V393.822H114.156C114.258 393.6 114.413 393.422 114.621 393.288C114.83 393.151 115.099 393.083 115.428 393.083C115.724 393.083 115.982 393.144 116.204 393.265C116.425 393.384 116.598 393.566 116.721 393.81C116.844 394.053 116.906 394.359 116.906 394.731V397.503H116.235V394.776C116.235 394.433 116.146 394.166 115.968 393.975C115.79 393.782 115.546 393.685 115.235 393.685C115.021 393.685 114.83 393.732 114.661 393.824C114.495 393.917 114.363 394.053 114.266 394.231C114.17 394.409 114.121 394.625 114.121 394.878ZM94.8637 401.685V407.503H94.1591V401.685H94.8637ZM97.9581 407.594C97.549 407.594 97.1968 407.498 96.9013 407.305C96.6059 407.111 96.3786 406.845 96.2195 406.506C96.0604 406.167 95.9809 405.78 95.9809 405.344C95.9809 404.901 96.0623 404.51 96.2252 404.171C96.39 403.83 96.6191 403.564 96.9127 403.373C97.2081 403.18 97.5528 403.083 97.9468 403.083C98.2536 403.083 98.5301 403.14 98.7763 403.253C99.0225 403.367 99.2242 403.526 99.3814 403.731C99.5386 403.935 99.6362 404.174 99.674 404.447H99.0036C98.9525 404.248 98.8388 404.072 98.6627 403.918C98.4884 403.763 98.2536 403.685 97.9581 403.685C97.6968 403.685 97.4676 403.753 97.2706 403.89C97.0756 404.024 96.9231 404.215 96.8133 404.461C96.7053 404.705 96.6513 404.992 96.6513 405.322C96.6513 405.659 96.7043 405.952 96.8104 406.202C96.9184 406.452 97.0699 406.646 97.265 406.785C97.4619 406.923 97.693 406.992 97.9581 406.992C98.1324 406.992 98.2905 406.962 98.4326 406.901C98.5746 406.841 98.6949 406.753 98.7934 406.64C98.8918 406.526 98.9619 406.39 99.0036 406.231H99.674C99.6362 406.488 99.5424 406.72 99.3928 406.927C99.2451 407.131 99.049 407.294 98.8047 407.415C98.5623 407.535 98.2801 407.594 97.9581 407.594ZM102.427 407.594C102.033 407.594 101.687 407.501 101.39 407.313C101.095 407.126 100.863 406.863 100.697 406.526C100.532 406.189 100.45 405.795 100.45 405.344C100.45 404.89 100.532 404.493 100.697 404.154C100.863 403.815 101.095 403.552 101.39 403.364C101.687 403.177 102.033 403.083 102.427 403.083C102.821 403.083 103.166 403.177 103.461 403.364C103.758 403.552 103.989 403.815 104.154 404.154C104.321 404.493 104.404 404.89 104.404 405.344C104.404 405.795 104.321 406.189 104.154 406.526C103.989 406.863 103.758 407.126 103.461 407.313C103.166 407.501 102.821 407.594 102.427 407.594ZM102.427 406.992C102.726 406.992 102.972 406.915 103.166 406.762C103.359 406.609 103.502 406.407 103.595 406.157C103.687 405.907 103.734 405.636 103.734 405.344C103.734 405.053 103.687 404.781 103.595 404.529C103.502 404.277 103.359 404.073 103.166 403.918C102.972 403.763 102.726 403.685 102.427 403.685C102.128 403.685 101.881 403.763 101.688 403.918C101.495 404.073 101.352 404.277 101.259 404.529C101.166 404.781 101.12 405.053 101.12 405.344C101.12 405.636 101.166 405.907 101.259 406.157C101.352 406.407 101.495 406.609 101.688 406.762C101.881 406.915 102.128 406.992 102.427 406.992ZM106.098 404.878V407.503H105.428V403.14H106.075V403.822H106.132C106.234 403.6 106.39 403.422 106.598 403.288C106.806 403.151 107.075 403.083 107.405 403.083C107.7 403.083 107.959 403.144 108.18 403.265C108.402 403.384 108.574 403.566 108.697 403.81C108.821 404.053 108.882 404.359 108.882 404.731V407.503H108.212V404.776C108.212 404.433 108.123 404.166 107.945 403.975C107.767 403.782 107.522 403.685 107.212 403.685C106.998 403.685 106.806 403.732 106.638 403.824C106.471 403.917 106.34 404.053 106.243 404.231C106.146 404.409 106.098 404.625 106.098 404.878Z" fill="black"/>
</svg>
