<svg width="39" height="28" viewBox="0 0 39 28" fill="none" xmlns="http://www.w3.org/2000/svg">
<g id="Me Back Icon">
<path id="Vector" fill-rule="evenodd" clip-rule="evenodd" d="M19.4771 23.9885C14.3798 23.9885 9.56752 23.3781 5.95263 22.2872C2.10968 21.1162 0 19.495 0 17.7036C0 15.4518 3.2842 13.5003 9.02017 12.3595C9.37367 12.2894 9.72717 12.4796 9.80699 12.7898C9.88681 13.1 9.67015 13.4102 9.31666 13.4803C4.45872 14.4511 1.32276 16.1023 1.32276 17.6936C1.32276 18.9345 3.17017 20.2155 6.39735 21.1862C9.88681 22.247 14.5395 22.8275 19.4999 22.8275C24.4604 22.8275 29.1131 22.2471 32.6026 21.1862C35.8298 20.2054 37.6772 18.9345 37.6772 17.6936C37.6772 16.1023 34.5413 14.4411 29.6833 13.4803C29.3299 13.4102 29.1132 13.1 29.193 12.7898C29.2728 12.4796 29.6263 12.2894 29.9798 12.3595C35.7158 13.5003 39 15.4518 39 17.7036C39 19.4949 36.8789 21.1262 33.0474 22.2872C29.3753 23.3781 24.5745 23.9885 19.4771 23.9885Z" fill="#6D86FF"/>
<path id="Vector_2" fill-rule="evenodd" clip-rule="evenodd" d="M27.3797 18.1639H11.563C9.69281 18.1639 8.16479 16.8229 8.16479 15.1816C8.16479 9.84754 13.114 5.50415 19.192 5.50415H19.7394C25.8174 5.50415 30.7666 9.84754 30.7666 15.1816C30.778 16.8229 29.2499 18.1639 27.3797 18.1639ZM19.192 6.65509C13.8324 6.65509 9.47626 10.478 9.47626 15.1816C9.47626 16.1924 10.4113 17.0131 11.5631 17.0131H27.3684C28.5201 17.0131 29.4552 16.1925 29.4552 15.1816C29.4552 10.478 25.0992 6.65509 19.7394 6.65509H19.192Z" fill="#6D86FF"/>
<path id="Vector_3" fill-rule="evenodd" clip-rule="evenodd" d="M12.133 12.7898C12.0418 12.7898 11.9391 12.7698 11.8479 12.7297C11.5172 12.5896 11.3804 12.2494 11.54 11.9592C12.5093 10.1978 14.2769 8.80677 16.3751 8.14618C16.7172 8.0361 17.0935 8.19622 17.219 8.49644C17.3444 8.79666 17.162 9.1269 16.8199 9.23698C15.0409 9.78739 13.5471 10.9684 12.7261 12.4594C12.612 12.6697 12.3726 12.7898 12.133 12.7898ZM19.4769 8.81678C19.112 8.81678 18.8155 8.55658 18.8155 8.23635V4.06309C18.8155 3.74286 19.112 3.48267 19.4769 3.48267C19.8418 3.48267 20.1383 3.74286 20.1383 4.06309V8.23635C20.1269 8.55648 19.8304 8.81678 19.4769 8.81678Z" fill="#6D86FF"/>
<path id="Vector_4" fill-rule="evenodd" clip-rule="evenodd" d="M19.4773 4.6436C18.0177 4.6436 16.8317 3.60284 16.8317 2.3218C16.8317 1.04086 18.0176 0 19.4773 0C20.937 0 22.123 1.04086 22.123 2.3218C22.123 3.60274 20.9369 4.6436 19.4773 4.6436ZM19.4773 1.15084C18.7361 1.15084 18.1432 1.68123 18.1432 2.3218C18.1432 2.97228 18.7475 3.49276 19.4773 3.49276C20.2185 3.49276 20.8116 2.96237 20.8116 2.3218C20.8115 1.67133 20.2071 1.15084 19.4773 1.15084ZM24.3124 27.2211H14.6308C11.4264 27.2211 8.58694 25.2195 7.89135 22.4774C7.81153 22.1671 8.0396 21.8569 8.39309 21.7869C8.74659 21.7168 9.10008 21.917 9.1799 22.2272C9.73865 24.4589 12.0422 26.0702 14.6308 26.0702H24.3124C26.9124 26.0702 29.2045 24.4489 29.7633 22.2272C29.8431 21.917 30.1966 21.7168 30.5501 21.7869C30.9036 21.8569 31.1316 22.1671 31.0518 22.4774C30.3563 25.2295 27.5282 27.2211 24.3124 27.2211ZM13.0116 20.9962C12.966 20.9962 12.9203 20.9962 12.8747 20.9862L11.7344 20.776C11.3809 20.706 11.1529 20.4058 11.2213 20.0955C11.3011 19.7853 11.6432 19.5852 11.9967 19.6452L13.137 19.8554C13.4905 19.9254 13.7186 20.2256 13.6501 20.5359C13.5931 20.806 13.3194 20.9962 13.0116 20.9962ZM8.22204 19.6951C8.14222 19.6951 8.0624 19.6851 7.98258 19.6551L6.86496 19.2748C6.52287 19.1547 6.36323 18.8245 6.48866 18.5243C6.6255 18.2241 7.0018 18.084 7.34389 18.194L8.46151 18.5743C8.8036 18.6944 8.96324 19.0246 8.83781 19.3249C8.73518 19.555 8.48431 19.6951 8.22204 19.6951ZM17.7782 21.3164C17.7554 21.3164 17.7326 21.3164 17.7097 21.3164L16.5694 21.2063C16.2045 21.1763 15.9423 20.8861 15.9879 20.5759C16.0335 20.2657 16.3528 20.0255 16.7063 20.0655L17.8466 20.1756C18.2115 20.2056 18.4737 20.4958 18.4281 20.8061C18.394 21.0963 18.1089 21.3164 17.7782 21.3164ZM25.9317 20.9462C25.6238 20.9462 25.3501 20.756 25.2931 20.4858C25.2133 20.1756 25.4414 19.8654 25.8063 19.8053L26.9466 19.5952C27.3001 19.5251 27.6536 19.7253 27.722 20.0455C27.8018 20.3557 27.5737 20.6659 27.2088 20.726L26.0685 20.9361C26.0229 20.9361 25.9773 20.9462 25.9317 20.9462ZM30.7212 19.6451C30.459 19.6451 30.2081 19.505 30.1055 19.2748C29.9686 18.9746 30.1397 18.6444 30.4818 18.5243L31.5994 18.144C31.9415 18.0239 32.3178 18.174 32.4546 18.4742C32.5914 18.7745 32.4204 19.1047 32.0783 19.2248L30.9607 19.6051C30.8809 19.6352 30.801 19.6451 30.7212 19.6451ZM21.1651 21.2664C20.8344 21.2664 20.5493 21.0462 20.5151 20.746C20.4809 20.4258 20.7432 20.1456 21.0967 20.1155L22.237 20.0055C22.5905 19.9754 22.9212 20.2056 22.9554 20.5158C22.9896 20.8261 22.7273 21.1163 22.3738 21.1463L21.2335 21.2564C21.2106 21.2664 21.1878 21.2664 21.1651 21.2664Z" fill="#6D86FF"/>
<path id="Vector_5" fill-rule="evenodd" clip-rule="evenodd" d="M19.5779 3.48949C20.2713 3.44396 20.8113 2.93309 20.8113 2.32184C20.8113 1.67126 20.2069 1.15088 19.477 1.15088C18.7358 1.15088 18.1428 1.68127 18.1428 2.32184C18.1428 2.94219 18.6925 3.44416 19.3764 3.48939C19.4092 3.48499 19.4429 3.48269 19.477 3.48269C19.5113 3.48279 19.5449 3.48499 19.5779 3.48949Z" fill="#FFCF52"/>
<path id="Vector_6" fill-rule="evenodd" clip-rule="evenodd" d="M29.4552 15.1817C29.4552 10.5955 25.3136 6.84641 20.1385 6.66218V8.23633C20.1271 8.55657 19.8307 8.81676 19.4772 8.81676C19.1123 8.81676 18.8158 8.55657 18.8158 8.23633V6.66138C14.5148 6.80568 10.9237 9.41209 9.82354 12.9177C9.82388 13.0184 9.79435 13.1156 9.74076 13.2006C9.56789 13.8364 9.47632 14.4998 9.47632 15.1816C9.47632 16.1924 10.4114 17.0131 11.5632 17.0131H27.3684C28.5201 17.0132 29.4552 16.1925 29.4552 15.1817ZM12.7263 12.4596C12.6123 12.6698 12.3728 12.7899 12.1333 12.7899C12.0421 12.7899 11.9395 12.7699 11.8483 12.7298C11.5176 12.5897 11.3807 12.2495 11.5404 11.9593C12.5096 10.1979 14.2772 8.80685 16.3755 8.14627C16.7176 8.03618 17.0939 8.1963 17.2193 8.49652C17.3448 8.79674 17.1623 9.12698 16.8202 9.23706C15.0411 9.78757 13.5473 10.9684 12.7263 12.4596Z" fill="#FFCF52"/>
<path id="Vector_7" fill-rule="evenodd" clip-rule="evenodd" d="M30.6344 13.6824C30.7215 14.1711 30.7666 14.672 30.7666 15.1818C30.778 16.823 29.2499 18.1641 27.3798 18.1641H11.5631C9.69284 18.1641 8.16483 16.8231 8.16483 15.1818C8.16483 14.6783 8.20896 14.1836 8.29391 13.7006C4.02312 14.6888 1.32275 16.2171 1.32275 17.6937C1.32275 18.9346 3.17017 20.2157 6.39735 21.1864C9.88681 22.2471 14.5395 22.8277 19.4999 22.8277C23.3948 22.8277 27.0999 22.4698 30.2012 21.8026C30.2347 21.7928 30.2691 21.7853 30.3044 21.7803C31.1149 21.6034 31.8835 21.4051 32.6025 21.1865C35.8297 20.2057 37.6771 18.9347 37.6771 17.6938C37.6771 16.2088 34.9465 14.6631 30.6344 13.6824ZM30.4814 18.5243L31.5991 18.144C31.9412 18.024 32.3175 18.1741 32.4543 18.4743C32.5911 18.7745 32.4201 19.1047 32.078 19.2248L30.9604 19.6051C30.8806 19.6351 30.8007 19.6451 30.7209 19.6451C30.4586 19.6451 30.2078 19.505 30.1051 19.2749C29.9683 18.9747 30.1394 18.6444 30.4814 18.5243ZM8.83761 19.3249C8.73498 19.5551 8.48411 19.6952 8.22184 19.6952C8.14202 19.6952 8.0622 19.6852 7.98238 19.6551L6.86476 19.2749C6.52267 19.1548 6.36303 18.8245 6.48846 18.5243C6.6253 18.2241 7.0016 18.084 7.34369 18.1941L8.46131 18.5744C8.8034 18.6944 8.96304 19.0247 8.83761 19.3249ZM16.7061 20.0656L17.8464 20.1756C18.2113 20.2057 18.4736 20.4959 18.4279 20.8061C18.3937 21.0963 18.1087 21.3165 17.778 21.3165H17.7095L16.5692 21.2064C16.2043 21.1764 15.9421 20.8862 15.9877 20.5759C16.0333 20.2657 16.3526 20.0254 16.7061 20.0656ZM22.2368 20.0055C22.5903 19.9755 22.921 20.2057 22.9552 20.5159C22.9894 20.8261 22.7271 21.1163 22.3736 21.1463L21.2333 21.2564C21.2105 21.2664 21.1877 21.2664 21.1649 21.2664C20.8342 21.2664 20.5491 21.0463 20.5149 20.746C20.4807 20.4258 20.743 20.1456 21.0965 20.1156L22.2368 20.0055ZM26.9465 19.5951C27.3 19.5251 27.6535 19.7252 27.7219 20.0454C27.8017 20.3557 27.5737 20.6659 27.2088 20.7259L26.0685 20.9361C26.0228 20.9361 25.9772 20.9461 25.9316 20.9461C25.6237 20.9461 25.3501 20.756 25.293 20.4858C25.2132 20.1755 25.4413 19.8653 25.8062 19.8053L26.9465 19.5951ZM13.6499 20.5359C13.5929 20.8061 13.3192 20.9962 13.0114 20.9962C12.9658 20.9962 12.9201 20.9962 12.8745 20.9862L11.7342 20.7761C11.3807 20.706 11.1527 20.4058 11.2211 20.0956C11.3009 19.7853 11.643 19.5852 11.9965 19.6452L13.1368 19.8554C13.4903 19.9253 13.7184 20.2256 13.6499 20.5359Z" fill="#FF621F"/>
<path id="Vector_8" fill-rule="evenodd" clip-rule="evenodd" d="M29.4198 23.1433C26.4374 23.6922 23.0292 23.9886 19.4772 23.9886C15.9151 23.9886 12.4921 23.6905 9.51978 23.1387C10.3994 24.8846 12.4101 26.0702 14.6307 26.0702H24.3123C26.5393 26.0702 28.5404 24.8808 29.4198 23.1433Z" fill="#FFCF52"/>
</g>
</svg>
